<svg xmlns="http://www.w3.org/2000/svg" viewBox="0 0 30 30"><title>ic_cardkey</title><path d="M27.44,27.8h-2.1a.5.5,0,0,1-.5-.5.5.5,0,0,1,.5-.5h2.1a.51.51,0,0,0,.5-.53V2.75a.51.51,0,0,0-.5-.52h-2.1a.5.5,0,0,1-.5-.5.5.5,0,0,1,.5-.5h2.1a1.51,1.51,0,0,1,1.5,1.52V26.27A1.52,1.52,0,0,1,27.44,27.8Z" style="fill:#383838"/><path d="M25.34,27.8H22.93a.5.5,0,0,1-.5-.5.5.5,0,0,1,.5-.5h2.41a.5.5,0,0,1,.5.5A.5.5,0,0,1,25.34,27.8Z" style="fill:#383838"/><path d="M25.34,2.23H4.65a.5.5,0,0,1-.5-.5.5.5,0,0,1,.5-.5H25.34a.5.5,0,0,1,.5.5A.5.5,0,0,1,25.34,2.23Z" style="fill:#383838"/><path d="M14,27.8H5a.51.51,0,0,1-.5-.5.5.5,0,0,1,.5-.5h9a.5.5,0,0,1,.5.5A.5.5,0,0,1,14,27.8Z" style="fill:#383838"/><path d="M4.65,27.8H2.44a1.52,1.52,0,0,1-1.5-1.53V2.75a1.52,1.52,0,0,1,1.5-1.52H4.65a.5.5,0,0,1,.5.5.5.5,0,0,1-.5.5H2.44a.51.51,0,0,0-.5.52V26.27a.52.52,0,0,0,.5.53H4.65a.5.5,0,0,1,.5.5A.5.5,0,0,1,4.65,27.8Z" style="fill:#383838"/><path d="M4.65,27.8a.5.5,0,0,1-.5-.5V1.73a.5.5,0,0,1,1,0V27.3A.5.5,0,0,1,4.65,27.8Z" style="fill:#383838"/><path d="M25.34,27.8a.5.5,0,0,1-.5-.5V1.73a.5.5,0,0,1,1,0V27.3A.5.5,0,0,1,25.34,27.8Z" style="fill:#383838"/><path d="M18.94,16a.5.5,0,0,1-.5-.5V6.19a.51.51,0,0,0-.5-.52H11.43a.5.5,0,0,1,0-1h6.51a1.51,1.51,0,0,1,1.5,1.52v9.26A.5.5,0,0,1,18.94,16Z" style="fill:#383838"/><path d="M11.43,19.19H9.6a1.52,1.52,0,0,1-1.5-1.52V6.19A1.52,1.52,0,0,1,9.6,4.67h1.83a.5.5,0,0,1,0,1H9.6a.51.51,0,0,0-.5.52V17.67a.51.51,0,0,0,.5.52h1.83a.5.5,0,0,1,.5.5A.5.5,0,0,1,11.43,19.19Z" style="fill:#383838"/><path d="M12.59,19.19H11.43a.5.5,0,0,1-.5-.5.5.5,0,0,1,.5-.5h1.16a.5.5,0,0,1,.5.5A.5.5,0,0,1,12.59,19.19Z" style="fill:#383838"/><path d="M17.24,19.19H12.59a.5.5,0,0,1-.5-.5.51.51,0,0,1,.5-.5h4.65a.5.5,0,0,1,.5.5A.5.5,0,0,1,17.24,19.19Z" style="fill:#383838"/><path d="M11.43,19.19a.5.5,0,0,1-.5-.5V5.17a.5.5,0,0,1,1,0V18.69A.5.5,0,0,1,11.43,19.19Z" style="fill:#383838"/><path d="M16,10.78a.5.5,0,0,1-.5-.5V7.38a.5.5,0,1,1,1,0v2.9A.5.5,0,0,1,16,10.78Z" style="fill:#383838"/><path d="M13.73,12.13a.5.5,0,0,1-.5-.5V7.38a.5.5,0,1,1,1,0v4.25A.5.5,0,0,1,13.73,12.13Z" style="fill:#383838"/><path d="M17.24,19.19a.51.51,0,0,1-.42-.23l-2.13-3.27a2.16,2.16,0,0,1,.58-2.94,2.07,2.07,0,0,1,1.57-.31,2,2,0,0,1,1.33.91l1.19,1.83a.5.5,0,0,1-.15.69.49.49,0,0,1-.69-.15l-1.19-1.83a1,1,0,0,0-.69-.47,1.06,1.06,0,0,0-.81.16,1.14,1.14,0,0,0-.3,1.56l2.13,3.28a.5.5,0,0,1-.14.69A.48.48,0,0,1,17.24,19.19Z" style="fill:#383838"/><path d="M15,24.21a.51.51,0,0,1-.5-.5V22.42a9.58,9.58,0,0,1-2.33-3.53.51.51,0,0,1,.27-.66.49.49,0,0,1,.65.27,7.78,7.78,0,0,0,2.19,3.26.5.5,0,0,1,.22.42v1.53A.5.5,0,0,1,15,24.21Z" style="fill:#383838"/><path d="M22.93,24.21a.5.5,0,0,1-.5-.5V19.37c0-7.66-3.65-10.09-3.68-10.12a.5.5,0,0,1-.15-.69.49.49,0,0,1,.68-.15c.17.1,4.15,2.7,4.15,11v4.34A.5.5,0,0,1,22.93,24.21Z" style="fill:#383838"/><path d="M23.65,26.18h-.72a.5.5,0,0,1-.5-.5.5.5,0,0,1,.5-.5h.22v-1h-.22a.5.5,0,0,1-.5-.5.5.5,0,0,1,.5-.5h.72a.5.5,0,0,1,.5.5v2A.5.5,0,0,1,23.65,26.18Z" style="fill:#383838"/><path d="M14.34,26.18h-.46a.5.5,0,0,1-.5-.5v-2a.5.5,0,0,1,.5-.5H15a.5.5,0,0,1,.5.5.5.5,0,0,1-.5.5h-.58v1a.51.51,0,0,1,.46.5A.5.5,0,0,1,14.34,26.18Z" style="fill:#383838"/><path d="M22.93,24.21H15a.51.51,0,0,1-.5-.5.5.5,0,0,1,.5-.5h8a.5.5,0,0,1,.5.5A.5.5,0,0,1,22.93,24.21Z" style="fill:#383838"/><path d="M22.93,29.23H14.34a.5.5,0,0,1-.5-.5V27.3a.5.5,0,0,1,.5-.5.5.5,0,0,1,.5.5v.93h7.59V27.3a.5.5,0,0,1,1,0v1.43A.5.5,0,0,1,22.93,29.23Z" style="fill:#383838"/><path d="M22.93,27.8a.5.5,0,0,1-.5-.5V25.68a.5.5,0,0,1,1,0V27.3A.5.5,0,0,1,22.93,27.8Z" style="fill:#383838"/><path d="M14.34,27.8a.5.5,0,0,1-.5-.5V25.68a.5.5,0,0,1,.5-.5.51.51,0,0,1,.5.5V27.3A.51.51,0,0,1,14.34,27.8Z" style="fill:#383838"/><path d="M22.93,26.18H14.34a.5.5,0,0,1-.5-.5.5.5,0,0,1,.5-.5h8.59a.5.5,0,0,1,.5.5A.5.5,0,0,1,22.93,26.18Z" style="fill:#383838"/></svg>