<svg xmlns="http://www.w3.org/2000/svg" viewBox="0 0 30 30"><title>ic_cctv</title><path d="M26.87,15.69H3.54a.5.5,0,0,1-.5-.5V13.1H2.58a1.5,1.5,0,0,1-1.5-1.5v-.55a1.5,1.5,0,0,1,1.5-1.5h25a1.5,1.5,0,0,1,1.5,1.5v.55a1.5,1.5,0,0,1-1.5,1.5h-.21v2.09A.5.5,0,0,1,26.87,15.69ZM4,14.69H26.37V12.6a.5.5,0,0,1,.5-.5h.71a.5.5,0,0,0,.5-.5v-.55a.5.5,0,0,0-.5-.5h-25a.5.5,0,0,0-.5.5v.55a.5.5,0,0,0,.5.5h1a.5.5,0,0,1,.5.5Z" style="fill:#383838"/><path d="M15.08,26A10.84,10.84,0,0,1,4.26,15.2a.5.5,0,0,1,.5-.5H25.41a.51.51,0,0,1,.5.5A10.84,10.84,0,0,1,15.08,26ZM5.27,15.7a9.82,9.82,0,0,0,19.62,0Z" style="fill:#383838"/><path d="M26.75,13.1H3.41a.5.5,0,1,1,0-1H26.75a.5.5,0,0,1,0,1Z" style="fill:#383838"/><path d="M26.75,10.32H3.41a.5.5,0,0,1-.5-.5V3.54a.5.5,0,0,1,.5-.5H26.75a.51.51,0,0,1,.5.5V9.82A.5.5,0,0,1,26.75,10.32Zm-22.84-1H26.25V4H3.91Z" style="fill:#383838"/><path d="M28.58,4h-27a.5.5,0,0,1-.5-.5.5.5,0,0,1,.5-.5h27a.51.51,0,0,1,.5.5A.5.5,0,0,1,28.58,4Z" style="fill:#383838"/><path d="M15.08,24a6.37,6.37,0,0,1-6.36-6.37A6.22,6.22,0,0,1,9.3,15a.49.49,0,0,1,.66-.24.5.5,0,0,1,.25.66,5.24,5.24,0,0,0-.49,2.22,5.36,5.36,0,1,0,10.72,0A5.24,5.24,0,0,0,20,15.41a.5.5,0,0,1,.25-.66.49.49,0,0,1,.66.24,6.36,6.36,0,0,1-5.78,9Z" style="fill:#383838"/><path d="M15.08,21.16a2.56,2.56,0,1,1,2.55-2.55A2.55,2.55,0,0,1,15.08,21.16Zm0-4.11a1.56,1.56,0,1,0,1.55,1.56A1.55,1.55,0,0,0,15.08,17.05Z" style="fill:#383838"/><path d="M2.18,24.48a.38.38,0,1,1,0-.75c1.44,0,1.68-2.13,1.68-2.15a.36.36,0,0,1,.41-.33.36.36,0,0,1,.33.41C4.51,22.63,3.87,24.48,2.18,24.48Z" style="fill:#383838"/><path d="M4.23,27a.38.38,0,0,1-.37-.34s-.24-2.15-1.68-2.15a.38.38,0,1,1,0-.75c1.69,0,2.33,1.85,2.42,2.82a.36.36,0,0,1-.33.41Z" style="fill:#383838"/><path d="M6.29,24.48c-1.7,0-2.33-1.85-2.43-2.82a.37.37,0,0,1,.33-.41.36.36,0,0,1,.41.33s.25,2.15,1.69,2.15a.38.38,0,0,1,0,.75Z" style="fill:#383838"/><path d="M4.23,27h0a.37.37,0,0,1-.33-.41c.1-1,.73-2.82,2.43-2.82a.38.38,0,0,1,0,.75c-1.44,0-1.68,2.13-1.69,2.15A.38.38,0,0,1,4.23,27Z" style="fill:#383838"/><path d="M20.94,26.64a.38.38,0,0,1-.38-.38.37.37,0,0,1,.38-.37c1.44,0,1.68-2.13,1.68-2.15A.38.38,0,0,1,23,23.4a.38.38,0,0,1,.34.41C23.27,24.79,22.64,26.64,20.94,26.64Z" style="fill:#383838"/><path d="M23,29.12a.37.37,0,0,1-.37-.33s-.24-2.15-1.68-2.15a.38.38,0,0,1-.38-.38.37.37,0,0,1,.38-.37c1.7,0,2.33,1.84,2.43,2.82a.37.37,0,0,1-.34.41Z" style="fill:#383838"/><path d="M25.05,26.64c-1.7,0-2.33-1.85-2.43-2.83a.38.38,0,0,1,.75-.07s.24,2.15,1.68,2.15a.37.37,0,0,1,.37.37A.38.38,0,0,1,25.05,26.64Z" style="fill:#383838"/><path d="M23,29.12h0a.37.37,0,0,1-.34-.41c.1-1,.73-2.82,2.43-2.82a.37.37,0,0,1,.37.37.38.38,0,0,1-.37.38c-1.45,0-1.68,2.12-1.68,2.15A.38.38,0,0,1,23,29.12Z" style="fill:#383838"/><path d="M26.07,19.13a.38.38,0,1,1,0-.75c1,0,1.16-1.51,1.16-1.53a.38.38,0,0,1,.42-.33.37.37,0,0,1,.33.41C27.9,17.69,27.41,19.13,26.07,19.13Z" style="fill:#383838"/><path d="M27.61,21a.39.39,0,0,1-.38-.33s-.17-1.53-1.16-1.53a.38.38,0,1,1,0-.75c1.34,0,1.83,1.44,1.91,2.2a.37.37,0,0,1-.33.41Z" style="fill:#383838"/><path d="M29.15,19.13c-1.34,0-1.84-1.44-1.92-2.2a.37.37,0,0,1,.34-.41.36.36,0,0,1,.41.33s.17,1.53,1.17,1.53a.38.38,0,0,1,0,.75Z" style="fill:#383838"/><path d="M27.61,21h0a.37.37,0,0,1-.34-.41c.08-.76.58-2.2,1.92-2.2a.38.38,0,0,1,0,.75c-1,0-1.17,1.51-1.17,1.53A.37.37,0,0,1,27.61,21Z" style="fill:#383838"/><path d="M24.61,8.22H21.37a.5.5,0,0,1-.5-.5V5.64a.51.51,0,0,1,.5-.5h3.24a.5.5,0,0,1,.5.5V7.72A.5.5,0,0,1,24.61,8.22Zm-2.74-1h2.24V6.14H21.87Z" style="fill:#383838"/></svg>