<svg xmlns="http://www.w3.org/2000/svg" viewBox="0 0 30 30"><title>ic_door</title><path d="M24.9,29H5.1a.5.5,0,0,1-.5-.5V1.5A.5.5,0,0,1,5.1,1H24.9a.5.5,0,0,1,.5.5v27A.5.5,0,0,1,24.9,29ZM5.6,28H24.4V2H5.6Z" style="fill:#383838"/><path d="M4.89,29H1.39a.5.5,0,0,1-.5-.5V24.1a.5.5,0,0,1,.5-.5h3.5a.5.5,0,0,1,.5.5v4.37A.5.5,0,0,1,4.89,29Zm-3-1h2.5V24.6H1.89Z" style="fill:#383838"/><path d="M28.37,29h-3.5a.5.5,0,0,1-.5-.5V24.13a.5.5,0,0,1,.5-.5h3.5a.5.5,0,0,1,.5.5V28.5A.5.5,0,0,1,28.37,29Zm-3-1h2.5V24.63h-2.5Z" style="fill:#383838"/><path d="M21.1,9.33H9a.5.5,0,0,1-.5-.5V4.9A.5.5,0,0,1,9,4.4H21.1a.5.5,0,0,1,.5.5V8.83A.5.5,0,0,1,21.1,9.33Zm-11.63-1H20.6V5.4H9.47Z" style="fill:#383838"/><path d="M24.87,26.52H5a.5.5,0,0,1-.5-.5.5.5,0,0,1,.5-.5H24.87a.5.5,0,0,1,.5.5A.51.51,0,0,1,24.87,26.52Z" style="fill:#383838"/><path d="M17.62,16.84H12.45a.5.5,0,0,1-.5-.5.5.5,0,0,1,.5-.5h5.17a.5.5,0,0,1,.5.5A.5.5,0,0,1,17.62,16.84Z" style="fill:#383838"/><path d="M18.08,22.77H12a1.47,1.47,0,0,1-1.43-1.5V17.34A1.47,1.47,0,0,1,12,15.84h.46a.51.51,0,0,1,.5.5.5.5,0,0,1-.5.5H12a.47.47,0,0,0-.43.5v3.93a.46.46,0,0,0,.43.5h6.09a.46.46,0,0,0,.43-.5V17.34a.47.47,0,0,0-.43-.5h-.46a.5.5,0,0,1-.5-.5.5.5,0,0,1,.5-.5h.46a1.47,1.47,0,0,1,1.43,1.5v3.93A1.47,1.47,0,0,1,18.08,22.77Z" style="fill:#383838"/><path d="M17.62,16.84a.5.5,0,0,1-.5-.5V14.58a1.43,1.43,0,0,0-1.36-1.5H14.31A1.43,1.43,0,0,0,13,14.58v1.76a.5.5,0,0,1-.5.5.5.5,0,0,1-.5-.5V14.58a2.44,2.44,0,0,1,2.36-2.5h1.45a2.44,2.44,0,0,1,2.36,2.5v1.76A.5.5,0,0,1,17.62,16.84Z" style="fill:#383838"/><path d="M15.3,20.68h-.53a.37.37,0,0,1-.38-.37v-.78a.86.86,0,0,1-.23-.59.88.88,0,1,1,1.51.59v.78A.36.36,0,0,1,15.3,20.68ZM15,18.82a.12.12,0,0,0-.12.12A.14.14,0,0,0,15,19a.15.15,0,0,1,.06.05A.18.18,0,0,1,15.1,19a.14.14,0,0,0,.06-.1A.12.12,0,0,0,15,18.82Z" style="fill:#383838"/><path d="M8.07,16.84A1.54,1.54,0,1,1,9.61,15.3,1.54,1.54,0,0,1,8.07,16.84Zm0-2.08a.54.54,0,0,0-.54.54.54.54,0,1,0,1.08,0A.54.54,0,0,0,8.07,14.76Z" style="fill:#383838"/></svg>