<svg xmlns="http://www.w3.org/2000/svg" viewBox="0 0 30 30"><title>ic_box</title><path d="M15,28.94H1.5a.5.5,0,0,1-.5-.5V15a.5.5,0,0,1,.5-.5H15a.5.5,0,0,1,.5.5V28.44A.5.5,0,0,1,15,28.94Zm-13-1H14.5V15.5H2Z" style="fill:#383838"/><path d="M28.5,28.94H15a.5.5,0,0,1-.5-.5V15a.5.5,0,0,1,.5-.5H28.5a.5.5,0,0,1,.5.5V28.44A.5.5,0,0,1,28.5,28.94Zm-13-1H28V15.5H15.5Z" style="fill:#383838"/><path d="M21.75,15.5H8.25a.5.5,0,0,1-.5-.5V1.56a.5.5,0,0,1,.5-.5H13a.5.5,0,0,1,.5.5.5.5,0,0,1-.5.5H8.75V14.5h12.5V2.06H17.33a.5.5,0,0,1-.5-.5.5.5,0,0,1,.5-.5h4.42a.5.5,0,0,1,.5.5V15A.5.5,0,0,1,21.75,15.5Z" style="fill:#383838"/><path d="M13.51,8.31a.38.38,0,0,1-.38-.38V1.56a.38.38,0,0,1,.75,0V7.93A.38.38,0,0,1,13.51,8.31Z" style="fill:#383838"/><path d="M16.72,8.31a.37.37,0,0,1-.37-.38V1.56a.37.37,0,0,1,.37-.37.38.38,0,0,1,.38.37V7.93A.38.38,0,0,1,16.72,8.31Z" style="fill:#383838"/><path d="M17.33,2.06H13a.5.5,0,0,1-.5-.5.51.51,0,0,1,.5-.5h4.38a.5.5,0,0,1,.5.5A.5.5,0,0,1,17.33,2.06Z" style="fill:#383838"/><path d="M16.72,8.31a.44.44,0,0,1-.22-.07l-.8-.58-.39.5a.38.38,0,0,1-.53.07.39.39,0,0,1-.07-.53l.62-.79a.37.37,0,0,1,.51-.07l1.1.79a.36.36,0,0,1,.08.52A.37.37,0,0,1,16.72,8.31Z" style="fill:#383838"/><path d="M15,8.31a.38.38,0,0,1-.3-.15l-.36-.47-.6.52a.37.37,0,0,1-.53,0,.38.38,0,0,1,0-.53l.89-.79a.36.36,0,0,1,.29-.09.4.4,0,0,1,.26.14l.61.79a.39.39,0,0,1-.07.53A.4.4,0,0,1,15,8.31Z" style="fill:#383838"/><path d="M6.64,21.69a.38.38,0,0,1-.37-.38V14.94a.38.38,0,0,1,.75,0v6.37A.38.38,0,0,1,6.64,21.69Z" style="fill:#383838"/><path d="M9.86,21.69a.38.38,0,0,1-.38-.38V14.94a.38.38,0,0,1,.75,0v6.37A.38.38,0,0,1,9.86,21.69Z" style="fill:#383838"/><path d="M9.86,21.69a.41.41,0,0,1-.22-.07L8.83,21l-.39.5a.37.37,0,0,1-.52.07.37.37,0,0,1-.07-.53l.61-.79A.38.38,0,0,1,9,20.22l1.1.79a.38.38,0,0,1-.22.68Z" style="fill:#383838"/><path d="M8.15,21.69a.36.36,0,0,1-.3-.15l-.37-.47-.59.52A.37.37,0,1,1,6.4,21l.89-.79a.38.38,0,0,1,.54.05l.61.79a.37.37,0,0,1-.07.53A.35.35,0,0,1,8.15,21.69Z" style="fill:#383838"/><path d="M20.14,21.69a.38.38,0,0,1-.37-.38V14.94a.38.38,0,0,1,.75,0v6.37A.38.38,0,0,1,20.14,21.69Z" style="fill:#383838"/><path d="M23.36,21.69a.38.38,0,0,1-.38-.38V14.94a.38.38,0,0,1,.75,0v6.37A.38.38,0,0,1,23.36,21.69Z" style="fill:#383838"/><path d="M23.36,21.69a.41.41,0,0,1-.22-.07L22.33,21l-.39.5a.37.37,0,0,1-.52.07.37.37,0,0,1-.07-.53l.61-.79a.38.38,0,0,1,.52-.07l1.1.79a.38.38,0,0,1-.22.68Z" style="fill:#383838"/><path d="M21.65,21.69a.36.36,0,0,1-.3-.15L21,21.07l-.59.52A.37.37,0,1,1,19.9,21l.89-.79a.38.38,0,0,1,.54.05l.61.79a.37.37,0,0,1-.07.53A.35.35,0,0,1,21.65,21.69Z" style="fill:#383838"/><path d="M15.14,12.86H10.38a.37.37,0,0,1-.37-.38V9.84a.37.37,0,0,1,.37-.38h4.76a.38.38,0,0,1,.38.38v2.64A.38.38,0,0,1,15.14,12.86Zm-4.38-.75h4v-1.9h-4Z" style="fill:#383838"/><path d="M19.82,10.72h-3.1a.38.38,0,0,1,0-.75h3.1a.38.38,0,1,1,0,.75Z" style="fill:#383838"/><path d="M19.05,12.35H16.72a.37.37,0,0,1-.37-.38.36.36,0,0,1,.37-.37h2.33a.36.36,0,0,1,.37.37A.37.37,0,0,1,19.05,12.35Z" style="fill:#383838"/><path d="M8.29,26.59H3.53a.38.38,0,0,1-.38-.37V23.58a.38.38,0,0,1,.38-.38H8.29a.37.37,0,0,1,.37.38v2.64A.37.37,0,0,1,8.29,26.59ZM3.9,25.84h4V24h-4Z" style="fill:#383838"/><path d="M13,24.46H9.87a.38.38,0,1,1,0-.75H13a.38.38,0,1,1,0,.75Z" style="fill:#383838"/><path d="M12.2,26.08H9.87a.37.37,0,0,1-.38-.37.38.38,0,0,1,.38-.38H12.2a.38.38,0,0,1,.37.38A.37.37,0,0,1,12.2,26.08Z" style="fill:#383838"/><path d="M21.79,26.59H17a.38.38,0,0,1-.38-.37V23.58A.38.38,0,0,1,17,23.2h4.76a.37.37,0,0,1,.37.38v2.64A.37.37,0,0,1,21.79,26.59Zm-4.39-.75h4V24h-4Z" style="fill:#383838"/><path d="M26.47,24.46h-3.1a.38.38,0,1,1,0-.75h3.1a.38.38,0,1,1,0,.75Z" style="fill:#383838"/><path d="M25.7,26.08H23.37a.37.37,0,0,1-.38-.37.38.38,0,0,1,.38-.38H25.7a.38.38,0,0,1,.37.38A.37.37,0,0,1,25.7,26.08Z" style="fill:#383838"/></svg>