<svg xmlns="http://www.w3.org/2000/svg" viewBox="0 0 30 30"><title>ic_fire_alarm</title><path d="M24.5,6.6H5.5a2.5,2.5,0,0,1,0-5h19a2.5,2.5,0,1,1,0,5Zm-19-4a1.5,1.5,0,0,0,0,3h19a1.5,1.5,0,1,0,0-3Z" style="fill:#383838"/><path d="M8.65,5h-3a.38.38,0,0,1-.37-.37v-1a.38.38,0,0,1,.37-.38h3A.38.38,0,0,1,9,3.6v1A.38.38,0,0,1,8.65,5ZM6,4.22H8.28V4H6Z" style="fill:#383838"/><path d="M24.15,4.6H21a.51.51,0,0,1-.5-.5.5.5,0,0,1,.5-.5h3.11a.5.5,0,0,1,.5.5A.51.51,0,0,1,24.15,4.6Z" style="fill:#383838"/><path d="M14.27,16.54h-2a.5.5,0,0,1-.5-.5.5.5,0,0,1,.5-.5h2a.5.5,0,0,1,.5.5A.5.5,0,0,1,14.27,16.54Z" style="fill:#383838"/><path d="M12.22,16.54H10.68a.5.5,0,0,1-.5-.5.5.5,0,0,1,.5-.5h1.54a.5.5,0,0,1,.5.5A.51.51,0,0,1,12.22,16.54Z" style="fill:#383838"/><path d="M10.68,16.54h-2a.49.49,0,0,1-.47-.35L5,6.25a.51.51,0,0,1,.33-.63A.51.51,0,0,1,6,6l3,9.59h1.66a.5.5,0,0,1,.5.5A.5.5,0,0,1,10.68,16.54Z" style="fill:#383838"/><path d="M15,16.54h-.73a.51.51,0,0,1-.5-.5.5.5,0,0,1,.5-.5H15a.5.5,0,0,1,.5.5A.5.5,0,0,1,15,16.54Z" style="fill:#383838"/><path d="M19.4,16.54H17.86a.51.51,0,0,1-.5-.5.5.5,0,0,1,.5-.5H19.4a.5.5,0,0,1,.5.5A.5.5,0,0,1,19.4,16.54Z" style="fill:#383838"/><path d="M21.6,16.54H19.4a.51.51,0,0,1-.5-.5.5.5,0,0,1,.5-.5h1.84l3-9.59a.5.5,0,1,1,.95.3l-3.15,9.94A.5.5,0,0,1,21.6,16.54Z" style="fill:#383838"/><path d="M17.86,16.54h-2a.5.5,0,0,1-.5-.5.5.5,0,0,1,.5-.5h2a.5.5,0,0,1,.5.5A.5.5,0,0,1,17.86,16.54Z" style="fill:#383838"/><path d="M15.81,16.54h-.55a.5.5,0,0,1-.5-.5.5.5,0,0,1,.5-.5h.55a.5.5,0,0,1,.5.5A.5.5,0,0,1,15.81,16.54Z" style="fill:#383838"/><path d="M12.22,16.41a.38.38,0,0,1-.38-.37V13.82a.39.39,0,0,0-.39-.4.4.4,0,0,0-.4.4V16a.37.37,0,0,1-.37.37A.38.38,0,0,1,10.3,16V13.82a1.15,1.15,0,1,1,2.29,0V16A.38.38,0,0,1,12.22,16.41Z" style="fill:#383838"/><path d="M15.81,16.41a.38.38,0,0,1-.38-.37V13.82a.39.39,0,1,0-.78,0V16a.38.38,0,0,1-.38.37A.37.37,0,0,1,13.9,16V13.82a1.14,1.14,0,1,1,2.28,0V16A.37.37,0,0,1,15.81,16.41Z" style="fill:#383838"/><path d="M19.4,16.41A.37.37,0,0,1,19,16V13.82a.4.4,0,1,0-.79,0V16a.38.38,0,0,1-.75,0V13.82a1.15,1.15,0,1,1,2.29,0V16A.38.38,0,0,1,19.4,16.41Z" style="fill:#383838"/><path d="M23.81,9.61H6.46a.5.5,0,0,1-.5-.5.5.5,0,0,1,.5-.5H23.81a.5.5,0,0,1,.5.5A.5.5,0,0,1,23.81,9.61Z" style="fill:#383838"/><path d="M12.51,21.52a.58.58,0,0,1-.26-.06.51.51,0,0,1-.17-.69,27.17,27.17,0,0,1,2.59-3.56.53.53,0,0,1,.76,0,27.31,27.31,0,0,1,2.51,3.43.5.5,0,0,1-.17.69.5.5,0,0,1-.68-.17,25.38,25.38,0,0,0-2-2.84,25.79,25.79,0,0,0-2.11,3A.5.5,0,0,1,12.51,21.52Z" style="fill:#383838"/><path d="M7.86,24.67a.5.5,0,0,1-.5-.5c0-1.94,2.83-5.22,3.15-5.58a.5.5,0,0,1,.38-.17h0a.48.48,0,0,1,.37.17,23.76,23.76,0,0,1,1.66,2.15.5.5,0,1,1-.83.56c-.44-.64-.9-1.23-1.21-1.61C9.94,20.85,8.36,23,8.36,24.17A.5.5,0,0,1,7.86,24.67Z" style="fill:#383838"/><path d="M22.07,24.67a.5.5,0,0,1-.5-.5C21.57,23,20,20.84,19,19.69c-.28.36-.7.89-1.12,1.48a.49.49,0,0,1-.69.13.51.51,0,0,1-.13-.7,20.7,20.7,0,0,1,1.57-2,.48.48,0,0,1,.37-.17h0a.5.5,0,0,1,.38.17c.32.36,3.15,3.64,3.15,5.58A.5.5,0,0,1,22.07,24.67Z" style="fill:#383838"/><path d="M18.07,29.08H11.86a4.68,4.68,0,0,1-4.5-4.83.54.54,0,0,1,.5-.54.46.46,0,0,1,.5.46,3.7,3.7,0,0,0,3.5,3.91h6.21a3.68,3.68,0,0,0,3.5-3.83.53.53,0,0,1,.5-.54.47.47,0,0,1,.5.46v.08A4.68,4.68,0,0,1,18.07,29.08Z" style="fill:#383838"/><path d="M13.85,25.38a.34.34,0,0,1-.19-.05.36.36,0,0,1-.13-.51,13.12,13.12,0,0,1,1.24-1.71.39.39,0,0,1,.56,0,13.54,13.54,0,0,1,1.21,1.64.38.38,0,1,1-.65.39A10.76,10.76,0,0,0,15.05,24a10.92,10.92,0,0,0-.88,1.25A.36.36,0,0,1,13.85,25.38Z" style="fill:#383838"/><path d="M11.65,26.87a.38.38,0,0,1-.37-.37c0-.95,1.27-2.45,1.52-2.73a.35.35,0,0,1,.28-.13h0a.37.37,0,0,1,.29.13,11.67,11.67,0,0,1,.79,1,.37.37,0,0,1-.1.52.38.38,0,0,1-.52-.1c-.16-.23-.32-.45-.46-.62A4.7,4.7,0,0,0,12,26.5.38.38,0,0,1,11.65,26.87Z" style="fill:#383838"/><path d="M18.37,26.87A.38.38,0,0,1,18,26.5a4.7,4.7,0,0,0-1-1.9c-.12.15-.27.35-.42.56a.37.37,0,1,1-.61-.43,9.52,9.52,0,0,1,.75-1,.37.37,0,0,1,.56,0c.25.28,1.52,1.78,1.52,2.73A.38.38,0,0,1,18.37,26.87Z" style="fill:#383838"/><path d="M16.48,29H13.54a2.36,2.36,0,0,1-2.26-2.43.39.39,0,0,1,.37-.39.36.36,0,0,1,.38.36,1.61,1.61,0,0,0,1.51,1.71h2.94A1.6,1.6,0,0,0,18,26.53a.4.4,0,0,1,.38-.39.36.36,0,0,1,.37.36v0A2.35,2.35,0,0,1,16.48,29Z" style="fill:#383838"/><path d="M4.41,26.53a.45.45,0,0,1-.19-.05A.39.39,0,0,1,4.09,26,8.7,8.7,0,0,1,5,24.79a.37.37,0,0,1,.28-.13h0a.37.37,0,0,1,.28.13,7.87,7.87,0,0,1,.83,1.13.37.37,0,0,1-.64.38,6.47,6.47,0,0,0-.47-.67,6.23,6.23,0,0,0-.49.71A.39.39,0,0,1,4.41,26.53Z" style="fill:#383838"/><path d="M2.92,27.54a.38.38,0,0,1-.37-.38,4.18,4.18,0,0,1,1.06-1.93.37.37,0,0,1,.28-.13h0a.37.37,0,0,1,.28.13,6.85,6.85,0,0,1,.55.71.37.37,0,1,1-.62.42l-.21-.29a2.74,2.74,0,0,0-.59,1.09A.38.38,0,0,1,2.92,27.54Z" style="fill:#383838"/><path d="M7.48,27.54a.38.38,0,0,1-.37-.38,2.8,2.8,0,0,0-.6-1.09l-.18.25a.36.36,0,0,1-.52.1.37.37,0,0,1-.1-.52,7.26,7.26,0,0,1,.52-.67.37.37,0,0,1,.28-.13h0a.37.37,0,0,1,.28.13,4.18,4.18,0,0,1,1.07,1.93A.38.38,0,0,1,7.48,27.54Z" style="fill:#383838"/><path d="M6.2,29h-2a1.72,1.72,0,0,1-1.66-1.77.39.39,0,0,1,.37-.39.37.37,0,0,1,.38.36,1,1,0,0,0,.91,1.05h2a1,1,0,0,0,.91-1,.39.39,0,0,1,.37-.39.37.37,0,0,1,.38.36v0A1.73,1.73,0,0,1,6.2,29Z" style="fill:#383838"/><path d="M24.09,26.53a.41.41,0,0,1-.19-.05.39.39,0,0,1-.14-.52,8.7,8.7,0,0,1,.86-1.17.38.38,0,0,1,.57,0A8.82,8.82,0,0,1,26,25.92a.38.38,0,0,1-.13.51.38.38,0,0,1-.52-.13,6.47,6.47,0,0,0-.47-.67,6.23,6.23,0,0,0-.49.71A.37.37,0,0,1,24.09,26.53Z" style="fill:#383838"/><path d="M22.59,27.54a.38.38,0,0,1-.37-.38,4.27,4.27,0,0,1,1.06-1.93.41.41,0,0,1,.29-.13h0a.39.39,0,0,1,.28.13,8.94,8.94,0,0,1,.55.71.38.38,0,0,1-.1.52.36.36,0,0,1-.52-.1l-.21-.29a2.67,2.67,0,0,0-.6,1.09A.38.38,0,0,1,22.59,27.54Z" style="fill:#383838"/><path d="M27.16,27.54a.38.38,0,0,1-.38-.38,2.74,2.74,0,0,0-.59-1.09l-.19.25a.36.36,0,0,1-.52.1.37.37,0,0,1-.09-.52,6.34,6.34,0,0,1,.51-.67.41.41,0,0,1,.29-.13h0a.39.39,0,0,1,.28.13,4.18,4.18,0,0,1,1.06,1.93A.38.38,0,0,1,27.16,27.54Z" style="fill:#383838"/><path d="M25.87,29h-2a1.73,1.73,0,0,1-1.66-1.77.39.39,0,0,1,.37-.39.37.37,0,0,1,.38.36,1,1,0,0,0,.91,1.05h2a1,1,0,0,0,.91-1,.39.39,0,0,1,.38-.39.37.37,0,0,1,.37.36v0A1.72,1.72,0,0,1,25.87,29Z" style="fill:#383838"/></svg>