<svg xmlns="http://www.w3.org/2000/svg" viewBox="0 0 30 30"><title>ic_garden</title><path d="M18.39,14.65h-6.5a.5.5,0,0,1-.5-.5V11a.5.5,0,0,1,.5-.5h6.5a.5.5,0,0,1,.5.5v3.11A.5.5,0,0,1,18.39,14.65Zm-6-1h5.5V11.54h-5.5Z" style="fill:#383838"/><path d="M5.2,23.7a.38.38,0,0,1-.38-.38V20.1a.38.38,0,1,1,.75,0v3.22A.38.38,0,0,1,5.2,23.7Z" style="fill:#383838"/><path d="M28.64,28.94h-27a.5.5,0,0,1-.5-.5V28a2.28,2.28,0,0,1,2.28-2.28H5.8a.5.5,0,0,1,.5.5.51.51,0,0,1-.5.5H3.42a1.28,1.28,0,0,0-1.28,1.22h26a1.28,1.28,0,0,0-1.28-1.22H24.48a.5.5,0,0,1-.5-.5.5.5,0,0,1,.5-.5h2.38A2.28,2.28,0,0,1,29.14,28v.44A.5.5,0,0,1,28.64,28.94Z" style="fill:#383838"/><path d="M15.37,26.51H13.5A.51.51,0,0,1,13,26a.5.5,0,0,1,.5-.5h1.37V22.89a.5.5,0,0,1,1,0V26A.5.5,0,0,1,15.37,26.51Z" style="fill:#383838"/><path d="M12.37,24.57a.5.5,0,0,1-.5-.5V18.78A.54.54,0,0,1,12,18.5l1.5-2.29a.51.51,0,0,1,.84,0l1.5,2.29a.54.54,0,0,1,.08.28V21a.5.5,0,0,1-1,0v-2l-1-1.53-1,1.53v5.15A.5.5,0,0,1,12.37,24.57Z" style="fill:#383838"/><path d="M15.37,23.39a.5.5,0,0,1-.5-.5V21a.5.5,0,0,1,1,0v1.93A.5.5,0,0,1,15.37,23.39Z" style="fill:#383838"/><path d="M21,23.39a.5.5,0,0,1-.5-.5V21a.5.5,0,0,1,.5-.5.5.5,0,0,1,.5.5v1.93A.5.5,0,0,1,21,23.39Z" style="fill:#383838"/><path d="M18,23.39a.5.5,0,0,1-.5-.5V21a.5.5,0,0,1,.5-.5.5.5,0,0,1,.5.5v1.93A.5.5,0,0,1,18,23.39Z" style="fill:#383838"/><path d="M21,26.51H18a.51.51,0,0,1-.5-.5V22.89a.5.5,0,0,1,.5-.5.5.5,0,0,1,.5.5v2.62h2V22.89a.5.5,0,0,1,.5-.5.5.5,0,0,1,.5.5V26A.5.5,0,0,1,21,26.51Z" style="fill:#383838"/><path d="M21,21.46a.51.51,0,0,1-.5-.5v-2l-1-1.53-1,1.53v2a.5.5,0,0,1-.5.5.51.51,0,0,1-.5-.5V18.78a.54.54,0,0,1,.08-.28l1.5-2.29a.51.51,0,0,1,.84,0l1.5,2.29a.54.54,0,0,1,.08.28V21A.5.5,0,0,1,21,21.46Z" style="fill:#383838"/><path d="M23.59,23.39a.5.5,0,0,1-.5-.5V21a.5.5,0,0,1,.5-.5.5.5,0,0,1,.5.5v1.93A.5.5,0,0,1,23.59,23.39Z" style="fill:#383838"/><path d="M23.59,21.46a.51.51,0,0,1-.5-.5V18.78a.54.54,0,0,1,.08-.28l.89-1.36a.5.5,0,0,1,.69-.14.49.49,0,0,1,.15.69l-.81,1.23v2A.5.5,0,0,1,23.59,21.46Z" style="fill:#383838"/><path d="M24.48,26.51h-.89a.51.51,0,0,1-.5-.5V22.89a.5.5,0,0,1,.5-.5.5.5,0,0,1,.5.5v2.62h.39a.5.5,0,0,1,.5.5A.5.5,0,0,1,24.48,26.51Z" style="fill:#383838"/><path d="M26.59,26.51H24.48A.5.5,0,0,1,24,26a.5.5,0,0,1,.5-.5h1.61V18.92l-1-1.53-.19.3a.5.5,0,0,1-.69.15.49.49,0,0,1-.15-.69l.61-.94a.51.51,0,0,1,.84,0L27,18.5a.54.54,0,0,1,.08.28V26A.5.5,0,0,1,26.59,26.51Z" style="fill:#383838"/><path d="M18,21.46H15.37a.5.5,0,0,1-.5-.5.5.5,0,0,1,.5-.5H18a.5.5,0,0,1,.5.5A.5.5,0,0,1,18,21.46Z" style="fill:#383838"/><path d="M18,23.39H15.37a.5.5,0,1,1,0-1H18a.5.5,0,1,1,0,1Z" style="fill:#383838"/><path d="M23.59,21.46H21a.51.51,0,0,1-.5-.5.5.5,0,0,1,.5-.5h2.61a.5.5,0,0,1,.5.5A.5.5,0,0,1,23.59,21.46Z" style="fill:#383838"/><path d="M23.59,23.39H21a.5.5,0,0,1,0-1h2.61a.5.5,0,1,1,0,1Z" style="fill:#383838"/><path d="M13.48,26.53a.25.25,0,0,1-.12,0A.48.48,0,0,1,13,26a.37.37,0,0,0,0-.09.49.49,0,0,1,.62-.34.5.5,0,0,1,.35.62A.55.55,0,0,1,13.48,26.53Z" style="fill:#383838"/><path d="M12.37,24.57l-.16,0a1.27,1.27,0,0,0-.63-.07A.53.53,0,0,1,11,24v-.1a1.68,1.68,0,0,0-1.57-1.78,1.54,1.54,0,0,0-1.33.82.51.51,0,0,1-.34.25A.54.54,0,0,1,7.34,23a.93.93,0,0,0-.61-.23,1,1,0,0,0-.61.23.49.49,0,0,1-.7-.05.51.51,0,0,1,0-.71A1.94,1.94,0,0,1,7.52,22a2.47,2.47,0,0,1,1.9-.9A2.66,2.66,0,0,1,12,23.48a2.34,2.34,0,0,1,.56.12.5.5,0,0,1-.16,1Z" style="fill:#383838"/><path d="M2.94,26.57a.49.49,0,0,1-.45-.29,2.48,2.48,0,0,1-.25-1.05A2.62,2.62,0,0,1,5.17,22.6a1.79,1.79,0,0,1,.3-.32.5.5,0,1,1,.65.77.94.94,0,0,0-.26.32.5.5,0,0,1-.57.27,1.68,1.68,0,0,0-.4-.06,1.65,1.65,0,0,0-1.65,1.65,1.54,1.54,0,0,0,.16.64.51.51,0,0,1-.25.66A.52.52,0,0,1,2.94,26.57Z" style="fill:#383838"/><path d="M13.5,26.51l-.14,0a.5.5,0,0,1-.33-.62,1.24,1.24,0,0,0,0-.23,1.18,1.18,0,0,0-.86-1.09.51.51,0,0,1-.31-.64.49.49,0,0,1,.63-.31,2.19,2.19,0,0,1,1.54,2,1.6,1.6,0,0,1-.09.51A.49.49,0,0,1,13.5,26.51Z" style="fill:#383838"/><path d="M13.49,26.57H5.8a.5.5,0,0,1,0-1h7.69a.5.5,0,1,1,0,1Z" style="fill:#383838"/><path d="M5.8,26.57H2.94a.5.5,0,0,1,0-1H5.8a.5.5,0,1,1,0,1Z" style="fill:#383838"/><path d="M5.8,26.72a.5.5,0,0,1-.5-.5v-.15a.5.5,0,0,1,.5-.5.5.5,0,0,1,.5.5v.15A.51.51,0,0,1,5.8,26.72Z" style="fill:#383838"/><path d="M5.8,18.62a.5.5,0,0,1-.5-.5V11.68a.5.5,0,0,1,.5-.5.5.5,0,0,1,.5.5v6.44A.51.51,0,0,1,5.8,18.62Z" style="fill:#383838"/><path d="M24.48,26.72a.5.5,0,0,1-.5-.5V26a.5.5,0,0,1,1,0v.21A.5.5,0,0,1,24.48,26.72Z" style="fill:#383838"/><path d="M24.48,17.92a.5.5,0,0,1-.5-.5V11.68a.5.5,0,1,1,1,0v5.74A.5.5,0,0,1,24.48,17.92Z" style="fill:#383838"/><path d="M24.48,26.72H5.8a.5.5,0,0,1-.5-.5.5.5,0,0,1,.5-.5H24.48a.5.5,0,0,1,.5.5A.5.5,0,0,1,24.48,26.72Z" style="fill:#383838"/><path d="M24.48,12.18a.49.49,0,0,1-.3-.1l-1.74-1.27A.5.5,0,1,1,23,10l1.74,1.28a.5.5,0,0,1-.29.9Z" style="fill:#383838"/><path d="M4.4,13.2a.45.45,0,0,1-.29-.1L1.88,11.48a.51.51,0,0,1-.2-.41.49.49,0,0,1,.2-.4L14.82,1.21a.49.49,0,0,1,.39-.08.44.44,0,0,1,.25.08l12.93,9.46a.5.5,0,0,1,.21.4.52.52,0,0,1-.21.41L26.17,13.1a.49.49,0,0,1-.59,0l-1.4-1a.5.5,0,0,1-.1-.7.48.48,0,0,1,.69-.1l1.11.8,1.37-1L15.14,2.22,3,11.07l1.38,1,1.1-.8a.5.5,0,1,1,.59.8l-1.39,1A.49.49,0,0,1,4.4,13.2Z" style="fill:#383838"/><path d="M22.74,10.9a.53.53,0,0,1-.3-.09l-7.3-5.34-7.3,5.34a.51.51,0,0,1-.7-.11.49.49,0,0,1,.11-.7l7.59-5.55a.49.49,0,0,1,.59,0L23,10a.5.5,0,0,1-.29.9Z" style="fill:#383838"/><path d="M5.8,12.18a.5.5,0,0,1-.3-.9L7.25,10a.5.5,0,0,1,.59.81L6.09,12.08A.46.46,0,0,1,5.8,12.18Z" style="fill:#383838"/><path d="M5.8,21.72a.38.38,0,0,1-.34-.21.37.37,0,0,1,.18-.5,1.07,1.07,0,0,0,.62-1c0-.12-.07-.5-.76-1.37a.38.38,0,0,1,.07-.53.37.37,0,0,1,.52.06A3.43,3.43,0,0,1,7,20,1.81,1.81,0,0,1,6,21.69.4.4,0,0,1,5.8,21.72Z" style="fill:#383838"/><path d="M5.2,21.86A1.82,1.82,0,0,1,3.38,20c0-.9,1.29-2.3,1.54-2.57a.42.42,0,0,1,.28-.12h0a.4.4,0,0,1,.27.12s.29.32.62.73a.38.38,0,0,1-.59.47c-.11-.14-.21-.27-.31-.38A4.39,4.39,0,0,0,4.13,20a1.07,1.07,0,0,0,1.51,1,.37.37,0,0,1,.5.18.38.38,0,0,1-.18.5A1.87,1.87,0,0,1,5.2,21.86Z" style="fill:#383838"/><path d="M9.23,22a.37.37,0,0,1-.38-.37V18.37a.38.38,0,1,1,.75,0v3.22A.37.37,0,0,1,9.23,22Z" style="fill:#383838"/><path d="M9.23,20.13a1.83,1.83,0,0,1-1.82-1.82c0-.9,1.29-2.3,1.55-2.57a.38.38,0,0,1,.54,0c.26.27,1.55,1.67,1.55,2.57A1.83,1.83,0,0,1,9.23,20.13Zm0-3.57a4.32,4.32,0,0,0-1.07,1.75,1.07,1.07,0,0,0,2.14,0A4.32,4.32,0,0,0,9.23,16.56Z" style="fill:#383838"/></svg>