<svg xmlns="http://www.w3.org/2000/svg" viewBox="0 0 30 30"><title>ic_guard</title><path d="M22.88,20.23a.39.39,0,0,1-.15,0,.5.5,0,0,1-.32-.64,8.2,8.2,0,0,0,.45-2.65v-.53a.5.5,0,0,1,.5-.5.5.5,0,0,1,.5.5v.53a9.3,9.3,0,0,1-.5,3A.5.5,0,0,1,22.88,20.23Z" style="fill:#383838"/><path d="M23.36,16.89a.5.5,0,0,1-.5-.5V14.78a.55.55,0,0,1,.49-.57h0a.44.44,0,0,1,.5.41v1.77A.5.5,0,0,1,23.36,16.89Z" style="fill:#383838"/><path d="M18.38,25.29a.49.49,0,0,1-.45-.29.5.5,0,0,1,.25-.66,8,8,0,0,0,4.23-4.77.5.5,0,0,1,.95.32,9,9,0,0,1-4.77,5.36A.52.52,0,0,1,18.38,25.29Z" style="fill:#383838"/><path d="M7.3,20.23a.5.5,0,0,1-.48-.34,9.29,9.29,0,0,1-.49-3v-.53a.5.5,0,0,1,.5-.5.5.5,0,0,1,.5.5v.53a8.46,8.46,0,0,0,.44,2.65.5.5,0,0,1-.31.64A.47.47,0,0,1,7.3,20.23Z" style="fill:#383838"/><path d="M6.83,16.89a.5.5,0,0,1-.5-.5v-1.8a.54.54,0,0,1,.52-.53.46.46,0,0,1,.49.47v1.86A.5.5,0,0,1,6.83,16.89Z" style="fill:#383838"/><path d="M11.8,25.29a.52.52,0,0,1-.21,0,9,9,0,0,1-4.77-5.36.5.5,0,0,1,.32-.63.5.5,0,0,1,.63.31A8,8,0,0,0,12,24.34a.5.5,0,0,1,.25.66A.49.49,0,0,1,11.8,25.29Z" style="fill:#383838"/><path d="M15.09,26a8.48,8.48,0,0,1-3.5-.76.51.51,0,0,1-.25-.66.49.49,0,0,1,.66-.25,7.5,7.5,0,0,0,3.09.67.5.5,0,0,1,.5.5A.5.5,0,0,1,15.09,26Z" style="fill:#383838"/><path d="M15.09,26a.5.5,0,0,1-.5-.5.5.5,0,0,1,.5-.5,7.5,7.5,0,0,0,3.09-.67.49.49,0,0,1,.66.25.51.51,0,0,1-.25.66A8.48,8.48,0,0,1,15.09,26Z" style="fill:#383838"/><path d="M6.9,14.17h-1a.5.5,0,0,1-.5-.5.5.5,0,0,1,.5-.5h1a.5.5,0,0,1,.5.5A.5.5,0,0,1,6.9,14.17Z" style="fill:#383838"/><path d="M24.48,14.17h-1.2a.5.5,0,0,1-.5-.5.5.5,0,0,1,.5-.5h1.2a.5.5,0,0,1,.5.5A.5.5,0,0,1,24.48,14.17Z" style="fill:#383838"/><path d="M7.44,12H5.89a.5.5,0,0,1,0-1H7.44a.5.5,0,1,1,0,1Z" style="fill:#383838"/><path d="M24.3,12H22.73a.5.5,0,0,1,0-1H24.3a.5.5,0,0,1,0,1Z" style="fill:#383838"/><path d="M5.89,14.17a.5.5,0,0,1-.5-.5V11.52a.5.5,0,0,1,.5-.5.5.5,0,0,1,.5.5v2.15A.51.51,0,0,1,5.89,14.17Z" style="fill:#383838"/><path d="M24.48,14.17a.51.51,0,0,1-.5-.5V11.91A.5.5,0,0,1,24.3,11h.18a.5.5,0,0,1,.5.5v2.15A.5.5,0,0,1,24.48,14.17Z" style="fill:#383838"/><path d="M5.89,12a.51.51,0,0,1-.37-.16L3.22,9.33a.49.49,0,0,1,0-.64L9,1.32a.5.5,0,0,1,.7-.08.5.5,0,0,1,.09.7L4.24,9l2,2.21a.5.5,0,0,1,0,.71A.46.46,0,0,1,5.89,12Z" style="fill:#383838"/><path d="M15,2.13H9.34a.5.5,0,0,1-.5-.5.51.51,0,0,1,.5-.5H15a.51.51,0,0,1,.5.5A.5.5,0,0,1,15,2.13Z" style="fill:#383838"/><path d="M24.3,12a.48.48,0,0,1-.34-.13.5.5,0,0,1,0-.71l2-2.21L20.48,2a.5.5,0,1,1,.79-.61L27,8.69a.49.49,0,0,1,0,.64l-2.29,2.53A.54.54,0,0,1,24.3,12Z" style="fill:#383838"/><path d="M20.84,2.16a.51.51,0,0,1-.17,0H15.18a.5.5,0,0,1-.5-.5.51.51,0,0,1,.5-.5h5.66a.49.49,0,0,1,.39.19.53.53,0,0,1-.07.73A.56.56,0,0,1,20.84,2.16Z" style="fill:#383838"/><path d="M6.84,15a.52.52,0,0,1-.29-.09A5,5,0,0,1,5.49,14a.5.5,0,1,1,.79-.61,4.63,4.63,0,0,0,.85.74.5.5,0,0,1-.29.91Z" style="fill:#383838"/><path d="M23.35,15.13a.5.5,0,0,1-.28-.91,5.05,5.05,0,0,0,1-.86.5.5,0,1,1,.79.61,5.47,5.47,0,0,1-1.25,1.08A.5.5,0,0,1,23.35,15.13Z" style="fill:#383838"/><path d="M23.28,14.17H6.9a.51.51,0,0,1-.5-.5.5.5,0,0,1,.5-.5H23.28a.5.5,0,0,1,.5.5A.51.51,0,0,1,23.28,14.17Z" style="fill:#383838"/><path d="M13.85,12h-.94a.5.5,0,0,1,0-1h.94a.5.5,0,0,1,0,1Z" style="fill:#383838"/><path d="M12.91,12H7.44a.5.5,0,0,1,0-1h5.47a.5.5,0,0,1,0,1Z" style="fill:#383838"/><path d="M22.73,12H17.32a.5.5,0,0,1,0-1h5.41a.5.5,0,0,1,0,1Z" style="fill:#383838"/><path d="M15,17.1c-4.46,0-7.06-1.19-8.45-2.18a.5.5,0,1,1,.58-.82c1,.75,3.45,2,7.87,2a.5.5,0,0,1,.5.5A.51.51,0,0,1,15,17.1Z" style="fill:#383838"/><path d="M15.37,17.1a.5.5,0,0,1-.5-.5.5.5,0,0,1,.5-.5c4.05,0,6.42-1,7.7-1.88a.5.5,0,0,1,.69.14.49.49,0,0,1-.13.69C22.23,16,19.67,17.1,15.37,17.1Z" style="fill:#383838"/><path d="M12.91,12a.51.51,0,0,1-.47-.33L8.87,1.8a.5.5,0,0,1,.3-.64.5.5,0,0,1,.64.3l3.57,9.89a.49.49,0,0,1-.3.64A.51.51,0,0,1,12.91,12Z" style="fill:#383838"/><path d="M20.87,2.18a.39.39,0,0,1-.18,0,.5.5,0,0,1-.29-.64.52.52,0,0,1,.66-.31.48.48,0,0,1,.3.62l0,0A.52.52,0,0,1,20.87,2.18Z" style="fill:#383838"/><path d="M17.32,12a.51.51,0,0,1-.17,0,.5.5,0,0,1-.3-.64L20.4,1.51a.5.5,0,1,1,.94.34l-3.55,9.84A.51.51,0,0,1,17.32,12Z" style="fill:#383838"/><path d="M15.18,14a.46.46,0,0,1-.33-.13l-1.33-1.19a.5.5,0,0,1-.17-.38v-.78a.5.5,0,0,1,.5-.5.5.5,0,0,1,.5.5v.56l.83.75.84-.75v-.56a.5.5,0,0,1,.5-.5.5.5,0,0,1,.5.5v.78a.54.54,0,0,1-.17.38l-1.33,1.19A.5.5,0,0,1,15.18,14Z" style="fill:#383838"/><path d="M16.52,12a.5.5,0,0,1-.5-.5V10H14.35v1.48a.5.5,0,0,1-.5.5.5.5,0,0,1-.5-.5v-2a.5.5,0,0,1,.5-.5h2.67a.5.5,0,0,1,.5.5v2A.5.5,0,0,1,16.52,12Z" style="fill:#383838"/><path d="M15.07,22.76a3.55,3.55,0,0,1-2.51-1.12.5.5,0,0,1,0-.71.51.51,0,0,1,.71,0,2.44,2.44,0,0,0,3.63,0,.5.5,0,1,1,.67.74A3.69,3.69,0,0,1,15.07,22.76Z" style="fill:#383838"/><path d="M17.48,28.29a.49.49,0,0,1-.34-.14l-2.4-2.28a.51.51,0,0,1,0-.71.5.5,0,0,1,.71,0l1.8,1.73.67-2.22a.5.5,0,0,1,.62-.34.51.51,0,0,1,.33.63l-.9,3a.49.49,0,0,1-.35.33A.27.27,0,0,1,17.48,28.29Z" style="fill:#383838"/><path d="M7.1,29.13a.45.45,0,0,1-.27-.08.5.5,0,0,1-.15-.69,10.21,10.21,0,0,1,4.94-4,.5.5,0,1,1,.35.93A9.22,9.22,0,0,0,7.52,28.9.51.51,0,0,1,7.1,29.13Z" style="fill:#383838"/><path d="M12.17,28.29a.43.43,0,0,1-.19,0,.51.51,0,0,1-.31-.4l-.37-3a.49.49,0,0,1,.43-.55.5.5,0,0,1,.56.43l.27,2.12,2.22-1.74a.5.5,0,0,1,.62.79l-2.92,2.28A.45.45,0,0,1,12.17,28.29Z" style="fill:#383838"/><path d="M23.08,29.13a.51.51,0,0,1-.42-.23,9.22,9.22,0,0,0-4.45-3.64.5.5,0,1,1,.35-.93,10.16,10.16,0,0,1,4.94,4,.5.5,0,0,1-.15.69A.43.43,0,0,1,23.08,29.13Z" style="fill:#383838"/><path d="M23.08,29.13H7.1a.5.5,0,0,1-.5-.5.5.5,0,0,1,.5-.5h16a.5.5,0,0,1,.5.5A.5.5,0,0,1,23.08,29.13Z" style="fill:#383838"/><path d="M6.83,20.31a2.21,2.21,0,0,1,0-4.42.5.5,0,0,1,0,1,1.21,1.21,0,0,0,0,2.42,1,1,0,0,0,.32,0,.5.5,0,1,1,.29.95A2,2,0,0,1,6.83,20.31Z" style="fill:#383838"/><path d="M23.36,20.31a2,2,0,0,1-.62-.1.5.5,0,1,1,.29-.95,1.06,1.06,0,0,0,.33,0,1.21,1.21,0,0,0,0-2.42.5.5,0,0,1,0-1,2.21,2.21,0,0,1,0,4.42Z" style="fill:#383838"/></svg>