<svg xmlns="http://www.w3.org/2000/svg" viewBox="0 0 30 30"><title>ic_interphone</title><path d="M27.5,25.5H2.5A1.5,1.5,0,0,1,1,24V6A1.5,1.5,0,0,1,2.5,4.5h25A1.5,1.5,0,0,1,29,6V24A1.5,1.5,0,0,1,27.5,25.5Zm-25-20A.5.5,0,0,0,2,6V24a.5.5,0,0,0,.5.5h25A.5.5,0,0,0,28,24V6a.5.5,0,0,0-.5-.5Z" style="fill:#383838"/><path d="M8.91,22.91H5.49A1.5,1.5,0,0,1,4,21.41V18a1.5,1.5,0,0,1,1.5-1.5h.22V13.77H5.49A1.51,1.51,0,0,1,4,12.27V8.85a1.51,1.51,0,0,1,1.5-1.5H8.91a1.51,1.51,0,0,1,1.5,1.5v3.42a1.51,1.51,0,0,1-1.5,1.5H8.69V16.5h.22a1.5,1.5,0,0,1,1.5,1.5v3.41A1.5,1.5,0,0,1,8.91,22.91ZM5.49,17.5A.5.5,0,0,0,5,18v3.41a.5.5,0,0,0,.5.5H8.91a.5.5,0,0,0,.5-.5V18a.5.5,0,0,0-.5-.5H8.19a.5.5,0,0,1-.5-.5V13.27a.5.5,0,0,1,.5-.5h.72a.51.51,0,0,0,.5-.5V8.85a.51.51,0,0,0-.5-.5H5.49a.51.51,0,0,0-.5.5v3.42a.51.51,0,0,0,.5.5h.72a.5.5,0,0,1,.5.5V17a.5.5,0,0,1-.5.5Z" style="fill:#383838"/><path d="M24.19,11.54H13.92a.5.5,0,0,1-.5-.5V7.85a.5.5,0,0,1,.5-.5H24.19a.51.51,0,0,1,.5.5V11A.51.51,0,0,1,24.19,11.54Zm-9.77-1h9.27V8.35H14.42Z" style="fill:#383838"/><path d="M16.07,15.72H13.91a.38.38,0,0,1-.38-.38V13.18a.38.38,0,0,1,.38-.37h2.16a.38.38,0,0,1,.37.37v2.16A.38.38,0,0,1,16.07,15.72ZM14.28,15h1.41V13.56H14.28Z" style="fill:#383838"/><path d="M20.06,15.72H17.9a.38.38,0,0,1-.38-.38V13.18a.38.38,0,0,1,.38-.37h2.16a.37.37,0,0,1,.37.37v2.16A.37.37,0,0,1,20.06,15.72ZM18.27,15h1.41V13.56H18.27Z" style="fill:#383838"/><path d="M24.05,15.72H21.89a.38.38,0,0,1-.38-.38V13.18a.38.38,0,0,1,.38-.37h2.16a.37.37,0,0,1,.37.37v2.16A.37.37,0,0,1,24.05,15.72ZM22.26,15h1.41V13.56H22.26Z" style="fill:#383838"/><path d="M16.07,19.49H13.91a.38.38,0,0,1-.38-.38V17a.38.38,0,0,1,.38-.37h2.16a.38.38,0,0,1,.37.37v2.16A.38.38,0,0,1,16.07,19.49Zm-1.79-.75h1.41V17.33H14.28Z" style="fill:#383838"/><path d="M20.06,19.49H17.9a.38.38,0,0,1-.38-.38V17a.38.38,0,0,1,.38-.37h2.16a.37.37,0,0,1,.37.37v2.16A.37.37,0,0,1,20.06,19.49Zm-1.79-.75h1.41V17.33H18.27Z" style="fill:#383838"/><path d="M24.05,19.49H21.89a.38.38,0,0,1-.38-.38V17a.38.38,0,0,1,.38-.37h2.16a.37.37,0,0,1,.37.37v2.16A.37.37,0,0,1,24.05,19.49Zm-1.79-.75h1.41V17.33H22.26Z" style="fill:#383838"/><path d="M16.07,23.26H13.91a.38.38,0,0,1-.38-.38V20.72a.37.37,0,0,1,.38-.37h2.16a.37.37,0,0,1,.37.37v2.16A.38.38,0,0,1,16.07,23.26Zm-1.79-.75h1.41V21.1H14.28Z" style="fill:#383838"/><path d="M20.06,23.26H17.9a.38.38,0,0,1-.38-.38V20.72a.37.37,0,0,1,.38-.37h2.16a.36.36,0,0,1,.37.37v2.16A.37.37,0,0,1,20.06,23.26Zm-1.79-.75h1.41V21.1H18.27Z" style="fill:#383838"/><path d="M24.05,23.26H21.89a.38.38,0,0,1-.38-.38V20.72a.37.37,0,0,1,.38-.37h2.16a.36.36,0,0,1,.37.37v2.16A.37.37,0,0,1,24.05,23.26Zm-1.79-.75h1.41V21.1H22.26Z" style="fill:#383838"/><path d="M26.18,5.4H3.71a.5.5,0,0,1-.5-.5V4.07a1.5,1.5,0,0,1,1.5-1.5H25.18a1.5,1.5,0,0,1,1.5,1.5V4.9A.5.5,0,0,1,26.18,5.4Zm-22-1H25.68V4.07a.5.5,0,0,0-.5-.5H4.71a.5.5,0,0,0-.5.5Z" style="fill:#383838"/><path d="M25.18,27.43H4.71a1.5,1.5,0,0,1-1.5-1.5V25.1a.5.5,0,0,1,.5-.5H26.18a.5.5,0,0,1,.5.5v.83A1.5,1.5,0,0,1,25.18,27.43Zm-21-1.83v.33a.5.5,0,0,0,.5.5H25.18a.5.5,0,0,0,.5-.5V25.6Z" style="fill:#383838"/></svg>