<svg xmlns="http://www.w3.org/2000/svg" viewBox="0 0 30 30"><title>ic_window</title><path d="M3.52,22.63a.38.38,0,0,1-.37-.38v-.44a.38.38,0,0,1,.75,0v.44A.38.38,0,0,1,3.52,22.63Z" style="fill:#383838"/><path d="M3.52,25.79a.38.38,0,0,1-.37-.37v-.26a.38.38,0,0,1,.75,0v.26A.38.38,0,0,1,3.52,25.79Z" style="fill:#383838"/><path d="M26.52,25.79a.38.38,0,0,1-.37-.37v-.26a.38.38,0,0,1,.75,0v.26A.38.38,0,0,1,26.52,25.79Z" style="fill:#383838"/><path d="M26.52,19.09a.5.5,0,0,1-.5-.5V2H4V18.49a.5.5,0,0,1-.5.5.5.5,0,0,1-.5-.5V1.5a.5.5,0,0,1,.5-.5h23a.5.5,0,0,1,.5.5V18.59A.5.5,0,0,1,26.52,19.09Z" style="fill:#383838"/><path d="M26.52,25.92h-23a.51.51,0,0,1-.5-.5.5.5,0,0,1,.5-.5h23a.5.5,0,0,1,.5.5A.5.5,0,0,1,26.52,25.92Z" style="fill:#383838"/><path d="M28.52,29h-27a.5.5,0,0,1-.5-.5V25.42a.5.5,0,0,1,.5-.5h2a.5.5,0,0,1,.5.5.5.5,0,0,1-.5.5H2V28H28V25.92h-1.5a.51.51,0,0,1-.5-.5.5.5,0,0,1,.5-.5h2a.5.5,0,0,1,.5.5V28.5A.5.5,0,0,1,28.52,29Z" style="fill:#383838"/><path d="M8.66,25.77H5.72a.38.38,0,0,1-.38-.38v-.23A.38.38,0,0,1,6.07,25H8.66a.38.38,0,0,1,0,.75Z" style="fill:#383838"/><path d="M19.52,4.8H15.75a.5.5,0,0,1-.5-.5.5.5,0,0,1,.5-.5h3.77a.5.5,0,0,1,.5.5A.5.5,0,0,1,19.52,4.8Z" style="fill:#383838"/><path d="M24.12,18.36a.5.5,0,0,1-.5-.5V4.8H21.18a.5.5,0,0,1-.5-.5.51.51,0,0,1,.5-.5h2.94a.5.5,0,0,1,.5.5V17.86A.5.5,0,0,1,24.12,18.36Z" style="fill:#383838"/><path d="M14.09,4.8H10.32a.5.5,0,0,1-.5-.5.5.5,0,0,1,.5-.5h3.77a.51.51,0,0,1,.5.5A.5.5,0,0,1,14.09,4.8Z" style="fill:#383838"/><path d="M14.09,25.77H10.32a.38.38,0,1,1,0-.75h3.77a.38.38,0,0,1,0,.75Z" style="fill:#383838"/><path d="M24.12,22.63a.38.38,0,0,1-.38-.38v-.43a.38.38,0,0,1,.38-.38.37.37,0,0,1,.37.38v.43A.37.37,0,0,1,24.12,22.63Z" style="fill:#383838"/><path d="M19.52,25.77H15.75a.38.38,0,0,1,0-.75h3.77a.38.38,0,0,1,0,.75Z" style="fill:#383838"/><path d="M5.72,17.56a.5.5,0,0,1-.5-.5V4.3a.5.5,0,0,1,.5-.5H8.66a.51.51,0,0,1,.5.5.5.5,0,0,1-.5.5H6.22V17.06A.5.5,0,0,1,5.72,17.56Z" style="fill:#383838"/><path d="M10.32,25.35a.5.5,0,0,1-.5-.5v-20a.5.5,0,0,1,1,0v20A.5.5,0,0,1,10.32,25.35Z" style="fill:#383838"/><path d="M8.66,25.77a.38.38,0,0,1-.38-.38v-.23a.38.38,0,0,1,.75,0v.23A.38.38,0,0,1,8.66,25.77Z" style="fill:#383838"/><path d="M8.66,19.11a.5.5,0,0,1-.5-.5v-14a.5.5,0,0,1,.5-.5.51.51,0,0,1,.5.5v14A.5.5,0,0,1,8.66,19.11Z" style="fill:#383838"/><path d="M10.32,25.77H8.66a.38.38,0,1,1,0-.75h1.66a.38.38,0,0,1,0,.75Z" style="fill:#383838"/><path d="M10.32,4.8H8.66a.5.5,0,0,1-.5-.5.5.5,0,0,1,.5-.5h1.66a.5.5,0,0,1,.5.5A.5.5,0,0,1,10.32,4.8Z" style="fill:#383838"/><path d="M14.09,25.35a.5.5,0,0,1-.5-.5v-20a.5.5,0,0,1,.5-.5.5.5,0,0,1,.5.5v20A.51.51,0,0,1,14.09,25.35Z" style="fill:#383838"/><path d="M15.75,25.35a.5.5,0,0,1-.5-.5v-20a.5.5,0,0,1,1,0v20A.5.5,0,0,1,15.75,25.35Z" style="fill:#383838"/><path d="M15.75,25.77H14.09a.38.38,0,1,1,0-.75h1.66a.38.38,0,1,1,0,.75Z" style="fill:#383838"/><path d="M15.75,4.8H14.09a.5.5,0,0,1-.5-.5.5.5,0,0,1,.5-.5h1.66a.5.5,0,0,1,.5.5A.5.5,0,0,1,15.75,4.8Z" style="fill:#383838"/><path d="M21.18,25.77a.37.37,0,0,1-.37-.38v-.24a.37.37,0,0,1,.37-.38.38.38,0,0,1,.38.38v.24A.38.38,0,0,1,21.18,25.77Z" style="fill:#383838"/><path d="M21.18,22.64a.37.37,0,0,1-.37-.38v-1a.37.37,0,0,1,.37-.38.38.38,0,0,1,.38.38v1A.38.38,0,0,1,21.18,22.64Z" style="fill:#383838"/><path d="M21.18,19.46a.51.51,0,0,1-.5-.5V4.3a.51.51,0,0,1,.5-.5.5.5,0,0,1,.5.5V19A.5.5,0,0,1,21.18,19.46Z" style="fill:#383838"/><path d="M19.52,25.35a.5.5,0,0,1-.5-.5v-20a.5.5,0,1,1,1,0v20A.5.5,0,0,1,19.52,25.35Z" style="fill:#383838"/><path d="M21.18,25.77H19.52a.38.38,0,1,1,0-.75h1.66a.38.38,0,1,1,0,.75Z" style="fill:#383838"/><path d="M21.18,4.8H19.52a.5.5,0,0,1-.5-.5.5.5,0,0,1,.5-.5h1.66a.5.5,0,0,1,.5.5A.5.5,0,0,1,21.18,4.8Z" style="fill:#383838"/><path d="M7.33,22.63H6.41A.38.38,0,0,1,6,22.25a.37.37,0,0,1,.37-.37h.92a.37.37,0,0,1,.38.37A.38.38,0,0,1,7.33,22.63Z" style="fill:#383838"/><path d="M7.64,22.63H7.33A.38.38,0,0,1,7,22.25a.37.37,0,0,1,.37-.37h.31a.37.37,0,0,1,.38.37A.38.38,0,0,1,7.64,22.63Z" style="fill:#383838"/><path d="M4.87,22.63H3.76a.38.38,0,0,1-.37-.38.37.37,0,0,1,.37-.37H4.87a.37.37,0,0,1,.38.37A.38.38,0,0,1,4.87,22.63Z" style="fill:#383838"/><path d="M6.14,22.63H5.72a.38.38,0,0,1-.38-.38.37.37,0,0,1,.38-.37h.42a.36.36,0,0,1,.37.37A.37.37,0,0,1,6.14,22.63Z" style="fill:#383838"/><path d="M5.72,22.63H5.23a.38.38,0,0,1-.38-.38.37.37,0,0,1,.38-.37h.49a.36.36,0,0,1,.37.37A.37.37,0,0,1,5.72,22.63Z" style="fill:#383838"/><path d="M6.41,22.63H6.14a.38.38,0,0,1-.38-.38.37.37,0,0,1,.38-.37h.27a.37.37,0,0,1,.38.37A.38.38,0,0,1,6.41,22.63Z" style="fill:#383838"/><path d="M8.66,22.63h-1a.37.37,0,0,1-.37-.38.36.36,0,0,1,.37-.37h1a.37.37,0,0,1,.37.37A.38.38,0,0,1,8.66,22.63Z" style="fill:#383838"/><path d="M8.79,22.63H8.66a.38.38,0,0,1-.38-.38.37.37,0,0,1,.38-.37h.13a.37.37,0,0,1,.38.37A.38.38,0,0,1,8.79,22.63Z" style="fill:#383838"/><path d="M5.23,22.63H4.87a.37.37,0,0,1-.37-.38.36.36,0,0,1,.37-.37h.36a.37.37,0,0,1,.37.37A.38.38,0,0,1,5.23,22.63Z" style="fill:#383838"/><path d="M9.15,25.54H8.66a.38.38,0,0,1-.38-.38.37.37,0,0,1,.38-.37h.49a.67.67,0,0,0,.66-.67v-.83a.66.66,0,0,0-.66-.66H8.79a.38.38,0,0,1-.37-.38.37.37,0,0,1,.37-.37h.36a1.41,1.41,0,0,1,1.41,1.41v.83A1.42,1.42,0,0,1,9.15,25.54Z" style="fill:#383838"/><path d="M8.66,25.54H5.72a.38.38,0,0,1-.38-.38.37.37,0,0,1,.38-.37H8.66a.37.37,0,0,1,.37.37A.38.38,0,0,1,8.66,25.54Z" style="fill:#383838"/><path d="M3.52,25.54H3.41A1.43,1.43,0,0,1,2,24.12v-.83a1.42,1.42,0,0,1,1.42-1.41h.11a.37.37,0,0,1,.38.37.38.38,0,0,1-.38.38H3.41a.66.66,0,0,0-.67.66v.83a.67.67,0,0,0,.67.67h.11a.37.37,0,0,1,.38.37A.38.38,0,0,1,3.52,25.54Z" style="fill:#383838"/><path d="M5.72,25.54H3.52a.38.38,0,0,1-.37-.38.37.37,0,0,1,.37-.37h2.2a.36.36,0,0,1,.37.37A.37.37,0,0,1,5.72,25.54Z" style="fill:#383838"/><path d="M3.76,22.63H3.52a.38.38,0,0,1-.37-.38.37.37,0,0,1,.37-.37h.24a.37.37,0,0,1,.38.37A.38.38,0,0,1,3.76,22.63Z" style="fill:#383838"/><path d="M5.23,22.63H5.15a.39.39,0,0,1-.29-.45A2.51,2.51,0,0,0,4.76,21a4.86,4.86,0,0,0-.47-1,.36.36,0,0,1,.13-.51.37.37,0,0,1,.51.12,5.16,5.16,0,0,1,.54,1.18,3.12,3.12,0,0,1,.12,1.58A.37.37,0,0,1,5.23,22.63Z" style="fill:#383838"/><path d="M3.76,22.63a.38.38,0,0,1-.31-.17A3.27,3.27,0,0,1,3.18,22a.39.39,0,0,1,.19-.5.36.36,0,0,1,.49.18,2.36,2.36,0,0,0,.22.39.37.37,0,0,1-.11.52A.31.31,0,0,1,3.76,22.63Z" style="fill:#383838"/><path d="M3.52,22.19A.38.38,0,0,1,3.18,22,4.49,4.49,0,0,1,3,21.53c-.23-.72-.55-2.78.39-3.08a.38.38,0,0,1,.15,0,.37.37,0,0,1,.08.73,3.63,3.63,0,0,0,.09,2.13,2.83,2.83,0,0,0,.14.35.37.37,0,0,1-.18.5A.42.42,0,0,1,3.52,22.19Z" style="fill:#383838"/><path d="M4.61,20.14A.37.37,0,0,1,4.29,20c-.34-.56-.62-.77-.7-.78a.36.36,0,0,1-.44-.27.38.38,0,0,1,.28-.46c.59-.16,1.14.52,1.5,1.12a.38.38,0,0,1-.12.52A.46.46,0,0,1,4.61,20.14Z" style="fill:#383838"/><path d="M8.79,22.63a.35.35,0,0,1-.21-.07.38.38,0,0,1-.1-.52,2.65,2.65,0,0,0,.35-.74,3.86,3.86,0,0,0,.1-2.1l-.06,0a.38.38,0,0,1-.52-.1.37.37,0,0,1,.09-.52.81.81,0,0,1,.71-.17.76.76,0,0,1,.43.39,4.31,4.31,0,0,1,0,2.68,3.71,3.71,0,0,1-.45.94A.37.37,0,0,1,8.79,22.63Z" style="fill:#383838"/><path d="M7.93,20.17a.33.33,0,0,1-.19-.06.37.37,0,0,1-.14-.51,3.26,3.26,0,0,1,.84-1,.38.38,0,0,1,.53.09.39.39,0,0,1-.1.53,2.43,2.43,0,0,0-.62.74A.38.38,0,0,1,7.93,20.17Z" style="fill:#383838"/><path d="M7.33,22.63a.36.36,0,0,1-.36-.3,3.18,3.18,0,0,1,.11-1.57A5.61,5.61,0,0,1,7.6,19.6a.38.38,0,0,1,.52-.13.37.37,0,0,1,.13.51,4.36,4.36,0,0,0-.45,1,2.39,2.39,0,0,0-.1,1.19.39.39,0,0,1-.29.45Z" style="fill:#383838"/><path d="M6.14,22.63a.31.31,0,0,1-.13,0,.37.37,0,0,1-.22-.48c0-.12.08-.25.12-.4a.37.37,0,0,1,.44-.28.38.38,0,0,1,.29.45,3.14,3.14,0,0,1-.15.49A.38.38,0,0,1,6.14,22.63Z" style="fill:#383838"/><path d="M4.61,20.14h0a.37.37,0,0,1-.35-.4c0-.74.3-3.18,1.27-3.18a.66.66,0,0,1,.49.26.37.37,0,0,1-.48.56A6.47,6.47,0,0,0,5,19.79.38.38,0,0,1,4.61,20.14Z" style="fill:#383838"/><path d="M6.26,19a.37.37,0,0,1-.37-.31,3.51,3.51,0,0,0-.45-1.41A.37.37,0,1,1,6,16.82a4.18,4.18,0,0,1,.63,1.77.38.38,0,0,1-.3.44Z" style="fill:#383838"/><path d="M7.93,20.17a.39.39,0,0,1-.38-.36A6.88,6.88,0,0,0,7,17.36a4.77,4.77,0,0,0-.4,1.36A.36.36,0,0,1,6.2,19a.39.39,0,0,1-.31-.43c.36-2.08,1-2.08,1.14-2.08,1,0,1.24,2.7,1.27,3.25a.37.37,0,0,1-.35.39Z" style="fill:#383838"/><path d="M6.27,22.18a.36.36,0,0,1-.36-.29,6.66,6.66,0,0,1-.17-1.54,10.7,10.7,0,0,1,.15-1.75.38.38,0,0,1,.44-.31.37.37,0,0,1,.3.43,10.46,10.46,0,0,0-.14,1.63,5.81,5.81,0,0,0,.15,1.37.38.38,0,0,1-.28.45Z" style="fill:#383838"/><path d="M6.41,22.63a.38.38,0,0,1-.35-.24,4.77,4.77,0,0,1-.15-.49.38.38,0,0,1,.73-.19,3.19,3.19,0,0,0,.12.4.38.38,0,0,1-.21.49A.32.32,0,0,1,6.41,22.63Z" style="fill:#383838"/><path d="M25.18,22.63h-.92a.38.38,0,0,1-.38-.38.37.37,0,0,1,.38-.37h.92a.37.37,0,0,1,.37.37A.38.38,0,0,1,25.18,22.63Z" style="fill:#383838"/><path d="M25.49,22.63h-.31a.38.38,0,0,1-.38-.38.37.37,0,0,1,.38-.37h.31a.37.37,0,0,1,.37.37A.38.38,0,0,1,25.49,22.63Z" style="fill:#383838"/><path d="M22.72,22.63H21.61a.38.38,0,0,1-.38-.38.37.37,0,0,1,.38-.37h1.11a.37.37,0,0,1,.37.37A.38.38,0,0,1,22.72,22.63Z" style="fill:#383838"/><path d="M24,22.63h-.91a.37.37,0,0,1-.37-.38.36.36,0,0,1,.37-.37H24a.37.37,0,0,1,.38.37A.38.38,0,0,1,24,22.63Z" style="fill:#383838"/><path d="M24.12,22.63H24a.38.38,0,0,1-.37-.38.37.37,0,0,1,.37-.37h.14a.36.36,0,0,1,.37.37A.37.37,0,0,1,24.12,22.63Z" style="fill:#383838"/><path d="M24.26,22.63h-.14a.38.38,0,0,1-.38-.38.37.37,0,0,1,.38-.37h.14a.36.36,0,0,1,.37.37A.37.37,0,0,1,24.26,22.63Z" style="fill:#383838"/><path d="M26.64,22.63h-.12a.38.38,0,0,1-.37-.38.37.37,0,0,1,.37-.37h.12a.37.37,0,0,1,.37.37A.38.38,0,0,1,26.64,22.63Z" style="fill:#383838"/><path d="M26.52,22.63h-1a.38.38,0,0,1-.38-.38.37.37,0,0,1,.38-.37h1a.37.37,0,0,1,.38.37A.38.38,0,0,1,26.52,22.63Z" style="fill:#383838"/><path d="M23.07,22.63h-.35a.38.38,0,0,1-.38-.38.37.37,0,0,1,.38-.37h.35a.37.37,0,0,1,.38.37A.38.38,0,0,1,23.07,22.63Z" style="fill:#383838"/><path d="M21.22,22.63a.38.38,0,0,1-.39-.34.35.35,0,0,1,.32-.4h.46a.36.36,0,0,1,.37.37.37.37,0,0,1-.37.38h-.39Z" style="fill:#383838"/><path d="M27,25.54l-5.81,0a1.42,1.42,0,0,1-1.35-1.4v-.83a1.42,1.42,0,0,1,1.33-1.4.36.36,0,0,1,.4.35.38.38,0,0,1-.35.4.67.67,0,0,0-.63.65v.83a.65.65,0,0,0,.63.65l5.78,0a.66.66,0,0,0,.66-.67v-.83a.65.65,0,0,0-.66-.66h-.35a.38.38,0,0,1-.38-.38.37.37,0,0,1,.38-.37H27a1.41,1.41,0,0,1,1.41,1.41v.83A1.42,1.42,0,0,1,27,25.54Z" style="fill:#383838"/><path d="M23.07,22.63H23a.39.39,0,0,1-.29-.45A2.28,2.28,0,0,0,22.6,21a4.86,4.86,0,0,0-.47-1,.37.37,0,0,1,.13-.51.38.38,0,0,1,.52.12,5.63,5.63,0,0,1,.54,1.18,3.24,3.24,0,0,1,.12,1.58A.38.38,0,0,1,23.07,22.63Z" style="fill:#383838"/><path d="M22.46,20.14a.38.38,0,0,1-.33-.18c-.34-.56-.62-.77-.7-.79a.34.34,0,0,1-.49.1.38.38,0,0,1-.07-.52.8.8,0,0,1,.37-.3c.6-.18,1.17.51,1.54,1.12a.39.39,0,0,1-.13.52A.45.45,0,0,1,22.46,20.14Z" style="fill:#383838"/><path d="M21.18,21.68a.38.38,0,0,1-.36-.27,4,4,0,0,1,.05-2.66.36.36,0,0,1,.52-.1.37.37,0,0,1,.1.52,3.48,3.48,0,0,0,.05,2,.38.38,0,0,1-.26.47Z" style="fill:#383838"/><path d="M21.61,22.63a.37.37,0,0,1-.31-.17,3.81,3.81,0,0,1-.45-.93l.33-.22.36-.1-.33.2.36-.11a2.65,2.65,0,0,0,.35.74.37.37,0,0,1-.1.52A.35.35,0,0,1,21.61,22.63Z" style="fill:#383838"/><path d="M25.77,20.17a.35.35,0,0,1-.19-.06.36.36,0,0,1-.13-.51,3.1,3.1,0,0,1,.87-1,.38.38,0,0,1,.52.12.38.38,0,0,1-.11.52,2.39,2.39,0,0,0-.64.75A.37.37,0,0,1,25.77,20.17Z" style="fill:#383838"/><path d="M26.64,22.63a.31.31,0,0,1-.21-.07.37.37,0,0,1-.1-.52,3.37,3.37,0,0,0,.35-.74,3.73,3.73,0,0,0,.09-2.1l0,0a.36.36,0,0,1-.52-.11.37.37,0,0,1,.11-.51.84.84,0,0,1,.67-.15.77.77,0,0,1,.44.39,4.31,4.31,0,0,1,0,2.68,3.38,3.38,0,0,1-.44.94A.37.37,0,0,1,26.64,22.63Z" style="fill:#383838"/><path d="M25.18,22.63a.37.37,0,0,1-.37-.3,3.19,3.19,0,0,1,.11-1.57,5.67,5.67,0,0,1,.53-1.16.37.37,0,0,1,.64.38,5.43,5.43,0,0,0-.45,1,2.51,2.51,0,0,0-.1,1.19.38.38,0,0,1-.28.45Z" style="fill:#383838"/><path d="M24,22.63l-.13,0a.37.37,0,0,1-.22-.48,2.09,2.09,0,0,0,.12-.4.37.37,0,1,1,.73.17,4.84,4.84,0,0,1-.14.49A.39.39,0,0,1,24,22.63Z" style="fill:#383838"/><path d="M22.46,20.14h0a.37.37,0,0,1-.35-.4c.06-.74.3-3.18,1.27-3.18.19,0,.77,0,1.13,2a.38.38,0,0,1-.31.44.37.37,0,0,1-.43-.31,4.81,4.81,0,0,0-.39-1.32,6.73,6.73,0,0,0-.52,2.39A.37.37,0,0,1,22.46,20.14Z" style="fill:#383838"/><path d="M24.1,19h-.05a.34.34,0,0,1-.31-.39v-.05a.39.39,0,0,1,.44-.31.36.36,0,0,1,.31.41A.42.42,0,0,1,24.1,19Z" style="fill:#383838"/><path d="M25.77,20.17a.37.37,0,0,1-.37-.36,6.82,6.82,0,0,0-.53-2.45,4.58,4.58,0,0,0-.38,1.3.38.38,0,0,1-.44.3.38.38,0,0,1-.3-.44c.32-1.79.79-2,1.12-2,1,0,1.24,2.7,1.27,3.25a.36.36,0,0,1-.34.39Z" style="fill:#383838"/><path d="M24.12,22.18a.37.37,0,0,1-.37-.29,6.66,6.66,0,0,1-.17-1.54,10.74,10.74,0,0,1,.16-1.75.36.36,0,0,1,.43-.31.39.39,0,0,1,.31.43,9.41,9.41,0,0,0-.15,1.63,5.81,5.81,0,0,0,.15,1.37.37.37,0,0,1-.28.45Z" style="fill:#383838"/><path d="M24.1,22.17a.34.34,0,0,1-.34-.26.39.39,0,0,1,.29-.46.36.36,0,0,1,.43.28h0a.4.4,0,0,1-.28.42Z" style="fill:#383838"/><path d="M24.26,22.63a.38.38,0,0,1-.35-.24,3,3,0,0,1-.15-.48.38.38,0,0,1,.27-.46.38.38,0,0,1,.45.28,2.8,2.8,0,0,0,.13.38.38.38,0,0,1-.21.49Z" style="fill:#383838"/></svg>