<svg xmlns="http://www.w3.org/2000/svg" viewBox="0 0 30 30"><title>ic_terrace</title><path d="M14.8,3.36H14a.52.52,0,0,1-.52-.5.48.48,0,0,1,.48-.5h.8a.5.5,0,0,1,.5.5A.51.51,0,0,1,14.8,3.36Z" style="fill:#383838"/><path d="M16.25,3.36h-.59a.5.5,0,0,1-.5-.5.5.5,0,0,1,.5-.5h.55a.51.51,0,0,1,.52.5A.48.48,0,0,1,16.25,3.36Z" style="fill:#383838"/><path d="M24.89,11.66a.5.5,0,0,1-.5-.48,8.18,8.18,0,0,0-8.14-7.82.5.5,0,0,1-.5-.5.48.48,0,0,1,.5-.5,9.18,9.18,0,0,1,9.14,8.78.5.5,0,0,1-.48.52Z" style="fill:#383838"/><path d="M23.63,13.05a1.6,1.6,0,0,1-1.21-.56,1.6,1.6,0,0,1-2.43,0,1.6,1.6,0,0,1-2.43,0,1.62,1.62,0,0,1-1.22.56,1.45,1.45,0,0,1-.52-.1.37.37,0,0,1-.23-.48.38.38,0,0,1,.47-.23.94.94,0,0,0,.28.06.85.85,0,0,0,.84-.84.38.38,0,0,1,.75,0,.84.84,0,1,0,1.68,0,.38.38,0,0,1,.75,0,.84.84,0,1,0,1.68,0,.38.38,0,0,1,.38-.37.37.37,0,0,1,.37.37.84.84,0,1,0,1.68,0,.35.35,0,0,1,.05-.18v-.1a.4.4,0,0,1,.36-.4.37.37,0,0,1,.39.36v.11a1.48,1.48,0,0,1,0,.21.39.39,0,0,1-.07.23A1.6,1.6,0,0,1,23.63,13.05Z" style="fill:#383838"/><path d="M13.91,13.05a1.58,1.58,0,0,1-1.21-.56,1.61,1.61,0,0,1-2.44,0,1.58,1.58,0,0,1-1.21.56,1.62,1.62,0,0,1-1.22-.56A1.59,1.59,0,0,1,5,11.65.37.37,0,0,1,5,11.46a1.34,1.34,0,0,1,0-.2v-.12a.36.36,0,0,1,.39-.36.39.39,0,0,1,.36.39v.13a.3.3,0,0,1,0,.16.84.84,0,0,0,1.68,0,.38.38,0,0,1,.75,0,.84.84,0,0,0,1.68,0,.38.38,0,0,1,.75,0,.84.84,0,0,0,1.68,0,.38.38,0,0,1,.75,0,.85.85,0,0,0,1.12.78.39.39,0,0,1,.48.23.38.38,0,0,1-.24.48A1.55,1.55,0,0,1,13.91,13.05Z" style="fill:#383838"/><path d="M15.94,13l-.12,0a1.61,1.61,0,0,1-.69-.47,1.67,1.67,0,0,1-.69.47.37.37,0,0,1-.48-.23.38.38,0,0,1,.23-.48.82.82,0,0,0,.56-.78.38.38,0,0,1,.75,0,.81.81,0,0,0,.57.78.39.39,0,0,1,.23.48A.38.38,0,0,1,15.94,13Z" style="fill:#383838"/><path d="M15.66,3.36H14.8a.5.5,0,0,1-.5-.5.5.5,0,0,1,.5-.5h.86a.5.5,0,0,1,.5.5A.51.51,0,0,1,15.66,3.36Z" style="fill:#383838"/><path d="M5.36,11.66h0a.5.5,0,0,1-.48-.52A9.19,9.19,0,0,1,14,2.36a.51.51,0,0,1,.5.5.5.5,0,0,1-.5.5,8.18,8.18,0,0,0-8.14,7.82A.5.5,0,0,1,5.36,11.66Z" style="fill:#383838"/><path d="M19.59,11.66H10.87a.5.5,0,0,1,0-1h8.72a.5.5,0,0,1,0,1Z" style="fill:#383838"/><path d="M5.36,11.66h0a.5.5,0,1,1,.51-.5A.49.49,0,0,1,5.36,11.66Z" style="fill:#383838"/><path d="M24.89,11.66h-5.3a.5.5,0,0,1,0-1h5.3a.5.5,0,0,1,0,1Z" style="fill:#383838"/><path d="M10.87,11.66H5.36a.5.5,0,1,1,0-1h5.51a.5.5,0,1,1,0,1Z" style="fill:#383838"/><path d="M24.91,11.66h0a.5.5,0,0,1,0-1,.5.5,0,0,1,.51.5A.49.49,0,0,1,24.91,11.66Z" style="fill:#383838"/><path d="M14.06,3.86A.5.5,0,0,1,13.74,3a6.49,6.49,0,0,1,.82-.57.52.52,0,0,1,.68.21A.51.51,0,0,1,15,3.3a4.58,4.58,0,0,0-.66.45A.45.45,0,0,1,14.06,3.86Z" style="fill:#383838"/><path d="M10.87,11.66a.5.5,0,0,1-.5-.5C10.37,6.42,12.48,4,13.74,3a.51.51,0,0,1,.71.07.5.5,0,0,1-.08.7c-1.12.91-3,3.09-3,7.41A.5.5,0,0,1,10.87,11.66Z" style="fill:#383838"/><path d="M19.59,11.66a.5.5,0,0,1-.5-.5c0-4.65-2.22-6.82-3.17-7.53a.5.5,0,0,1-.1-.7.49.49,0,0,1,.7-.1c1.07.81,3.57,3.23,3.57,8.33A.5.5,0,0,1,19.59,11.66Z" style="fill:#383838"/><path d="M16.22,3.73a.54.54,0,0,1-.3-.1,4.05,4.05,0,0,0-.49-.33.5.5,0,0,1,.45-.89,4.51,4.51,0,0,1,.64.42.5.5,0,0,1,.1.7A.51.51,0,0,1,16.22,3.73Z" style="fill:#383838"/><path d="M16.25,3.33a.48.48,0,0,1-.5-.47c0-.86-.37-1.36-.62-1.36s-.63.5-.63,1.3a.54.54,0,0,1-.5.53.48.48,0,0,1-.5-.47h0c0-1.36.72-2.36,1.63-2.36s1.63,1,1.63,2.3A.54.54,0,0,1,16.25,3.33Z" style="fill:#383838"/><path d="M14.31,27.68a.5.5,0,0,1-.5-.5V20.35a.5.5,0,0,1,1,0v6.83A.5.5,0,0,1,14.31,27.68Z" style="fill:#383838"/><path d="M14.31,18.85a.5.5,0,0,1-.5-.5V12.7a.5.5,0,0,1,1,0v5.65A.5.5,0,0,1,14.31,18.85Z" style="fill:#383838"/><path d="M15.94,18.85a.51.51,0,0,1-.5-.5V12.7a.5.5,0,0,1,.5-.5.5.5,0,0,1,.5.5v5.65A.5.5,0,0,1,15.94,18.85Z" style="fill:#383838"/><path d="M15.94,27.68a.51.51,0,0,1-.5-.5V20.35a.5.5,0,0,1,.5-.5.5.5,0,0,1,.5.5v6.83A.5.5,0,0,1,15.94,27.68Z" style="fill:#383838"/><path d="M15.94,18.85H14.31a.5.5,0,0,1-.5-.5.5.5,0,0,1,.5-.5h1.63a.5.5,0,0,1,.5.5A.5.5,0,0,1,15.94,18.85Z" style="fill:#383838"/><path d="M23.9,20.85h-8a.51.51,0,0,1-.5-.5.5.5,0,0,1,.5-.5h8a.51.51,0,0,0,.5-.5.5.5,0,0,0-.5-.5h-8a.51.51,0,0,1-.5-.5.5.5,0,0,1,.5-.5h8a1.5,1.5,0,0,1,0,3Z" style="fill:#383838"/><path d="M15.94,20.85H14.31a.5.5,0,0,1-.5-.5.5.5,0,0,1,.5-.5h1.63a.5.5,0,0,1,.5.5A.5.5,0,0,1,15.94,20.85Z" style="fill:#383838"/><path d="M14.31,20.85h-8a1.5,1.5,0,0,1,0-3h8a.5.5,0,0,1,.5.5.5.5,0,0,1-.5.5h-8a.5.5,0,0,0-.5.5.51.51,0,0,0,.5.5h8a.5.5,0,0,1,.5.5A.5.5,0,0,1,14.31,20.85Z" style="fill:#383838"/><path d="M18.45,29.3H11.8a.5.5,0,0,1-.5-.5V27.18a.5.5,0,0,1,.5-.5h2.51a.5.5,0,0,1,.5.5.5.5,0,0,1-.5.5h-2v.62H18v-.62h-2a.51.51,0,0,1-.5-.5.5.5,0,0,1,.5-.5h2.51a.5.5,0,0,1,.5.5V28.8A.5.5,0,0,1,18.45,29.3Z" style="fill:#383838"/><path d="M15.94,27.68H14.31a.5.5,0,0,1-.5-.5.5.5,0,0,1,.5-.5h1.63a.5.5,0,0,1,.5.5A.5.5,0,0,1,15.94,27.68Z" style="fill:#383838"/><path d="M9.68,24.55H1.88a.51.51,0,0,1-.5-.5V14.44a.5.5,0,0,1,.5-.5h1.5a.5.5,0,0,1,.5.5v7.61h5.8a.5.5,0,0,1,.5.5v1.5A.5.5,0,0,1,9.68,24.55Zm-7.3-1h6.8v-.5H3.38a.51.51,0,0,1-.5-.5V14.94h-.5Z" style="fill:#383838"/><path d="M5.78,29.21a.5.5,0,0,1-.5-.5V24.05a.5.5,0,0,1,.5-.5.5.5,0,0,1,.5.5v4.66A.5.5,0,0,1,5.78,29.21Z" style="fill:#383838"/><path d="M8.47,29.21H3.09a.5.5,0,0,1-.5-.5.51.51,0,0,1,.5-.5H8.47a.5.5,0,0,1,.5.5A.5.5,0,0,1,8.47,29.21Z" style="fill:#383838"/><path d="M28.22,24.55h-7.8a.5.5,0,0,1-.5-.5v-1.5a.5.5,0,0,1,.5-.5h5.8V14.44a.5.5,0,0,1,.5-.5h1.5a.5.5,0,0,1,.5.5v9.61A.51.51,0,0,1,28.22,24.55Zm-7.3-1h6.8V14.94h-.5v7.61a.51.51,0,0,1-.5.5h-5.8Z" style="fill:#383838"/><path d="M24.32,29.21a.5.5,0,0,1-.5-.5V24.05a.5.5,0,0,1,.5-.5.5.5,0,0,1,.5.5v4.66A.5.5,0,0,1,24.32,29.21Z" style="fill:#383838"/><path d="M27,29.21H21.63a.5.5,0,0,1-.5-.5.5.5,0,0,1,.5-.5H27a.51.51,0,0,1,.5.5A.5.5,0,0,1,27,29.21Z" style="fill:#383838"/></svg>