<svg xmlns="http://www.w3.org/2000/svg" viewBox="0 0 30 30"><title>ic_veranda</title><path d="M13.81,15.53H9a.5.5,0,0,1-.5-.5V4a.5.5,0,0,1,.5-.5h4.77a.5.5,0,0,1,.5.5V15A.5.5,0,0,1,13.81,15.53Zm-4.27-1h3.77V4.47H9.54Z" style="fill:#383838"/><path d="M21,15.53H16.26a.5.5,0,0,1-.5-.5V4a.5.5,0,0,1,.5-.5H21a.5.5,0,0,1,.5.5V15A.5.5,0,0,1,21,15.53Zm-4.27-1h3.77V4.47H16.76Z" style="fill:#383838"/><path d="M7,22.71a.5.5,0,0,1-.5-.5v-7a.5.5,0,0,1,1,0v7A.5.5,0,0,1,7,22.71Z" style="fill:#383838"/><path d="M23,24.59a.5.5,0,0,1-.5-.5V15.18a.5.5,0,0,1,1,0v8.91A.5.5,0,0,1,23,24.59Z" style="fill:#383838"/><path d="M23,15.68a.5.5,0,0,1-.5-.5v-13H7.5v13a.5.5,0,0,1-1,0V1.68a.5.5,0,0,1,.5-.5H23a.5.5,0,0,1,.5.5v13.5A.5.5,0,0,1,23,15.68Z" style="fill:#383838"/><path d="M23,15.68H19.76a.5.5,0,1,1,0-1H23a.5.5,0,0,1,0,1Z" style="fill:#383838"/><path d="M19.76,15.68H16.6a.5.5,0,0,1,0-1h3.16a.5.5,0,0,1,0,1Z" style="fill:#383838"/><path d="M25.08,15.68H23a.5.5,0,0,1,0-1h2.08a.5.5,0,0,1,0,1Z" style="fill:#383838"/><path d="M13.44,15.68H10.28a.5.5,0,0,1,0-1h3.16a.5.5,0,0,1,0,1Z" style="fill:#383838"/><path d="M2.43,25.67a.48.48,0,0,1-.5-.48v-.05a.5.5,0,0,1,.5-.5.5.5,0,0,1,.5.5A.53.53,0,0,1,2.43,25.67Z" style="fill:#383838"/><path d="M10.28,15.68H7a.5.5,0,0,1,0-1h3.28a.5.5,0,1,1,0,1Z" style="fill:#383838"/><path d="M7,15.68H5a.5.5,0,0,1,0-1H7a.5.5,0,0,1,0,1Z" style="fill:#383838"/><path d="M27.41,24.76a.5.5,0,0,1-.5-.5V15.68H25.08a.5.5,0,0,1,0-1h2.33a.5.5,0,0,1,.5.5v9.08A.5.5,0,0,1,27.41,24.76Z" style="fill:#383838"/><path d="M16.6,15.68H13.44a.5.5,0,1,1,0-1H16.6a.5.5,0,0,1,0,1Z" style="fill:#383838"/><path d="M27.41,25.44a.5.5,0,0,1-.5-.5v-.68a.5.5,0,0,1,1,0v.68A.5.5,0,0,1,27.41,25.44Z" style="fill:#383838"/><path d="M2.43,25.64a.5.5,0,0,1-.5-.5v-10a.5.5,0,0,1,.5-.5H5a.5.5,0,1,1,0,1h-2v9.46A.5.5,0,0,1,2.43,25.64Z" style="fill:#383838"/><path d="M5,22.55a.5.5,0,0,1-.5-.5V15.18a.5.5,0,0,1,.5-.5.5.5,0,0,1,.5.5v6.87A.5.5,0,0,1,5,22.55Z" style="fill:#383838"/><path d="M25.08,24a.5.5,0,0,1-.5-.5v-8.3a.5.5,0,0,1,.5-.5.5.5,0,0,1,.5.5v8.3A.5.5,0,0,1,25.08,24Z" style="fill:#383838"/><path d="M19.76,22.91a.51.51,0,0,1-.5-.5V15.18a.5.5,0,0,1,.5-.5.5.5,0,0,1,.5.5v7.23A.5.5,0,0,1,19.76,22.91Z" style="fill:#383838"/><path d="M16.6,24.38a.5.5,0,0,1-.5-.5v-8.7a.5.5,0,0,1,.5-.5.5.5,0,0,1,.5.5v8.7A.5.5,0,0,1,16.6,24.38Z" style="fill:#383838"/><path d="M13.44,23.55a.51.51,0,0,1-.5-.5V15.18a.5.5,0,0,1,.5-.5.5.5,0,0,1,.5.5v7.87A.5.5,0,0,1,13.44,23.55Z" style="fill:#383838"/><path d="M10.28,24a.51.51,0,0,1-.5-.5V15.18a.5.5,0,0,1,.5-.5.5.5,0,0,1,.5.5v8.27A.5.5,0,0,1,10.28,24Z" style="fill:#383838"/><path d="M28.5,28.82H18.64a.5.5,0,0,1,0-1H28v-2h-.43a.5.5,0,0,1,0-1h.93a.5.5,0,0,1,.5.5v3A.5.5,0,0,1,28.5,28.82Z" style="fill:#383838"/><path d="M18.64,28.82H14.57a.5.5,0,0,1,0-1h4.07a.5.5,0,0,1,0,1Z" style="fill:#383838"/><path d="M14.57,28.82H13.05a.5.5,0,0,1,0-1h1.52a.5.5,0,0,1,0,1Z" style="fill:#383838"/><path d="M13.05,28.82H5.73a.5.5,0,1,1,0-1h7.32a.5.5,0,1,1,0,1Z" style="fill:#383838"/><path d="M5.73,28.82H1.5a.5.5,0,0,1-.5-.5v-3a.5.5,0,0,1,.5-.5h.94a.5.5,0,1,1,0,1H2v2H5.73a.5.5,0,0,1,0,1Z" style="fill:#383838"/><path d="M27.57,25.82H2.44a.5.5,0,0,1,0-1H27.57a.5.5,0,0,1,0,1Z" style="fill:#383838"/><path d="M22.87,24.66l-.09,0c-.16,0-.35-.12-.4-.28a2.25,2.25,0,0,0-2.14-1.49,2.6,2.6,0,0,0-.4,0,.5.5,0,1,1-.16-1,2.59,2.59,0,0,1,.56-.05,3.27,3.27,0,0,1,2.92,1.77.47.47,0,0,1,.22.17.48.48,0,0,1-.08.68A.74.74,0,0,1,22.87,24.66Z" style="fill:#383838"/><path d="M17.66,24.59a.41.41,0,0,1-.19,0,2.36,2.36,0,0,0-.87-.17.5.5,0,0,1-.5-.5.51.51,0,0,1,.5-.5,3.58,3.58,0,0,1,.8.1,3.23,3.23,0,0,1,2.28-1.56.5.5,0,1,1,.16,1,2.25,2.25,0,0,0-1.72,1.37.53.53,0,0,1-.27.28A.65.65,0,0,1,17.66,24.59Z" style="fill:#383838"/><path d="M23,24.59a.54.54,0,0,1-.41-.21.5.5,0,0,1,.12-.7,2.2,2.2,0,0,1,1.73-.4,2.09,2.09,0,0,1,.44-.25.49.49,0,0,1,.66.25.51.51,0,0,1-.25.66,1.25,1.25,0,0,0-.37.24.49.49,0,0,1-.49.12,1.21,1.21,0,0,0-1.14.19A.46.46,0,0,1,23,24.59Z" style="fill:#383838"/><path d="M27.41,24.76A.49.49,0,0,1,27,24.5a1.29,1.29,0,0,0-1.68-.56.5.5,0,0,1-.66-.25.51.51,0,0,1,.25-.67,2.32,2.32,0,0,1,3,1,.5.5,0,0,1-.21.68A.46.46,0,0,1,27.41,24.76Z" style="fill:#383838"/><path d="M27.58,25.82h-.09a.5.5,0,0,1-.41-.58,1.23,1.23,0,0,0,0-.2A1.12,1.12,0,0,0,27,24.5a.5.5,0,0,1,.21-.68.5.5,0,0,1,.67.21,2.12,2.12,0,0,1,.25,1,2.43,2.43,0,0,1,0,.38A.51.51,0,0,1,27.58,25.82Z" style="fill:#383838"/><path d="M15.35,24.69a.5.5,0,0,1-.41-.22,2.29,2.29,0,0,0-1.57-.93A.5.5,0,0,1,13,23a.51.51,0,0,1,.56-.43,3.32,3.32,0,0,1,2,1,3.24,3.24,0,0,1,1.1-.2.5.5,0,0,1,.5.5.5.5,0,0,1-.5.5,2.4,2.4,0,0,0-1,.25A.43.43,0,0,1,15.35,24.69Z" style="fill:#383838"/><path d="M2.43,25.64a.5.5,0,0,1-.5-.5,3.68,3.68,0,0,1,2.92-3.57.49.49,0,0,1,.6.37.5.5,0,0,1-.37.6,2.69,2.69,0,0,0-2.15,2.6A.5.5,0,0,1,2.43,25.64Z" style="fill:#383838"/><path d="M2.44,25.81A.49.49,0,0,1,2,25.34l.49,0h-.5a1,1,0,0,1,0-.17.5.5,0,0,1,.5-.5.5.5,0,0,1,.5.5s0,.14,0,.16a.48.48,0,0,1-.47.51Z" style="fill:#383838"/><path d="M7,22.71a.43.43,0,0,1-.19,0,2.73,2.73,0,0,0-1.74-.13.49.49,0,0,1-.59-.38.48.48,0,0,1,.37-.59,3.62,3.62,0,0,1,2.34.18.49.49,0,0,1,.27.65A.5.5,0,0,1,7,22.71Z" style="fill:#383838"/><path d="M11.09,24.29a.47.47,0,0,1-.28-.09,1.86,1.86,0,0,0-.63-.26.5.5,0,0,1-.38-.6.49.49,0,0,1,.59-.38,2.69,2.69,0,0,1,.64.22,3.13,3.13,0,0,1,2.39-.64.54.54,0,0,1,.47.57.47.47,0,0,1-.52.43l-.11,0a2.21,2.21,0,0,0-1.82.62A.5.5,0,0,1,11.09,24.29Z" style="fill:#383838"/><path d="M8.66,24.19a.32.32,0,0,1-.14,0,.45.45,0,0,1-.3-.24,2.8,2.8,0,0,0-1.41-1.26.5.5,0,1,1,.38-.92,3.81,3.81,0,0,1,1.66,1.3L9.13,23a2.82,2.82,0,0,1,1.26,0,.49.49,0,0,1,.38.59.5.5,0,0,1-.59.39,1.84,1.84,0,0,0-.81,0,2.43,2.43,0,0,0-.47.19A.5.5,0,0,1,8.66,24.19Z" style="fill:#383838"/></svg>