<svg xmlns="http://www.w3.org/2000/svg" viewBox="0 0 30 30"><title>ic_videophone</title><path d="M13.8,19.61H4a.5.5,0,0,1-.5-.5V8.23a.51.51,0,0,1,.5-.5H13.8a.51.51,0,0,1,.5.5V19.11A.5.5,0,0,1,13.8,19.61Zm-9.26-1H13.3V8.73H4.54Z" style="fill:#383838"/><path d="M18.23,11H16.07a.38.38,0,0,1-.38-.38V8.46a.38.38,0,0,1,.38-.37h2.16a.37.37,0,0,1,.37.37v2.16A.37.37,0,0,1,18.23,11Zm-1.79-.75h1.41V8.84H16.44Z" style="fill:#383838"/><path d="M22.22,11H20.06a.38.38,0,0,1-.38-.38V8.46a.38.38,0,0,1,.38-.37h2.16a.37.37,0,0,1,.37.37v2.16A.37.37,0,0,1,22.22,11Zm-1.79-.75h1.41V8.84H20.43Z" style="fill:#383838"/><path d="M26.21,11H24.05a.38.38,0,0,1-.38-.38V8.46a.38.38,0,0,1,.38-.37h2.16a.37.37,0,0,1,.37.37v2.16A.37.37,0,0,1,26.21,11Zm-1.79-.75h1.41V8.84H24.42Z" style="fill:#383838"/><path d="M18.23,14.77H16.07a.38.38,0,0,1-.38-.38V12.23a.37.37,0,0,1,.38-.37h2.16a.36.36,0,0,1,.37.37v2.16A.37.37,0,0,1,18.23,14.77ZM16.44,14h1.41V12.61H16.44Z" style="fill:#383838"/><path d="M22.22,14.77H20.06a.38.38,0,0,1-.38-.38V12.23a.37.37,0,0,1,.38-.37h2.16a.36.36,0,0,1,.37.37v2.16A.37.37,0,0,1,22.22,14.77ZM20.43,14h1.41V12.61H20.43Z" style="fill:#383838"/><path d="M26.21,14.77H24.05a.38.38,0,0,1-.38-.38V12.23a.37.37,0,0,1,.38-.37h2.16a.36.36,0,0,1,.37.37v2.16A.37.37,0,0,1,26.21,14.77ZM24.42,14h1.41V12.61H24.42Z" style="fill:#383838"/><path d="M18.23,18.54H16.07a.38.38,0,0,1-.38-.38V16a.37.37,0,0,1,.38-.37h2.16a.36.36,0,0,1,.37.37v2.16A.37.37,0,0,1,18.23,18.54Zm-1.79-.75h1.41V16.38H16.44Z" style="fill:#383838"/><path d="M22.22,18.54H20.06a.38.38,0,0,1-.38-.38V16a.37.37,0,0,1,.38-.37h2.16a.36.36,0,0,1,.37.37v2.16A.37.37,0,0,1,22.22,18.54Zm-1.79-.75h1.41V16.38H20.43Z" style="fill:#383838"/><path d="M26.21,18.54H24.05a.38.38,0,0,1-.38-.38V16a.37.37,0,0,1,.38-.37h2.16a.36.36,0,0,1,.37.37v2.16A.37.37,0,0,1,26.21,18.54Zm-1.79-.75h1.41V16.38H24.42Z" style="fill:#383838"/><path d="M18.23,22.18H16.07a.38.38,0,0,1-.38-.38V19.64a.38.38,0,0,1,.38-.38h2.16a.37.37,0,0,1,.37.38V21.8A.37.37,0,0,1,18.23,22.18Zm-1.79-.75h1.41V20H16.44Z" style="fill:#383838"/><path d="M22.22,22.18H20.06a.38.38,0,0,1-.38-.38V19.64a.38.38,0,0,1,.38-.38h2.16a.37.37,0,0,1,.37.38V21.8A.37.37,0,0,1,22.22,22.18Zm-1.79-.75h1.41V20H20.43Z" style="fill:#383838"/><path d="M26.21,22.18H24.05a.38.38,0,0,1-.38-.38V19.64a.38.38,0,0,1,.38-.38h2.16a.37.37,0,0,1,.37.38V21.8A.37.37,0,0,1,26.21,22.18Zm-1.79-.75h1.41V20H24.42Z" style="fill:#383838"/><path d="M26.18,5.4H3.71a.5.5,0,0,1-.5-.5V4.07a1.5,1.5,0,0,1,1.5-1.5H25.18a1.5,1.5,0,0,1,1.5,1.5V4.9A.5.5,0,0,1,26.18,5.4Zm-22-1H25.68V4.07a.5.5,0,0,0-.5-.5H4.71a.5.5,0,0,0-.5.5Z" style="fill:#383838"/><path d="M25.18,27.43H4.71a1.5,1.5,0,0,1-1.5-1.5V25.1a.5.5,0,0,1,.5-.5H26.18a.5.5,0,0,1,.5.5v.83A1.5,1.5,0,0,1,25.18,27.43Zm-21-1.83v.33a.5.5,0,0,0,.5.5H25.18a.5.5,0,0,0,.5-.5V25.6Z" style="fill:#383838"/><path d="M27.5,25.5H2.5A1.5,1.5,0,0,1,1,24V6A1.5,1.5,0,0,1,2.5,4.5h25A1.5,1.5,0,0,1,29,6V24A1.5,1.5,0,0,1,27.5,25.5Zm-25-20A.5.5,0,0,0,2,6V24a.5.5,0,0,0,.5.5h25A.5.5,0,0,0,28,24V6a.5.5,0,0,0-.5-.5Z" style="fill:#383838"/><path d="M13.8,22.18H4a.37.37,0,0,1-.37-.38A.36.36,0,0,1,4,21.43H13.8a.37.37,0,0,1,.37.37A.38.38,0,0,1,13.8,22.18Z" style="fill:#383838"/><path d="M11.45,19.54A.51.51,0,0,1,11,19V16.93A1.49,1.49,0,0,0,9.87,15.5a.52.52,0,0,1-.36-.42.49.49,0,0,1,.23-.49,1.55,1.55,0,1,0-1.64,0,.54.54,0,0,1,.23.5A.52.52,0,0,1,8,15.5a1.47,1.47,0,0,0-1.08,1.43V19a.51.51,0,0,1-.5.5.5.5,0,0,1-.5-.5V16.93A2.48,2.48,0,0,1,7,14.9a2.49,2.49,0,0,1-.58-1.62,2.55,2.55,0,1,1,4.52,1.62,2.48,2.48,0,0,1,1.06,2V19A.5.5,0,0,1,11.45,19.54Z" style="fill:#383838"/></svg>