<svg xmlns="http://www.w3.org/2000/svg" viewBox="0 0 30 30"><title>ic_airconditioner</title><path d="M27.47,16.25H26a.5.5,0,0,1-.5-.5V13a.51.51,0,0,0-.5-.5H5a.5.5,0,0,0-.5.5v2.72a.5.5,0,0,1-.5.5H2.47A1.5,1.5,0,0,1,1,14.75v-12a1.5,1.5,0,0,1,1.5-1.5h25A1.5,1.5,0,0,1,29,2.75v12A1.5,1.5,0,0,1,27.47,16.25Zm-1-1h1a.51.51,0,0,0,.5-.5v-12a.5.5,0,0,0-.5-.5h-25a.5.5,0,0,0-.5.5v12a.5.5,0,0,0,.5.5h1V13A1.5,1.5,0,0,1,5,11.53H25a1.51,1.51,0,0,1,1.5,1.5Z" style="fill:#383838"/><path d="M26,16.25H4a.5.5,0,0,1-.5-.5V13A1.5,1.5,0,0,1,5,11.53H25a1.51,1.51,0,0,1,1.5,1.5v2.72A.5.5,0,0,1,26,16.25Zm-21.5-1h21V13a.51.51,0,0,0-.5-.5H5a.5.5,0,0,0-.5.5Z" style="fill:#383838"/><path d="M25.57,10.7H22.73A.76.76,0,0,1,22,9.93V9.72A.76.76,0,0,1,22.73,9h2.84a.76.76,0,0,1,.77.77v.21A.76.76,0,0,1,25.57,10.7Zm-2.84-1v.23l2.85,0,0-.23Z" style="fill:#383838"/><path d="M20.6,10.7A.88.88,0,1,1,20.6,9a.88.88,0,0,1,0,1.75Zm0-1a.13.13,0,0,0-.13.12c0,.14.25.14.25,0A.12.12,0,0,0,20.6,9.7Z" style="fill:#383838"/><path d="M18.52,10.7a.88.88,0,1,1,0-1.75.88.88,0,0,1,0,1.75Zm0-1a.13.13,0,0,0-.13.12c0,.14.25.14.25,0A.12.12,0,0,0,18.52,9.7Z" style="fill:#383838"/><path d="M23.51,14.39H6.13a.5.5,0,1,1,0-1H23.51a.5.5,0,1,1,0,1Z" style="fill:#383838"/><path d="M2.14,26.57a.5.5,0,0,1,0-1,2.37,2.37,0,0,0,1.76-.75c1.86-1.92,1.73-6.67,1.73-6.72a.5.5,0,0,1,.49-.51h0a.5.5,0,0,1,.5.48c0,.21.14,5.22-2,7.44A3.34,3.34,0,0,1,2.14,26.57Z" style="fill:#383838"/><path d="M27.5,26.57A3.36,3.36,0,0,1,25,25.51c-2.15-2.22-2-7.23-2-7.44a.47.47,0,0,1,.52-.48.5.5,0,0,1,.48.51s-.12,4.8,1.73,6.72a2.37,2.37,0,0,0,1.76.75.5.5,0,0,1,0,1Z" style="fill:#383838"/><path d="M11.62,26.51a.5.5,0,0,1-.5-.5V21.2a.5.5,0,0,1,1,0V26A.5.5,0,0,1,11.62,26.51Z" style="fill:#383838"/><path d="M18.52,26.51A.5.5,0,0,1,18,26V21.2a.5.5,0,0,1,1,0V26A.5.5,0,0,1,18.52,26.51Z" style="fill:#383838"/><path d="M18.52,20a.5.5,0,0,1-.5-.5V18.09a.5.5,0,0,1,1,0v1.42A.5.5,0,0,1,18.52,20Z" style="fill:#383838"/><path d="M11.62,20a.5.5,0,0,1-.5-.5V18.09a.5.5,0,0,1,1,0v1.42A.5.5,0,0,1,11.62,20Z" style="fill:#383838"/><path d="M9,27.82a.36.36,0,0,1-.2-.06L5.93,25.9a.37.37,0,0,1-.11-.52.37.37,0,0,1,.52-.11l2.88,1.86a.38.38,0,0,1,.11.52A.4.4,0,0,1,9,27.82Z" style="fill:#383838"/><path d="M6.13,27.82a.38.38,0,0,1-.2-.69l2.88-1.86a.38.38,0,0,1,.52.11.38.38,0,0,1-.11.52L6.34,27.76A.42.42,0,0,1,6.13,27.82Z" style="fill:#383838"/><path d="M7.57,28.6a.36.36,0,0,1-.37-.37V24.8a.37.37,0,0,1,.37-.38A.38.38,0,0,1,8,24.8v3.43A.37.37,0,0,1,7.57,28.6Z" style="fill:#383838"/><path d="M16.26,22.43a.42.42,0,0,1-.21-.06l-2.37-1.54a.35.35,0,0,1-.11-.51.37.37,0,0,1,.52-.12l2.37,1.54a.38.38,0,0,1-.2.69Z" style="fill:#383838"/><path d="M13.88,22.43a.38.38,0,0,1-.2-.69l2.37-1.54a.37.37,0,0,1,.52.12.35.35,0,0,1-.11.51l-2.37,1.54A.42.42,0,0,1,13.88,22.43Z" style="fill:#383838"/><path d="M15.07,23.08a.37.37,0,0,1-.37-.38V19.87a.37.37,0,0,1,.37-.37.38.38,0,0,1,.38.37V22.7A.38.38,0,0,1,15.07,23.08Z" style="fill:#383838"/><path d="M23.31,28a.42.42,0,0,1-.21-.06l-2.71-1.75a.38.38,0,0,1,.41-.63l2.71,1.75a.38.38,0,0,1,.11.52A.37.37,0,0,1,23.31,28Z" style="fill:#383838"/><path d="M20.6,28a.4.4,0,0,1-.32-.17.38.38,0,0,1,.11-.52l2.71-1.75a.38.38,0,1,1,.41.63L20.8,27.91A.36.36,0,0,1,20.6,28Z" style="fill:#383838"/><path d="M22,28.71a.37.37,0,0,1-.37-.38V25.11a.37.37,0,0,1,.37-.38.38.38,0,0,1,.38.38v3.22A.38.38,0,0,1,22,28.71Z" style="fill:#383838"/></svg>