<svg xmlns="http://www.w3.org/2000/svg" viewBox="0 0 30 30"><title>ic_booth</title><path d="M26.06,29.12H3.94a.51.51,0,0,1-.5-.5v-27a.5.5,0,0,1,.5-.5H26.06a.5.5,0,0,1,.5.5v27A.51.51,0,0,1,26.06,29.12Zm-21.62-1H25.56v-26H4.44Z" style="fill:#383838"/><path d="M26.06,3.94H3.94a.5.5,0,0,1,0-1H26.06a.5.5,0,0,1,0,1Z" style="fill:#383838"/><path d="M26.06,27.37H3.94a.38.38,0,0,1,0-.75H26.06a.38.38,0,0,1,0,.75Z" style="fill:#383838"/><path d="M21.21,6.42a.51.51,0,0,1-.5-.5V3.58a.5.5,0,0,1,.5-.5.5.5,0,0,1,.5.5V5.92A.5.5,0,0,1,21.21,6.42Z" style="fill:#383838"/><path d="M23.11,8.48a.5.5,0,0,1-.5-.5V7.26a.85.85,0,0,0-.85-.84h-.55a.51.51,0,0,1-.5-.5.5.5,0,0,1,.5-.5h.55a1.85,1.85,0,0,1,1.85,1.84V8A.51.51,0,0,1,23.11,8.48Z" style="fill:#383838"/><path d="M19.32,8.48a.5.5,0,0,1-.5-.5V7.26a1.85,1.85,0,0,1,1.84-1.84h.55a.5.5,0,0,1,.5.5.5.5,0,0,1-.5.5h-.55a.85.85,0,0,0-.84.84V8A.5.5,0,0,1,19.32,8.48Z" style="fill:#383838"/><path d="M23.11,8.48H19.32a.5.5,0,0,1-.5-.5.5.5,0,0,1,.5-.5h3.79a.5.5,0,0,1,.5.5A.51.51,0,0,1,23.11,8.48Z" style="fill:#383838"/><path d="M23.81,9.75H18.62a.5.5,0,0,1-.5-.5V8a.5.5,0,0,1,.5-.5h5.19a.5.5,0,0,1,.5.5V9.25A.5.5,0,0,1,23.81,9.75Zm-4.69-1h4.19V8.54H19.12Z" style="fill:#383838"/><path d="M19.61,17.38a.37.37,0,0,1-.38-.37V11.28a.38.38,0,1,1,.75,0V17A.37.37,0,0,1,19.61,17.38Z" style="fill:#383838"/><path d="M21.21,17.38a.37.37,0,0,1-.37-.37V11.28a.38.38,0,1,1,.75,0V17A.37.37,0,0,1,21.21,17.38Z" style="fill:#383838"/><path d="M22.82,17.38a.37.37,0,0,1-.38-.37V11.28a.38.38,0,0,1,.38-.38.37.37,0,0,1,.37.38V17A.36.36,0,0,1,22.82,17.38Z" style="fill:#383838"/><path d="M19.61,20a.38.38,0,0,1-.38-.38v-.77a.38.38,0,1,1,.75,0v.77A.38.38,0,0,1,19.61,20Z" style="fill:#383838"/><path d="M22.82,20a.38.38,0,0,1-.38-.38v-.77a.38.38,0,0,1,.38-.38.37.37,0,0,1,.37.38v.77A.37.37,0,0,1,22.82,20Z" style="fill:#383838"/><path d="M21.21,20a.38.38,0,0,1-.37-.38v-.77a.38.38,0,1,1,.75,0v.77A.38.38,0,0,1,21.21,20Z" style="fill:#383838"/><path d="M12,27.09a.51.51,0,0,1-.5-.5v-23a.5.5,0,0,1,.5-.5.5.5,0,0,1,.5.5v23A.5.5,0,0,1,12,27.09Z" style="fill:#383838"/><path d="M10.28,16.43H9.33A.38.38,0,0,1,9,16.06V14a.38.38,0,0,1,.37-.37h.95a.38.38,0,0,1,.37.37v2A.38.38,0,0,1,10.28,16.43Zm-.57-.75H9.9V14.4H9.71Z" style="fill:#383838"/><path d="M14.44,16.43H13.5a.37.37,0,0,1-.37-.37V14a.37.37,0,0,1,.37-.37h.94a.38.38,0,0,1,.38.37v2A.38.38,0,0,1,14.44,16.43Zm-.56-.75h.19V14.4h-.19Z" style="fill:#383838"/><path d="M17,22.93a1,1,0,1,1,1-1A1,1,0,0,1,17,22.93Zm0-1.25a.25.25,0,0,0-.25.25c0,.28.5.28.5,0A.26.26,0,0,0,17,21.68Z" style="fill:#383838"/><path d="M24.3,23a1.07,1.07,0,1,1,0-2.13,1.07,1.07,0,0,1,0,2.13Zm0-1.38a.32.32,0,1,0,.31.31A.31.31,0,0,0,24.3,21.62Z" style="fill:#383838"/><path d="M19.72,24.15a1.07,1.07,0,1,1,1.07-1.07A1.07,1.07,0,0,1,19.72,24.15Zm0-1.39a.32.32,0,0,0,0,.64.32.32,0,0,0,0-.64Z" style="fill:#383838"/><path d="M25.31,27.28l-.11,0a.38.38,0,0,1-.25-.47,2,2,0,0,0,.11-.65,2.24,2.24,0,0,0-4.28-.92.39.39,0,0,1-.37.22l-.1,0a2.14,2.14,0,0,0-1,.23.38.38,0,0,1-.45-.1,2.29,2.29,0,0,0-3.38,0,.38.38,0,0,1-.48.08,1.28,1.28,0,0,0-.68-.2,1.3,1.3,0,0,0-1.3,1.3v.14a.37.37,0,1,1-.74.09l.37-.05h-.38a1.09,1.09,0,0,1,0-.18,2.05,2.05,0,0,1,2.05-2,2,2,0,0,1,.8.17,3.06,3.06,0,0,1,4.12,0,2.81,2.81,0,0,1,1-.19,3,3,0,0,1,5.59,1.47,3.09,3.09,0,0,1-.14.87A.38.38,0,0,1,25.31,27.28Z" style="fill:#383838"/></svg>