<svg xmlns="http://www.w3.org/2000/svg" viewBox="0 0 30 30"><title>ic_bath</title><path d="M18.29,25.87H11.54a9.33,9.33,0,0,1-1.63-.15.5.5,0,0,1,.18-1,8.26,8.26,0,0,0,1.45.14h6.75a7.34,7.34,0,0,0,1.36-.13.51.51,0,0,1,.58.41.5.5,0,0,1-.41.58A9.26,9.26,0,0,1,18.29,25.87Z" style="fill:#383838"/><path d="M8.15,25.17a.45.45,0,0,1-.2,0,9.22,9.22,0,0,1-5.57-8.06.5.5,0,0,1,.48-.52.51.51,0,0,1,.52.48,8.22,8.22,0,0,0,5,7.18.5.5,0,0,1-.19,1Z" style="fill:#383838"/><path d="M21.6,25.21a.5.5,0,0,1-.47-.3.52.52,0,0,1,.27-.66A8.18,8.18,0,0,0,26.45,17a.49.49,0,0,1,.52-.48.5.5,0,0,1,.48.52,9.21,9.21,0,0,1-5.66,8.11Z" style="fill:#383838"/><path d="M19.74,25.74a.5.5,0,0,1-.5-.42.51.51,0,0,1,.41-.58,7.75,7.75,0,0,0,1.75-.49.5.5,0,1,1,.39.93,9.36,9.36,0,0,1-2,.55Z" style="fill:#383838"/><path d="M10,25.72H9.91a9.26,9.26,0,0,1-2-.59.5.5,0,0,1-.26-.66.49.49,0,0,1,.65-.26,8,8,0,0,0,1.75.52.5.5,0,0,1-.09,1Z" style="fill:#383838"/><path d="M2.88,17.55H2.5A1.37,1.37,0,0,1,1,16.31V14.84A1.38,1.38,0,0,1,2.5,13.6H9.07a.5.5,0,0,1,.5.5.5.5,0,0,1-.5.5H2.5c-.31,0-.5.16-.5.24v1.47c0,.09.19.24.5.24h.38a.5.5,0,0,1,.5.5A.5.5,0,0,1,2.88,17.55Z" style="fill:#383838"/><path d="M27,17.55H9a.5.5,0,0,1-.5-.5.5.5,0,0,1,.5-.5H27a.5.5,0,0,1,.5.5A.5.5,0,0,1,27,17.55Z" style="fill:#383838"/><path d="M4.07,17.55H2.88a.5.5,0,0,1-.5-.5.5.5,0,0,1,.5-.5H4.07a.51.51,0,0,1,.5.5A.5.5,0,0,1,4.07,17.55Z" style="fill:#383838"/><path d="M9,17.55H4.07a.5.5,0,0,1-.5-.5.5.5,0,0,1,.5-.5H9a.5.5,0,0,1,.5.5A.5.5,0,0,1,9,17.55Z" style="fill:#383838"/><path d="M27.5,17.55H27a.5.5,0,0,1-.5-.5.51.51,0,0,1,.5-.5h.55c.33,0,.5-.17.5-.24V14.84c0-.07-.17-.24-.5-.24H27a.5.5,0,0,1-.5-.5.5.5,0,0,1,.5-.5h.53A1.38,1.38,0,0,1,29,14.84v1.47A1.37,1.37,0,0,1,27.5,17.55Z" style="fill:#383838"/><path d="M27,14.6H9.07a.5.5,0,0,1-.5-.5.51.51,0,0,1,.5-.5H27a.5.5,0,0,1,.5.5A.5.5,0,0,1,27,14.6Z" style="fill:#383838"/><path d="M8.15,29.07a.63.63,0,0,1-.45-.18c-.52-.29-.68-1.24,0-4.32a.5.5,0,0,1,.59-.39.51.51,0,0,1,.39.59,12.6,12.6,0,0,0-.4,3.08,13.64,13.64,0,0,0,1.29-2.8.5.5,0,0,1,.65-.29.49.49,0,0,1,.29.64c-1.27,3.37-1.86,3.66-2.3,3.67Z" style="fill:#383838"/><path d="M21.58,29.07h0c-.44,0-1-.3-2.29-3.66a.5.5,0,0,1,.29-.64.49.49,0,0,1,.64.29,14.35,14.35,0,0,0,1.29,2.79,12.11,12.11,0,0,0-.38-3,.5.5,0,1,1,1-.21c.63,3.06.47,4,0,4.28A.63.63,0,0,1,21.58,29.07Z" style="fill:#383838"/><path d="M3.94,14.6a.5.5,0,0,1-.5-.5V3.57a2.64,2.64,0,0,1,5.28,0V3.8a.5.5,0,0,1-.5.5.51.51,0,0,1-.5-.5V3.57a1.64,1.64,0,0,0-3.28,0V14.1A.5.5,0,0,1,3.94,14.6Z" style="fill:#383838"/><path d="M6.15,6.61a.5.5,0,0,1-.49-.39,2.1,2.1,0,0,1-.06-.48V5.47A2.17,2.17,0,0,1,7.77,3.3h.45a.5.5,0,0,1,.5.5.5.5,0,0,1-.5.5H7.77A1.17,1.17,0,0,0,6.6,5.47v.27a1.3,1.3,0,0,0,0,.26.49.49,0,0,1-.37.6Z" style="fill:#383838"/><path d="M10.23,6.61h-.11A.51.51,0,0,1,9.74,6a1.3,1.3,0,0,0,0-.26V5.47A1.17,1.17,0,0,0,8.6,4.3H8.22a.51.51,0,0,1-.5-.5.5.5,0,0,1,.5-.5H8.6a2.17,2.17,0,0,1,2.17,2.17v.27a2.8,2.8,0,0,1,0,.48A.51.51,0,0,1,10.23,6.61Z" style="fill:#383838"/><path d="M11.22,7.85h-6a.51.51,0,0,1-.5-.5V6.11a.5.5,0,0,1,.5-.5h.9a.5.5,0,0,1,0,1h-.4v.24h5V6.61h-.49a.5.5,0,0,1,0-1h1a.5.5,0,0,1,.5.5V7.35A.5.5,0,0,1,11.22,7.85Z" style="fill:#383838"/><path d="M10.23,6.61h-2a.5.5,0,0,1,0-1h2a.5.5,0,0,1,0,1Z" style="fill:#383838"/><path d="M8.22,6.61H6.15a.5.5,0,0,1,0-1H8.22a.5.5,0,0,1,0,1Z" style="fill:#383838"/><path d="M5.88,12a.37.37,0,0,1-.37-.37V9a.37.37,0,0,1,.37-.37A.38.38,0,0,1,6.26,9v2.61A.38.38,0,0,1,5.88,12Z" style="fill:#383838"/><path d="M7.52,12a.38.38,0,0,1-.38-.37V9a.38.38,0,0,1,.75,0v2.61A.38.38,0,0,1,7.52,12Z" style="fill:#383838"/><path d="M9,12a.37.37,0,0,1-.37-.37V9A.37.37,0,0,1,9,8.66.38.38,0,0,1,9.34,9v2.61A.38.38,0,0,1,9,12Z" style="fill:#383838"/><path d="M10.6,12a.38.38,0,0,1-.38-.37V9A.38.38,0,0,1,11,9v2.61A.38.38,0,0,1,10.6,12Z" style="fill:#383838"/><path d="M15.67,10.91a1.42,1.42,0,1,1,1.42-1.42A1.41,1.41,0,0,1,15.67,10.91Zm0-1.83a.41.41,0,0,0-.41.41.41.41,0,0,0,.41.42.42.42,0,0,0,.42-.42A.41.41,0,0,0,15.67,9.08Z" style="fill:#383838"/><path d="M21.24,9.49a1.25,1.25,0,1,1,1.25-1.25A1.25,1.25,0,0,1,21.24,9.49Zm0-1.5a.25.25,0,0,0-.25.25c0,.27.5.27.5,0A.25.25,0,0,0,21.24,8Z" style="fill:#383838"/><path d="M18.84,7.66a1.25,1.25,0,1,1,1.25-1.25A1.25,1.25,0,0,1,18.84,7.66Zm0-1.5a.25.25,0,0,0-.25.25c0,.28.5.28.5,0A.25.25,0,0,0,18.84,6.16Z" style="fill:#383838"/><path d="M26.93,14.37a.39.39,0,0,1-.15,0,.5.5,0,0,1-.33-.62,2.59,2.59,0,0,0,.11-.68,2.33,2.33,0,0,0-4.45-1,.51.51,0,0,1-.49.29H21.5a2.16,2.16,0,0,0-1,.23.5.5,0,0,1-.6-.13,2.36,2.36,0,0,0-3.51,0,.5.5,0,0,1-.64.09,1.31,1.31,0,0,0-2,1.12v.13a.49.49,0,0,1-.43.56.5.5,0,0,1-.56-.44l.5-.06-.5,0a.75.75,0,0,1,0-.21A2.32,2.32,0,0,1,15,11.36a2.26,2.26,0,0,1,.85.17,3.39,3.39,0,0,1,4.5,0,3.35,3.35,0,0,1,1-.2,3.33,3.33,0,0,1,6.2,1.69,3.22,3.22,0,0,1-.16,1A.49.49,0,0,1,26.93,14.37Z" style="fill:#383838"/></svg>