<svg xmlns="http://www.w3.org/2000/svg" viewBox="0 0 30 30"><title>ic_toilet</title><path d="M18.85,28.54H7.43a.51.51,0,0,1-.5-.5c0-.57,0-1.1,0-1.62a.5.5,0,0,1,.49-.51.54.54,0,0,1,.51.5c0,.36,0,.74,0,1.13H18.26c-.18-1.53-.19-5.42,4.22-6.75.24,0,3.74-.49,3.74-6.37a.5.5,0,0,1,1,0c0,6.82-4.51,7.34-4.55,7.35-4.48,1.36-3.38,5.95-3.34,6.14a.51.51,0,0,1-.48.63Z" style="fill:#383838"/><path d="M7.42,26.91a.49.49,0,0,1-.5-.49c-.1-5.72-.7-7.89-1-8.68a.5.5,0,1,1,.91-.4c.47,1,1,3.46,1.14,9.07a.5.5,0,0,1-.49.5Z" style="fill:#383838"/><path d="M26.72,14.92H11.59a.5.5,0,0,1,0-1H26.72a.5.5,0,0,1,0,1Z" style="fill:#383838"/><path d="M11.59,12.94a.5.5,0,0,1-.5-.5V4.92a.5.5,0,1,1,1,0v7.52A.5.5,0,0,1,11.59,12.94Z" style="fill:#383838"/><path d="M11.59,14.92a.5.5,0,0,1-.5-.5v-2a.5.5,0,0,1,1,0v2A.5.5,0,0,1,11.59,14.92Z" style="fill:#383838"/><path d="M6.34,18A.46.46,0,0,1,6,17.87l-.48-.49c-1.27-1.32-2.72-2.81-2.72-4.85V4.92a.5.5,0,0,1,.5-.5.5.5,0,0,1,.5.5v7.61c0,1.63,1.24,2.92,2.44,4.16l.48.5a.5.5,0,0,1-.36.84Z" style="fill:#383838"/><path d="M11.59,5.42a.5.5,0,0,1-.5-.5V3.39a.5.5,0,0,0-.5-.5H4.28a.5.5,0,0,0-.5.5V4.92a.51.51,0,0,1-.5.5.5.5,0,0,1-.5-.5V3.39a1.5,1.5,0,0,1,1.5-1.5h6.31a1.5,1.5,0,0,1,1.5,1.5V4.92A.5.5,0,0,1,11.59,5.42Z" style="fill:#383838"/><path d="M26.72,14.92a.5.5,0,0,1-.06-1,.49.49,0,0,0,.45-.48.5.5,0,0,0-.5-.5h-15a.5.5,0,0,1-.5-.5.5.5,0,0,1,.5-.5h15a1.49,1.49,0,0,1,.17,3Z" style="fill:#383838"/><path d="M11.59,5.42H3.28a.5.5,0,0,1-.5-.5.5.5,0,0,1,.5-.5h8.31a.5.5,0,0,1,.5.5A.5.5,0,0,1,11.59,5.42Z" style="fill:#383838"/><path d="M7.42,26.91H4.28a1.5,1.5,0,0,1-1.5-1.5V18.53A1.5,1.5,0,0,1,4.28,17H6.34a.5.5,0,0,1,0,1H4.28a.5.5,0,0,0-.5.5v6.88a.5.5,0,0,0,.5.5H7.42a.51.51,0,0,1,.5.5A.5.5,0,0,1,7.42,26.91Z" style="fill:#383838"/><path d="M8.4,10.34a.93.93,0,0,1-.93-.93V8A.93.93,0,0,1,9.33,8v1.4A.93.93,0,0,1,8.4,10.34Zm0-2.51A.19.19,0,0,0,8.22,8v1.4c0,.2.36.19.36,0V8A.19.19,0,0,0,8.4,7.83Z" style="fill:#383838"/><path d="M14.79,11.3a.45.45,0,0,1-.16,0,.38.38,0,0,1-.18-.5s.16-.34.48-.91a.37.37,0,0,1,.65.37c-.3.53-.45.85-.45.86A.38.38,0,0,1,14.79,11.3Z" style="fill:#383838"/><path d="M16.48,8.49a.36.36,0,0,1-.22-.07.37.37,0,0,1-.09-.52c.44-.63.92-1.25,1.42-1.84a.38.38,0,0,1,.57.49c-.48.57-.95,1.17-1.38,1.78A.35.35,0,0,1,16.48,8.49Zm3-3.48a.35.35,0,0,1-.27-.11.37.37,0,0,1,0-.53,19.14,19.14,0,0,1,1.76-1.52.37.37,0,0,1,.53.07.38.38,0,0,1-.07.52,19.44,19.44,0,0,0-1.7,1.47A.37.37,0,0,1,19.44,5Z" style="fill:#383838"/><path d="M23.07,2.24a.37.37,0,0,1-.32-.19.36.36,0,0,1,.13-.51c.29-.17.59-.34.9-.49a.37.37,0,0,1,.5.16.38.38,0,0,1-.16.51c-.29.15-.58.3-.86.47A.41.41,0,0,1,23.07,2.24Z" style="fill:#383838"/><path d="M13.31,11h0a.39.39,0,0,1-.35-.41,11.76,11.76,0,0,1,.44-2,.38.38,0,1,1,.72.22,11.13,11.13,0,0,0-.41,1.87A.37.37,0,0,1,13.31,11Zm1.11-3.83a.4.4,0,0,1-.15,0,.39.39,0,0,1-.19-.5A18.17,18.17,0,0,1,15,4.82a.37.37,0,1,1,.65.37,17.8,17.8,0,0,0-.87,1.75A.39.39,0,0,1,14.42,7.17Zm2-3.48a.35.35,0,0,1-.21-.07.37.37,0,0,1-.09-.52c.21-.31.45-.63.69-.94a.38.38,0,0,1,.53-.07.39.39,0,0,1,.07.53c-.24.31-.47.61-.68.91A.38.38,0,0,1,16.38,3.69Z" style="fill:#383838"/><path d="M17.07,11.6a.4.4,0,0,1-.23-.08.39.39,0,0,1-.07-.53,15.94,15.94,0,0,1,1.4-1.51.38.38,0,0,1,.53,0,.37.37,0,0,1,0,.53,15.31,15.31,0,0,0-1.32,1.43A.38.38,0,0,1,17.07,11.6ZM20,8.83a.37.37,0,0,1-.3-.15.36.36,0,0,1,.08-.52,12.87,12.87,0,0,1,1.74-1.1.38.38,0,0,1,.51.17.37.37,0,0,1-.17.5,13,13,0,0,0-1.64,1A.34.34,0,0,1,20,8.83Zm3.56-1.77a.38.38,0,0,1-.37-.29.37.37,0,0,1,.27-.45,7.72,7.72,0,0,1,1-.19.37.37,0,0,1,.41.34.38.38,0,0,1-.34.41,6.25,6.25,0,0,0-.93.16Z" style="fill:#383838"/><path d="M18.78,25.89H7.4a.38.38,0,1,1,0-.75H18.78a.38.38,0,0,1,0,.75Z" style="fill:#383838"/></svg>