<svg xmlns="http://www.w3.org/2000/svg" viewBox="0 0 30 30"><title>ic_bed</title><path d="M6.88,5.86H5.07a.5.5,0,0,1-.5-.5V3.85a.5.5,0,0,1,.5-.5H6.88a.5.5,0,0,1,.5.5V5.36A.5.5,0,0,1,6.88,5.86Zm-1.31-1h.81V4.35H5.57Z" style="fill:#383838"/><path d="M25.44,5.86H23.63a.5.5,0,0,1-.5-.5V3.85a.5.5,0,0,1,.5-.5h1.81a.5.5,0,0,1,.5.5V5.36A.5.5,0,0,1,25.44,5.86Zm-1.31-1h.81V4.35h-.81Z" style="fill:#383838"/><path d="M26.94,16.73h-.1a.46.46,0,0,1-.38-.56l0-.08a.6.6,0,0,0,0-.12V7.62a1.35,1.35,0,0,0-1.42-1.27H4.92A1.35,1.35,0,0,0,3.5,7.62V16a.6.6,0,0,0,0,.12l-.47.19-.48.11A1.6,1.6,0,0,1,2.5,16V7.62A2.36,2.36,0,0,1,4.92,5.35H25.08A2.36,2.36,0,0,1,27.5,7.62V16a1.64,1.64,0,0,1-.05.36A.55.55,0,0,1,26.94,16.73Z" style="fill:#383838"/><path d="M26.91,17a.4.4,0,0,1-.15,0,.49.49,0,0,1-.32-.63s0-.14,0-.15a.5.5,0,0,1,1,.22l-.49-.1.49.14a1.42,1.42,0,0,1,0,.2A.51.51,0,0,1,26.91,17Z" style="fill:#383838"/><path d="M3.08,17a.49.49,0,0,1-.47-.34,1.3,1.3,0,0,1,0-.21A.51.51,0,0,1,3,15.8a.49.49,0,0,1,.59.36.69.69,0,0,1,0,.13.5.5,0,0,1-.32.64A.41.41,0,0,1,3.08,17Z" style="fill:#383838"/><path d="M27,17.27H3a.5.5,0,0,1-.5-.5.51.51,0,0,1,.5-.5H27a.51.51,0,0,1,.5.5A.5.5,0,0,1,27,17.27Z" style="fill:#383838"/><path d="M27.41,17.36a.52.52,0,0,1-.21,0,.49.49,0,0,0-.2-.05.5.5,0,0,1-.5-.5.5.5,0,0,1,.5-.5,1.47,1.47,0,0,1,.61.14.49.49,0,0,1,.25.66A.49.49,0,0,1,27.41,17.36Z" style="fill:#383838"/><path d="M2.59,17.36a.49.49,0,0,1-.45-.29.49.49,0,0,1,.25-.66A1.47,1.47,0,0,1,3,16.27a.5.5,0,0,1,.5.5.5.5,0,0,1-.5.5.49.49,0,0,0-.2.05A.52.52,0,0,1,2.59,17.36Z" style="fill:#383838"/><path d="M2.05,21.54a.51.51,0,0,1-.48-.37L2.05,21l-.49.1a1.58,1.58,0,0,1-.06-.37v-3a1.5,1.5,0,0,1,.89-1.36.5.5,0,0,1,.41.91.5.5,0,0,0-.3.45v3l0,.13a.51.51,0,0,1-.35.62Z" style="fill:#383838"/><path d="M27.94,21.52l-.13,0a.48.48,0,0,1-.34-.6v0l0-3.09a.5.5,0,0,0-.3-.45.5.5,0,0,1-.25-.66.51.51,0,0,1,.66-.25,1.5,1.5,0,0,1,.89,1.36v3a1.58,1.58,0,0,1-.06.37A.54.54,0,0,1,27.94,21.52Z" style="fill:#383838"/><path d="M24.53,24.54H5.47A.5.5,0,0,1,5,24a.5.5,0,0,1,.5-.5H24.53a.5.5,0,0,1,.5.5A.5.5,0,0,1,24.53,24.54Z" style="fill:#383838"/><path d="M28.5,24.54H27.41a.5.5,0,0,1-.5-.5.5.5,0,0,1,.5-.5H28v-2H28a.5.5,0,0,1-.5-.5.5.5,0,0,1,.5-.5h.55a.5.5,0,0,1,.5.5v3A.5.5,0,0,1,28.5,24.54Z" style="fill:#383838"/><path d="M5.47,24.54H2.59a.51.51,0,0,1-.5-.5.5.5,0,0,1,.5-.5H5.47A.5.5,0,0,1,6,24,.51.51,0,0,1,5.47,24.54Z" style="fill:#383838"/><path d="M27.41,24.54H24.53A.51.51,0,0,1,24,24a.5.5,0,0,1,.5-.5h2.88a.5.5,0,0,1,.5.5A.51.51,0,0,1,27.41,24.54Z" style="fill:#383838"/><path d="M2.59,24.54H1.5A.5.5,0,0,1,1,24V21a.5.5,0,0,1,.5-.5h.55a.5.5,0,0,1,.5.5.5.5,0,0,1-.5.5H2v2h.59a.5.5,0,0,1,.5.5A.5.5,0,0,1,2.59,24.54Z" style="fill:#383838"/><path d="M28,21.54H2.05a.51.51,0,0,1-.5-.5.5.5,0,0,1,.5-.5H28a.5.5,0,0,1,.5.5A.51.51,0,0,1,28,21.54Z" style="fill:#383838"/><path d="M4.47,27.91H3.59a1.5,1.5,0,0,1-1.5-1.5V24a.5.5,0,0,1,.5-.5.5.5,0,0,1,.5.5v2.37a.51.51,0,0,0,.5.5h.88a.51.51,0,0,0,.5-.5V24a.5.5,0,0,1,.5-.5A.5.5,0,0,1,6,24v2.37A1.5,1.5,0,0,1,4.47,27.91Z" style="fill:#383838"/><path d="M26.41,27.91h-.88a1.5,1.5,0,0,1-1.5-1.5V24a.5.5,0,0,1,.5-.5.5.5,0,0,1,.5.5v2.37a.51.51,0,0,0,.5.5h.88a.51.51,0,0,0,.5-.5V24a.5.5,0,0,1,.5-.5.5.5,0,0,1,.5.5v2.37A1.5,1.5,0,0,1,26.41,27.91Z" style="fill:#383838"/><path d="M5.07,14.77a.5.5,0,0,1-.5-.5V12.34a2.5,2.5,0,0,1,2.5-2.5h5a2.5,2.5,0,0,1,2.5,2.5v1.88a.51.51,0,0,1-.5.5.5.5,0,0,1-.5-.5V12.34a1.5,1.5,0,0,0-1.5-1.5h-5a1.5,1.5,0,0,0-1.5,1.5v1.93A.51.51,0,0,1,5.07,14.77Z" style="fill:#383838"/><path d="M25.16,14.84a.5.5,0,0,1-.5-.5v-2a1.5,1.5,0,0,0-1.5-1.5h-5a1.5,1.5,0,0,0-1.5,1.5v1.88a.5.5,0,1,1-1,0V12.34a2.5,2.5,0,0,1,2.5-2.5h5a2.5,2.5,0,0,1,2.5,2.5v2A.5.5,0,0,1,25.16,14.84Z" style="fill:#383838"/><path d="M27,16.77a.49.49,0,0,1-.49-.4A2.08,2.08,0,0,0,25,14.82a.5.5,0,1,1,.28-1,3.06,3.06,0,0,1,2.14,2.31.51.51,0,0,1-.39.59Z" style="fill:#383838"/><path d="M3,17.27H3a.5.5,0,0,1-.5-.5,2.91,2.91,0,0,1,.06-.6.5.5,0,0,1,1,.2,2.71,2.71,0,0,0,0,.41A.49.49,0,0,1,3,17.27Z" style="fill:#383838"/><path d="M27,17.27a.49.49,0,0,1-.5-.49,2.71,2.71,0,0,0,0-.41.5.5,0,0,1,.39-.59.51.51,0,0,1,.59.39,2.91,2.91,0,0,1,.06.6.5.5,0,0,1-.5.5Z" style="fill:#383838"/><path d="M16.16,14.72H14.07a.5.5,0,0,1-.5-.5.5.5,0,0,1,.5-.5h2.09a.5.5,0,0,1,.5.5A.5.5,0,0,1,16.16,14.72Z" style="fill:#383838"/><path d="M25.16,14.84l-.14,0a2,2,0,0,0-.6-.1H16.16a.5.5,0,0,1-.5-.5.5.5,0,0,1,.5-.5h8.26a2.87,2.87,0,0,1,.88.14.49.49,0,0,1,.34.62A.5.5,0,0,1,25.16,14.84Z" style="fill:#383838"/><path d="M5.07,14.77a.5.5,0,0,1-.49-.41A.48.48,0,0,1,5,13.78a3.08,3.08,0,0,1,.61-.06h8.49a.5.5,0,0,1,.5.5.51.51,0,0,1-.5.5H5.58a1.84,1.84,0,0,0-.41,0Z" style="fill:#383838"/><path d="M3.05,16.77H3a.51.51,0,0,1-.39-.59A3.07,3.07,0,0,1,5,13.78a.5.5,0,0,1,.59.39.51.51,0,0,1-.39.59,2.06,2.06,0,0,0-1.63,1.61A.49.49,0,0,1,3.05,16.77Z" style="fill:#383838"/></svg>