<svg xmlns="http://www.w3.org/2000/svg" viewBox="0 0 30 30"><title>ic_closet</title><path d="M22.35,27.11H8.12a.5.5,0,0,1-.5-.5.5.5,0,0,1,.5-.5H22.35a.5.5,0,0,1,.5.5A.5.5,0,0,1,22.35,27.11Z" style="fill:#383838"/><path d="M26,27.11H22.35a.5.5,0,0,1-.5-.5.5.5,0,0,1,.5-.5H26a.5.5,0,0,1,.54.46.51.51,0,0,1-.46.54Z" style="fill:#383838"/><path d="M8.12,27.11H4.39a.5.5,0,0,1-.5-.5.51.51,0,0,1,.5-.5H8.12a.5.5,0,0,1,.5.5A.5.5,0,0,1,8.12,27.11Z" style="fill:#383838"/><path d="M4.39,27.11H4a1.5,1.5,0,0,1-1.5-1.5V2.67A1.5,1.5,0,0,1,4,1.17H26a1.5,1.5,0,0,1,1.5,1.5V25.61a1.5,1.5,0,0,1-1.39,1.49.5.5,0,1,1-.08-1,.49.49,0,0,0,.47-.49V2.67a.5.5,0,0,0-.5-.5H4a.5.5,0,0,0-.5.5V25.61a.5.5,0,0,0,.5.5h.39a.5.5,0,0,1,.5.5A.5.5,0,0,1,4.39,27.11Z" style="fill:#383838"/><path d="M7.13,29.27H5.39a1.5,1.5,0,0,1-1.5-1.5V26.65a.88.88,0,0,1,0-.16.46.46,0,0,1,.53-.42.53.53,0,0,1,.45.58v1.12a.5.5,0,0,0,.5.5H7.13a.5.5,0,0,0,.5-.5V26.7a.28.28,0,0,1,0-.09.5.5,0,0,1,.5-.5.5.5,0,0,1,.49.42.6.6,0,0,1,0,.12v1.12A1.5,1.5,0,0,1,7.13,29.27Z" style="fill:#383838"/><path d="M25.08,29.27H23.34a1.5,1.5,0,0,1-1.5-1.5V26.65a.5.5,0,0,1,0-.12.5.5,0,0,1,.49-.42.5.5,0,0,1,.5.5.28.28,0,0,1,0,.09v1.07a.5.5,0,0,0,.5.5h1.74a.5.5,0,0,0,.5-.5V26.7s0-.06,0-.08a.5.5,0,0,1,1-.05v1.2A1.5,1.5,0,0,1,25.08,29.27Z" style="fill:#383838"/><path d="M17.61,27.1a.5.5,0,0,1-.5-.5V1.75a.5.5,0,0,1,.5-.5.5.5,0,0,1,.5.5V26.6A.51.51,0,0,1,17.61,27.1Z" style="fill:#383838"/><path d="M17.61,23.06H3a.5.5,0,0,1-.5-.5.5.5,0,0,1,.5-.5H17.61a.5.5,0,0,1,.5.5A.51.51,0,0,1,17.61,23.06Z" style="fill:#383838"/><path d="M10.8,25h-1a.38.38,0,0,1,0-.75h1a.38.38,0,1,1,0,.75Z" style="fill:#383838"/><path d="M17.61,19H3a.5.5,0,0,1-.5-.5A.5.5,0,0,1,3,18H17.61a.51.51,0,0,1,.5.5A.5.5,0,0,1,17.61,19Z" style="fill:#383838"/><path d="M10.8,20.94h-1a.38.38,0,0,1-.37-.38.37.37,0,0,1,.37-.37h1a.37.37,0,0,1,.38.37A.38.38,0,0,1,10.8,20.94Z" style="fill:#383838"/><path d="M10.3,19a.5.5,0,0,1-.5-.5V1.75a.5.5,0,0,1,.5-.5.5.5,0,0,1,.5.5V18.46A.5.5,0,0,1,10.3,19Z" style="fill:#383838"/><path d="M8.38,11.71A.38.38,0,0,1,8,11.33v-1a.38.38,0,0,1,.75,0v1A.38.38,0,0,1,8.38,11.71Z" style="fill:#383838"/><path d="M12.12,11.71a.38.38,0,0,1-.38-.38v-1a.38.38,0,0,1,.38-.37.37.37,0,0,1,.37.37v1A.37.37,0,0,1,12.12,11.71Z" style="fill:#383838"/><path d="M19.52,15.88a.38.38,0,0,1-.38-.38v-1a.38.38,0,0,1,.75,0v1A.38.38,0,0,1,19.52,15.88Z" style="fill:#383838"/></svg>