<svg xmlns="http://www.w3.org/2000/svg" viewBox="0 0 30 30"><title>ic_desk</title><polyline points="4.61 24.17 4.61 27.27 1.61 27.27 1.61 16.49" style="fill:none;stroke:#383838;stroke-linecap:round;stroke-linejoin:round"/><line x1="4.61" y1="16.49" x2="4.61" y2="24.17" style="fill:none;stroke:#383838;stroke-linecap:round;stroke-linejoin:round"/><line x1="25.3" y1="24.17" x2="25.3" y2="16.49" style="fill:none;stroke:#383838;stroke-linecap:round;stroke-linejoin:round"/><polyline points="25.3 24.17 25.3 27.27 28.3 27.27 28.3 16.49" style="fill:none;stroke:#383838;stroke-linecap:round;stroke-linejoin:round"/><line x1="4.61" y1="16.49" x2="25.3" y2="16.49" style="fill:none;stroke:#383838;stroke-linecap:round;stroke-linejoin:round"/><line x1="4.61" y1="13.27" x2="25.3" y2="13.27" style="fill:none;stroke:#383838;stroke-linecap:round;stroke-linejoin:round"/><line x1="4.61" y1="16.49" x2="1.61" y2="16.49" style="fill:none;stroke:#383838;stroke-linecap:round;stroke-linejoin:round"/><line x1="25.3" y1="16.49" x2="28.3" y2="16.49" style="fill:none;stroke:#383838;stroke-linecap:round;stroke-linejoin:round"/><polyline points="4.61 13.27 1.61 13.27 1.61 16.49" style="fill:none;stroke:#383838;stroke-linecap:round;stroke-linejoin:round"/><polyline points="28.3 16.49 28.3 13.27 25.3 13.27" style="fill:none;stroke:#383838;stroke-linecap:round;stroke-linejoin:round"/><line x1="25.3" y1="24.17" x2="4.61" y2="24.17" style="fill:none;stroke:#383838;stroke-linecap:round;stroke-linejoin:round"/><line x1="10.8" y1="8.51" x2="8.81" y2="8.51" style="fill:none;stroke:#383838;stroke-linecap:round;stroke-linejoin:round"/><path d="M10.8,8.51H12a3,3,0,0,1,3,3v1.76" style="fill:none;stroke:#383838;stroke-linecap:round;stroke-linejoin:round"/><path d="M8.81,8.51H7.61a3,3,0,0,0-3,3v1.76" style="fill:none;stroke:#383838;stroke-linecap:round;stroke-linejoin:round"/><line x1="10.8" y1="6.77" x2="8.81" y2="6.77" style="fill:none;stroke:#383838;stroke-linecap:round;stroke-linejoin:round"/><path d="M10.8,6.77H12a1.85,1.85,0,0,0,0-3.69H7.57a1.85,1.85,0,0,0,0,3.69H8.81" style="fill:none;stroke:#383838;stroke-linecap:round;stroke-linejoin:round"/><line x1="8.81" y1="6.77" x2="8.81" y2="8.51" style="fill:none;stroke:#383838;stroke-linecap:round;stroke-linejoin:round"/><line x1="10.8" y1="8.51" x2="10.8" y2="6.77" style="fill:none;stroke:#383838;stroke-linecap:round;stroke-linejoin:round"/><path d="M24.48,4.92H25.9a.5.5,0,0,0,.5-.49" style="fill:none;stroke:#383838;stroke-linecap:round;stroke-linejoin:round"/><path d="M26.4,4.43h0V3.58a.51.51,0,0,0-.5-.5H18.67a.5.5,0,0,0-.5.5v.84a.5.5,0,0,0,.5.5h5.81" style="fill:none;stroke:#383838;stroke-linecap:round;stroke-linejoin:round"/><polyline points="26.4 11.54 26.4 4.01 26.4 4" style="fill:none;stroke:#383838;stroke-linecap:round;stroke-linejoin:round"/><line x1="24.48" y1="5.55" x2="24.48" y2="11.54" style="fill:none;stroke:#383838;stroke-linecap:round;stroke-linejoin:round"/><path d="M24.48,11.54H21.94a.87.87,0,1,0,0,1.73h3.32" style="fill:none;stroke:#383838;stroke-linecap:round;stroke-linejoin:round"/><path d="M26.4,11.54h.45a.87.87,0,1,1,0,1.73H25.62" style="fill:none;stroke:#383838;stroke-linecap:round;stroke-linejoin:round"/><line x1="24.48" y1="11.54" x2="26.4" y2="11.54" style="fill:none;stroke:#383838;stroke-linecap:round;stroke-linejoin:round"/><line x1="19.99" y1="8.51" x2="19.99" y2="10.03" style="fill:none;stroke:#383838;stroke-linecap:round;stroke-linejoin:round"/><line x1="17.77" y1="8.56" x2="17.22" y2="9.98" style="fill:none;stroke:#383838;stroke-linecap:round;stroke-linejoin:round"/><line x1="22.01" y1="8.56" x2="22.55" y2="9.98" style="fill:none;stroke:#383838;stroke-linecap:round;stroke-linejoin:round"/></svg>