<svg xmlns="http://www.w3.org/2000/svg" viewBox="0 0 30 30"><title>ic_dryer</title><path d="M24.5,29H5.5A2.5,2.5,0,0,1,3,26.5V3.5A2.5,2.5,0,0,1,5.5,1h19A2.5,2.5,0,0,1,27,3.5v23A2.5,2.5,0,0,1,24.5,29ZM5.5,2A1.5,1.5,0,0,0,4,3.5v23A1.5,1.5,0,0,0,5.5,28h19A1.5,1.5,0,0,0,26,26.5V3.5A1.5,1.5,0,0,0,24.5,2Z" style="fill:#383838"/><path d="M26.5,6.49H3.5A.5.5,0,0,1,3,6a.5.5,0,0,1,.5-.5h23A.5.5,0,0,1,27,6,.5.5,0,0,1,26.5,6.49Z" style="fill:#383838"/><path d="M20.54,4.71H17.77a.93.93,0,1,1,0-1.86h2.77a.93.93,0,0,1,0,1.86ZM17.77,3.6a.18.18,0,0,0-.18.18.19.19,0,0,0,.18.18h2.77a.19.19,0,0,0,.18-.18.19.19,0,0,0-.18-.18Z" style="fill:#383838"/><path d="M23.16,5a1.21,1.21,0,1,1,1.2-1.2A1.21,1.21,0,0,1,23.16,5Zm0-1.66a.46.46,0,0,0-.46.46.46.46,0,0,0,.91,0A.46.46,0,0,0,23.16,3.32Z" style="fill:#383838"/><path d="M23,18.22h0a.5.5,0,0,1-.47-.53c0-.15,0-.3,0-.45a.5.5,0,0,1,.5-.5h0a.5.5,0,0,1,.5.5c0,.18,0,.35,0,.52A.5.5,0,0,1,23,18.22Z" style="fill:#383838"/><path d="M15,25.67a8.5,8.5,0,1,1,8.5-8.5l-.44.06a.5.5,0,0,1,.41.53A8.51,8.51,0,0,1,15,25.67Zm0-16a7.5,7.5,0,1,0,7.47,8,.49.49,0,0,1,.39-.45l-.36,0v0A7.51,7.51,0,0,0,15,9.67Z" style="fill:#383838"/><path d="M15,23.27a6.1,6.1,0,1,1,6-7.09.5.5,0,1,1-1,.16,5.11,5.11,0,1,0-.1,2.12.5.5,0,0,1,1,.25A6.1,6.1,0,0,1,15,23.27Z" style="fill:#383838"/><path d="M23,18.23H22.9a.5.5,0,0,1-.42-.57s0-.1,0-.12v-.29a.5.5,0,0,1,1-.1.49.49,0,0,1,0,.12v.33a1.92,1.92,0,0,1,0,.22A.51.51,0,0,1,23,18.23Zm.53-1h0Z" style="fill:#383838"/><path d="M22,19.09H20.41a.51.51,0,0,1-.5-.5.5.5,0,0,1,.5-.5H22a.49.49,0,0,0,.48-.44.5.5,0,0,1,1,.15A1.49,1.49,0,0,1,22,19.09Z" style="fill:#383838"/><path d="M23,17.74a.49.49,0,0,1-.5-.49.5.5,0,0,0-.5-.49H20.52a.5.5,0,0,1,0-1H22a1.51,1.51,0,0,1,1.5,1.47.5.5,0,0,1-.5.51Z" style="fill:#383838"/><path d="M20.41,19.09h-.26a1.51,1.51,0,0,1-1.5-1.5v-.33a1.5,1.5,0,0,1,1.5-1.5h.37a.5.5,0,0,1,0,1h-.37a.5.5,0,0,0-.5.5v.33a.51.51,0,0,0,.5.5h.26a.5.5,0,0,1,.5.5A.5.5,0,0,1,20.41,19.09Z" style="fill:#383838"/><path d="M20.36,26.49a1.18,1.18,0,0,1-.89-.39A.22.22,0,0,1,19.4,26l-.17-.29-2.46-6a.5.5,0,0,1,.93-.38l2.53,6.09a.22.22,0,0,0,.21,0,.21.21,0,0,0,.11-.28.2.2,0,0,0-.11-.11.49.49,0,0,1-.24-.66.5.5,0,0,1,.66-.25,1.25,1.25,0,0,1,.62.64,1.21,1.21,0,0,1-1.12,1.67Z" style="fill:#383838"/><path d="M9.59,26.49a1.21,1.21,0,0,1-1.11-1.67,1.18,1.18,0,0,1,.62-.64.51.51,0,0,1,.66.25.5.5,0,0,1-.25.66.29.29,0,0,0-.11.11.26.26,0,0,0,.12.28.2.2,0,0,0,.2,0l.14-.24,2.4-5.85a.51.51,0,0,1,.65-.27.49.49,0,0,1,.27.65l-2.42,5.91-.21.36-.06.09A1.2,1.2,0,0,1,9.59,26.49Z" style="fill:#383838"/><path d="M14.29,27.81a1.21,1.21,0,0,1-.84-.34,1.25,1.25,0,0,1-.37-.85,1.19,1.19,0,0,1,.31-.84.5.5,0,0,1,.71,0,.49.49,0,0,1,0,.7.26.26,0,0,0-.05.15.22.22,0,0,0,.22.21.24.24,0,0,0,.17-.11l0-.27-.13-6.32a.5.5,0,0,1,.49-.51.51.51,0,0,1,.51.49l.13,6.39,0,.41,0,.1a1.22,1.22,0,0,1-1.12.82Zm.67-1h0Z" style="fill:#383838"/></svg>