<svg xmlns="http://www.w3.org/2000/svg" viewBox="0 0 30 30"><title>ic_dish_washer</title><line x1="20.95" y1="26.47" x2="26.52" y2="26.47" style="fill:none;stroke:#383838;stroke-linecap:round;stroke-linejoin:round"/><line x1="3.07" y1="26.47" x2="8.64" y2="26.47" style="fill:none;stroke:#383838;stroke-linecap:round;stroke-linejoin:round"/><line x1="20.95" y1="26.47" x2="8.64" y2="26.47" style="fill:none;stroke:#383838;stroke-linecap:round;stroke-linejoin:round"/><path d="M26.52,26.47h.77a1,1,0,0,0,1-1v-22a1,1,0,0,0-1-1h-25a1,1,0,0,0-1,1v22a1,1,0,0,0,1,1h.78" style="fill:none;stroke:#383838;stroke-linecap:round;stroke-linejoin:round"/><path d="M3.07,26.47v1.26a1,1,0,0,0,1,1H7.64a1,1,0,0,0,1-1V26.47" style="fill:none;stroke:#383838;stroke-linecap:round;stroke-linejoin:round"/><path d="M21,26.47v1.26a1,1,0,0,0,1,1h3.57a1,1,0,0,0,1-1V26.47" style="fill:none;stroke:#383838;stroke-linecap:round;stroke-linejoin:round"/><line x1="3.8" y1="7.77" x2="25.8" y2="7.77" style="fill:none;stroke:#383838;stroke-linecap:round;stroke-linejoin:round"/><path d="M12.31,21A4.8,4.8,0,1,0,8,21" style="fill:none;stroke:#383838;stroke-linecap:round;stroke-linejoin:round"/><path d="M12.55,16.77a2.4,2.4,0,1,0-2.4,2.4A2.41,2.41,0,0,0,12.55,16.77Z" style="fill:none;stroke:#383838;stroke-linecap:round;stroke-linejoin:round;stroke-width:0.75px"/><polyline points="7.99 21.04 5.45 21.04 5.45 23.67 14.84 23.67 14.84 21.04 12.31 21.04" style="fill:none;stroke:#383838;stroke-linecap:round;stroke-linejoin:round"/><line x1="7.99" y1="21.04" x2="12.31" y2="21.04" style="fill:none;stroke:#383838;stroke-linecap:round;stroke-linejoin:round"/><path d="M18.81,21a11.06,11.06,0,0,0,.69-4.18c0-2.88-.76-5.22-1.7-5.22" style="fill:none;stroke:#383838;stroke-linecap:round;stroke-linejoin:round"/><line x1="17.8" y1="21.04" x2="17.8" y2="11.64" style="fill:none;stroke:#383838;stroke-linecap:round;stroke-linejoin:round"/><path d="M22.36,21A11.29,11.29,0,0,0,23,16.86c0-2.88-.76-5.22-1.7-5.22" style="fill:none;stroke:#383838;stroke-linecap:round;stroke-linejoin:round"/><line x1="21.34" y1="11.64" x2="21.34" y2="21.04" style="fill:none;stroke:#383838;stroke-linecap:round;stroke-linejoin:round"/><polyline points="17.51 21.04 16.45 21.04 16.45 23.71 24.39 23.71 24.39 21.04 23.7 21.04" style="fill:none;stroke:#383838;stroke-linecap:round;stroke-linejoin:round"/><line x1="21.11" y1="21.04" x2="20.1" y2="21.04" style="fill:none;stroke:#383838;stroke-linecap:round;stroke-linejoin:round"/><line x1="21.11" y1="21.04" x2="22.69" y2="21.04" style="fill:none;stroke:#383838;stroke-linecap:round;stroke-linejoin:round"/><line x1="23.7" y1="21.04" x2="22.69" y2="21.04" style="fill:none;stroke:#383838;stroke-linecap:round;stroke-linejoin:round"/><line x1="18.52" y1="21.04" x2="20.1" y2="21.04" style="fill:none;stroke:#383838;stroke-linecap:round;stroke-linejoin:round"/><line x1="18.52" y1="21.04" x2="17.51" y2="21.04" style="fill:none;stroke:#383838;stroke-linecap:round;stroke-linejoin:round"/><line x1="25.8" y1="10.33" x2="25.8" y2="15.2" style="fill:none;stroke:#383838;stroke-linecap:round;stroke-linejoin:round"/><polyline points="25.8 15.2 25.8 23.95 3.79 23.95 3.79 12.88" style="fill:none;stroke:#383838;stroke-linecap:round;stroke-linejoin:round"/><polyline points="25.8 10.34 25.8 5.55 3.79 5.55 3.79 12.88" style="fill:none;stroke:#383838;stroke-linecap:round;stroke-linejoin:round"/></svg>