<svg xmlns="http://www.w3.org/2000/svg" viewBox="0 0 30 30"><title>ic_oven</title><path d="M26.46,28h-23A2.5,2.5,0,0,1,1,25.5V4.5A2.5,2.5,0,0,1,3.46,2h23A2.5,2.5,0,0,1,29,4.5v21A2.5,2.5,0,0,1,26.46,28ZM3.46,3A1.5,1.5,0,0,0,2,4.5v21A1.5,1.5,0,0,0,3.46,27h23A1.5,1.5,0,0,0,28,25.5V4.5A1.5,1.5,0,0,0,26.46,3Z" style="fill:#383838"/><path d="M28.46,8.16h-27a.5.5,0,0,1-.5-.5.5.5,0,0,1,.5-.5h27a.5.5,0,0,1,.5.5A.5.5,0,0,1,28.46,8.16Z" style="fill:#383838"/><path d="M28.46,24.08h-27a.38.38,0,0,1-.38-.38.37.37,0,0,1,.38-.37h27a.36.36,0,0,1,.37.37A.37.37,0,0,1,28.46,24.08Z" style="fill:#383838"/><path d="M20.1,6.09H17.33a.93.93,0,0,1,0-1.86H20.1a.93.93,0,0,1,0,1.86ZM17.33,5a.19.19,0,0,0-.18.18.18.18,0,0,0,.18.18H20.1a.19.19,0,0,0,.18-.18A.19.19,0,0,0,20.1,5Z" style="fill:#383838"/><path d="M22.72,6.37a1.21,1.21,0,1,1,1.2-1.21A1.21,1.21,0,0,1,22.72,6.37Zm0-1.66a.45.45,0,0,0-.46.45.46.46,0,1,0,.91,0A.45.45,0,0,0,22.72,4.71Z" style="fill:#383838"/><path d="M25.55,6.37a1.21,1.21,0,1,1,1.21-1.21A1.21,1.21,0,0,1,25.55,6.37Zm0-1.66a.45.45,0,0,0-.45.45.46.46,0,1,0,.91,0A.45.45,0,0,0,25.55,4.71Z" style="fill:#383838"/><path d="M26.46,22.05h-23a.37.37,0,0,1-.38-.37v-12a.38.38,0,0,1,.38-.38h23a.37.37,0,0,1,.37.38v12A.36.36,0,0,1,26.46,22.05ZM3.83,21.3H26.08V10.05H3.83Z" style="fill:#383838"/><path d="M8.23,21.9a1.81,1.81,0,0,1-1.81-1.82c0-.9,1.28-2.3,1.54-2.57a.39.39,0,0,1,.27-.11h0a.41.41,0,0,1,.28.11c.25.27,1.54,1.67,1.54,2.57A1.81,1.81,0,0,1,8.23,21.9Zm0-3.57a4.27,4.27,0,0,0-1.06,1.75,1.07,1.07,0,1,0,2.13,0A4.32,4.32,0,0,0,8.23,18.33Z" style="fill:#383838"/><path d="M12.74,21.9a1.81,1.81,0,0,1-1.81-1.82c0-.9,1.28-2.3,1.54-2.57a.39.39,0,0,1,.55,0c.25.27,1.54,1.67,1.54,2.57A1.81,1.81,0,0,1,12.74,21.9Zm0-3.57a4.39,4.39,0,0,0-1.06,1.75,1.07,1.07,0,1,0,2.13,0A4.32,4.32,0,0,0,12.74,18.33Z" style="fill:#383838"/><path d="M17.26,21.9a1.81,1.81,0,0,1-1.82-1.82c0-.9,1.29-2.3,1.54-2.57a.39.39,0,0,1,.55,0c.26.27,1.54,1.67,1.54,2.57A1.81,1.81,0,0,1,17.26,21.9Zm0-3.57a4.32,4.32,0,0,0-1.07,1.75,1.07,1.07,0,1,0,2.13,0A4.39,4.39,0,0,0,17.26,18.33Z" style="fill:#383838"/><path d="M21.77,21.9A1.81,1.81,0,0,1,20,20.08c0-.9,1.29-2.3,1.55-2.57a.37.37,0,0,1,.27-.11h0a.39.39,0,0,1,.27.11c.26.27,1.54,1.67,1.54,2.57A1.81,1.81,0,0,1,21.77,21.9Zm0-3.57a4.32,4.32,0,0,0-1.07,1.75,1.07,1.07,0,1,0,2.13,0A4.39,4.39,0,0,0,21.77,18.33Z" style="fill:#383838"/></svg>