<svg xmlns="http://www.w3.org/2000/svg" viewBox="0 0 30 30"><title>ic_gasrange</title><path d="M27.53,29h-25A1.5,1.5,0,0,1,1,27.5V2.5A1.5,1.5,0,0,1,2.53,1h25A1.5,1.5,0,0,1,29,2.5v25A1.5,1.5,0,0,1,27.53,29ZM2.53,2a.5.5,0,0,0-.5.5v25a.5.5,0,0,0,.5.5h25a.5.5,0,0,0,.5-.5V2.5a.5.5,0,0,0-.5-.5Z" style="fill:#383838"/><path d="M14.17,25.43h-.05A10.46,10.46,0,0,1,4.5,15.73.49.49,0,0,1,5,15.2a.51.51,0,0,1,.54.46,9.48,9.48,0,0,0,8.71,8.77.49.49,0,0,1,.45.54A.5.5,0,0,1,14.17,25.43Z" style="fill:#383838"/><path d="M25,14.68a.5.5,0,0,1-.5-.46,9.56,9.56,0,0,0-8.85-8.8.51.51,0,0,1-.47-.53.53.53,0,0,1,.54-.47,10.57,10.57,0,0,1,9.78,9.72.5.5,0,0,1-.46.54Z" style="fill:#383838"/><path d="M15.68,25.43a.5.5,0,0,1-.5-.46.51.51,0,0,1,.47-.54,9.55,9.55,0,0,0,8.85-8.77A.5.5,0,0,1,25,15.2a.49.49,0,0,1,.46.53,10.57,10.57,0,0,1-9.78,9.7Z" style="fill:#383838"/><path d="M5,14.68H5a.5.5,0,0,1-.46-.54,10.46,10.46,0,0,1,9.62-9.71.51.51,0,0,1,.54.46.5.5,0,0,1-.45.54A9.46,9.46,0,0,0,5.5,14.22.5.5,0,0,1,5,14.68Z" style="fill:#383838"/><path d="M23,14.68a.5.5,0,0,1-.49-.46,7.5,7.5,0,0,0-6.86-6.79.5.5,0,1,1,.08-1,8.51,8.51,0,0,1,7.77,7.7.5.5,0,0,1-.45.55Z" style="fill:#383838"/><path d="M15.68,23.43a.52.52,0,0,1-.5-.46.5.5,0,0,1,.46-.54,7.53,7.53,0,0,0,6.86-6.78A.49.49,0,0,1,23,15.2a.49.49,0,0,1,.45.54,8.5,8.5,0,0,1-7.77,7.68Z" style="fill:#383838"/><path d="M14.17,23.42h-.06a8.53,8.53,0,0,1-7.6-7.67A.49.49,0,0,1,7,15.2a.5.5,0,0,1,.54.45,7.55,7.55,0,0,0,6.72,6.77.5.5,0,0,1-.05,1Z" style="fill:#383838"/><path d="M7,14.68H7a.5.5,0,0,1-.45-.55,8.53,8.53,0,0,1,7.6-7.69.5.5,0,0,1,.11,1A7.53,7.53,0,0,0,7.5,14.22.5.5,0,0,1,7,14.68Z" style="fill:#383838"/><path d="M15.68,7.43a.51.51,0,0,1-.5-.5v-2a.5.5,0,0,1,.5-.5.5.5,0,0,1,.5.5v2A.5.5,0,0,1,15.68,7.43Z" style="fill:#383838"/><path d="M14.17,5.43a.5.5,0,0,1-.5-.5V3.62a.5.5,0,0,1,.5-.5h1.51a.5.5,0,0,1,.5.5v1.3a.5.5,0,0,1-.5.5.5.5,0,0,1-.5-.5v-.8h-.51v.81A.51.51,0,0,1,14.17,5.43Z" style="fill:#383838"/><path d="M15.68,8.79H14.17a.5.5,0,0,1-.5-.5V6.94a.5.5,0,0,1,.5-.5.5.5,0,0,1,.5.5v.85h.51V6.93a.5.5,0,0,1,.5-.5.5.5,0,0,1,.5.5V8.29A.5.5,0,0,1,15.68,8.79Z" style="fill:#383838"/><path d="M14.17,7.44a.5.5,0,0,1-.5-.5v-2a.5.5,0,0,1,.5-.5.5.5,0,0,1,.5.5v2A.51.51,0,0,1,14.17,7.44Z" style="fill:#383838"/><path d="M15.68,26.76H14.17a.5.5,0,0,1-.5-.5V24.93a.5.5,0,0,1,.5-.5.5.5,0,0,1,.5.5v.83h.51v-.83a.51.51,0,0,1,.5-.5.5.5,0,0,1,.5.5v1.33A.5.5,0,0,1,15.68,26.76Z" style="fill:#383838"/><path d="M15.68,25.43a.5.5,0,0,1-.5-.5v-2a.5.5,0,0,1,.5-.5.5.5,0,0,1,.5.5v2A.5.5,0,0,1,15.68,25.43Z" style="fill:#383838"/><path d="M15.68,23.43a.51.51,0,0,1-.5-.5v-.85h-.51v.84a.51.51,0,0,1-.5.5.5.5,0,0,1-.5-.5V21.58a.5.5,0,0,1,.5-.5h1.51a.5.5,0,0,1,.5.5v1.35A.5.5,0,0,1,15.68,23.43Z" style="fill:#383838"/><path d="M14.17,25.43a.5.5,0,0,1-.5-.5v-2a.5.5,0,0,1,.5-.5.5.5,0,0,1,.5.5v2A.51.51,0,0,1,14.17,25.43Z" style="fill:#383838"/><path d="M5,16.2H3.68a.51.51,0,0,1-.5-.5V14.18a.5.5,0,0,1,.5-.5H5a.5.5,0,0,1,0,1H4.18v.52H5a.5.5,0,0,1,.5.5A.51.51,0,0,1,5,16.2Z" style="fill:#383838"/><path d="M8.35,16.2H7a.5.5,0,0,1-.5-.5.5.5,0,0,1,.5-.5h.84v-.52H7a.5.5,0,1,1,0-1H8.35a.5.5,0,0,1,.5.5V15.7A.5.5,0,0,1,8.35,16.2Z" style="fill:#383838"/><path d="M7,16.2H5a.5.5,0,0,1-.5-.5.5.5,0,0,1,.5-.5H7a.5.5,0,0,1,.5.5A.51.51,0,0,1,7,16.2Z" style="fill:#383838"/><path d="M7,14.68H5a.5.5,0,0,1,0-1H7a.5.5,0,0,1,0,1Z" style="fill:#383838"/><path d="M23,16.2H21.64a.51.51,0,0,1-.5-.5V14.18a.5.5,0,0,1,.5-.5H23a.5.5,0,0,1,0,1h-.86v.52H23a.5.5,0,0,1,.5.5A.5.5,0,0,1,23,16.2Z" style="fill:#383838"/><path d="M25,16.2H23a.51.51,0,0,1-.5-.5.5.5,0,0,1,.5-.5h2a.5.5,0,0,1,.5.5A.5.5,0,0,1,25,16.2Z" style="fill:#383838"/><path d="M26.32,16.2H25a.51.51,0,0,1-.5-.5.5.5,0,0,1,.5-.5h.82v-.52H25a.5.5,0,0,1,0-1h1.32a.5.5,0,0,1,.5.5V15.7A.5.5,0,0,1,26.32,16.2Z" style="fill:#383838"/><path d="M25,14.68H23a.5.5,0,0,1,0-1h2a.5.5,0,0,1,0,1Z" style="fill:#383838"/><path d="M15,18.91a4,4,0,1,1,4-4A4,4,0,0,1,15,18.91ZM15,12a3,3,0,1,0,3,3A3,3,0,0,0,15,12Z" style="fill:#383838"/><path d="M24.69,27.26a2.13,2.13,0,1,1,2.13-2.13A2.13,2.13,0,0,1,24.69,27.26Zm0-3.26a1.13,1.13,0,1,0,1.13,1.13A1.14,1.14,0,0,0,24.69,24Z" style="fill:#383838"/><path d="M6.27,26.09H3.72a.5.5,0,1,1,0-1H6.27a.5.5,0,0,1,0,1Z" style="fill:#383838"/></svg>