<svg xmlns="http://www.w3.org/2000/svg" viewBox="0 0 30 30"><title>ic_induction</title><path d="M27.53,29h-25A1.5,1.5,0,0,1,1,27.5V2.5A1.5,1.5,0,0,1,2.53,1h25A1.5,1.5,0,0,1,29,2.5v25A1.5,1.5,0,0,1,27.53,29ZM2.53,2a.5.5,0,0,0-.5.5v25a.5.5,0,0,0,.5.5h25a.5.5,0,0,0,.5-.5V2.5a.5.5,0,0,0-.5-.5Z" style="fill:#383838"/><path d="M14.92,25.44a10.5,10.5,0,1,1,10.5-10.5A10.5,10.5,0,0,1,14.92,25.44Zm0-20a9.5,9.5,0,1,0,9.5,9.5A9.51,9.51,0,0,0,14.92,5.44Z" style="fill:#383838"/><path d="M14.92,23.44a8.5,8.5,0,1,1,8.5-8.5A8.51,8.51,0,0,1,14.92,23.44Zm0-16a7.5,7.5,0,1,0,7.5,7.5A7.5,7.5,0,0,0,14.92,7.44Z" style="fill:#383838"/><path d="M24.69,27.26a2.13,2.13,0,1,1,2.13-2.13A2.13,2.13,0,0,1,24.69,27.26Zm0-3.26a1.13,1.13,0,1,0,1.13,1.13A1.14,1.14,0,0,0,24.69,24Z" style="fill:#383838"/><path d="M6.27,26.09H3.72a.5.5,0,1,1,0-1H6.27a.5.5,0,0,1,0,1Z" style="fill:#383838"/><path d="M14.92,11.3a.51.51,0,0,1-.5-.5V8.89a.5.5,0,0,1,.5-.5.5.5,0,0,1,.5.5V10.8A.5.5,0,0,1,14.92,11.3Z" style="fill:#383838"/><path d="M17.93,12.45a.5.5,0,0,1-.36-.14.51.51,0,0,1,0-.71l1.35-1.35a.5.5,0,0,1,.71.71l-1.35,1.35A.49.49,0,0,1,17.93,12.45Z" style="fill:#383838"/><path d="M21.14,15.39H19.23a.5.5,0,0,1-.5-.5.5.5,0,0,1,.5-.5h1.91a.5.5,0,0,1,.5.5A.5.5,0,0,1,21.14,15.39Z" style="fill:#383838"/><path d="M19.43,19.75a.51.51,0,0,1-.36-.15l-1.35-1.35a.5.5,0,0,1,.71-.71l1.35,1.35a.5.5,0,0,1,0,.71A.5.5,0,0,1,19.43,19.75Z" style="fill:#383838"/><path d="M15.14,21.61a.5.5,0,0,1-.5-.5V19.2a.5.5,0,0,1,.5-.5.51.51,0,0,1,.5.5v1.91A.5.5,0,0,1,15.14,21.61Z" style="fill:#383838"/><path d="M10.78,19.9a.5.5,0,0,1-.35-.15.5.5,0,0,1,0-.71l1.35-1.35a.5.5,0,0,1,.71.71l-1.35,1.35A.51.51,0,0,1,10.78,19.9Z" style="fill:#383838"/><path d="M10.83,15.61H8.92a.5.5,0,0,1-.5-.5.5.5,0,0,1,.5-.5h1.91a.5.5,0,0,1,.5.5A.51.51,0,0,1,10.83,15.61Z" style="fill:#383838"/><path d="M12,12.6a.54.54,0,0,1-.35-.14l-1.35-1.35A.5.5,0,1,1,11,10.4l1.35,1.35a.51.51,0,0,1,0,.71A.54.54,0,0,1,12,12.6Z" style="fill:#383838"/></svg>