<svg xmlns="http://www.w3.org/2000/svg" viewBox="0 0 30 30"><title>ic_range</title><rect x="23.77" y="6.36" width="2.55" height="4.66" style="fill:none;stroke:#383838;stroke-linecap:round;stroke-linejoin:round"/><circle cx="24.06" cy="13.28" r="0.71" style="fill:#383838"/><circle cx="26.04" cy="13.28" r="0.71" style="fill:#383838"/><circle cx="24.06" cy="15.78" r="0.71" style="fill:#383838"/><circle cx="26.04" cy="15.78" r="0.71" style="fill:#383838"/><circle cx="25.05" cy="19.32" r="1.27" style="fill:none;stroke:#383838;stroke-linecap:round;stroke-linejoin:round"/><path d="M2.86,22.72a1.91,1.91,0,0,0,.58.1h23a2,2,0,0,0,.74-.14" style="fill:none;stroke:#383838;stroke-linecap:round;stroke-linejoin:round"/><path d="M27.18,22.68a1.89,1.89,0,0,0,1.26-1.75v-15a2,2,0,0,0-2-1.88h-23a2,2,0,0,0-2,1.88V20.93a1.9,1.9,0,0,0,1.42,1.79" style="fill:none;stroke:#383838;stroke-linecap:round;stroke-linejoin:round"/><line x1="7.06" y1="24.74" x2="22.95" y2="24.74" style="fill:none;stroke:#383838;stroke-linecap:round;stroke-linejoin:round"/><line x1="2.86" y1="22.72" x2="2.86" y2="24.62" style="fill:none;stroke:#383838;stroke-linecap:round;stroke-linejoin:round"/><polyline points="27.18 22.68 27.18 24.74 27.15 24.74" style="fill:none;stroke:#383838;stroke-linecap:round;stroke-linejoin:round"/><line x1="27.15" y1="24.74" x2="22.95" y2="24.74" style="fill:none;stroke:#383838;stroke-linecap:round;stroke-linejoin:round"/><line x1="2.86" y1="24.74" x2="7.06" y2="24.74" style="fill:none;stroke:#383838;stroke-linecap:round;stroke-linejoin:round"/><path d="M2.86,24.74v1a1,1,0,0,0,1,1h2.2a1,1,0,0,0,1-1v-1" style="fill:none;stroke:#383838;stroke-linecap:round;stroke-linejoin:round"/><path d="M27.15,24.74v1a1,1,0,0,1-1,1H24a1,1,0,0,1-1-1v-1" style="fill:none;stroke:#383838;stroke-linecap:round;stroke-linejoin:round"/><line x1="5.73" y1="20.48" x2="19.7" y2="20.48" style="fill:none;stroke:#383838;stroke-linecap:round;stroke-linejoin:round"/><path d="M19.7,20.48h1a1,1,0,0,0,1-.94V7.3a1,1,0,0,0-1-.94H4.7a1,1,0,0,0-1,.94V19.54a1,1,0,0,0,1,.94h1" style="fill:none;stroke:#383838;stroke-linecap:round;stroke-linejoin:round"/><path d="M5.73,20.48v-.21A1.19,1.19,0,0,1,7,19.12H18.48a1.19,1.19,0,0,1,1.22,1.15v.21" style="fill:none;stroke:#383838;stroke-linecap:round;stroke-linejoin:round"/></svg>