<svg xmlns="http://www.w3.org/2000/svg" viewBox="0 0 30 30"><title>ic_fridge</title><path d="M22.07,29H8.65a3.5,3.5,0,0,1-3.5-3.5V4.5A3.5,3.5,0,0,1,8.65,1H22.07a3.5,3.5,0,0,1,3.5,3.5v21A3.5,3.5,0,0,1,22.07,29ZM8.65,2a2.5,2.5,0,0,0-2.5,2.5v21A2.5,2.5,0,0,0,8.65,28H22.07a2.5,2.5,0,0,0,2.5-2.5V4.5A2.5,2.5,0,0,0,22.07,2Z" style="fill:#383838"/><path d="M25.07,13H5.65a.5.5,0,0,1,0-1H25.07a.5.5,0,0,1,0,1Z" style="fill:#383838"/><path d="M9,9.28a1.09,1.09,0,0,1-1.09-1.1v-2a1.1,1.1,0,1,1,2.19,0v2A1.1,1.1,0,0,1,9,9.28ZM9,5.82a.35.35,0,0,0-.34.35v2A.35.35,0,0,0,9,8.53a.35.35,0,0,0,.35-.35v-2A.35.35,0,0,0,9,5.82Z" style="fill:#383838"/><path d="M9,19a1.09,1.09,0,0,1-1.09-1.09v-2a1.1,1.1,0,1,1,2.19,0v2A1.09,1.09,0,0,1,9,19Zm0-3.46a.35.35,0,0,0-.34.35v2a.34.34,0,0,0,.34.34.35.35,0,0,0,.35-.34v-2A.35.35,0,0,0,9,15.51Z" style="fill:#383838"/><path d="M21.21,24.88a.36.36,0,0,1-.2-.06l-4-2.59a.38.38,0,0,1,.41-.63l4,2.59a.38.38,0,0,1,.11.52A.37.37,0,0,1,21.21,24.88Z" style="fill:#383838"/><path d="M17.21,24.88a.37.37,0,0,1-.31-.17.38.38,0,0,1,.11-.52l4-2.59a.38.38,0,1,1,.41.63l-4,2.59A.42.42,0,0,1,17.21,24.88Z" style="fill:#383838"/><path d="M19.21,26a.38.38,0,0,1-.37-.38V20.83a.38.38,0,1,1,.75,0v4.76A.38.38,0,0,1,19.21,26Z" style="fill:#383838"/><path d="M4.1,10.72a.42.42,0,0,1-.21-.06L1.19,8.91a.37.37,0,0,1-.11-.51.38.38,0,0,1,.52-.12L4.3,10a.38.38,0,0,1,.11.52A.37.37,0,0,1,4.1,10.72Z" style="fill:#383838"/><path d="M1.4,10.72a.37.37,0,0,1-.32-.17A.38.38,0,0,1,1.19,10l2.7-1.75a.38.38,0,0,1,.41.63L1.6,10.66A.36.36,0,0,1,1.4,10.72Z" style="fill:#383838"/><path d="M2.75,11.46a.38.38,0,0,1-.38-.38V7.87a.38.38,0,1,1,.75,0v3.21A.38.38,0,0,1,2.75,11.46Z" style="fill:#383838"/><path d="M28.93,20.36a.37.37,0,0,1-.21-.06l-2.63-1.7A.38.38,0,1,1,26.5,18l2.63,1.7a.38.38,0,0,1,.11.52A.37.37,0,0,1,28.93,20.36Z" style="fill:#383838"/><path d="M26.3,20.36a.4.4,0,0,1-.32-.17.38.38,0,0,1,.11-.52L28.72,18a.38.38,0,0,1,.41.63L26.5,20.3A.36.36,0,0,1,26.3,20.36Z" style="fill:#383838"/><path d="M27.61,21.07a.38.38,0,0,1-.37-.37V17.57a.38.38,0,1,1,.75,0V20.7A.38.38,0,0,1,27.61,21.07Z" style="fill:#383838"/><path d="M20.32,8.06a.36.36,0,0,1-.2-.06L17.9,6.56A.36.36,0,0,1,17.79,6a.38.38,0,0,1,.52-.11l2.22,1.44a.38.38,0,0,1,.11.52A.37.37,0,0,1,20.32,8.06Z" style="fill:#383838"/><path d="M18.1,8.06a.37.37,0,0,1-.31-.17.36.36,0,0,1,.11-.52l2.22-1.44a.38.38,0,1,1,.41.63L18.31,8A.42.42,0,0,1,18.1,8.06Z" style="fill:#383838"/><path d="M19.21,8.66a.37.37,0,0,1-.37-.37V5.64a.38.38,0,0,1,.75,0V8.29A.37.37,0,0,1,19.21,8.66Z" style="fill:#383838"/><path d="M15.23,18.5a.36.36,0,0,1-.2-.06L12,16.5a.38.38,0,0,1,.41-.63l3,1.94a.38.38,0,0,1,.11.52A.37.37,0,0,1,15.23,18.5Z" style="fill:#383838"/><path d="M12.23,18.5a.37.37,0,0,1-.31-.17.36.36,0,0,1,.11-.52l3-1.94a.37.37,0,0,1,.52.11.38.38,0,0,1-.11.52l-3,1.94A.42.42,0,0,1,12.23,18.5Z" style="fill:#383838"/><path d="M13.73,19.31a.37.37,0,0,1-.37-.37V15.36a.38.38,0,0,1,.75,0v3.58A.37.37,0,0,1,13.73,19.31Z" style="fill:#383838"/></svg>