<svg xmlns="http://www.w3.org/2000/svg" viewBox="0 0 30 30"><title>ic_sink</title><path d="M13.31,19.17v0a.57.57,0,0,1-.56.56H12.7a.57.57,0,0,1-.56-.56v0a.57.57,0,0,1,.56-.56h.05A.57.57,0,0,1,13.31,19.17Z" style="fill:#383838"/><rect x="6.71" y="18.61" width="1.16" height="1.16" rx="0.56" style="fill:#383838"/><polyline points="1.5 25.46 9.98 25.46 18.26 25.46 28.5 25.46" style="fill:none;stroke:#383838;stroke-linecap:round;stroke-linejoin:round"/><line x1="18.26" y1="17.05" x2="28.5" y2="17.05" style="fill:none;stroke:#383838;stroke-linecap:round;stroke-linejoin:round"/><line x1="18.26" y1="21.28" x2="28.5" y2="21.28" style="fill:none;stroke:#383838;stroke-linecap:round;stroke-linejoin:round"/><line x1="18.26" y1="12.87" x2="20.43" y2="12.87" style="fill:none;stroke:#383838;stroke-linecap:round;stroke-linejoin:round"/><line x1="22.22" y1="12.87" x2="20.43" y2="12.87" style="fill:none;stroke:#383838;stroke-linecap:round;stroke-linejoin:round"/><line x1="17.51" y1="12.87" x2="18.26" y2="12.87" style="fill:none;stroke:#383838;stroke-linecap:round;stroke-linejoin:round"/><line x1="25.34" y1="12.87" x2="27.13" y2="12.87" style="fill:none;stroke:#383838;stroke-linecap:round;stroke-linejoin:round"/><line x1="22.98" y1="12.87" x2="22.22" y2="12.87" style="fill:none;stroke:#383838;stroke-linecap:round;stroke-linejoin:round"/><line x1="25.34" y1="12.87" x2="24.59" y2="12.87" style="fill:none;stroke:#383838;stroke-linecap:round;stroke-linejoin:round"/><polyline points="3.11 12.87 1.5 12.87 1.5 25.46 1.5 28.57 28.5 28.57 28.5 25.46 28.5 21.28 28.5 17.05 28.5 12.87 27.13 12.87" style="fill:none;stroke:#383838;stroke-linecap:round;stroke-linejoin:round"/><line x1="9.98" y1="12.87" x2="9.98" y2="25.46" style="fill:none;stroke:#383838;stroke-linecap:round;stroke-linejoin:round"/><polyline points="18.26 25.46 18.26 21.28 18.26 17.05 18.26 12.87" style="fill:none;stroke:#383838;stroke-linecap:round;stroke-linejoin:round"/><path d="M27.13,12.87V2.46a1,1,0,0,0-1-1H21.47a1,1,0,0,0-1,1V5.38" style="fill:none;stroke:#383838;stroke-linecap:round;stroke-linejoin:round"/><path d="M25.34,12.06V3.46a.52.52,0,0,0-.52-.52H22.74a.52.52,0,0,0-.52.52V5.38" style="fill:none;stroke:#383838;stroke-linecap:round;stroke-linejoin:round"/><line x1="25.34" y1="12.87" x2="25.34" y2="12.12" style="fill:none;stroke:#383838;stroke-linecap:round;stroke-linejoin:round"/><line x1="22.22" y1="5.38" x2="20.43" y2="5.38" style="fill:none;stroke:#383838;stroke-linecap:round;stroke-linejoin:round"/><line x1="22.27" y1="14.8" x2="24.53" y2="14.8" style="fill:none;stroke:#383838;stroke-linecap:round;stroke-linejoin:round"/><line x1="22.27" y1="19.17" x2="24.53" y2="19.17" style="fill:none;stroke:#383838;stroke-linecap:round;stroke-linejoin:round"/><line x1="22.27" y1="23.37" x2="24.53" y2="23.37" style="fill:none;stroke:#383838;stroke-linecap:round;stroke-linejoin:round"/><path d="M17.51,12.87H3.11a.76.76,0,0,1-.76-.75v-.06a.75.75,0,0,1,.76-.75h14.4a.75.75,0,0,1,.75.75v.06A.76.76,0,0,1,17.51,12.87Z" style="fill:none;stroke:#383838;stroke-linecap:round;stroke-linejoin:round"/><path d="M24.59,12.87H23a.76.76,0,0,1-.76-.75v-.06a.75.75,0,0,1,.76-.75h1.61a.75.75,0,0,1,.75.75v.06A.76.76,0,0,1,24.59,12.87Z" style="fill:none;stroke:#383838;stroke-linecap:round;stroke-linejoin:round"/><path d="M14.22,8.19a1.42,1.42,0,1,1,1.42-1.42A1.42,1.42,0,0,1,14.22,8.19Zm0-1.83a.41.41,0,0,0-.42.41.42.42,0,1,0,.84,0A.41.41,0,0,0,14.22,6.36Z" style="fill:#383838"/><path d="M8.65,6.77A1.25,1.25,0,1,1,9.9,5.52,1.25,1.25,0,0,1,8.65,6.77Zm0-1.5a.25.25,0,0,0-.25.25c0,.27.5.27.5,0A.25.25,0,0,0,8.65,5.27Z" style="fill:#383838"/><path d="M11.06,4.94a1.25,1.25,0,1,1,1.25-1.25A1.25,1.25,0,0,1,11.06,4.94Zm0-1.5a.25.25,0,0,0-.25.25c0,.28.5.28.5,0A.26.26,0,0,0,11.06,3.44Z" style="fill:#383838"/><path d="M3,11.65a.5.5,0,0,1-.48-.35,3.19,3.19,0,0,1-.15-1,3.33,3.33,0,0,1,6.2-1.69,3.4,3.4,0,0,1,1,.19,3.39,3.39,0,0,1,4.49,0A2.3,2.3,0,0,1,17.19,11a1.49,1.49,0,0,1,0,.21.51.51,0,0,1-.56.45.48.48,0,0,1-.44-.53V11a1.32,1.32,0,0,0-1.31-1.39,1.28,1.28,0,0,0-.68.2.49.49,0,0,1-.64-.1,2.38,2.38,0,0,0-3.52,0,.49.49,0,0,1-.59.13,2.3,2.3,0,0,0-1-.24l-.15,0a.51.51,0,0,1-.49-.29,2.33,2.33,0,0,0-4.45,1,2.23,2.23,0,0,0,.11.68.5.5,0,0,1-.34.62A.32.32,0,0,1,3,11.65Z" style="fill:#383838"/></svg>