<svg xmlns="http://www.w3.org/2000/svg" viewBox="0 0 30 30"><title>ic_sofa</title><path d="M26.17,12.88a.5.5,0,0,1-.49-.4c-.78-4-4.6-6.92-9.1-6.92H13.67c-4.5,0-8.33,2.91-9.11,6.92a.5.5,0,0,1-.58.39.49.49,0,0,1-.4-.58c.87-4.48,5.11-7.73,10.09-7.73h2.91c5,0,9.22,3.25,10.08,7.73a.48.48,0,0,1-.39.58Z" style="fill:#383838"/><path d="M12,12.74a1.23,1.23,0,1,1,1.23-1.23A1.23,1.23,0,0,1,12,12.74ZM12,11a.48.48,0,1,0,.48.48A.47.47,0,0,0,12,11Z" style="fill:#383838"/><path d="M18.21,12.74a1.23,1.23,0,1,1,1.24-1.23A1.23,1.23,0,0,1,18.21,12.74Zm0-1.71a.48.48,0,1,0,.49.48A.48.48,0,0,0,18.21,11Z" style="fill:#383838"/><path d="M23.24,19.15h-.35a.51.51,0,0,1-.5-.5.5.5,0,0,1,.5-.5h.21a.5.5,0,0,1,.64.45v0A.51.51,0,0,1,23.24,19.15Z" style="fill:#383838"/><path d="M16.62,19.15H13.5a.51.51,0,0,1-.5-.5.5.5,0,0,1,.5-.5h3.12a.5.5,0,0,1,.5.5A.51.51,0,0,1,16.62,19.15Z" style="fill:#383838"/><path d="M7.23,19.15H6.94a.51.51,0,0,1-.5-.5.53.53,0,0,1,.63-.5h.16a.5.5,0,0,1,.5.5A.51.51,0,0,1,7.23,19.15Z" style="fill:#383838"/><path d="M25.68,22.67H4.5A1.5,1.5,0,0,1,3,21.17V17.34H2.59a1.5,1.5,0,0,1-1.5-1.5V13.79a1.5,1.5,0,0,1,1.5-1.5H5.94a1.5,1.5,0,0,1,1.5,1.5v1.89a.5.5,0,0,1-.5.5.5.5,0,0,1-.5-.5V13.79a.5.5,0,0,0-.5-.5H2.59a.5.5,0,0,0-.5.5v2.05a.5.5,0,0,0,.5.5H3.5a.5.5,0,0,1,.5.5v4.33a.5.5,0,0,0,.5.5H25.68a.5.5,0,0,0,.5-.5V16.84a.5.5,0,0,1,.5-.5h.91a.5.5,0,0,0,.5-.5V13.79a.5.5,0,0,0-.5-.5H24.24a.5.5,0,0,0-.5.5V15.7a.5.5,0,0,1-.5.5.5.5,0,0,1-.5-.5V13.79a1.5,1.5,0,0,1,1.5-1.5h3.35a1.5,1.5,0,0,1,1.5,1.5v2.05a1.5,1.5,0,0,1-1.5,1.5h-.41v3.83A1.5,1.5,0,0,1,25.68,22.67Z" style="fill:#383838"/><path d="M7.23,19.15a2.58,2.58,0,0,1-.39,0,.5.5,0,0,1-.39-.59A.49.49,0,0,1,7,18.13l.19,0a.5.5,0,0,1,.5.5A.51.51,0,0,1,7.23,19.15Z" style="fill:#383838"/><path d="M6.94,19.12H6.85a2,2,0,0,1,0-3.92.5.5,0,0,1,.58.4.48.48,0,0,1-.39.58,1,1,0,0,0-.81,1,1,1,0,0,0,.81,1,.48.48,0,0,1,.39.58A.49.49,0,0,1,6.94,19.12Z" style="fill:#383838"/><path d="M13.5,19.15a.51.51,0,0,1-.5-.5.5.5,0,0,1,.5-.5,1,1,0,1,0,0-2H7a.49.49,0,0,1-.59-.39.51.51,0,0,1,.39-.59l.39,0H13.5a2,2,0,1,1,0,4Z" style="fill:#383838"/><path d="M13.5,19.15H7.23a.5.5,0,0,1-.5-.5.5.5,0,0,1,.5-.5H13.5a.5.5,0,0,1,.5.5A.5.5,0,0,1,13.5,19.15Z" style="fill:#383838"/><path d="M16.62,19.15a2,2,0,1,1,0-4h6.27a1.85,1.85,0,0,1,.46.05.5.5,0,0,1-.23,1l-.23,0H16.62a1,1,0,1,0,0,2,.5.5,0,0,1,.5.5A.51.51,0,0,1,16.62,19.15Z" style="fill:#383838"/><path d="M23.24,19.1a.5.5,0,0,1-.49-.38.5.5,0,0,1,.37-.6,1,1,0,0,0,.77-1,1,1,0,0,0-.77-1,.51.51,0,0,1-.37-.61.5.5,0,0,1,.6-.37,2,2,0,0,1,0,3.88Z" style="fill:#383838"/><path d="M22.89,19.15H16.62a.5.5,0,0,1-.5-.5.5.5,0,0,1,.5-.5h6.27a.5.5,0,0,1,.5.5A.5.5,0,0,1,22.89,19.15Z" style="fill:#383838"/><path d="M6.34,26.59a1.5,1.5,0,0,1-1.51-1.51V22.17a.5.5,0,0,1,.5-.5.51.51,0,0,1,.5.5v2.91a.51.51,0,0,0,.51.51.5.5,0,0,0,.5-.51V22.17a.51.51,0,0,1,.5-.5.5.5,0,0,1,.5.5v2.91A1.5,1.5,0,0,1,6.34,26.59Z" style="fill:#383838"/><path d="M23.81,26.59a1.5,1.5,0,0,1-1.5-1.51V22.17a.5.5,0,0,1,.5-.5.51.51,0,0,1,.5.5v2.91a.51.51,0,1,0,1,0V22.17a.51.51,0,0,1,.5-.5.5.5,0,0,1,.5.5v2.91A1.5,1.5,0,0,1,23.81,26.59Z" style="fill:#383838"/></svg>