<svg xmlns="http://www.w3.org/2000/svg" viewBox="0 0 30 30"><title>ic_shoes</title><path d="M9,24.77H7.63a5.25,5.25,0,0,1-5.24-5.24V6.25A5.25,5.25,0,0,1,7.63,1H9a5.25,5.25,0,0,1,5.25,5.24V19.53A5.25,5.25,0,0,1,9,24.77ZM7.63,2A4.24,4.24,0,0,0,3.39,6.25V19.53a4.24,4.24,0,0,0,4.24,4.24H9a4.25,4.25,0,0,0,4.25-4.24V6.25A4.25,4.25,0,0,0,9,2Z" style="fill:#383838"/><path d="M8.4,22.85H8.2a3.69,3.69,0,0,1-3.68-3.69V16.53A3.69,3.69,0,0,1,8.2,12.84h.2a3.69,3.69,0,0,1,3.68,3.69v2.63A3.69,3.69,0,0,1,8.4,22.85Zm-.2-9a2.69,2.69,0,0,0-2.68,2.69v2.63A2.68,2.68,0,0,0,8.2,21.85h.2a2.68,2.68,0,0,0,2.68-2.69V16.53A2.69,2.69,0,0,0,8.4,13.84Z" style="fill:#383838"/><path d="M10.7,10.66a.53.53,0,0,1-.24-.06,4.44,4.44,0,0,0-4.13,0,.51.51,0,0,1-.69-.17.51.51,0,0,1,.18-.69,5.38,5.38,0,0,1,5.11,0,.5.5,0,0,1,.21.68A.52.52,0,0,1,10.7,10.66Z" style="fill:#383838"/><path d="M10.7,8A.53.53,0,0,1,10.46,8a4.42,4.42,0,0,0-4.13,0,.51.51,0,0,1-.69-.17.51.51,0,0,1,.18-.69,5.41,5.41,0,0,1,5.11,0A.5.5,0,0,1,10.7,8Z" style="fill:#383838"/><path d="M5.33,11.52a1.16,1.16,0,1,1,1.16-1.15A1.16,1.16,0,0,1,5.33,11.52Zm0-1.56a.41.41,0,0,0-.4.41.41.41,0,0,0,.81,0A.41.41,0,0,0,5.33,10Z" style="fill:#383838"/><path d="M11.27,11.52a1.16,1.16,0,1,1,1.15-1.15A1.16,1.16,0,0,1,11.27,11.52Zm0-1.56a.41.41,0,0,0-.41.41.41.41,0,0,0,.81,0A.41.41,0,0,0,11.27,10Z" style="fill:#383838"/><path d="M5.33,8.88A1.15,1.15,0,1,1,6.49,7.73,1.15,1.15,0,0,1,5.33,8.88Zm0-1.55a.4.4,0,1,0,.41.4A.4.4,0,0,0,5.33,7.33Z" style="fill:#383838"/><path d="M11.27,8.88a1.15,1.15,0,1,1,1.15-1.15A1.15,1.15,0,0,1,11.27,8.88Zm0-1.55a.4.4,0,1,0,.4.4A.4.4,0,0,0,11.27,7.33Z" style="fill:#383838"/><path d="M22.37,24.77H21a5.25,5.25,0,0,1-5.24-5.24V6.25A5.25,5.25,0,0,1,21,1h1.34a5.25,5.25,0,0,1,5.24,5.24V19.53A5.25,5.25,0,0,1,22.37,24.77ZM21,2a4.24,4.24,0,0,0-4.24,4.24V19.53A4.24,4.24,0,0,0,21,23.77h1.34a4.24,4.24,0,0,0,4.24-4.24V6.25A4.24,4.24,0,0,0,22.37,2Z" style="fill:#383838"/><path d="M21.8,22.85h-.2a3.69,3.69,0,0,1-3.68-3.69V16.53a3.69,3.69,0,0,1,3.68-3.69h.2a3.69,3.69,0,0,1,3.68,3.69v2.63A3.69,3.69,0,0,1,21.8,22.85Zm-.2-9a2.69,2.69,0,0,0-2.68,2.69v2.63a2.68,2.68,0,0,0,2.68,2.69h.2a2.68,2.68,0,0,0,2.68-2.69V16.53a2.69,2.69,0,0,0-2.68-2.69Z" style="fill:#383838"/><path d="M24.1,10.66a.53.53,0,0,1-.24-.06,4.44,4.44,0,0,0-4.13,0,.51.51,0,0,1-.69-.17.51.51,0,0,1,.18-.69,5.39,5.39,0,0,1,5.11,0,.5.5,0,0,1,.21.68A.52.52,0,0,1,24.1,10.66Z" style="fill:#383838"/><path d="M24.1,8A.53.53,0,0,1,23.86,8a4.45,4.45,0,0,0-4.13,0,.5.5,0,1,1-.51-.86,5.41,5.41,0,0,1,5.11,0A.5.5,0,0,1,24.1,8Z" style="fill:#383838"/><path d="M18.73,11.52a1.16,1.16,0,1,1,1.16-1.15A1.16,1.16,0,0,1,18.73,11.52Zm0-1.56a.41.41,0,0,0-.4.41.41.41,0,0,0,.81,0A.41.41,0,0,0,18.73,10Z" style="fill:#383838"/><path d="M24.67,11.52a1.16,1.16,0,1,1,1.15-1.15A1.16,1.16,0,0,1,24.67,11.52Zm0-1.56a.41.41,0,0,0-.41.41.41.41,0,0,0,.81,0A.41.41,0,0,0,24.67,10Z" style="fill:#383838"/><path d="M18.73,8.88a1.15,1.15,0,1,1,1.16-1.15A1.15,1.15,0,0,1,18.73,8.88Zm0-1.55a.4.4,0,1,0,.41.4A.4.4,0,0,0,18.73,7.33Z" style="fill:#383838"/><path d="M24.67,8.88a1.15,1.15,0,1,1,1.15-1.15A1.15,1.15,0,0,1,24.67,8.88Zm0-1.55a.4.4,0,1,0,.4.4A.4.4,0,0,0,24.67,7.33Z" style="fill:#383838"/><path d="M28.47,28.83H1.75a.5.5,0,0,1-.5-.5V26.07a.5.5,0,0,1,.5-.5H28.47a.5.5,0,0,1,.5.5v2.26A.5.5,0,0,1,28.47,28.83Zm-26.22-1H28V26.57H2.25Z" style="fill:#383838"/></svg>