<svg xmlns="http://www.w3.org/2000/svg" viewBox="0 0 30 30"><title>ic_table</title><path d="M27,14.17H25a.5.5,0,0,1,0-1h2a.5.5,0,0,1,0,1Z" style="fill:#383838"/><path d="M27.5,14.17H27a.5.5,0,0,1,0-1h.5a.5.5,0,0,0,.5-.5.52.52,0,0,0-.5-.56H2.5a.5.5,0,0,0-.5.5.51.51,0,0,0,.5.56H3a.5.5,0,0,1,0,1H2.5A1.5,1.5,0,0,1,1,12.67a1.52,1.52,0,0,1,1.5-1.56h25a1.53,1.53,0,0,1,0,3.06Z" style="fill:#383838"/><path d="M5,14.17H3a.5.5,0,0,1,0-1H5a.5.5,0,0,1,0,1Z" style="fill:#383838"/><path d="M4,28.64a1.5,1.5,0,0,1-1.49-1.5V13.67a.5.5,0,0,1,.5-.5.5.5,0,0,1,.5.5V27.14a.5.5,0,1,0,1,0V20.81a.5.5,0,0,1,.5-.5.5.5,0,0,1,.5.5v6.33A1.5,1.5,0,0,1,4,28.64Z" style="fill:#383838"/><path d="M5,19.69a.5.5,0,0,1-.5-.5V13.67a.5.5,0,0,1,.5-.5H6.62a.5.5,0,0,1,0,1H5.48v5A.5.5,0,0,1,5,19.69Z" style="fill:#383838"/><path d="M26,28.64a1.5,1.5,0,0,1-1.49-1.5v-13h-1a.5.5,0,0,1,0-1H25a.5.5,0,0,1,.5.5V27.14a.5.5,0,1,0,1,0V13.67a.5.5,0,0,1,1,0V27.14A1.5,1.5,0,0,1,26,28.64Z" style="fill:#383838"/><path d="M5,21.31a.51.51,0,0,1-.5-.5V19.19a.51.51,0,0,1,.5-.5.5.5,0,0,1,.5.5v1.62A.5.5,0,0,1,5,21.31Z" style="fill:#383838"/><path d="M23.55,21.28a.5.5,0,0,1-.5-.5V11.61a.5.5,0,1,1,1,0v9.17A.5.5,0,0,1,23.55,21.28Z" style="fill:#383838"/><path d="M7.68,22.62a1.4,1.4,0,0,1-1-.43,2,2,0,0,1-.45-1.41l-.06-9.16a.5.5,0,0,1,.5-.51h0a.5.5,0,0,1,.5.5l0,9.2a1.16,1.16,0,0,0,.19.7.4.4,0,0,0,.32.11.57.57,0,0,0,.57-.56.5.5,0,0,1,.5-.5.51.51,0,0,1,.5.5A1.56,1.56,0,0,1,7.68,22.62Z" style="fill:#383838"/><path d="M9.81,22.62a1.56,1.56,0,0,1-1.56-1.56.5.5,0,0,1,.5-.5.51.51,0,0,1,.5.5.56.56,0,0,0,1.12,0,.5.5,0,0,1,.5-.5.51.51,0,0,1,.5.5A1.56,1.56,0,0,1,9.81,22.62Z" style="fill:#383838"/><path d="M11.93,22.62a1.56,1.56,0,0,1-1.56-1.56.5.5,0,0,1,.5-.5.51.51,0,0,1,.5.5.56.56,0,0,0,1.12,0,.51.51,0,0,1,.5-.5.5.5,0,0,1,.5.5A1.56,1.56,0,0,1,11.93,22.62Z" style="fill:#383838"/><path d="M14.05,22.62a1.56,1.56,0,0,1-1.56-1.56.51.51,0,0,1,.5-.5.5.5,0,0,1,.5.5.56.56,0,0,0,1.12,0,.51.51,0,0,1,.5-.5.5.5,0,0,1,.5.5A1.56,1.56,0,0,1,14.05,22.62Z" style="fill:#383838"/><path d="M16.18,22.62a1.56,1.56,0,0,1-1.57-1.56.51.51,0,0,1,.5-.5.5.5,0,0,1,.5.5.57.57,0,0,0,.57.56.56.56,0,0,0,.56-.56.5.5,0,0,1,.5-.5.51.51,0,0,1,.5.5A1.56,1.56,0,0,1,16.18,22.62Z" style="fill:#383838"/><path d="M18.3,22.62a1.56,1.56,0,0,1-1.56-1.56.5.5,0,0,1,.5-.5.51.51,0,0,1,.5.5.56.56,0,1,0,1.12,0,.5.5,0,0,1,1,0A1.56,1.56,0,0,1,18.3,22.62Z" style="fill:#383838"/><path d="M20.42,22.62a1.56,1.56,0,0,1-1.56-1.56.5.5,0,0,1,1,0,.56.56,0,1,0,1.12,0,.51.51,0,0,1,.5-.5.5.5,0,0,1,.5.5A1.56,1.56,0,0,1,20.42,22.62Z" style="fill:#383838"/><path d="M22.51,22.62A1.55,1.55,0,0,1,21,21.06a.51.51,0,0,1,.5-.5.5.5,0,0,1,.5.5.53.53,0,1,0,1.05,0,.5.5,0,0,1,.5-.5.51.51,0,0,1,.5.5A1.54,1.54,0,0,1,22.51,22.62Z" style="fill:#383838"/><path d="M23.6,7.29H22.11a.38.38,0,1,1,0-.75H23.6a.38.38,0,1,1,0,.75Z" style="fill:#383838"/><path d="M22.11,7.29h-.9a.38.38,0,1,1,0-.75h.9a.38.38,0,0,1,0,.75Z" style="fill:#383838"/><path d="M24.33,7.29H23.6a.38.38,0,0,1,0-.75h.73a.38.38,0,0,1,0,.75Z" style="fill:#383838"/><path d="M24.55,11.58H20.86a.37.37,0,0,1-.37-.38V6.92a.37.37,0,0,1,.37-.38h.35a.38.38,0,0,1,0,.75v3.54h2.94V7.26A.38.38,0,0,1,24,6.92a.38.38,0,0,1,.38-.38h.22a.38.38,0,0,1,.38.38V11.2A.38.38,0,0,1,24.55,11.58Z" style="fill:#383838"/><path d="M22.11,7.29A.37.37,0,0,1,21.74,7a13.58,13.58,0,0,1,0-2.93.36.36,0,0,1,.41-.33.37.37,0,0,1,.34.41,13.54,13.54,0,0,0,0,2.74.38.38,0,0,1-.32.43Z" style="fill:#383838"/><path d="M22.06,4.45h0A.37.37,0,0,1,21.69,4a5.5,5.5,0,0,1,.7-2.38.38.38,0,0,1,.52-.12c.12.08.74.55,1,2.28a.37.37,0,1,1-.74.12,4.59,4.59,0,0,0-.41-1.38,6.07,6.07,0,0,0-.33,1.56A.38.38,0,0,1,22.06,4.45Z" style="fill:#383838"/><path d="M23.6,7.29h0a.38.38,0,0,1-.35-.4,13.39,13.39,0,0,0-.05-2.95.37.37,0,1,1,.74-.12A14.3,14.3,0,0,1,24,6.94.38.38,0,0,1,23.6,7.29Z" style="fill:#383838"/><path d="M21.25,7.39a.38.38,0,0,1-.36-.24l0-.1a.39.39,0,0,1,.22-.49.38.38,0,0,1,.48.22l0,.1a.39.39,0,0,1-.22.49Z" style="fill:#383838"/><path d="M21.21,7.29a.37.37,0,0,1-.35-.24c-.21-.56-1.2-3.41-.58-5.21a.36.36,0,0,1,.47-.23c.1,0,.95.36,1.67,2.34a.38.38,0,0,1-.71.26,4.82,4.82,0,0,0-.85-1.58,10.56,10.56,0,0,0,.7,4.15.39.39,0,0,1-.22.49Z" style="fill:#383838"/><path d="M24.33,7.29l-.13,0A.38.38,0,0,1,24,6.79a10.37,10.37,0,0,0,.71-4.16A4.47,4.47,0,0,0,23.9,4a.39.39,0,0,1-.49.21.38.38,0,0,1-.21-.49c.7-1.78,1.49-2.1,1.58-2.13a.38.38,0,0,1,.48.23c.6,1.75-.29,4.43-.58,5.21A.38.38,0,0,1,24.33,7.29Z" style="fill:#383838"/><path d="M24.29,7.39a.35.35,0,0,1-.14,0,.37.37,0,0,1-.21-.48l0-.1a.38.38,0,1,1,.71.27l0,.1A.38.38,0,0,1,24.29,7.39Z" style="fill:#383838"/><path d="M14.14,12.12H6.65a1.78,1.78,0,0,1-1.78-1.78V9.48a.5.5,0,0,1,.5-.5.5.5,0,0,1,.5.5v.86a.78.78,0,0,0,.78.78h7.49a.78.78,0,0,0,.78-.78V9.48a.5.5,0,0,1,.5-.5.5.5,0,0,1,.5.5v.86A1.78,1.78,0,0,1,14.14,12.12Z" style="fill:#383838"/><path d="M16.89,10H3.9a.51.51,0,0,1-.5-.5A.5.5,0,0,1,3.9,9h13a.5.5,0,0,1,.5.5A.5.5,0,0,1,16.89,10Z" style="fill:#383838"/><path d="M12,7.83H8.78a.5.5,0,0,1-.5-.5.5.5,0,0,1,.5-.5H12a.5.5,0,0,1,.5.5A.5.5,0,0,1,12,7.83Z" style="fill:#383838"/><path d="M15.42,10a.5.5,0,0,1-.5-.5V8.61a.78.78,0,0,0-.78-.78H12a.5.5,0,0,1-.5-.5.51.51,0,0,1,.5-.5h2.13a1.78,1.78,0,0,1,1.78,1.78v.87A.51.51,0,0,1,15.42,10Z" style="fill:#383838"/><path d="M5.37,10a.51.51,0,0,1-.5-.5V8.61A1.78,1.78,0,0,1,6.65,6.83H8.78a.51.51,0,0,1,.5.5.5.5,0,0,1-.5.5H6.65a.78.78,0,0,0-.78.78v.87A.5.5,0,0,1,5.37,10Z" style="fill:#383838"/><path d="M12,7.83a.5.5,0,0,1-.5-.5V6.48H9.28v.85a.5.5,0,0,1-.5.5.5.5,0,0,1-.5-.5V6a.5.5,0,0,1,.5-.5H12a.5.5,0,0,1,.5.5V7.33A.5.5,0,0,1,12,7.83Z" style="fill:#383838"/><path d="M23.11,19.69h-16a.5.5,0,0,1-.5-.5.51.51,0,0,1,.5-.5h16a.5.5,0,0,1,.5.5A.5.5,0,0,1,23.11,19.69Z" style="fill:#383838"/></svg>