<svg xmlns="http://www.w3.org/2000/svg" viewBox="0 0 30 30"><title>ic_bus</title><path d="M4.65,24a.5.5,0,0,1-.46-.3,3.65,3.65,0,0,1-.32-1.48V17.87a.5.5,0,0,1,.5-.5.5.5,0,0,1,.5.5v4.39a2.57,2.57,0,0,0,.24,1.08.51.51,0,0,1-.26.66A.48.48,0,0,1,4.65,24Z" style="fill:#383838"/><path d="M24,25.59a.5.5,0,0,1-.15-1,2.27,2.27,0,0,0,1.36-1.27.52.52,0,0,1,.66-.26.51.51,0,0,1,.26.66,3.26,3.26,0,0,1-2,1.82A.4.4,0,0,1,24,25.59Z" style="fill:#383838"/><path d="M4.37,18.37a.5.5,0,0,1-.5-.5V6.51s0-.1,0-.12a.5.5,0,0,1,1,0,.31.31,0,0,1,0,.1V17.87A.5.5,0,0,1,4.37,18.37Z" style="fill:#383838"/><path d="M23.22,25.72H20.53a.5.5,0,0,1-.5-.5.5.5,0,0,1,.5-.5h2.69a2.07,2.07,0,0,0,.6-.11.51.51,0,0,1,.63.33.49.49,0,0,1-.33.62A2.81,2.81,0,0,1,23.22,25.72Z" style="fill:#383838"/><path d="M10,25.72h-3a3.31,3.31,0,0,1-.55-.06.51.51,0,0,1-.4-.59.51.51,0,0,1,.59-.4,1.49,1.49,0,0,0,.36,0h3a.5.5,0,0,1,.5.5A.5.5,0,0,1,10,25.72Z" style="fill:#383838"/><path d="M20.53,25.72H10a.5.5,0,0,1-.5-.5.5.5,0,0,1,.5-.5H20.53a.5.5,0,0,1,.5.5A.5.5,0,0,1,20.53,25.72Z" style="fill:#383838"/><path d="M25.64,24a.45.45,0,0,1-.2,0,.5.5,0,0,1-.26-.66,2.56,2.56,0,0,0,.23-1.08V17.87a.5.5,0,0,1,.5-.5.5.5,0,0,1,.5.5v4.39a3.61,3.61,0,0,1-.31,1.48A.51.51,0,0,1,25.64,24Z" style="fill:#383838"/><path d="M6.6,25.67H6.51a3.25,3.25,0,0,1-2.32-1.92.5.5,0,0,1,.91-.4,2.24,2.24,0,0,0,1.6,1.33.51.51,0,0,1,.39.59A.49.49,0,0,1,6.6,25.67Z" style="fill:#383838"/><path d="M19.82,4.06H10.47a.5.5,0,0,1,0-1h9.35a.5.5,0,1,1,0,1Z" style="fill:#383838"/><path d="M4.38,6.91h0a.5.5,0,0,1-.49-.52A3.3,3.3,0,0,1,7.06,3.06h3.41a.5.5,0,0,1,0,1H7.06A2.31,2.31,0,0,0,4.88,6.42.51.51,0,0,1,4.38,6.91Z" style="fill:#383838"/><path d="M25.91,18.37a.5.5,0,0,1-.5-.5V6.51A.55.55,0,0,1,25.9,6h0a.45.45,0,0,1,.49.44.53.53,0,0,1,0,.12V17.87A.5.5,0,0,1,25.91,18.37Z" style="fill:#383838"/><path d="M25.9,6.91a.51.51,0,0,1-.5-.49,2.31,2.31,0,0,0-2.18-2.36h-3.4a.5.5,0,0,1,0-1h3.4A3.3,3.3,0,0,1,26.4,6.39a.5.5,0,0,1-.48.52Z" style="fill:#383838"/><path d="M22.25,29A2.31,2.31,0,0,1,20,26.61V25.22a.5.5,0,0,1,1,0v1.39a1.23,1.23,0,1,0,2.44,0V25.09a.5.5,0,0,1,1,0v1.52A2.31,2.31,0,0,1,22.25,29Z" style="fill:#383838"/><path d="M8.32,29A2.31,2.31,0,0,1,6.1,26.61V25.17a.5.5,0,0,1,.5-.5.5.5,0,0,1,.5.5v1.44A1.31,1.31,0,0,0,8.32,28a1.31,1.31,0,0,0,1.22-1.39V25.22a.5.5,0,0,1,1,0v1.39A2.31,2.31,0,0,1,8.32,29Z" style="fill:#383838"/><path d="M4.38,6.91h0a.51.51,0,0,1-.5-.5.51.51,0,1,1,.51.5Z" style="fill:#383838"/><path d="M25.91,6.91h0a.51.51,0,0,1-.5-.5.51.51,0,1,1,.51.5Z" style="fill:#383838"/><path d="M25.9,6.91H4.38a.51.51,0,0,1-.5-.5.5.5,0,0,1,.5-.5H25.9a.5.5,0,0,1,.5.5A.5.5,0,0,1,25.9,6.91Z" style="fill:#383838"/><path d="M25.91,18.37H4.37a.5.5,0,0,1,0-1H25.91a.5.5,0,0,1,0,1Z" style="fill:#383838"/><path d="M25.91,23.28H4.37a.5.5,0,0,1,0-1H25.91a.5.5,0,0,1,0,1Z" style="fill:#383838"/><path d="M19.82,4.06a.5.5,0,0,1-.5-.5V2.48a.45.45,0,0,0-.4-.48H11.36a.45.45,0,0,0-.39.48V3.56a.5.5,0,0,1-.5.5.5.5,0,0,1-.5-.5V2.48A1.44,1.44,0,0,1,11.36,1h7.56a1.45,1.45,0,0,1,1.4,1.48V3.56A.5.5,0,0,1,19.82,4.06Z" style="fill:#383838"/><path d="M7,21.65a1.34,1.34,0,1,1,1.32-1.34A1.33,1.33,0,0,1,7,21.65Zm0-1.92a.57.57,0,0,0-.56.58.57.57,0,1,0,1.13,0A.57.57,0,0,0,7,19.73Z" style="fill:#383838"/><path d="M23.25,21.65a1.34,1.34,0,1,1,1.31-1.34A1.33,1.33,0,0,1,23.25,21.65Zm0-1.92a.57.57,0,0,0-.56.58.56.56,0,1,0,1.12,0A.57.57,0,0,0,23.25,19.73Z" style="fill:#383838"/><path d="M17.92,23.28H12.6a.38.38,0,0,1-.37-.38V20.31a.38.38,0,0,1,.37-.37h5.32a.38.38,0,0,1,.38.37V22.9A.38.38,0,0,1,17.92,23.28ZM13,22.53h4.57V20.69H13Z" style="fill:#383838"/><path d="M3,15.16H1.64a.5.5,0,0,1-.5-.5V8.71a.51.51,0,0,1,.5-.5H3a.51.51,0,0,1,.5.5v5.95A.5.5,0,0,1,3,15.16Zm-.81-1h.31V9.21H2.14Z" style="fill:#383838"/><path d="M28.64,15.16h-1.3a.5.5,0,0,1-.5-.5V8.71a.5.5,0,0,1,.5-.5h1.3a.5.5,0,0,1,.5.5v5.95A.5.5,0,0,1,28.64,15.16Zm-.8-1h.3V9.21h-.3Z" style="fill:#383838"/><path d="M4.37,9.21H3a.5.5,0,0,1-.5-.5.5.5,0,0,1,.5-.5H4.37a.5.5,0,0,1,.5.5A.5.5,0,0,1,4.37,9.21Z" style="fill:#383838"/><path d="M27.34,9.21H25.91a.5.5,0,0,1-.5-.5.51.51,0,0,1,.5-.5h1.43a.5.5,0,0,1,.5.5A.5.5,0,0,1,27.34,9.21Z" style="fill:#383838"/></svg>