<svg xmlns="http://www.w3.org/2000/svg" viewBox="0 0 30 30"><title>ic_bank</title><path d="M15.05,15.06a.94.94,0,0,1,.47.12.68.68,0,0,1,.3.42l.64,2.14h1.19l.65-2.29a.45.45,0,0,1,.3-.33.86.86,0,0,1,.48,0,.7.7,0,0,1,.42.21.41.41,0,0,1,.06.41l-.65,2h.91a.29.29,0,0,1,.25.1.36.36,0,0,1,.08.23.37.37,0,0,1-.08.22.32.32,0,0,1-.25.09h-1.1L17.89,21a.72.72,0,0,1-.31.42,1,1,0,0,1-.46.12.93.93,0,0,1-.46-.12.75.75,0,0,1-.32-.44l-.77-2.63H14.48L13.64,21a.7.7,0,0,1-.32.42.94.94,0,0,1-.92,0,.71.71,0,0,1-.31-.43l-.83-2.64H10.14a.33.33,0,0,1-.25-.09.37.37,0,0,1-.08-.22.36.36,0,0,1,.08-.23.3.3,0,0,1,.25-.1h.92l-.63-2a.41.41,0,0,1,.06-.41.7.7,0,0,1,.43-.21,1,1,0,0,1,.48,0,.45.45,0,0,1,.31.34l.65,2.29H13.6l.68-2.14a.67.67,0,0,1,.29-.42A.9.9,0,0,1,15.05,15.06ZM12.94,19.8l.45-1.42h-.85Zm1.75-2.06h.69l-.33-1.13Zm2.38,2.05.4-1.41h-.82Z" style="fill:#383838"/><path d="M15.18,7.64H1.48a.5.5,0,0,1-.41-.22A.51.51,0,0,1,1,7L3,1.42a.5.5,0,0,1,.47-.33H15.18a.5.5,0,1,1,0,1H3.79L2.19,6.64h13a.5.5,0,0,1,.5.5A.51.51,0,0,1,15.18,7.64Z" style="fill:#383838"/><path d="M28.48,7.64H14.79a.5.5,0,0,1-.5-.5.5.5,0,0,1,.5-.5h13l-1.6-4.55H14.79a.5.5,0,0,1,0-1H26.53a.5.5,0,0,1,.47.33L29,7a.48.48,0,0,1-.06.45A.49.49,0,0,1,28.48,7.64Z" style="fill:#383838"/><path d="M28.48,10.44h-27a.51.51,0,0,1-.5-.5V7.22a.5.5,0,0,1,.5-.5.5.5,0,0,1,.5.5V9.44H28V7.22a.5.5,0,0,1,.5-.5.5.5,0,0,1,.5.5V9.94A.5.5,0,0,1,28.48,10.44Z" style="fill:#383838"/><path d="M28.48,29.09h-27a.5.5,0,0,1-.5-.5V25.88a.5.5,0,0,1,.5-.5h27a.5.5,0,0,1,.5.5v2.71A.5.5,0,0,1,28.48,29.09ZM2,28.09H28V26.38H2Z" style="fill:#383838"/><path d="M7.14,24.27a.5.5,0,0,1-.5-.5V12.08a.5.5,0,0,1,.5-.5.5.5,0,0,1,.5.5V23.77A.5.5,0,0,1,7.14,24.27Z" style="fill:#383838"/><path d="M4.44,24.27a.5.5,0,0,1-.5-.5V12.08a.5.5,0,0,1,.5-.5.5.5,0,0,1,.5.5V23.77A.5.5,0,0,1,4.44,24.27Z" style="fill:#383838"/><path d="M4.44,26.38H3a.5.5,0,0,1-.5-.5V23.77a.5.5,0,0,1,.5-.5H4.44a.5.5,0,0,1,.5.5.5.5,0,0,1-.5.5h-1v1.11h1a.5.5,0,0,1,.5.5A.5.5,0,0,1,4.44,26.38Z" style="fill:#383838"/><path d="M8.61,26.38H7.14a.51.51,0,0,1-.5-.5.5.5,0,0,1,.5-.5h1V24.27h-1a.5.5,0,0,1-.5-.5.51.51,0,0,1,.5-.5H8.61a.51.51,0,0,1,.5.5v2.11A.51.51,0,0,1,8.61,26.38Z" style="fill:#383838"/><path d="M7.14,24.27H4.44a.5.5,0,0,1-.5-.5.51.51,0,0,1,.5-.5h2.7a.5.5,0,0,1,.5.5A.5.5,0,0,1,7.14,24.27Z" style="fill:#383838"/><path d="M7.14,26.38H4.44a.51.51,0,0,1-.5-.5.5.5,0,0,1,.5-.5h2.7a.5.5,0,0,1,.5.5A.5.5,0,0,1,7.14,26.38Z" style="fill:#383838"/><path d="M8.61,12.58H7.14a.51.51,0,0,1-.5-.5.5.5,0,0,1,.5-.5h1V10.47H3.48v1.11h1a.5.5,0,0,1,.5.5.5.5,0,0,1-.5.5H3a.5.5,0,0,1-.5-.5V10a.5.5,0,0,1,.5-.5H8.61a.51.51,0,0,1,.5.5v2.11A.51.51,0,0,1,8.61,12.58Z" style="fill:#383838"/><path d="M7.14,12.58H4.44a.51.51,0,0,1-.5-.5.5.5,0,0,1,.5-.5h2.7a.5.5,0,0,1,.5.5A.5.5,0,0,1,7.14,12.58Z" style="fill:#383838"/><path d="M25.66,24.27a.5.5,0,0,1-.5-.5V12.08a.5.5,0,0,1,.5-.5.5.5,0,0,1,.5.5V23.77A.5.5,0,0,1,25.66,24.27Z" style="fill:#383838"/><path d="M23,24.27a.5.5,0,0,1-.5-.5V12.08a.5.5,0,0,1,.5-.5.5.5,0,0,1,.5.5V23.77A.5.5,0,0,1,23,24.27Z" style="fill:#383838"/><path d="M23,26.38H21.5a.5.5,0,0,1-.5-.5V23.77a.5.5,0,0,1,.5-.5H23a.5.5,0,0,1,.5.5.5.5,0,0,1-.5.5H22v1.11h1a.5.5,0,0,1,.5.5A.5.5,0,0,1,23,26.38Z" style="fill:#383838"/><path d="M27.13,26.38H25.66a.51.51,0,0,1-.5-.5.5.5,0,0,1,.5-.5h1V24.27h-1a.5.5,0,0,1-.5-.5.51.51,0,0,1,.5-.5h1.47a.51.51,0,0,1,.5.5v2.11A.51.51,0,0,1,27.13,26.38Z" style="fill:#383838"/><path d="M25.66,24.27H23a.5.5,0,0,1-.5-.5.51.51,0,0,1,.5-.5h2.7a.5.5,0,0,1,.5.5A.5.5,0,0,1,25.66,24.27Z" style="fill:#383838"/><path d="M25.66,26.38H23a.51.51,0,0,1-.5-.5.5.5,0,0,1,.5-.5h2.7a.5.5,0,0,1,.5.5A.5.5,0,0,1,25.66,26.38Z" style="fill:#383838"/><path d="M27.13,12.58H25.66a.51.51,0,0,1-.5-.5.5.5,0,0,1,.5-.5h1V10.47H22v1.11h1a.5.5,0,0,1,.5.5.5.5,0,0,1-.5.5H21.5a.5.5,0,0,1-.5-.5V10a.5.5,0,0,1,.5-.5h5.63a.51.51,0,0,1,.5.5v2.11A.51.51,0,0,1,27.13,12.58Z" style="fill:#383838"/><path d="M25.66,12.58H23a.51.51,0,0,1-.5-.5.5.5,0,0,1,.5-.5h2.7a.5.5,0,0,1,.5.5A.5.5,0,0,1,25.66,12.58Z" style="fill:#383838"/><path d="M18.42,4.86H11.68a.5.5,0,0,1-.5-.5.51.51,0,0,1,.5-.5h6.74a.51.51,0,0,1,.5.5A.5.5,0,0,1,18.42,4.86Z" style="fill:#383838"/></svg>