<svg xmlns="http://www.w3.org/2000/svg" viewBox="0 0 30 30"><title>ic_convenience_store</title><path d="M26.44,26.36h-.05a.51.51,0,0,1-.45-.57s0-.1,0-.13v-13a.5.5,0,0,1,.5-.5.51.51,0,0,1,.5.5V25.75a1,1,0,0,1,0,.18A.48.48,0,0,1,26.44,26.36Z" style="fill:#383838"/><path d="M3.65,26.32a.49.49,0,0,1-.49-.43.68.68,0,0,1,0-.14v-13a.51.51,0,0,1,.5-.5.5.5,0,0,1,.5.5V25.75a.52.52,0,0,1-.44.57Z" style="fill:#383838"/><path d="M28.5,29.06H1.5a.5.5,0,0,1-.5-.5V25.84a.5.5,0,0,1,.5-.5H3.66a.5.5,0,0,1,0,1H2v1.72H28V26.34H26.44a.5.5,0,0,1,0-1H28.5a.5.5,0,0,1,.5.5v2.72A.5.5,0,0,1,28.5,29.06Z" style="fill:#383838"/><path d="M26.44,26.34H3.66a.5.5,0,0,1,0-1H26.44a.5.5,0,0,1,0,1Z" style="fill:#383838"/><path d="M26.46,4.94H3.64a.5.5,0,0,1-.5-.5.51.51,0,0,1,.5-.5H26.46a.51.51,0,0,1,.5.5A.5.5,0,0,1,26.46,4.94Z" style="fill:#383838"/><path d="M26.46,4.94a.5.5,0,0,1-.5-.5V2.35H4.14V4.44a.5.5,0,0,1-.5.5.5.5,0,0,1-.5-.5V1.85a.5.5,0,0,1,.5-.5H26.46a.5.5,0,0,1,.5.5V4.44A.5.5,0,0,1,26.46,4.94Z" style="fill:#383838"/><path d="M13.57,10.33h-3a.5.5,0,0,1,0-1h3a.5.5,0,0,1,0,1Z" style="fill:#383838"/><path d="M4.71,10.33H3.64a.5.5,0,0,1,0-1H4.71a.5.5,0,0,1,0,1Z" style="fill:#383838"/><path d="M10.62,10.33h-3a.5.5,0,0,1,0-1h3a.5.5,0,0,1,0,1Z" style="fill:#383838"/><path d="M15.05,10.33H13.57a.5.5,0,0,1,0-1h1.48a.5.5,0,0,1,0,1Z" style="fill:#383838"/><path d="M2.4,8.48l-.17,0a.5.5,0,0,1-.3-.64L3.17,4.28a.5.5,0,0,1,1,.33L2.87,8.15A.5.5,0,0,1,2.4,8.48Z" style="fill:#383838"/><path d="M7.66,10.33H4.71a.5.5,0,1,1,0-1h3a.5.5,0,1,1,0,1Z" style="fill:#383838"/><path d="M1.75,10.33l-.17,0a.5.5,0,0,1-.3-.64l.65-1.85a.5.5,0,1,1,.94.34L2.22,10A.5.5,0,0,1,1.75,10.33Z" style="fill:#383838"/><path d="M3.64,10.33H1.75a.5.5,0,0,1,0-1H3.64a.5.5,0,0,1,0,1Z" style="fill:#383838"/><path d="M22.44,10.33h-3a.5.5,0,0,1,0-1h3a.5.5,0,0,1,0,1Z" style="fill:#383838"/><path d="M26.46,10.33H25.39a.5.5,0,0,1,0-1h1.07a.5.5,0,0,1,0,1Z" style="fill:#383838"/><path d="M28.35,10.33H26.46a.5.5,0,0,1,0-1h1.89a.5.5,0,0,1,0,1Z" style="fill:#383838"/><path d="M19.48,10.33H16.53a.5.5,0,0,1,0-1h2.95a.5.5,0,0,1,0,1Z" style="fill:#383838"/><path d="M25.39,10.33H22.44a.5.5,0,0,1,0-1h2.95a.5.5,0,0,1,0,1Z" style="fill:#383838"/><path d="M16.53,10.33H15.05a.5.5,0,0,1,0-1h1.48a.5.5,0,0,1,0,1Z" style="fill:#383838"/><path d="M28.35,10.33a.5.5,0,0,1-.47-.33l-.65-1.85a.5.5,0,1,1,.94-.34l.65,1.85a.5.5,0,0,1-.31.64A.45.45,0,0,1,28.35,10.33Z" style="fill:#383838"/><path d="M27.7,8.48a.5.5,0,0,1-.47-.33L26,4.61a.5.5,0,0,1,.95-.33l1.24,3.53a.51.51,0,0,1-.31.64A.45.45,0,0,1,27.7,8.48Z" style="fill:#383838"/><path d="M3.64,13.2a.51.51,0,0,1-.48-.35.5.5,0,0,1,.34-.62,1,1,0,0,0,.71-.94.5.5,0,0,1,.5-.5.51.51,0,0,1,.5.5,2,2,0,0,1-1.42,1.89A.39.39,0,0,1,3.64,13.2Z" style="fill:#383838"/><path d="M3.23,13.27a2,2,0,0,1-2-2V9.83a.5.5,0,0,1,1,0v1.46a1,1,0,0,0,1,1,.93.93,0,0,0,.27,0,.5.5,0,1,1,.28.95A1.86,1.86,0,0,1,3.23,13.27Z" style="fill:#383838"/><path d="M6.18,13.27a2,2,0,0,1-2-2,.5.5,0,0,1,.5-.5.51.51,0,0,1,.5.5,1,1,0,1,0,2,0,.5.5,0,0,1,1,0A2,2,0,0,1,6.18,13.27Z" style="fill:#383838"/><path d="M4.71,11.79a.5.5,0,0,1-.5-.5V9.83a.5.5,0,0,1,.5-.5.5.5,0,0,1,.5.5v1.46A.5.5,0,0,1,4.71,11.79Z" style="fill:#383838"/><path d="M9.14,13.27a2,2,0,0,1-2-2,.5.5,0,0,1,1,0,1,1,0,1,0,2,0,.5.5,0,0,1,.5-.5.51.51,0,0,1,.5.5A2,2,0,0,1,9.14,13.27Z" style="fill:#383838"/><path d="M7.66,11.79a.5.5,0,0,1-.5-.5V9.83a.5.5,0,0,1,1,0v1.46A.5.5,0,0,1,7.66,11.79Z" style="fill:#383838"/><path d="M12.09,13.27a2,2,0,0,1-2-2,.5.5,0,0,1,.5-.5.51.51,0,0,1,.5.5,1,1,0,1,0,2,0,.5.5,0,0,1,1,0A2,2,0,0,1,12.09,13.27Z" style="fill:#383838"/><path d="M10.62,11.79a.5.5,0,0,1-.5-.5V9.83a.5.5,0,0,1,.5-.5.5.5,0,0,1,.5.5v1.46A.5.5,0,0,1,10.62,11.79Z" style="fill:#383838"/><path d="M15.05,13.27a2,2,0,0,1-2-2,.5.5,0,0,1,1,0,1,1,0,0,0,2,0,.5.5,0,0,1,.5-.5.51.51,0,0,1,.5.5A2,2,0,0,1,15.05,13.27Z" style="fill:#383838"/><path d="M13.57,11.79a.5.5,0,0,1-.5-.5V9.83a.5.5,0,1,1,1,0v1.46A.5.5,0,0,1,13.57,11.79Z" style="fill:#383838"/><path d="M18,13.27a2,2,0,0,1-2-2,.5.5,0,0,1,.5-.5.51.51,0,0,1,.5.5,1,1,0,1,0,1.95,0,.51.51,0,0,1,.5-.5.5.5,0,0,1,.5.5A2,2,0,0,1,18,13.27Z" style="fill:#383838"/><path d="M16.53,11.79a.5.5,0,0,1-.5-.5V9.83a.5.5,0,0,1,.5-.5.5.5,0,0,1,.5.5v1.46A.5.5,0,0,1,16.53,11.79Z" style="fill:#383838"/><path d="M21,13.27a2,2,0,0,1-2-2,.51.51,0,0,1,.5-.5.5.5,0,0,1,.5.5,1,1,0,0,0,2,0,.5.5,0,0,1,.5-.5.51.51,0,0,1,.5.5A2,2,0,0,1,21,13.27Z" style="fill:#383838"/><path d="M19.48,11.79a.5.5,0,0,1-.5-.5V9.83a.5.5,0,0,1,.5-.5.5.5,0,0,1,.5.5v1.46A.5.5,0,0,1,19.48,11.79Z" style="fill:#383838"/><path d="M23.91,13.27a2,2,0,0,1-2-2,.5.5,0,0,1,.5-.5.51.51,0,0,1,.5.5,1,1,0,1,0,1.95,0,.51.51,0,0,1,.5-.5.5.5,0,0,1,.5.5A2,2,0,0,1,23.91,13.27Z" style="fill:#383838"/><path d="M22.44,11.79a.5.5,0,0,1-.5-.5V9.83a.5.5,0,0,1,.5-.5.5.5,0,0,1,.5.5v1.46A.5.5,0,0,1,22.44,11.79Z" style="fill:#383838"/><path d="M26.46,13.2a.39.39,0,0,1-.15,0,2,2,0,0,1-1.42-1.89.51.51,0,0,1,.5-.5.5.5,0,0,1,.5.5,1,1,0,0,0,.71.94.5.5,0,0,1-.14,1Z" style="fill:#383838"/><path d="M26.87,13.27a1.92,1.92,0,0,1-.56-.09.5.5,0,1,1,.29-.95.93.93,0,0,0,.27,0,1,1,0,0,0,1-1V9.83a.5.5,0,0,1,.5-.5.5.5,0,0,1,.5.5v1.46A2,2,0,0,1,26.87,13.27Z" style="fill:#383838"/><path d="M25.39,11.79a.5.5,0,0,1-.5-.5V9.83a.5.5,0,0,1,.5-.5.5.5,0,0,1,.5.5v1.46A.5.5,0,0,1,25.39,11.79Z" style="fill:#383838"/><path d="M11.86,18.72a5.26,5.26,0,0,0,.49-.56,2.45,2.45,0,0,0,.27-.43,1.08,1.08,0,0,0,.11-.35,1.67,1.67,0,0,0,0-.31V17a.69.69,0,0,0-.23-.52,1.09,1.09,0,0,0-.8-.24,1.72,1.72,0,0,0-.39,0,1.56,1.56,0,0,0-.39.15,1.69,1.69,0,0,0-.37.31,2.81,2.81,0,0,0-.37.51l-1-.63c.09-.15.2-.32.33-.5a2.27,2.27,0,0,1,.49-.49,2.59,2.59,0,0,1,1.65-.53,3.24,3.24,0,0,1,1,.15,2,2,0,0,1,.73.41,1.53,1.53,0,0,1,.42.59,1.82,1.82,0,0,1,.13.7V17a2.42,2.42,0,0,1-.26,1.12A4.08,4.08,0,0,1,13,19.21l-2.12,2.14h3.43v1.06H9.21v-1Z" style="fill:#383838"/><path d="M19.9,17.72v2.16h1v1h-1v1.5H18.64v-1.5H15.05v-.83l3.28-4.88h1.38l-3.15,4.68h2.08V17.72Z" style="fill:#383838"/></svg>