<svg xmlns="http://www.w3.org/2000/svg" viewBox="0 0 30 30"><title>ic_daycare</title><path d="M15.1,14a.55.55,0,0,1-.24-.07,1,1,0,0,0-.6-.19.43.43,0,0,1-.41-.44.4.4,0,0,1,.43-.41,2,2,0,0,1,1.06.33.43.43,0,0,1,.11.59A.42.42,0,0,1,15.1,14Z" style="fill:#383838"/><path d="M13.16,24.3A2,2,0,0,1,12.05,24L9.34,22.15a2,2,0,0,1-.85-1.27,1.94,1.94,0,0,1,.3-1.5l3.77-5.66a1.93,1.93,0,0,1,1.72-.88.42.42,0,0,1,.42.43.45.45,0,0,1-.44.42,1.12,1.12,0,0,0-1,.5L9.49,19.85a1.13,1.13,0,0,0-.17.86,1.16,1.16,0,0,0,.49.73l2.72,1.82a1.16,1.16,0,0,0,1.59-.32l3.78-5.66a1.13,1.13,0,0,0,.08-1.1.44.44,0,0,1,.22-.57.43.43,0,0,1,.56.22,2,2,0,0,1-.16,1.93l-3.77,5.65A2,2,0,0,1,13.16,24.3Z" style="fill:#383838"/><path d="M18.37,16.43a.44.44,0,0,1-.39-.25,1.14,1.14,0,0,0-.4-.49.43.43,0,1,1,.47-.71,2,2,0,0,1,.71.85.43.43,0,0,1-.22.56A.33.33,0,0,1,18.37,16.43Z" style="fill:#383838"/><path d="M15.1,14a.44.44,0,0,1-.24-.07l-.69-.47a.42.42,0,1,1,.47-.7l.7.46a.43.43,0,0,1,.11.59A.42.42,0,0,1,15.1,14Z" style="fill:#383838"/><path d="M18.51,16.22a.42.42,0,0,1-.24-.07l-.69-.46a.42.42,0,0,1-.12-.59.43.43,0,0,1,.59-.12l.69.46a.42.42,0,0,1,.12.59A.41.41,0,0,1,18.51,16.22Z" style="fill:#383838"/><path d="M19.23,15.14a.4.4,0,0,1-.23-.08l-4.1-2.74a.42.42,0,0,1-.12-.59.43.43,0,0,1,.59-.11l4.1,2.74a.42.42,0,0,1,.12.59A.44.44,0,0,1,19.23,15.14Z" style="fill:#383838"/><path d="M19.22,16.57a1.08,1.08,0,0,1-.6-.18l-.35-.24a.43.43,0,0,1-.12-.59.44.44,0,0,1,.59-.12l.36.24a.22.22,0,0,0,.31-.06.27.27,0,0,0,0-.18.23.23,0,0,0-.1-.14L19,15.06a.41.41,0,0,1-.12-.58.42.42,0,0,1,.59-.12l.35.23a1.1,1.1,0,0,1,.46.69,1.06,1.06,0,0,1-.16.81,1.07,1.07,0,0,1-.69.46Z" style="fill:#383838"/><path d="M14.41,13.48a.42.42,0,0,1-.24-.07l-.35-.23a1.1,1.1,0,0,1-.46-.69,1.06,1.06,0,0,1,.16-.81,1.08,1.08,0,0,1,1.5-.3l.35.24a.42.42,0,1,1-.47.7l-.35-.23a.25.25,0,0,0-.18,0,.21.21,0,0,0-.14.09.25.25,0,0,0,0,.17.22.22,0,0,0,.1.15l.35.24a.42.42,0,0,1-.23.77Z" style="fill:#383838"/><path d="M17.81,15.76a.39.39,0,0,1-.23-.07l-2.72-1.81a.43.43,0,0,1-.11-.59.42.42,0,0,1,.59-.12L18.05,15a.42.42,0,0,1,.12.59A.44.44,0,0,1,17.81,15.76Z" style="fill:#383838"/><path d="M18.37,16.43a.55.55,0,0,1-.24-.07.43.43,0,0,1-.11-.59l.13-.21a.43.43,0,0,1,.59-.12.42.42,0,0,1,.12.59l-.14.21A.42.42,0,0,1,18.37,16.43Z" style="fill:#383838"/><path d="M19.23,15.14a.4.4,0,0,1-.23-.08.42.42,0,0,1-.12-.59l.48-.72a1.13,1.13,0,0,0,.17-.86,1.15,1.15,0,0,0-.48-.73L18.8,12a.42.42,0,0,1-.12-.59.43.43,0,0,1,.59-.12l.25.17a2,2,0,0,1,.55,2.77l-.48.73A.44.44,0,0,1,19.23,15.14Z" style="fill:#383838"/><path d="M15.13,12.4a.4.4,0,0,1-.23-.08.42.42,0,0,1-.12-.59l.48-.72a2,2,0,0,1,1.28-.85,2,2,0,0,1,1.5.3l.25.17a.43.43,0,0,1,.11.59.42.42,0,0,1-.59.11l-.25-.16A1.13,1.13,0,0,0,16.7,11a1.15,1.15,0,0,0-.73.48l-.48.73A.44.44,0,0,1,15.13,12.4Z" style="fill:#383838"/><path d="M14.27,13.69a.55.55,0,0,1-.24-.07.43.43,0,0,1-.11-.59l.13-.21a.43.43,0,0,1,.59-.11.42.42,0,0,1,.12.59l-.14.2A.42.42,0,0,1,14.27,13.69Z" style="fill:#383838"/><path d="M19,12.06A.39.39,0,0,1,18.8,12a.42.42,0,0,1-.12-.59l.63-.94-.23-.14-.68.9a.42.42,0,1,1-.7-.48l.62-.93a.82.82,0,0,1,.59-.36,1,1,0,0,1,.64.16l.17.11a1,1,0,0,1,.41.6.84.84,0,0,1-.12.62l-.62.93A.45.45,0,0,1,19,12.06Z" style="fill:#383838"/><path d="M14.07,17.23a.42.42,0,0,1-.24-.07L12,15.93a.43.43,0,0,1,.48-.71l1.83,1.23a.42.42,0,0,1,.12.59A.43.43,0,0,1,14.07,17.23Z" style="fill:#383838"/><path d="M12.51,19a.39.39,0,0,1-.23-.07l-1.84-1.22a.43.43,0,0,1-.11-.59.42.42,0,0,1,.59-.12l1.83,1.23a.42.42,0,0,1,.12.59A.43.43,0,0,1,12.51,19Z" style="fill:#383838"/><path d="M24.48,26.34H5.8a.5.5,0,0,1-.5-.5V11.66a.5.5,0,0,1,.5-.5.51.51,0,0,1,.5.5V25.34H24V11.66a.5.5,0,0,1,1,0V25.84A.5.5,0,0,1,24.48,26.34Z" style="fill:#383838"/><path d="M24.48,12.16a.55.55,0,0,1-.3-.09l-1.74-1.28a.51.51,0,0,1-.11-.7A.5.5,0,0,1,23,10l1.75,1.28a.5.5,0,0,1,.1.7A.51.51,0,0,1,24.48,12.16Z" style="fill:#383838"/><path d="M25.88,13.19a.47.47,0,0,1-.3-.1l-1.4-1a.5.5,0,0,1-.1-.7.51.51,0,0,1,.7-.11l1.1.81,1.37-1L15.14,2.16,3,11.06l1.38,1,1.1-.81a.51.51,0,0,1,.7.11.5.5,0,0,1-.11.7l-1.39,1a.49.49,0,0,1-.59,0L1.88,11.46a.49.49,0,0,1-.2-.4.51.51,0,0,1,.2-.41L14.82,1.16a.46.46,0,0,1,.39-.09.45.45,0,0,1,.25.09L28.4,10.65a.54.54,0,0,1,.2.41.52.52,0,0,1-.2.4l-2.23,1.63A.46.46,0,0,1,25.88,13.19Z" style="fill:#383838"/><path d="M22.74,10.88a.53.53,0,0,1-.3-.09l-7.3-5.36-7.3,5.36a.51.51,0,0,1-.7-.11.5.5,0,0,1,.11-.7L14.84,4.4a.49.49,0,0,1,.59,0L23,10a.5.5,0,0,1-.29.9Z" style="fill:#383838"/><path d="M5.8,12.16a.5.5,0,0,1-.3-.9L7.25,10a.5.5,0,0,1,.7.11.51.51,0,0,1-.11.7L6.09,12.07A.52.52,0,0,1,5.8,12.16Z" style="fill:#383838"/><path d="M28.45,29.06h-27a.5.5,0,0,1-.5-.5V25.84a.5.5,0,0,1,.5-.5h27a.5.5,0,0,1,.5.5v2.72A.5.5,0,0,1,28.45,29.06ZM2,28.06H28V26.34H2Z" style="fill:#383838"/></svg>