<svg xmlns="http://www.w3.org/2000/svg" viewBox="0 0 30 30"><title>ic_public</title><path d="M26,13.23a.49.49,0,0,1-.49-.41C24.7,8.54,20.21,5.31,15,5.31S5.34,8.54,4.57,12.82a.5.5,0,0,1-1-.18C4.45,7.81,9.26,4.31,15,4.31s10.57,3.5,11.43,8.33a.5.5,0,0,1-.4.58Z" style="fill:#383838"/><path d="M26,13.23H4.08a.5.5,0,0,1,0-1H26a.5.5,0,0,1,0,1Z" style="fill:#383838"/><path d="M4.1,15.5H3.94a1.34,1.34,0,0,1-1.42-1.22v-.83a1.34,1.34,0,0,1,1.42-1.22h.14a.5.5,0,1,1,0,1H3.94c-.26,0-.42.14-.42.22v.83c0,.08.16.22.42.22H4.1a.5.5,0,1,1,0,1Z" style="fill:#383838"/><path d="M4.1,26.27a.5.5,0,0,1-.5-.5V15a.5.5,0,0,1,.5-.5H25.94a.5.5,0,0,1,0,1H4.6V25.77A.5.5,0,0,1,4.1,26.27Z" style="fill:#383838"/><path d="M26.1,15.5h-.16a.5.5,0,1,1,0-1h.16c.26,0,.42-.14.42-.22v-.83c0-.08-.16-.22-.42-.22H26a.5.5,0,0,1,0-1h.14a1.34,1.34,0,0,1,1.42,1.22v.83A1.34,1.34,0,0,1,26.1,15.5Z" style="fill:#383838"/><path d="M9.07,13.23H9a.5.5,0,0,1-.42-.57C9.5,6,14.66,4.4,14.87,4.33a.51.51,0,0,1,.63.33.51.51,0,0,1-.33.63c-.2.06-4.77,1.54-5.6,7.51A.51.51,0,0,1,9.07,13.23Z" style="fill:#383838"/><path d="M20.76,13.23a.5.5,0,0,1-.49-.43c-.83-6-5.4-7.45-5.6-7.51a.51.51,0,0,1-.33-.63A.5.5,0,0,1,15,4.33c.22.07,5.38,1.7,6.3,8.33a.5.5,0,0,1-.43.57Z" style="fill:#383838"/><path d="M15,13.23a.5.5,0,0,1-.5-.5V1.59a.49.49,0,0,1,.18-.38.47.47,0,0,1,.41-.11l4.52.78a.5.5,0,0,1,.05,1L15.52,4v8.78A.5.5,0,0,1,15,13.23Zm.5-11v.74l1.68-.45Z" style="fill:#383838"/><path d="M6.3,26.27a.5.5,0,0,1-.5-.5V15a.5.5,0,0,1,1,0V25.77A.5.5,0,0,1,6.3,26.27Z" style="fill:#383838"/><path d="M25.94,26.27a.5.5,0,0,1-.5-.5V15a.5.5,0,1,1,1,0V25.77A.5.5,0,0,1,25.94,26.27Z" style="fill:#383838"/><path d="M23.43,26.27a.5.5,0,0,1-.5-.5V15a.5.5,0,0,1,.5-.5.5.5,0,0,1,.5.5V25.77A.5.5,0,0,1,23.43,26.27Z" style="fill:#383838"/><path d="M16.29,26.27H13.57a.5.5,0,0,1-.5-.5.5.5,0,0,1,.5-.5h2.72a.51.51,0,0,1,.5.5A.5.5,0,0,1,16.29,26.27Z" style="fill:#383838"/><path d="M18.45,26.27H16.29a.5.5,0,0,1-.5-.5.5.5,0,0,1,.5-.5h2.16a.51.51,0,0,1,.5.5A.5.5,0,0,1,18.45,26.27Z" style="fill:#383838"/><path d="M11.19,26.27H8.47a.5.5,0,0,1-.5-.5.51.51,0,0,1,.5-.5h2.72a.51.51,0,0,1,.5.5A.5.5,0,0,1,11.19,26.27Z" style="fill:#383838"/><path d="M13.57,26.27H11.19a.5.5,0,0,1-.5-.5.5.5,0,0,1,.5-.5h2.38a.5.5,0,0,1,.5.5A.5.5,0,0,1,13.57,26.27Z" style="fill:#383838"/><path d="M28.32,29.19h-27a.5.5,0,0,1-.5-.5V25.77a.5.5,0,0,1,.5-.5H8.47a.5.5,0,0,1,.5.5.5.5,0,0,1-.5.5H1.82v1.92h26V26.27H21.16a.5.5,0,0,1-.5-.5.51.51,0,0,1,.5-.5h7.16a.51.51,0,0,1,.5.5v2.92A.5.5,0,0,1,28.32,29.19Z" style="fill:#383838"/><path d="M21.16,26.27H18.45a.5.5,0,0,1-.5-.5.5.5,0,0,1,.5-.5h2.71a.5.5,0,0,1,.5.5A.5.5,0,0,1,21.16,26.27Z" style="fill:#383838"/><path d="M11.19,26.27a.5.5,0,0,1-.5-.5V21.69a.51.51,0,0,0-.5-.5H9.47a.51.51,0,0,0-.5.5v4.08a.5.5,0,0,1-.5.5.5.5,0,0,1-.5-.5V21.69a1.51,1.51,0,0,1,1.5-1.5h.72a1.51,1.51,0,0,1,1.5,1.5v4.08A.5.5,0,0,1,11.19,26.27Z" style="fill:#383838"/><path d="M16.29,26.27a.5.5,0,0,1-.5-.5V21.69a.51.51,0,0,0-.5-.5h-.72a.51.51,0,0,0-.5.5v4.08a.5.5,0,1,1-1,0V21.69a1.5,1.5,0,0,1,1.5-1.5h.72a1.51,1.51,0,0,1,1.5,1.5v4.08A.5.5,0,0,1,16.29,26.27Z" style="fill:#383838"/><path d="M21.16,26.27a.5.5,0,0,1-.5-.5V21.69a.5.5,0,0,0-.5-.5h-.71a.5.5,0,0,0-.5.5v4.08a.5.5,0,0,1-.5.5.5.5,0,0,1-.5-.5V21.69a1.5,1.5,0,0,1,1.5-1.5h.71a1.5,1.5,0,0,1,1.5,1.5v4.08A.5.5,0,0,1,21.16,26.27Z" style="fill:#383838"/><path d="M10.5,19.17H9.16A1.18,1.18,0,0,1,8,18v-.13a1.19,1.19,0,0,1,1.19-1.19H10.5a1.19,1.19,0,0,1,1.19,1.19V18A1.18,1.18,0,0,1,10.5,19.17Zm-1.34-1.5a.2.2,0,0,0-.19.19V18a.19.19,0,0,0,.19.18H10.5a.19.19,0,0,0,.19-.18v-.13a.2.2,0,0,0-.19-.19Z" style="fill:#383838"/><path d="M15.6,19.17H14.26A1.18,1.18,0,0,1,13.07,18v-.13a1.19,1.19,0,0,1,1.19-1.19H15.6a1.19,1.19,0,0,1,1.19,1.19V18A1.18,1.18,0,0,1,15.6,19.17Zm-1.34-1.5a.2.2,0,0,0-.19.19V18a.19.19,0,0,0,.19.18H15.6a.19.19,0,0,0,.19-.18v-.13a.2.2,0,0,0-.19-.19Z" style="fill:#383838"/><path d="M20.48,19.17H19.13A1.18,1.18,0,0,1,18,18v-.13a1.19,1.19,0,0,1,1.18-1.19h1.35a1.19,1.19,0,0,1,1.18,1.19V18A1.18,1.18,0,0,1,20.48,19.17Zm-1.35-1.5a.19.19,0,0,0-.18.19V18a.18.18,0,0,0,.18.18h1.35a.18.18,0,0,0,.18-.18v-.13a.19.19,0,0,0-.18-.19Z" style="fill:#383838"/></svg>