<svg xmlns="http://www.w3.org/2000/svg" viewBox="0 0 30 30"><title>ic_hospital</title><path d="M28.32,29.19h-27a.5.5,0,0,1-.5-.5V25.77a.5.5,0,0,1,.5-.5H7.94a.51.51,0,0,1,.5.5.5.5,0,0,1-.5.5H1.82v1.92h26V26.27h-5.7a.5.5,0,0,1-.5-.5.51.51,0,0,1,.5-.5h6.2a.51.51,0,0,1,.5.5v2.92A.5.5,0,0,1,28.32,29.19Z" style="fill:#383838"/><path d="M7.94,8.91a.5.5,0,0,1-.5-.5V3.15a.5.5,0,0,1,.5-.5H9.32a.5.5,0,0,1,.5.5.5.5,0,0,1-.5.5H8.44V8.41A.5.5,0,0,1,7.94,8.91Z" style="fill:#383838"/><path d="M7.94,26.11a.5.5,0,0,1-.5-.5V8.41a.5.5,0,0,1,.5-.5.51.51,0,0,1,.5.5v17.2A.5.5,0,0,1,7.94,26.11Z" style="fill:#383838"/><path d="M20.74,3.65H9.32a.5.5,0,0,1-.5-.5.5.5,0,0,1,.5-.5H20.74a.5.5,0,0,1,.5.5A.5.5,0,0,1,20.74,3.65Z" style="fill:#383838"/><path d="M7.94,26.27a.5.5,0,0,1-.5-.5v-.16a.5.5,0,0,1,.5-.5.5.5,0,0,1,.5.5v.16A.5.5,0,0,1,7.94,26.27Z" style="fill:#383838"/><path d="M22.12,26.27a.5.5,0,0,1-.5-.5v-.16a.5.5,0,0,1,.5-.5.5.5,0,0,1,.5.5v.16A.5.5,0,0,1,22.12,26.27Z" style="fill:#383838"/><path d="M22.12,8.91a.5.5,0,0,1-.5-.5V3.65h-.88a.5.5,0,0,1-.5-.5.5.5,0,0,1,.5-.5h1.38a.5.5,0,0,1,.5.5V8.41A.5.5,0,0,1,22.12,8.91Z" style="fill:#383838"/><path d="M18.61,26.27H11.46a.5.5,0,0,1-.5-.5.5.5,0,0,1,.5-.5h7.15a.51.51,0,0,1,.5.5A.5.5,0,0,1,18.61,26.27Z" style="fill:#383838"/><path d="M11.46,26.27H7.94a.5.5,0,0,1-.5-.5.5.5,0,0,1,.5-.5h3.52a.51.51,0,0,1,.5.5A.5.5,0,0,1,11.46,26.27Z" style="fill:#383838"/><path d="M22.12,26.27H18.61a.5.5,0,0,1-.5-.5.5.5,0,0,1,.5-.5h3.51a.5.5,0,0,1,.5.5A.5.5,0,0,1,22.12,26.27Z" style="fill:#383838"/><path d="M7.94,26.11H3.34a.5.5,0,0,1-.5-.5V8.41a.5.5,0,0,1,.5-.5h4.6a.51.51,0,0,1,.5.5.5.5,0,0,1-.5.5H3.84v16.2h4.1a.5.5,0,0,1,0,1Z" style="fill:#383838"/><path d="M8,26.11a.51.51,0,0,1-.52-.5.59.59,0,0,1,0-.13v-17a.5.5,0,0,1,0-.12.49.49,0,0,1,.49-.5.54.54,0,0,1,.53.5v17.2A.5.5,0,0,1,8,26.11Z" style="fill:#383838"/><path d="M26.75,26.11H22.12a.5.5,0,0,1,0-1h4.13V8.91H22.12a.5.5,0,0,1-.5-.5.51.51,0,0,1,.5-.5h4.63a.5.5,0,0,1,.5.5v17.2A.5.5,0,0,1,26.75,26.11Z" style="fill:#383838"/><path d="M22.12,26.11a.5.5,0,0,1-.5-.5V8.41a.51.51,0,0,1,.5-.5.5.5,0,0,1,.5.5v17.2A.5.5,0,0,1,22.12,26.11Z" style="fill:#383838"/><path d="M20.74,3.65a.5.5,0,0,1-.5-.5V2.09H9.82V3.15a.5.5,0,1,1-1,0V1.59a.5.5,0,0,1,.5-.5H20.74a.5.5,0,0,1,.5.5V3.15A.5.5,0,0,1,20.74,3.65Z" style="fill:#383838"/><path d="M16,13H13.66a.5.5,0,0,1-.5-.5V11.27H11.94a.5.5,0,0,1-.5-.5V8.45a.5.5,0,0,1,.5-.5h1.22V6.73a.5.5,0,0,1,.5-.5H16a.5.5,0,0,1,.5.5V8H17.7a.5.5,0,0,1,.5.5v2.32a.5.5,0,0,1-.5.5H16.48v1.22A.5.5,0,0,1,16,13Zm-1.82-1h1.32V10.77a.5.5,0,0,1,.5-.5H17.2V9H16a.5.5,0,0,1-.5-.5V7.23H14.16V8.45a.5.5,0,0,1-.5.5H12.44v1.32h1.22a.51.51,0,0,1,.5.5Z" style="fill:#383838"/><path d="M18.39,26.27a.5.5,0,0,1-.5-.5V18.24H11.74v7.53a.5.5,0,0,1-.5.5.5.5,0,0,1-.5-.5v-8a.51.51,0,0,1,.5-.5h7.15a.5.5,0,0,1,.5.5v8A.5.5,0,0,1,18.39,26.27Z" style="fill:#383838"/><path d="M14.82,26.11a.5.5,0,0,1-.5-.5V17.74a.5.5,0,0,1,.5-.5.51.51,0,0,1,.5.5v7.87A.5.5,0,0,1,14.82,26.11Z" style="fill:#383838"/><path d="M13.32,22.13H13a.37.37,0,0,1-.37-.37.38.38,0,0,1,.37-.38h.3a.38.38,0,0,1,.38.38A.37.37,0,0,1,13.32,22.13Z" style="fill:#383838"/><path d="M16.66,22.13h-.3a.37.37,0,0,1-.37-.37.38.38,0,0,1,.37-.38h.3a.38.38,0,0,1,.38.38A.37.37,0,0,1,16.66,22.13Z" style="fill:#383838"/><path d="M8,10.59H3.34A.37.37,0,0,1,3,10.22a.38.38,0,0,1,.38-.38H8a.38.38,0,0,1,.37.38A.37.37,0,0,1,8,10.59Z" style="fill:#383838"/><path d="M26.75,10.59H22.12a.37.37,0,0,1-.37-.37.38.38,0,0,1,.37-.38h4.63a.38.38,0,0,1,.38.38A.37.37,0,0,1,26.75,10.59Z" style="fill:#383838"/></svg>