<svg xmlns="http://www.w3.org/2000/svg" viewBox="0 0 30 30"><title>ic_mart</title><path d="M26.44,26.36h-.05a.51.51,0,0,1-.45-.57s0-.1,0-.13v-13a.5.5,0,0,1,.5-.5.51.51,0,0,1,.5.5V25.75a1,1,0,0,1,0,.18A.48.48,0,0,1,26.44,26.36Z" style="fill:#383838"/><path d="M3.65,26.32a.49.49,0,0,1-.49-.43.68.68,0,0,1,0-.14v-13a.51.51,0,0,1,.5-.5.5.5,0,0,1,.5.5V25.75a.52.52,0,0,1-.44.57Z" style="fill:#383838"/><path d="M28.5,29.06H1.5a.5.5,0,0,1-.5-.5V25.84a.5.5,0,0,1,.5-.5H3.66a.5.5,0,0,1,0,1H2v1.72H28V26.34H26.44a.5.5,0,0,1,0-1H28.5a.5.5,0,0,1,.5.5v2.72A.5.5,0,0,1,28.5,29.06Z" style="fill:#383838"/><path d="M26.44,26.34H3.66a.5.5,0,0,1,0-1H26.44a.5.5,0,0,1,0,1Z" style="fill:#383838"/><path d="M26.46,4.94H3.64a.5.5,0,0,1-.5-.5.51.51,0,0,1,.5-.5H26.46a.51.51,0,0,1,.5.5A.5.5,0,0,1,26.46,4.94Z" style="fill:#383838"/><path d="M26.46,4.94a.5.5,0,0,1-.5-.5V2.35H4.14V4.44a.5.5,0,0,1-.5.5.5.5,0,0,1-.5-.5V1.85a.5.5,0,0,1,.5-.5H26.46a.5.5,0,0,1,.5.5V4.44A.5.5,0,0,1,26.46,4.94Z" style="fill:#383838"/><path d="M13.57,10.33h-3a.5.5,0,0,1,0-1h3a.5.5,0,0,1,0,1Z" style="fill:#383838"/><path d="M4.71,10.33H3.64a.5.5,0,0,1,0-1H4.71a.5.5,0,0,1,0,1Z" style="fill:#383838"/><path d="M10.62,10.33h-3a.5.5,0,0,1,0-1h3a.5.5,0,0,1,0,1Z" style="fill:#383838"/><path d="M15.05,10.33H13.57a.5.5,0,0,1,0-1h1.48a.5.5,0,0,1,0,1Z" style="fill:#383838"/><path d="M2.4,8.48l-.17,0a.5.5,0,0,1-.3-.64L3.17,4.28A.51.51,0,0,1,3.81,4a.49.49,0,0,1,.3.64L2.87,8.15A.5.5,0,0,1,2.4,8.48Z" style="fill:#383838"/><path d="M7.66,10.33H4.71a.5.5,0,1,1,0-1h3a.5.5,0,1,1,0,1Z" style="fill:#383838"/><path d="M1.75,10.33l-.17,0a.5.5,0,0,1-.3-.64l.65-1.85a.5.5,0,1,1,.94.34L2.22,10A.5.5,0,0,1,1.75,10.33Z" style="fill:#383838"/><path d="M3.64,10.33H1.75a.5.5,0,0,1,0-1H3.64a.5.5,0,0,1,0,1Z" style="fill:#383838"/><path d="M22.44,10.33h-3a.5.5,0,0,1,0-1h3a.5.5,0,0,1,0,1Z" style="fill:#383838"/><path d="M26.46,10.33H25.39a.5.5,0,0,1,0-1h1.07a.5.5,0,0,1,0,1Z" style="fill:#383838"/><path d="M28.35,10.33H26.46a.5.5,0,0,1,0-1h1.89a.5.5,0,0,1,0,1Z" style="fill:#383838"/><path d="M19.48,10.33H16.53a.5.5,0,0,1,0-1h2.95a.5.5,0,0,1,0,1Z" style="fill:#383838"/><path d="M25.39,10.33H22.44a.5.5,0,0,1,0-1h2.95a.5.5,0,0,1,0,1Z" style="fill:#383838"/><path d="M16.53,10.33H15.05a.5.5,0,0,1,0-1h1.48a.5.5,0,0,1,0,1Z" style="fill:#383838"/><path d="M28.35,10.33a.5.5,0,0,1-.47-.33l-.65-1.85a.5.5,0,1,1,.94-.34l.65,1.85a.5.5,0,0,1-.31.64A.45.45,0,0,1,28.35,10.33Z" style="fill:#383838"/><path d="M27.7,8.48a.5.5,0,0,1-.47-.33L26,4.61a.5.5,0,0,1,.95-.33l1.24,3.53a.5.5,0,0,1-.31.64A.45.45,0,0,1,27.7,8.48Z" style="fill:#383838"/><path d="M3.64,13.2a.51.51,0,0,1-.48-.35.5.5,0,0,1,.34-.62,1,1,0,0,0,.71-.94.5.5,0,0,1,.5-.5.51.51,0,0,1,.5.5,2,2,0,0,1-1.42,1.89A.39.39,0,0,1,3.64,13.2Z" style="fill:#383838"/><path d="M3.23,13.27a2,2,0,0,1-2-2V9.83a.5.5,0,0,1,1,0v1.46a1,1,0,0,0,1,1,.93.93,0,0,0,.27,0,.5.5,0,0,1,.62.33.49.49,0,0,1-.34.62A1.81,1.81,0,0,1,3.23,13.27Z" style="fill:#383838"/><path d="M6.18,13.27a2,2,0,0,1-2-2,.5.5,0,0,1,.5-.5.51.51,0,0,1,.5.5,1,1,0,1,0,2,0,.5.5,0,0,1,1,0A2,2,0,0,1,6.18,13.27Z" style="fill:#383838"/><path d="M4.71,11.79a.5.5,0,0,1-.5-.5V9.83a.5.5,0,0,1,.5-.5.5.5,0,0,1,.5.5v1.46A.5.5,0,0,1,4.71,11.79Z" style="fill:#383838"/><path d="M9.14,13.27a2,2,0,0,1-2-2,.5.5,0,0,1,1,0,1,1,0,1,0,2,0,.5.5,0,0,1,.5-.5.51.51,0,0,1,.5.5A2,2,0,0,1,9.14,13.27Z" style="fill:#383838"/><path d="M7.66,11.79a.5.5,0,0,1-.5-.5V9.83a.5.5,0,0,1,1,0v1.46A.5.5,0,0,1,7.66,11.79Z" style="fill:#383838"/><path d="M12.09,13.27a2,2,0,0,1-2-2,.5.5,0,0,1,.5-.5.51.51,0,0,1,.5.5,1,1,0,1,0,2,0,.5.5,0,0,1,1,0A2,2,0,0,1,12.09,13.27Z" style="fill:#383838"/><path d="M10.62,11.79a.5.5,0,0,1-.5-.5V9.83a.5.5,0,0,1,.5-.5.5.5,0,0,1,.5.5v1.46A.5.5,0,0,1,10.62,11.79Z" style="fill:#383838"/><path d="M15.05,13.27a2,2,0,0,1-2-2,.5.5,0,0,1,1,0,1,1,0,0,0,2,0,.5.5,0,0,1,.5-.5.51.51,0,0,1,.5.5A2,2,0,0,1,15.05,13.27Z" style="fill:#383838"/><path d="M13.57,11.79a.5.5,0,0,1-.5-.5V9.83a.5.5,0,1,1,1,0v1.46A.5.5,0,0,1,13.57,11.79Z" style="fill:#383838"/><path d="M18,13.27a2,2,0,0,1-2-2,.5.5,0,0,1,.5-.5.51.51,0,0,1,.5.5,1,1,0,1,0,1.95,0,.51.51,0,0,1,.5-.5.5.5,0,0,1,.5.5A2,2,0,0,1,18,13.27Z" style="fill:#383838"/><path d="M16.53,11.79a.5.5,0,0,1-.5-.5V9.83a.5.5,0,0,1,.5-.5.5.5,0,0,1,.5.5v1.46A.5.5,0,0,1,16.53,11.79Z" style="fill:#383838"/><path d="M21,13.27a2,2,0,0,1-2-2,.51.51,0,0,1,.5-.5.5.5,0,0,1,.5.5,1,1,0,0,0,2,0,.5.5,0,0,1,.5-.5.51.51,0,0,1,.5.5A2,2,0,0,1,21,13.27Z" style="fill:#383838"/><path d="M19.48,11.79a.5.5,0,0,1-.5-.5V9.83a.5.5,0,0,1,.5-.5.5.5,0,0,1,.5.5v1.46A.5.5,0,0,1,19.48,11.79Z" style="fill:#383838"/><path d="M23.92,13.27a2,2,0,0,1-2-2,.5.5,0,0,1,.5-.5.51.51,0,0,1,.5.5,1,1,0,1,0,1.95,0,.51.51,0,0,1,.5-.5.5.5,0,0,1,.5.5A2,2,0,0,1,23.92,13.27Z" style="fill:#383838"/><path d="M22.44,11.79a.5.5,0,0,1-.5-.5V9.83a.5.5,0,0,1,.5-.5.5.5,0,0,1,.5.5v1.46A.5.5,0,0,1,22.44,11.79Z" style="fill:#383838"/><path d="M26.46,13.2a.39.39,0,0,1-.15,0,2,2,0,0,1-1.42-1.89.51.51,0,0,1,.5-.5.5.5,0,0,1,.5.5,1,1,0,0,0,.71.94.5.5,0,0,1-.14,1Z" style="fill:#383838"/><path d="M26.87,13.27a1.92,1.92,0,0,1-.56-.09.5.5,0,1,1,.29-.95.93.93,0,0,0,.27,0,1,1,0,0,0,1-1V9.83a.5.5,0,1,1,1,0v1.46A2,2,0,0,1,26.87,13.27Z" style="fill:#383838"/><path d="M25.39,11.79a.5.5,0,0,1-.5-.5V9.83a.5.5,0,0,1,.5-.5.5.5,0,0,1,.5.5v1.46A.5.5,0,0,1,25.39,11.79Z" style="fill:#383838"/><path d="M15.33,22H12.38a.41.41,0,0,1-.4-.3l-1.48-5a.47.47,0,0,1,.07-.38.42.42,0,0,1,.34-.17h4.42a.43.43,0,0,1,0,.85H11.48l1.22,4.11h2.63a.43.43,0,0,1,0,.85Z" style="fill:#383838"/><path d="M18.22,22H15.28a.43.43,0,1,1,0-.85H17.9L19.12,17H15.28a.43.43,0,1,1,0-.85h4.41a.42.42,0,0,1,.34.17.47.47,0,0,1,.07.38l-1.47,5A.43.43,0,0,1,18.22,22Z" style="fill:#383838"/><path d="M10.91,17.06a.44.44,0,0,1-.41-.31l-.45-1.55H8.93a.43.43,0,0,1,0-.85h1.44a.42.42,0,0,1,.4.3l.55,1.86A.42.42,0,0,1,11,17Z" style="fill:#383838"/><path d="M17.44,24.2a1.35,1.35,0,1,1,0-2.69,1.35,1.35,0,0,1,0,2.69Zm0-1.84a.49.49,0,0,0-.5.49.5.5,0,1,0,1,0A.49.49,0,0,0,17.44,22.36Z" style="fill:#383838"/><path d="M13.58,24.2a1.35,1.35,0,1,1,1.34-1.35A1.35,1.35,0,0,1,13.58,24.2Zm0-1.84a.49.49,0,0,0-.5.49.5.5,0,1,0,1,0A.49.49,0,0,0,13.58,22.36Z" style="fill:#383838"/><path d="M19.25,18.37H11.31a.43.43,0,0,1,0-.85h7.94a.43.43,0,1,1,0,.85Z" style="fill:#383838"/></svg>