<svg xmlns="http://www.w3.org/2000/svg" viewBox="0 0 30 30"><title>ic_park</title><path d="M28.22,28.75H1.28a.5.5,0,0,1-.5-.5.51.51,0,0,1,.5-.5H28.22a.5.5,0,0,1,.5.5A.5.5,0,0,1,28.22,28.75Z" style="fill:#363838"/><path d="M9.82,23.57a1.5,1.5,0,1,1,1.5-1.5A1.5,1.5,0,0,1,9.82,23.57Zm0-2a.5.5,0,0,0-.5.5.5.5,0,0,0,.5.5.51.51,0,0,0,.5-.5A.5.5,0,0,0,9.82,21.57Z" style="fill:#363838"/><path d="M23.75,23.57a1.5,1.5,0,1,1,1.5-1.5A1.5,1.5,0,0,1,23.75,23.57Zm0-2a.5.5,0,0,0-.5.5.51.51,0,0,0,.5.5.5.5,0,0,0,.5-.5A.5.5,0,0,0,23.75,21.57Z" style="fill:#363838"/><path d="M19.55,21.8h-6a.51.51,0,0,1-.5-.5.5.5,0,0,1,.5-.5h6a.5.5,0,0,1,.5.5A.5.5,0,0,1,19.55,21.8Z" style="fill:#363838"/><path d="M19.55,23.34h-6a.51.51,0,0,1-.5-.5.5.5,0,0,1,.5-.5h6a.5.5,0,0,1,.5.5A.5.5,0,0,1,19.55,23.34Z" style="fill:#363838"/><path d="M22.45,13.37H11.18a.51.51,0,0,1-.5-.5.5.5,0,0,1,.5-.5H22.45a.5.5,0,0,1,.5.5A.51.51,0,0,1,22.45,13.37Z" style="fill:#363838"/><path d="M7.52,18.84A1.42,1.42,0,0,1,6.1,17.43V15.51a1.42,1.42,0,0,1,2.83,0v1.92A1.41,1.41,0,0,1,7.52,18.84Zm0-3.74a.42.42,0,0,0-.42.41v1.92a.42.42,0,0,0,.83,0V15.51A.41.41,0,0,0,7.52,15.1Z" style="fill:#363838"/><path d="M25.66,18.84a1.41,1.41,0,0,1-1.41-1.41V15.51a1.42,1.42,0,0,1,2.83,0v1.92A1.42,1.42,0,0,1,25.66,18.84Zm0-3.74a.41.41,0,0,0-.41.41v1.92a.42.42,0,0,0,.83,0V15.51A.42.42,0,0,0,25.66,15.1Z" style="fill:#363838"/><path d="M24.75,19.83a.5.5,0,0,1-.5-.5V18a6.5,6.5,0,0,0-6.5-6.5H15.87a6.45,6.45,0,0,0-1.95.3.5.5,0,1,1-.3-1,7.44,7.44,0,0,1,2.25-.34h1.88a7.5,7.5,0,0,1,7.5,7.5v1.29A.5.5,0,0,1,24.75,19.83Z" style="fill:#363838"/><path d="M8.87,19.83a.5.5,0,0,1-.5-.5V18a7.48,7.48,0,0,1,2.46-5.54.5.5,0,0,1,.71,0,.51.51,0,0,1,0,.71A6.49,6.49,0,0,0,9.37,18v1.29A.51.51,0,0,1,8.87,19.83Z" style="fill:#363838"/><path d="M11.17,13.37a.5.5,0,0,1-.34-.87,7.49,7.49,0,0,1,2.79-1.62.5.5,0,0,1,.3,1,6.39,6.39,0,0,0-2.41,1.4A.55.55,0,0,1,11.17,13.37Z" style="fill:#363838"/><path d="M24.75,19.83H8.87a.5.5,0,0,1-.5-.5.5.5,0,0,1,.5-.5H24.75a.5.5,0,0,1,.5.5A.5.5,0,0,1,24.75,19.83Z" style="fill:#363838"/><path d="M25.18,25.21H22.84a.5.5,0,0,1-.5-.5.5.5,0,0,1,.5-.5h2.34a.5.5,0,0,1,.5.5A.51.51,0,0,1,25.18,25.21Z" style="fill:#363838"/><path d="M26.53,25.21H25.18a.5.5,0,0,1-.5-.5.5.5,0,0,1,.5-.5h1.35a.5.5,0,0,0,.5-.5V20.33a.5.5,0,0,0-.5-.5H24.75a.5.5,0,0,1-.5-.5.5.5,0,0,1,.5-.5h1.78a1.5,1.5,0,0,1,1.5,1.5v3.38A1.5,1.5,0,0,1,26.53,25.21Z" style="fill:#363838"/><path d="M10.78,25.21H8.44a.5.5,0,0,1-.5-.5.5.5,0,0,1,.5-.5h2.34a.5.5,0,0,1,.5.5A.51.51,0,0,1,10.78,25.21Z" style="fill:#363838"/><path d="M8.44,25.21H7.08a1.51,1.51,0,0,1-1.5-1.5V20.33a1.5,1.5,0,0,1,1.5-1.5H8.87a.5.5,0,0,1,.5.5.51.51,0,0,1-.5.5H7.08a.5.5,0,0,0-.5.5v3.38a.51.51,0,0,0,.5.5H8.44a.5.5,0,0,1,.5.5A.5.5,0,0,1,8.44,25.21Z" style="fill:#363838"/><path d="M22.32,25.21h-11a.51.51,0,0,1-.5-.5.5.5,0,0,1,.5-.5h11a.5.5,0,0,1,.5.5A.5.5,0,0,1,22.32,25.21Z" style="fill:#363838"/><path d="M22.84,25.21h-.52a.51.51,0,0,1-.5-.5.5.5,0,0,1,.5-.5h.52a.5.5,0,0,1,.5.5A.5.5,0,0,1,22.84,25.21Z" style="fill:#363838"/><path d="M11.29,25.21h-.51a.5.5,0,0,1-.5-.5.5.5,0,0,1,.5-.5h.51a.5.5,0,0,1,.5.5A.5.5,0,0,1,11.29,25.21Z" style="fill:#363838"/><path d="M9.87,28.14a1.93,1.93,0,0,1-1.93-1.93v-1.5a.5.5,0,0,1,1,0v1.5a.93.93,0,1,0,1.85,0v-1.5a.5.5,0,0,1,.5-.5.5.5,0,0,1,.5.5v1.5A1.93,1.93,0,0,1,9.87,28.14Z" style="fill:#363838"/><path d="M23.75,28.14a1.94,1.94,0,0,1-1.93-1.93v-1.5a.5.5,0,0,1,.5-.5.5.5,0,0,1,.5.5v1.5a.93.93,0,0,0,1.86,0v-1.5a.5.5,0,0,1,.5-.5.5.5,0,0,1,.5.5v1.5A1.94,1.94,0,0,1,23.75,28.14Z" style="fill:#363838"/><path d="M4.05,28.75a.5.5,0,0,1-.5-.5V12.17a.51.51,0,0,1,.5-.5.5.5,0,0,1,.5.5V28.25A.5.5,0,0,1,4.05,28.75Z" style="fill:#363838"/><path d="M4.05,12.67a.45.45,0,0,1-.31-.11A3.5,3.5,0,0,1,2.45,9.87V4.63A3.5,3.5,0,0,1,6,1.13h5.23a3.5,3.5,0,0,1,3.5,3.5V9.11a.5.5,0,0,1-.5.5.5.5,0,0,1-.5-.5V4.63a2.5,2.5,0,0,0-2.5-2.5H6a2.5,2.5,0,0,0-2.5,2.5V9.87a2.5,2.5,0,0,0,.92,1.92.49.49,0,0,1,.07.7A.5.5,0,0,1,4.05,12.67Z" style="fill:#363838"/><path d="M8.44,13.37H6a3.42,3.42,0,0,1-2.21-.81.5.5,0,0,1,.63-.77A2.47,2.47,0,0,0,6,12.37H8.44a.5.5,0,0,1,.5.5A.5.5,0,0,1,8.44,13.37Z" style="fill:#363838"/><path d="M11.17,13.37a.43.43,0,0,1-.19,0,.46.46,0,0,1-.16-.11.47.47,0,0,1-.15-.35.41.41,0,0,1,0-.19.45.45,0,0,1,.11-.17.44.44,0,0,1,.16-.1.51.51,0,0,1,.54.1.45.45,0,0,1,.11.17.41.41,0,0,1,0,.19.51.51,0,0,1-.5.5Z" style="fill:#363838"/><path d="M11.18,13.37a.51.51,0,0,1-.5-.5.49.49,0,0,1,.49-.5h0a.5.5,0,0,1,.5.5A.5.5,0,0,1,11.18,13.37Z" style="fill:#363838"/><path d="M6.32,8.16a.5.5,0,0,1-.5-.5V4.53a.5.5,0,0,1,.5-.5.5.5,0,0,1,.5.5V7.66A.5.5,0,0,1,6.32,8.16Z" style="fill:#363838"/><path d="M6.32,10.54a.5.5,0,0,1-.5-.5V7.66a.5.5,0,0,1,.5-.5.51.51,0,0,1,.5.5V10A.5.5,0,0,1,6.32,10.54Z" style="fill:#363838"/><path d="M9.84,8.17H6.34a.51.51,0,0,1-.51-.51.49.49,0,0,1,.49-.5H9.84A1.08,1.08,0,1,0,9.84,5H6.34a.5.5,0,0,1-.51-.5A.48.48,0,0,1,6.32,4H9.84a2.08,2.08,0,1,1,0,4.15Z" style="fill:#363838"/></svg>