<svg xmlns="http://www.w3.org/2000/svg" viewBox="0 0 30 30"><title>ic_preschool</title><path d="M24.48,26.34H5.8a.5.5,0,0,1-.5-.5V11.66a.5.5,0,0,1,.5-.5.51.51,0,0,1,.5.5V25.34H24V11.66a.5.5,0,0,1,1,0V25.84A.5.5,0,0,1,24.48,26.34Z" style="fill:#383838"/><path d="M24.48,12.16a.55.55,0,0,1-.3-.09l-1.74-1.28a.51.51,0,0,1-.11-.7A.5.5,0,0,1,23,10l1.75,1.28a.5.5,0,0,1,.1.7A.51.51,0,0,1,24.48,12.16Z" style="fill:#383838"/><path d="M25.88,13.19a.47.47,0,0,1-.3-.1l-1.4-1a.5.5,0,0,1-.1-.7.51.51,0,0,1,.7-.11l1.1.81,1.37-1L15.14,2.16,3,11.06l1.38,1,1.1-.81a.51.51,0,0,1,.7.11.5.5,0,0,1-.11.7l-1.39,1a.49.49,0,0,1-.59,0L1.88,11.46a.49.49,0,0,1-.2-.4.51.51,0,0,1,.2-.41L14.82,1.16a.46.46,0,0,1,.39-.09.45.45,0,0,1,.25.09L28.4,10.65a.54.54,0,0,1,.2.41.52.52,0,0,1-.2.4l-2.23,1.63A.46.46,0,0,1,25.88,13.19Z" style="fill:#383838"/><path d="M22.74,10.88a.53.53,0,0,1-.3-.09l-7.3-5.36-7.3,5.36a.51.51,0,0,1-.7-.11.5.5,0,0,1,.11-.7L14.84,4.4a.49.49,0,0,1,.59,0L23,10a.5.5,0,0,1-.29.9Z" style="fill:#383838"/><path d="M5.8,12.16a.5.5,0,0,1-.3-.9L7.25,10a.5.5,0,0,1,.7.11.51.51,0,0,1-.11.7L6.09,12.07A.52.52,0,0,1,5.8,12.16Z" style="fill:#383838"/><path d="M28.45,29.06h-27a.5.5,0,0,1-.5-.5V25.84a.5.5,0,0,1,.5-.5h27a.5.5,0,0,1,.5.5v2.72A.5.5,0,0,1,28.45,29.06ZM2,28.06H28V26.34H2Z" style="fill:#383838"/><path d="M10.47,16.11h0a.44.44,0,0,1-.42-.44,5,5,0,0,1,4.13-4.8.42.42,0,0,1,.49.34.43.43,0,0,1-.35.5,4.13,4.13,0,0,0-3.42,4A.42.42,0,0,1,10.47,16.11Z" style="fill:#383838"/><path d="M14.24,11.71a.42.42,0,0,1-.07-.84,5,5,0,0,1,.84-.09.43.43,0,0,1,.42.43.42.42,0,0,1-.42.42,4.06,4.06,0,0,0-.7.08Z" style="fill:#383838"/><path d="M16,11.73H16l-.13,0a.46.46,0,0,1-.42-.47.39.39,0,0,1,.42-.39l.2,0a.46.46,0,0,1,.36.5A.4.4,0,0,1,16,11.73Z" style="fill:#383838"/><path d="M19.87,16.11a.42.42,0,0,1-.42-.42,4.09,4.09,0,0,0-3.49-4,.43.43,0,1,1,.13-.84,4.94,4.94,0,0,1,4.21,4.79.43.43,0,0,1-.42.44Z" style="fill:#383838"/><path d="M15.79,11.68h0l-.16,0-.25,0H15a.42.42,0,0,1-.43-.42.43.43,0,0,1,.43-.43h.33a2.2,2.2,0,0,1,.36,0h.14a.43.43,0,0,1,.37.47A.42.42,0,0,1,15.79,11.68Z" style="fill:#383838"/><path d="M15.34,22.23H15a5,5,0,0,1-5-5v-.17a.43.43,0,0,1,.85,0v.17A4.13,4.13,0,0,0,15,21.38h.33a4.13,4.13,0,0,0,4.12-4.12v-.17a.43.43,0,0,1,.85,0v.17A5,5,0,0,1,15.34,22.23Z" style="fill:#383838"/><path d="M19.87,16.11H17.72a.44.44,0,0,1-.43-.43.43.43,0,0,1,.43-.42h2.15a.42.42,0,0,1,.43.42A.43.43,0,0,1,19.87,16.11Z" style="fill:#383838"/><path d="M20.86,17.52h-1a.43.43,0,0,1,0-.85h1a.24.24,0,0,0,.24-.24c0-.21-.11-.32-.24-.32h-1a.43.43,0,0,1-.42-.43.42.42,0,0,1,.42-.42h1A1.09,1.09,0,0,1,22,16.35,1.11,1.11,0,0,1,20.86,17.52Z" style="fill:#383838"/><path d="M10.46,17.52h-1a1.09,1.09,0,0,1-1.09-1.09,1.11,1.11,0,0,1,1.09-1.17h1.05a.42.42,0,0,1,.42.42.43.43,0,0,1-.42.43H9.42a.24.24,0,0,0-.24.24c0,.21.11.32.24.32h1a.43.43,0,1,1,0,.85Z" style="fill:#383838"/><path d="M17.72,16.11H13a.43.43,0,0,1-.42-.43.42.42,0,0,1,.42-.42h4.7a.42.42,0,0,1,.42.42A.43.43,0,0,1,17.72,16.11Z" style="fill:#383838"/><path d="M19.88,17.52H10.46a.43.43,0,0,1,0-.85h9.42a.43.43,0,1,1,0,.85Z" style="fill:#383838"/><path d="M13,16.11H10.47a.44.44,0,0,1-.43-.43.43.43,0,0,1,.43-.42H13a.42.42,0,0,1,.43.42A.43.43,0,0,1,13,16.11Z" style="fill:#383838"/><path d="M13,16.11a.43.43,0,0,1-.42-.43,6.28,6.28,0,0,1,1.66-4.35.42.42,0,0,1,.62.58,5.4,5.4,0,0,0-1.43,3.77A.43.43,0,0,1,13,16.11Z" style="fill:#383838"/><path d="M14.57,12.05a.4.4,0,0,1-.29-.12.43.43,0,0,1,0-.6,5.68,5.68,0,0,1,.48-.45.42.42,0,0,1,.6.07.43.43,0,0,1-.07.59,5.25,5.25,0,0,0-.39.37A.44.44,0,0,1,14.57,12.05Z" style="fill:#383838"/><path d="M17.72,16.11a.44.44,0,0,1-.43-.43,5.35,5.35,0,0,0-1.62-4,.42.42,0,1,1,.58-.62,6.2,6.2,0,0,1,1.89,4.59A.43.43,0,0,1,17.72,16.11Z" style="fill:#383838"/><path d="M16,11.82a.41.41,0,0,1-.29-.11l-.14-.12a.42.42,0,0,1-.07-.6.44.44,0,0,1,.6-.07l.19.17a.43.43,0,0,1,0,.6A.42.42,0,0,1,16,11.82Z" style="fill:#383838"/><path d="M15.53,11.59l.26-.33-.32.28a.42.42,0,1,1,.53-.66l-.21.38Z" style="fill:#383838"/><path d="M16,11.82a.36.36,0,0,1-.26-.09.42.42,0,0,1-.08-.59.5.5,0,0,1,.62-.14.39.39,0,0,1,.14.53L16,11.3l.35.25-.08.11A.41.41,0,0,1,16,11.82Z" style="fill:#383838"/><path d="M16,11.73a.38.38,0,0,1-.22-.07.42.42,0,0,1-.14-.58.64.64,0,0,0,.12-.33.64.64,0,0,0-1.28,0,.56.56,0,0,0,.11.32.43.43,0,0,1-.73.44,1.42,1.42,0,0,1-.23-.76,1.49,1.49,0,1,1,3,0,1.41,1.41,0,0,1-.25.78A.41.41,0,0,1,16,11.73Z" style="fill:#383838"/><path d="M12.19,24.11a.41.41,0,0,1-.26-.09.44.44,0,0,1-.16-.34V21.29a.43.43,0,0,1,.85,0v1.86l1.12-.27V21.81a.43.43,0,1,1,.85,0v1.41a.41.41,0,0,1-.33.41l-2,.47Z" style="fill:#383838"/><path d="M18.08,24.11H18l-2-.47a.41.41,0,0,1-.32-.41V21.81a.42.42,0,0,1,.42-.43.43.43,0,0,1,.43.43v1.07l1.12.27V21.29a.43.43,0,0,1,.85,0v2.39a.42.42,0,0,1-.43.43Z" style="fill:#383838"/><path d="M16.11,23.64H14.17a.43.43,0,1,1,0-.85h1.94a.43.43,0,1,1,0,.85Z" style="fill:#383838"/></svg>