<svg xmlns="http://www.w3.org/2000/svg" viewBox="0 0 30 30"><title>ic_school</title><path d="M15,17.59a3.43,3.43,0,1,1,3.42-3.42A3.43,3.43,0,0,1,15,17.59Zm0-6a2.58,2.58,0,1,0,2.57,2.58A2.59,2.59,0,0,0,15,11.59Z" style="fill:#383838"/><path d="M16.43,14.59H15a.42.42,0,0,1-.43-.42V13a.43.43,0,0,1,.85,0v.74h1a.43.43,0,0,1,0,.85Z" style="fill:#383838"/><path d="M26.41,26.27H21.93a.5.5,0,0,1,0-1h4.48a.5.5,0,0,1,0,1Z" style="fill:#383838"/><path d="M8.07,26.27H3.59a.5.5,0,0,1,0-1H8.07a.5.5,0,1,1,0,1Z" style="fill:#383838"/><path d="M17.56,26.27H12.35a.5.5,0,1,1,0-1h5.21a.5.5,0,0,1,0,1Z" style="fill:#383838"/><path d="M21.93,26.27H17.56a.5.5,0,0,1,0-1h4.37a.5.5,0,0,1,0,1Z" style="fill:#383838"/><path d="M12.35,26.27H8.07a.5.5,0,0,1,0-1h4.28a.5.5,0,0,1,0,1Z" style="fill:#383838"/><path d="M28.16,29.06H1.74a.5.5,0,0,1-.5-.5V25.77a.5.5,0,0,1,.5-.5H3.59a.5.5,0,0,1,0,1H2.24v1.79H27.66V26.27H26.41a.5.5,0,0,1,0-1h1.75a.5.5,0,0,1,.5.5v2.79A.5.5,0,0,1,28.16,29.06Z" style="fill:#383838"/><path d="M26.41,26.27a.5.5,0,0,1-.5-.5V15.09a.5.5,0,0,1,.5-.5.5.5,0,0,1,.5.5V25.77A.5.5,0,0,1,26.41,26.27Z" style="fill:#383838"/><path d="M26.41,15.59H21.93a.5.5,0,0,1,0-1h4.48a.5.5,0,0,1,0,1Z" style="fill:#383838"/><path d="M3.59,26.27a.5.5,0,0,1-.5-.5V15.09a.5.5,0,0,1,.5-.5.5.5,0,0,1,.5.5V25.77A.5.5,0,0,1,3.59,26.27Z" style="fill:#383838"/><path d="M8.07,15.59H3.59a.5.5,0,0,1,0-1H8.07a.5.5,0,0,1,0,1Z" style="fill:#383838"/><path d="M8.07,12.28a.48.48,0,0,1-.42-.23.49.49,0,0,1,.15-.69l6.93-4.47a.5.5,0,0,1,.69.14.51.51,0,0,1-.15.7L8.34,12.2A.56.56,0,0,1,8.07,12.28Z" style="fill:#383838"/><path d="M21.93,15.59a.5.5,0,0,1-.5-.5V11.78a.5.5,0,0,1,.5-.5.5.5,0,0,1,.5.5v3.31A.5.5,0,0,1,21.93,15.59Z" style="fill:#383838"/><path d="M21.93,12.28a.56.56,0,0,1-.27-.08L14.73,7.73a.51.51,0,0,1-.15-.7.49.49,0,0,1,.69-.14l6.93,4.47a.49.49,0,0,1,.15.69A.48.48,0,0,1,21.93,12.28Z" style="fill:#383838"/><path d="M8.07,15.59a.5.5,0,0,1-.5-.5V11.78a.5.5,0,0,1,.5-.5.5.5,0,0,1,.5.5v3.31A.5.5,0,0,1,8.07,15.59Z" style="fill:#383838"/><path d="M21.93,26.27a.5.5,0,0,1-.5-.5V15.09a.5.5,0,0,1,.5-.5.5.5,0,0,1,.5.5V25.77A.5.5,0,0,1,21.93,26.27Z" style="fill:#383838"/><path d="M8.07,26.27a.5.5,0,0,1-.5-.5V15.09a.5.5,0,0,1,.5-.5.5.5,0,0,1,.5.5V25.77A.5.5,0,0,1,8.07,26.27Z" style="fill:#383838"/><path d="M15,7.81a.5.5,0,0,1-.5-.5V5.6a.5.5,0,0,1,1,0V7.31A.5.5,0,0,1,15,7.81Z" style="fill:#383838"/><path d="M15,6.1a.5.5,0,0,1-.5-.5V2.65a.5.5,0,1,1,1,0V5.6A.5.5,0,0,1,15,6.1Z" style="fill:#383838"/><path d="M15,3.15a.5.5,0,0,1-.5-.5v-.8a.5.5,0,0,1,1,0v.8A.5.5,0,0,1,15,3.15Z" style="fill:#383838"/><path d="M19.83,6.1H15a.5.5,0,0,1,0-1h4l-.36-.66a.5.5,0,0,1,0-.46L19,3.15H15a.5.5,0,0,1-.5-.5.5.5,0,0,1,.5-.5h4.83a.48.48,0,0,1,.42.23.51.51,0,0,1,0,.48l-.65,1.33.64,1.17a.52.52,0,0,1,0,.5A.51.51,0,0,1,19.83,6.1Z" style="fill:#383838"/><path d="M3.59,15.59H1.5a.5.5,0,0,1-.43-.75L3,11.52a.5.5,0,0,1,.43-.24H8.07a.5.5,0,0,1,.5.5.51.51,0,0,1-.5.5H3.72L2.37,14.59H3.59a.5.5,0,0,1,0,1Z" style="fill:#383838"/><path d="M4.09,15.59h-.5a.5.5,0,0,1,0-1h.5a.5.5,0,0,1,0,1Z" style="fill:#383838"/><path d="M26.41,15.59h-.5a.5.5,0,0,1,0-1h.5a.5.5,0,0,1,0,1Z" style="fill:#383838"/><path d="M21.94,12.28a.41.41,0,0,1-.19,0,.45.45,0,0,1-.17-.11.44.44,0,0,1-.1-.16.41.41,0,0,1,0-.19.5.5,0,0,1,.14-.35.51.51,0,0,1,.86.35.58.58,0,0,1,0,.19.46.46,0,0,1-.11.16A.47.47,0,0,1,21.94,12.28Z" style="fill:#383838"/><path d="M28.5,15.59H26.41a.5.5,0,0,1,0-1h1.22l-1.35-2.31H21.93a.51.51,0,0,1-.5-.5.5.5,0,0,1,.5-.5h4.64a.5.5,0,0,1,.43.24l1.93,3.32a.5.5,0,0,1,0,.5A.5.5,0,0,1,28.5,15.59Z" style="fill:#383838"/><path d="M17.56,26.27a.5.5,0,0,1-.5-.5V20.45a.51.51,0,0,0-.5-.5H13.35a.5.5,0,0,0-.5.5v5.32a.5.5,0,0,1-.5.5.5.5,0,0,1-.5-.5V20.45a1.5,1.5,0,0,1,1.5-1.5h3.21a1.5,1.5,0,0,1,1.5,1.5v5.32A.5.5,0,0,1,17.56,26.27Z" style="fill:#383838"/></svg>