<svg xmlns="http://www.w3.org/2000/svg" viewBox="0 0 30 30"><title>ic_subway</title><path d="M23.3,21.57a.5.5,0,0,1-.5-.5V15.92a.5.5,0,0,1,.5-.5.5.5,0,0,1,.5.5v5.15A.5.5,0,0,1,23.3,21.57Z" style="fill:#383838"/><path d="M6.3,21.57a.5.5,0,0,1-.5-.5V15.92a.5.5,0,0,1,.5-.5.5.5,0,0,1,.5.5v5.15A.5.5,0,0,1,6.3,21.57Z" style="fill:#383838"/><path d="M8.3,24.61a2.5,2.5,0,0,1-2.5-2.5v-1a.5.5,0,0,1,.5-.5.5.5,0,0,1,.5.5v1a1.5,1.5,0,0,0,1.5,1.5.51.51,0,0,1,.5.5A.5.5,0,0,1,8.3,24.61Z" style="fill:#383838"/><path d="M6.3,16.42a.5.5,0,0,1-.5-.5v-7a.5.5,0,0,1,.5-.5.51.51,0,0,1,.5.5v7A.51.51,0,0,1,6.3,16.42Z" style="fill:#383838"/><path d="M6.3,7.65a.5.5,0,0,1-.5-.5V5.68a2.5,2.5,0,0,1,2.5-2.5h3.07a.5.5,0,0,1,.5.5.5.5,0,0,1-.5.5H8.3a1.5,1.5,0,0,0-1.5,1.5V7.15A.51.51,0,0,1,6.3,7.65Z" style="fill:#383838"/><path d="M23.3,16.42a.5.5,0,0,1-.5-.5v-7a.5.5,0,0,1,.5-.5.51.51,0,0,1,.5.5v7A.51.51,0,0,1,23.3,16.42Z" style="fill:#383838"/><path d="M20.19,24.61H9.87a.5.5,0,0,1-.5-.5.5.5,0,0,1,.5-.5H20.19a.5.5,0,0,1,.5.5A.5.5,0,0,1,20.19,24.61Z" style="fill:#383838"/><path d="M9.87,24.61H8.3a.5.5,0,0,1-.5-.5.5.5,0,0,1,.5-.5H9.87a.51.51,0,0,1,.5.5A.5.5,0,0,1,9.87,24.61Z" style="fill:#383838"/><path d="M6.3,9.41a.5.5,0,0,1-.5-.5V7.15a.5.5,0,0,1,.5-.5.5.5,0,0,1,.5.5V8.91A.5.5,0,0,1,6.3,9.41Z" style="fill:#383838"/><path d="M23.3,9.41a.5.5,0,0,1-.5-.5V7.15a.5.5,0,0,1,.5-.5.5.5,0,0,1,.5.5V8.91A.5.5,0,0,1,23.3,9.41Z" style="fill:#383838"/><path d="M21.3,24.61H20.19a.5.5,0,0,1-.5-.5.51.51,0,0,1,.5-.5H21.3a1.5,1.5,0,0,0,1.5-1.5v-1a.5.5,0,0,1,.5-.5.5.5,0,0,1,.5.5v1A2.5,2.5,0,0,1,21.3,24.61Z" style="fill:#383838"/><path d="M23.3,7.65a.5.5,0,0,1-.5-.5V5.68a1.5,1.5,0,0,0-1.5-1.5H18.23a.5.5,0,0,1-.5-.5.5.5,0,0,1,.5-.5H21.3a2.5,2.5,0,0,1,2.5,2.5V7.15A.51.51,0,0,1,23.3,7.65Z" style="fill:#383838"/><path d="M18.23,4.18H11.37a.5.5,0,0,1-.5-.5.5.5,0,0,1,.5-.5h6.86a.5.5,0,0,1,.5.5A.51.51,0,0,1,18.23,4.18Z" style="fill:#383838"/><path d="M18.23,4.18a.65.65,0,0,1-.2,0,.51.51,0,0,1-.26-.66.94.94,0,0,0,.07-.37V3a1,1,0,0,0-.95-1H12.71a1,1,0,0,0-1,1v.16a.94.94,0,0,0,.07.37.5.5,0,1,1-.92.39,1.94,1.94,0,0,1-.15-.76V3a2,2,0,0,1,2-1.95h4.18a2,2,0,0,1,1.95,2v.16a1.94,1.94,0,0,1-.15.76A.51.51,0,0,1,18.23,4.18Z" style="fill:#383838"/><path d="M6.78,29H3.66a.49.49,0,0,1-.46-.32.48.48,0,0,1,.12-.54L8,23.75a.5.5,0,0,1,.69.73L4.92,28h1.6l2.94-4.18a.5.5,0,0,1,.82.58l-3.1,4.39A.49.49,0,0,1,6.78,29Z" style="fill:#383838"/><path d="M26.4,29H23.29a.49.49,0,0,1-.41-.21L19.79,24.4a.5.5,0,1,1,.81-.58L23.55,28h1.6l-3.73-3.52a.5.5,0,1,1,.69-.73l4.64,4.39a.5.5,0,0,1-.35.86Z" style="fill:#383838"/><path d="M21.31,26.81h-13a.5.5,0,0,1-.5-.5.5.5,0,0,1,.5-.5h13a.5.5,0,0,1,.5.5A.5.5,0,0,1,21.31,26.81Z" style="fill:#383838"/><path d="M23.3,21.57H6.3a.5.5,0,0,1,0-1h17a.5.5,0,1,1,0,1Z" style="fill:#383838"/><path d="M23.3,7.65H6.3a.5.5,0,0,1-.5-.5.5.5,0,0,1,.5-.5h17a.5.5,0,0,1,.5.5A.51.51,0,0,1,23.3,7.65Z" style="fill:#383838"/><path d="M23.3,16.42H6.3a.5.5,0,0,1-.5-.5.5.5,0,0,1,.5-.5h17a.5.5,0,0,1,.5.5A.51.51,0,0,1,23.3,16.42Z" style="fill:#383838"/><path d="M9.33,19.92a1.36,1.36,0,1,1,1.31-1.36A1.34,1.34,0,0,1,9.33,19.92Zm0-2a.58.58,0,0,0-.56.61.56.56,0,1,0,1.12,0A.58.58,0,0,0,9.33,18Z" style="fill:#383838"/><path d="M20.27,19.92a1.36,1.36,0,1,1,1.31-1.36A1.34,1.34,0,0,1,20.27,19.92Zm0-2a.59.59,0,0,0-.57.61.57.57,0,1,0,1.13,0A.58.58,0,0,0,20.27,18Z" style="fill:#383838"/><path d="M17.48,21.25H12.16a.38.38,0,0,1-.38-.38V18.56a.38.38,0,0,1,.38-.38h5.32a.38.38,0,0,1,.37.38v2.31A.38.38,0,0,1,17.48,21.25Zm-5-.75H17.1V18.93H12.53Z" style="fill:#383838"/><path d="M4.9,14.08H3.6a.5.5,0,0,1-.5-.5V8.91a.5.5,0,0,1,.5-.5H4.9a.5.5,0,0,1,.5.5v4.67A.5.5,0,0,1,4.9,14.08Zm-.8-1h.3V9.41H4.1Z" style="fill:#383838"/><path d="M6.33,9.41h0a.5.5,0,0,1-.5-.5.5.5,0,0,1,.5-.5.52.52,0,0,1,.51.5A.48.48,0,0,1,6.33,9.41Z" style="fill:#383838"/><path d="M6.3,9.41H4.9a.5.5,0,0,1-.5-.5.5.5,0,0,1,.5-.5H6.3a.51.51,0,0,1,.5.5A.5.5,0,0,1,6.3,9.41Z" style="fill:#383838"/><path d="M26,14.08H24.7a.5.5,0,0,1-.5-.5V8.91a.5.5,0,0,1,.5-.5H26a.51.51,0,0,1,.5.5v4.67A.5.5,0,0,1,26,14.08Zm-.8-1h.3V9.41h-.3Z" style="fill:#383838"/><path d="M23.3,9.41a.51.51,0,0,1-.52-.5.49.49,0,0,1,.49-.5h0a.51.51,0,0,1,.5.5A.5.5,0,0,1,23.3,9.41Z" style="fill:#383838"/><path d="M24.7,9.41H23.3a.5.5,0,0,1-.5-.5.5.5,0,0,1,.5-.5h1.4a.51.51,0,0,1,.5.5A.5.5,0,0,1,24.7,9.41Z" style="fill:#383838"/></svg>