<svg xmlns="http://www.w3.org/2000/svg" viewBox="0 0 30 30"><title>ic_washer</title><path d="M24.5,29H5.5A2.5,2.5,0,0,1,3,26.5V3.5A2.5,2.5,0,0,1,5.5,1h19A2.5,2.5,0,0,1,27,3.5v23A2.5,2.5,0,0,1,24.5,29ZM5.5,2A1.5,1.5,0,0,0,4,3.5v23A1.5,1.5,0,0,0,5.5,28h19A1.5,1.5,0,0,0,26,26.5V3.5A1.5,1.5,0,0,0,24.5,2Z" style="fill:#383838"/><path d="M26.5,6.49H3.5A.5.5,0,0,1,3,6a.5.5,0,0,1,.5-.5h23A.5.5,0,0,1,27,6,.5.5,0,0,1,26.5,6.49Z" style="fill:#383838"/><path d="M20.54,4.71H17.77a.93.93,0,1,1,0-1.86h2.77a.93.93,0,0,1,0,1.86ZM17.77,3.6a.18.18,0,0,0-.18.18.19.19,0,0,0,.18.18h2.77a.19.19,0,0,0,.18-.18.18.18,0,0,0-.18-.18Z" style="fill:#383838"/><path d="M23.16,5a1.21,1.21,0,1,1,1.2-1.2A1.21,1.21,0,0,1,23.16,5Zm0-1.66a.46.46,0,0,0-.46.46.46.46,0,0,0,.91,0A.46.46,0,0,0,23.16,3.32Z" style="fill:#383838"/><path d="M23,18.2h0a.48.48,0,0,1-.47-.51v0c0-.14,0-.28,0-.41a.5.5,0,0,1,.5-.5h0a.51.51,0,0,1,.5.51c0,.16,0,.31,0,.47A.51.51,0,0,1,23,18.2Z" style="fill:#383838"/><path d="M23,17.71a.47.47,0,0,1-.5-.47,7.15,7.15,0,0,0-.13-1.4.5.5,0,0,1,.41-.58.51.51,0,0,1,.58.4,8.93,8.93,0,0,1,.14,1.51A.54.54,0,0,1,23,17.71Z" style="fill:#383838"/><path d="M22.81,19.32h-.1a.5.5,0,0,1-.39-.59,7.53,7.53,0,0,0,.15-1,.5.5,0,0,1,.54-.46.49.49,0,0,1,.46.53,8.25,8.25,0,0,1-.17,1.17A.5.5,0,0,1,22.81,19.32Z" style="fill:#383838"/><path d="M15,25.67a8.5,8.5,0,1,1,8.36-10,.5.5,0,0,1-1,.18,7.52,7.52,0,1,0-.05,2.88.5.5,0,1,1,1,.21A8.51,8.51,0,0,1,15,25.67Z" style="fill:#383838"/><path d="M9.83,15.52a.58.58,0,0,1-.19,0,.5.5,0,0,1-.27-.66,6.08,6.08,0,0,1,11-.54.5.5,0,0,1-.21.68.49.49,0,0,1-.67-.21,5.09,5.09,0,0,0-9.19.46A.5.5,0,0,1,9.83,15.52Z" style="fill:#383838"/><path d="M20.52,16.76a.49.49,0,0,1-.49-.42,5.41,5.41,0,0,0-.55-1.58.49.49,0,0,1,.2-.67.51.51,0,0,1,.68.2A5.82,5.82,0,0,1,21,16.18a.49.49,0,0,1-.41.57Z" style="fill:#383838"/><path d="M19.85,20.44a.55.55,0,0,1-.25-.07.5.5,0,0,1-.19-.68,4.86,4.86,0,0,0,.52-1.23.5.5,0,0,1,1,.25,6.26,6.26,0,0,1-.62,1.47A.49.49,0,0,1,19.85,20.44Z" style="fill:#383838"/><path d="M15,23.27a6.12,6.12,0,0,1-5.71-4,.5.5,0,0,1,.29-.64.5.5,0,0,1,.65.29,5.08,5.08,0,0,0,9.18.73.51.51,0,0,1,.68-.19.5.5,0,0,1,.19.68A6.1,6.1,0,0,1,15,23.27Z" style="fill:#383838"/><path d="M9.76,19.64a.52.52,0,0,1-.47-.33,6,6,0,0,1-.39-2.14,6.11,6.11,0,0,1,.47-2.34.51.51,0,0,1,.65-.27.5.5,0,0,1,.27.66A5,5,0,0,0,10.23,19a.5.5,0,0,1-.29.64A.39.39,0,0,1,9.76,19.64Z" style="fill:#383838"/><path d="M23,18.23H22.9a.5.5,0,0,1-.42-.57s0-.09,0-.11v-.3a.5.5,0,0,1,1-.07.28.28,0,0,1,0,.09v.33a1.52,1.52,0,0,1,0,.21A.51.51,0,0,1,23,18.23Z" style="fill:#383838"/><path d="M22,19.09H20.41a.51.51,0,0,1-.5-.5.5.5,0,0,1,.5-.5H22a.5.5,0,0,0,.48-.44.49.49,0,0,1,.56-.42.5.5,0,0,1,.43.57A1.49,1.49,0,0,1,22,19.09Z" style="fill:#383838"/><path d="M23,17.74a.49.49,0,0,1-.5-.49.5.5,0,0,0-.5-.49H20.52a.5.5,0,0,1,0-1H22a1.51,1.51,0,0,1,1.5,1.47.5.5,0,0,1-.49.51Z" style="fill:#383838"/><path d="M20.41,19.09h-.26a1.5,1.5,0,0,1-1.5-1.5v-.33a1.5,1.5,0,0,1,1.5-1.5h.37a.5.5,0,0,1,0,1h-.37a.5.5,0,0,0-.5.5v.33a.51.51,0,0,0,.5.5h.26a.5.5,0,0,1,.5.5A.5.5,0,0,1,20.41,19.09Z" style="fill:#383838"/><path d="M13.38,17.92a.45.45,0,0,1-.3-.1A1,1,0,0,0,12,17.67a.5.5,0,0,1-.49-.05.51.51,0,0,1-.2-.44v-.1A1.46,1.46,0,0,0,10,15.5l-.14,0a.5.5,0,1,1-.14-1l.07.49,0-.5.23,0a2.39,2.39,0,0,1,2.25,2.09,2,2,0,0,1,.88.14A3.26,3.26,0,0,1,16,15.18a3.22,3.22,0,0,1,1.69.48A3.28,3.28,0,0,1,19.81,14,.5.5,0,0,1,20,15a2.3,2.3,0,0,0-1.69,1.56.48.48,0,0,1-.35.34.49.49,0,0,1-.47-.12,2.28,2.28,0,0,0-3.68.81.5.5,0,0,1-.33.29A.3.3,0,0,1,13.38,17.92Z" style="fill:#383838"/><path d="M13.23,15.15A1.12,1.12,0,1,1,14.35,14,1.11,1.11,0,0,1,13.23,15.15Zm0-1.48a.37.37,0,0,0-.36.37.36.36,0,0,0,.36.36A.37.37,0,0,0,13.6,14,.38.38,0,0,0,13.23,13.67Z" style="fill:#383838"/><path d="M16.08,15.89a1.12,1.12,0,1,1,1.11-1.11A1.12,1.12,0,0,1,16.08,15.89Zm0-1.48a.37.37,0,0,0-.37.37.37.37,0,0,0,.73,0A.37.37,0,0,0,16.08,14.41Z" style="fill:#383838"/></svg>