<svg xmlns="http://www.w3.org/2000/svg" viewBox="0 0 40 40"><title>btn_trashbox</title><path d="M24.74,14.6a.85.85,0,0,0-.84.85V31.38a.84.84,0,1,0,1.68,0V15.45A.84.84,0,0,0,24.74,14.6Z" style="fill:#383838;stroke:#363838;stroke-miterlimit:10;stroke-width:0.25px"/><path d="M14.79,14.6a.85.85,0,0,0-.84.85V31.38a.85.85,0,1,0,1.69,0V15.45A.85.85,0,0,0,14.79,14.6Z" style="fill:#383838;stroke:#363838;stroke-miterlimit:10;stroke-width:0.25px"/><path d="M7.54,12.28V33.05a4.64,4.64,0,0,0,1.24,3.21,4.13,4.13,0,0,0,3,1.3h16a4.17,4.17,0,0,0,3-1.3A4.68,4.68,0,0,0,32,33.05V12.28A3.22,3.22,0,0,0,31.17,6H26.85V4.89a3.37,3.37,0,0,0-1-2.36,3.29,3.29,0,0,0-2.37-1H16a3.29,3.29,0,0,0-2.36,1,3.34,3.34,0,0,0-1,2.36V6H8.37a3.22,3.22,0,0,0-.83,6.33Zm20.2,23.6H11.79a2.67,2.67,0,0,1-2.56-2.83V12.35H30.31v20.7A2.68,2.68,0,0,1,27.74,35.88Zm-13.37-31a1.65,1.65,0,0,1,.48-1.17A1.6,1.6,0,0,1,16,3.25h7.49a1.6,1.6,0,0,1,1.17.47,1.57,1.57,0,0,1,.48,1.17V6H14.37Zm-6,2.74h22.8a1.52,1.52,0,0,1,0,3H8.37a1.52,1.52,0,0,1,0-3Z" style="fill:#383838;stroke:#363838;stroke-miterlimit:10;stroke-width:0.25px"/><path d="M19.77,14.6a.85.85,0,0,0-.85.85V31.38a.85.85,0,1,0,1.69,0V15.45A.85.85,0,0,0,19.77,14.6Z" style="fill:#383838;stroke:#363838;stroke-miterlimit:10;stroke-width:0.25px"/></svg>