<svg xmlns="http://www.w3.org/2000/svg" viewBox="0 0 30 30"><title>btn_heart2_normal 사본</title><path d="M26.48,11.71a8.12,8.12,0,0,1-2.23,5.36A53,53,0,0,1,18,22.94c-.9.77-1.92,1.64-3,2.57-1.06-.93-2.08-1.8-3-2.56h0a53,53,0,0,1-6.27-5.87,8.12,8.12,0,0,1-2.23-5.36A6.6,6.6,0,0,1,5.19,7.19,5.44,5.44,0,0,1,9.26,5.42a5,5,0,0,1,3.16,1.1,7.2,7.2,0,0,1,1.75,2,1,1,0,0,0,1.66,0,7.2,7.2,0,0,1,1.75-2,5,5,0,0,1,3.16-1.1,5.48,5.48,0,0,1,4.08,1.77A6.69,6.69,0,0,1,26.48,11.71Z" style="fill:#e34d57"/><path d="M3.52,11.71a8.12,8.12,0,0,0,2.23,5.36A53,53,0,0,0,12,22.94h0c.89.76,1.91,1.63,3,2.56,1.06-.93,2.08-1.8,3-2.57a53,53,0,0,0,6.27-5.87,8.12,8.12,0,0,0,2.23-5.36,6.69,6.69,0,0,0-1.66-4.52,5.48,5.48,0,0,0-4.08-1.77,5,5,0,0,0-3.16,1.1,7.2,7.2,0,0,0-1.75,2,1,1,0,0,1-1.66,0,7.2,7.2,0,0,0-1.75-2,5,5,0,0,0-3.16-1.1A5.44,5.44,0,0,0,5.19,7.19,6.6,6.6,0,0,0,3.52,11.71Zm24.48,0a9.7,9.7,0,0,1-2.58,6.34A55.07,55.07,0,0,1,19,24.1l-3,2.55a1.51,1.51,0,0,1-2,0c-1.05-.92-2.06-1.78-3-2.54h0a54.46,54.46,0,0,1-6.46-6.05A9.7,9.7,0,0,1,2,11.71,8.11,8.11,0,0,1,4.06,6.16,7,7,0,0,1,9.26,3.9a6.51,6.51,0,0,1,4.09,1.41A8.26,8.26,0,0,1,15,7a8,8,0,0,1,1.65-1.73A6.51,6.51,0,0,1,20.74,3.9a7,7,0,0,1,5.2,2.26A8.11,8.11,0,0,1,28,11.71Z" style="fill:#fff"/><path d="M15,27a1.49,1.49,0,0,1-1-.38c-1.05-.92-2.06-1.78-3-2.54h0a54.46,54.46,0,0,1-6.46-6.05A9.7,9.7,0,0,1,2,11.71,8.11,8.11,0,0,1,4.06,6.16,7,7,0,0,1,9.26,3.9a6.51,6.51,0,0,1,4.09,1.41A8.26,8.26,0,0,1,15,7a8,8,0,0,1,1.65-1.73A6.51,6.51,0,0,1,20.74,3.9a7,7,0,0,1,5.2,2.26A8.11,8.11,0,0,1,28,11.71a9.7,9.7,0,0,1-2.58,6.34A55.07,55.07,0,0,1,19,24.1l-3,2.55A1.49,1.49,0,0,1,15,27Z" style="fill:none;stroke:#fff;stroke-miterlimit:10;stroke-width:0.5px"/><path d="M9.26,5.42A5.44,5.44,0,0,0,5.19,7.19a6.6,6.6,0,0,0-1.67,4.52,8.12,8.12,0,0,0,2.23,5.36A53,53,0,0,0,12,22.94h0c.89.76,1.91,1.63,3,2.56,1.06-.93,2.08-1.8,3-2.57a53,53,0,0,0,6.27-5.87,8.12,8.12,0,0,0,2.23-5.36,6.69,6.69,0,0,0-1.66-4.52,5.48,5.48,0,0,0-4.08-1.77,5,5,0,0,0-3.16,1.1,7.2,7.2,0,0,0-1.75,2,1,1,0,0,1-1.66,0,7.2,7.2,0,0,0-1.75-2A5,5,0,0,0,9.26,5.42Z" style="fill:none;stroke:#fff;stroke-miterlimit:10;stroke-width:0.5px"/></svg>