<svg xmlns="http://www.w3.org/2000/svg" viewBox="0 0 30 30"><title>btn_push_active</title><path d="M25.88,23.59a.94.94,0,1,1,0,1.88H19.55a4.67,4.67,0,0,1-9.06,0H4.08a.94.94,0,1,1,0-1.88H5.47V14.38a9.37,9.37,0,0,1,7-9.07,2.77,2.77,0,0,1-.44-1.49,2.82,2.82,0,0,1,5.64,0,2.76,2.76,0,0,1-.45,1.5,9.39,9.39,0,0,1,7,9.06v9.21Zm-3.49,0V14.38a7.52,7.52,0,0,0-15,0v9.21h15Zm-4.83,1.88H12.48a2.78,2.78,0,0,0,5.08,0ZM15.83,3.82a.94.94,0,1,0-.94.94A.94.94,0,0,0,15.83,3.82Z" style="fill:#383838"/><path d="M22.39,14.38v9.21h-15V14.38a7.52,7.52,0,0,1,15,0Z" style="fill:#e34d57"/><path d="M12.48,25.47h5.08a2.78,2.78,0,0,1-5.08,0Z" style="fill:#e34d57"/><circle cx="14.89" cy="3.82" r="0.94" style="fill:#e34d57"/></svg>