<svg xmlns="http://www.w3.org/2000/svg" viewBox="0 0 30 30"><title>btn_push2_normal</title><path d="M25.89,23.6H24.27V14.38a9.37,9.37,0,0,0-7-9A2.81,2.81,0,0,0,14.89,1a2.82,2.82,0,0,0-2.82,2.82,2.72,2.72,0,0,0,.44,1.49,9.39,9.39,0,0,0-7,9.07V23.6H4.08a.94.94,0,1,0,0,1.88h6.41a4.67,4.67,0,0,0,9.06,0h6.34a.94.94,0,0,0,0-1.88Zm-11-20.72a.94.94,0,1,1-.94.94A.94.94,0,0,1,14.89,2.88Zm0,4a7.51,7.51,0,0,1,7.5,7.49V23.6h-15V14.38A7.51,7.51,0,0,1,14.89,6.89ZM15,27.12a2.81,2.81,0,0,1-2.54-1.64h5.08A2.8,2.8,0,0,1,15,27.12Z" style="fill:#fff"/></svg>