<svg xmlns="http://www.w3.org/2000/svg" viewBox="0 0 40 40"><title>btn_main_setting</title><path d="M21.13,38H18.87a3.31,3.31,0,0,1-3.31-3.31v-.77A14,14,0,0,1,13.3,33l-.54.55a3.33,3.33,0,0,1-4.69,0l-1.6-1.6a3.33,3.33,0,0,1,0-4.69L7,26.7a14,14,0,0,1-.94-2.26H5.31A3.31,3.31,0,0,1,2,21.13V18.87a3.31,3.31,0,0,1,3.31-3.31h.77A14,14,0,0,1,7,13.3l-.55-.54a3.33,3.33,0,0,1,0-4.69l1.6-1.6a3.32,3.32,0,0,1,4.69,0L13.3,7a14,14,0,0,1,2.26-.94V5.31A3.31,3.31,0,0,1,18.87,2h2.26a3.31,3.31,0,0,1,3.31,3.31v.77A14,14,0,0,1,26.7,7l.54-.55a3.33,3.33,0,0,1,4.69,0l1.6,1.6a3.33,3.33,0,0,1,0,4.69L33,13.3a14,14,0,0,1,.94,2.26h.77A3.31,3.31,0,0,1,38,18.87v2.26a3.31,3.31,0,0,1-3.31,3.31h-.77A14,14,0,0,1,33,26.7l.55.54a3.33,3.33,0,0,1,0,4.69l-1.6,1.6a3.32,3.32,0,0,1-4.69,0L26.7,33a14,14,0,0,1-2.26.94v.77A3.31,3.31,0,0,1,21.13,38Zm-7.48-7.23a12.26,12.26,0,0,0,3.22,1.34,1.06,1.06,0,0,1,.8,1v1.56a1.2,1.2,0,0,0,1.2,1.2h2.26a1.2,1.2,0,0,0,1.2-1.2V33.13a1.06,1.06,0,0,1,.8-1,12.26,12.26,0,0,0,3.22-1.34,1,1,0,0,1,1.28.16l1.1,1.1a1.21,1.21,0,0,0,1.71,0l1.6-1.6a1.22,1.22,0,0,0,0-1.71l-1.11-1.1a1,1,0,0,1-.16-1.28,12.26,12.26,0,0,0,1.34-3.22,1.06,1.06,0,0,1,1-.8h1.56a1.2,1.2,0,0,0,1.2-1.2V18.87a1.2,1.2,0,0,0-1.2-1.2H33.13a1.06,1.06,0,0,1-1-.8,12.26,12.26,0,0,0-1.34-3.22,1,1,0,0,1,.16-1.28L32,11.27a1.22,1.22,0,0,0,0-1.71L30.44,8a1.21,1.21,0,0,0-1.71,0l-1.1,1.11a1,1,0,0,1-1.28.16,12.26,12.26,0,0,0-3.22-1.34,1.06,1.06,0,0,1-.8-1V5.31a1.2,1.2,0,0,0-1.2-1.2H18.87a1.2,1.2,0,0,0-1.2,1.2V6.87a1.06,1.06,0,0,1-.8,1,12.26,12.26,0,0,0-3.22,1.34,1,1,0,0,1-1.28-.16L11.27,8A1.21,1.21,0,0,0,9.56,8L8,9.56a1.21,1.21,0,0,0,0,1.71l1.11,1.1a1,1,0,0,1,.16,1.28,12.26,12.26,0,0,0-1.34,3.22,1.06,1.06,0,0,1-1,.8H5.31a1.2,1.2,0,0,0-1.2,1.2v2.26a1.2,1.2,0,0,0,1.2,1.2H6.87a1.06,1.06,0,0,1,1,.8,12.26,12.26,0,0,0,1.34,3.22,1,1,0,0,1-.16,1.28L8,28.73a1.22,1.22,0,0,0,0,1.71L9.56,32a1.21,1.21,0,0,0,1.71,0l1.1-1.11a1.06,1.06,0,0,1,1.28-.16Z" style="fill:#383838;stroke:#363838;stroke-miterlimit:10;stroke-width:0.25px"/><path d="M20,27.83A7.83,7.83,0,1,1,27.83,20,7.84,7.84,0,0,1,20,27.83Zm0-13.55A5.72,5.72,0,1,0,25.72,20,5.72,5.72,0,0,0,20,14.28Z" style="fill:#383838;stroke:#363838;stroke-miterlimit:10;stroke-width:0.25px"/></svg>