<svg xmlns="http://www.w3.org/2000/svg" viewBox="0 0 30 30"><title>ic_height</title><path d="M19.88,28.51H5.57A1.5,1.5,0,0,1,4.07,27V5.55a1.5,1.5,0,0,1,1.5-1.5H19.88a1.5,1.5,0,0,1,1.5,1.5V27A1.5,1.5,0,0,1,19.88,28.51ZM5.57,5.05a.51.51,0,0,0-.5.5V27a.51.51,0,0,0,.5.5H19.88a.5.5,0,0,0,.5-.5V5.55a.5.5,0,0,0-.5-.5Z" style="fill:#363838"/><path d="M28,28.51H2a.5.5,0,0,1,0-1H28a.5.5,0,0,1,0,1Z" style="fill:#363838"/><path d="M18.44,5.05H7a1,1,0,0,1-1-1V2.49a1,1,0,0,1,1-1H18.44a1,1,0,0,1,1,1V4.05A1,1,0,0,1,18.44,5.05ZM7,2.49V4.05H18.44V2.49Z" style="fill:#363838"/><path d="M14.59,28.51H10.86A1.5,1.5,0,0,1,9.36,27V22.85a1.5,1.5,0,0,1,1.5-1.5h3.73a1.5,1.5,0,0,1,1.5,1.5V27A1.5,1.5,0,0,1,14.59,28.51Zm-3.73-6.16a.5.5,0,0,0-.5.5V27a.5.5,0,0,0,.5.5h3.73a.5.5,0,0,0,.5-.5V22.85a.5.5,0,0,0-.5-.5Z" style="fill:#363838"/><path d="M9.71,10.26H7.09a.5.5,0,0,1-.5-.5V7.16a.5.5,0,0,1,.5-.5H9.71a.5.5,0,0,1,.5.5v2.6A.51.51,0,0,1,9.71,10.26Zm-2.12-1H9.21V7.66H7.59Z" style="fill:#363838"/><path d="M14.13,10.26H11.51a.5.5,0,0,1-.5-.5V7.16a.5.5,0,0,1,.5-.5h2.62a.5.5,0,0,1,.5.5v2.6A.5.5,0,0,1,14.13,10.26ZM12,9.26h1.62V7.66H12Z" style="fill:#363838"/><path d="M18.55,10.26H15.93a.51.51,0,0,1-.5-.5V7.16a.5.5,0,0,1,.5-.5h2.62a.5.5,0,0,1,.5.5v2.6A.5.5,0,0,1,18.55,10.26Zm-2.12-1h1.62V7.66H16.43Z" style="fill:#363838"/><path d="M9.71,15H7.09a.5.5,0,0,1-.5-.5V11.9a.5.5,0,0,1,.5-.5H9.71a.51.51,0,0,1,.5.5v2.6A.51.51,0,0,1,9.71,15ZM7.59,14H9.21V12.4H7.59Z" style="fill:#363838"/><path d="M14.13,15H11.51a.5.5,0,0,1-.5-.5V11.9a.5.5,0,0,1,.5-.5h2.62a.5.5,0,0,1,.5.5v2.6A.5.5,0,0,1,14.13,15ZM12,14h1.62V12.4H12Z" style="fill:#363838"/><path d="M18.55,15H15.93a.51.51,0,0,1-.5-.5V11.9a.51.51,0,0,1,.5-.5h2.62a.5.5,0,0,1,.5.5v2.6A.5.5,0,0,1,18.55,15Zm-2.12-1h1.62V12.4H16.43Z" style="fill:#363838"/><path d="M9.71,19.74H7.09a.5.5,0,0,1-.5-.5v-2.6a.5.5,0,0,1,.5-.5H9.71a.51.51,0,0,1,.5.5v2.6A.5.5,0,0,1,9.71,19.74Zm-2.12-1H9.21v-1.6H7.59Z" style="fill:#363838"/><path d="M14.13,19.74H11.51a.5.5,0,0,1-.5-.5v-2.6a.5.5,0,0,1,.5-.5h2.62a.5.5,0,0,1,.5.5v2.6A.5.5,0,0,1,14.13,19.74Zm-2.12-1h1.62v-1.6H12Z" style="fill:#363838"/><path d="M18.55,19.74H15.93a.5.5,0,0,1-.5-.5v-2.6a.51.51,0,0,1,.5-.5h2.62a.5.5,0,0,1,.5.5v2.6A.5.5,0,0,1,18.55,19.74Zm-2.12-1h1.62v-1.6H16.43Z" style="fill:#363838"/><path d="M25.64,26a.5.5,0,0,1-.5-.5V3a.5.5,0,0,1,.5-.5.5.5,0,0,1,.5.5V25.47A.5.5,0,0,1,25.64,26Z" style="fill:#363838"/><path d="M24.25,5.5a.5.5,0,0,1-.41-.78l1.39-2a.49.49,0,0,1,.69-.13.5.5,0,0,1,.14.69l-1.4,2.05A.49.49,0,0,1,24.25,5.5Z" style="fill:#363838"/><path d="M27,5.5a.52.52,0,0,1-.41-.22L25.23,3.23a.49.49,0,0,1,.13-.69.5.5,0,0,1,.7.13l1.39,2.05a.51.51,0,0,1-.13.69A.52.52,0,0,1,27,5.5Z" style="fill:#363838"/><path d="M25.64,26.45a.6.6,0,0,1-.28-.08.5.5,0,0,1-.13-.7l1.39-2.05a.51.51,0,0,1,.7-.13.52.52,0,0,1,.13.7l-1.39,2A.5.5,0,0,1,25.64,26.45Z" style="fill:#363838"/><path d="M25.64,26.45a.48.48,0,0,1-.41-.22l-1.39-2a.5.5,0,1,1,.82-.57l1.4,2.05a.51.51,0,0,1-.14.7A.54.54,0,0,1,25.64,26.45Z" style="fill:#363838"/></svg>