<svg xmlns="http://www.w3.org/2000/svg" viewBox="0 0 30 30"><title>ic_members</title><path d="M2.17,27.9a.5.5,0,0,1-.5-.5V16a5.39,5.39,0,0,1,2.86-4.71,4.33,4.33,0,1,1,5,0,5.35,5.35,0,0,1,2.57,3,.5.5,0,0,1-.31.64.5.5,0,0,1-.63-.32,4.42,4.42,0,0,0-2.93-2.81.49.49,0,0,1-.36-.46.49.49,0,0,1,.32-.48A3.32,3.32,0,1,0,3.71,7.8a3.35,3.35,0,0,0,2.16,3.11.49.49,0,0,1,.32.48.49.49,0,0,1-.36.46A4.39,4.39,0,0,0,2.67,16V27.4A.5.5,0,0,1,2.17,27.9Z" style="fill:#363838"/><path d="M11.9,20.61a.49.49,0,0,1-.5-.49v0a.5.5,0,0,1,.5-.5.5.5,0,0,1,.5.5A.52.52,0,0,1,11.9,20.61Z" style="fill:#363838"/><path d="M11.9,20.59a.48.48,0,0,1-.46-.32.5.5,0,0,1,.28-.65A2.45,2.45,0,0,0,11.51,15a.49.49,0,0,1-.34-.62.51.51,0,0,1,.62-.34,3.45,3.45,0,0,1,.3,6.53A.43.43,0,0,1,11.9,20.59Z" style="fill:#363838"/><path d="M7,27.9a.5.5,0,0,1-.5-.5V23.71a4.25,4.25,0,0,1,2.12-3.66,3.46,3.46,0,0,1,2.15-6.18,3.54,3.54,0,0,1,1,.15.5.5,0,0,1-.28,1,2.35,2.35,0,0,0-.7-.11,2.48,2.48,0,0,0-2.47,2.47,2.45,2.45,0,0,0,1.6,2.3.5.5,0,0,1,.32.49.49.49,0,0,1-.35.46,3.28,3.28,0,0,0-2.37,3.12V27.4A.5.5,0,0,1,7,27.9Z" style="fill:#363838"/><path d="M11.89,20.62a.39.39,0,0,1-.15,0,.54.54,0,0,1-.36-.47.5.5,0,0,1,.29-.49.52.52,0,0,1,.67.27.47.47,0,0,1-.07.51A.46.46,0,0,1,11.89,20.62Z" style="fill:#363838"/><path d="M14.58,24.21a.5.5,0,0,1-.5-.5,3.25,3.25,0,0,0-2.33-3.11.5.5,0,0,1-.33-.62.49.49,0,0,1,.63-.33,4.24,4.24,0,0,1,3,4.06A.5.5,0,0,1,14.58,24.21Z" style="fill:#363838"/><path d="M22.13,27.9a.5.5,0,0,1-.5-.5V23.71a3.28,3.28,0,0,0-2.37-3.12.52.52,0,0,1-.36-.46.52.52,0,0,1,.33-.49,2.45,2.45,0,0,0,1.6-2.3,2.49,2.49,0,0,0-3-2.42.5.5,0,0,1-.21-1,3.51,3.51,0,0,1,.72-.07,3.47,3.47,0,0,1,3.47,3.47,3.51,3.51,0,0,1-1.32,2.71,4.27,4.27,0,0,1,2.12,3.66V27.4A.5.5,0,0,1,22.13,27.9Z" style="fill:#363838"/><path d="M14.58,24.21a.5.5,0,0,1-.5-.5,4.27,4.27,0,0,1,2.12-3.66,3.47,3.47,0,0,1,1.44-6.11.5.5,0,0,1,.21,1,2.48,2.48,0,0,0-2,2.42,2.44,2.44,0,0,0,1.6,2.3.5.5,0,0,1,0,.95,3.29,3.29,0,0,0-2.37,3.12A.5.5,0,0,1,14.58,24.21Z" style="fill:#363838"/><path d="M14.58,27.9a.5.5,0,0,1-.5-.5V23.71a.51.51,0,0,1,.5-.5.5.5,0,0,1,.5.5V27.4A.5.5,0,0,1,14.58,27.9Z" style="fill:#363838"/><path d="M27.2,27.9a.5.5,0,0,1-.5-.5V16a4.39,4.39,0,0,0-3.16-4.17.49.49,0,0,1,0-.94A3.32,3.32,0,1,0,19,7.8a3.34,3.34,0,0,0,2.15,3.11.49.49,0,0,1,0,.94,4.39,4.39,0,0,0-2.91,2.75.5.5,0,0,1-.64.3.5.5,0,0,1-.31-.63,5.39,5.39,0,0,1,2.55-3,4.33,4.33,0,1,1,5,0A5.38,5.38,0,0,1,27.7,16V27.4A.5.5,0,0,1,27.2,27.9Z" style="fill:#363838"/><path d="M7,27.9H2.17a.5.5,0,0,1-.5-.5.51.51,0,0,1,.5-.5H7a.51.51,0,0,1,.5.5A.5.5,0,0,1,7,27.9Z" style="fill:#363838"/><path d="M14.58,27.9H11.9a.5.5,0,0,1-.5-.5.51.51,0,0,1,.5-.5h2.68a.5.5,0,0,1,.5.5A.5.5,0,0,1,14.58,27.9Z" style="fill:#363838"/><path d="M29.22,27.9h-2a.5.5,0,0,1-.5-.5.5.5,0,0,1,.5-.5h2a.51.51,0,0,1,.5.5A.5.5,0,0,1,29.22,27.9Z" style="fill:#363838"/><path d="M2.17,27.9H.78a.5.5,0,0,1-.5-.5.51.51,0,0,1,.5-.5H2.17a.5.5,0,0,1,.5.5A.5.5,0,0,1,2.17,27.9Z" style="fill:#363838"/><path d="M17.47,27.9H14.58a.5.5,0,0,1-.5-.5.51.51,0,0,1,.5-.5h2.89a.5.5,0,0,1,.5.5A.5.5,0,0,1,17.47,27.9Z" style="fill:#363838"/><path d="M22.13,27.9H17.47a.5.5,0,0,1-.5-.5.51.51,0,0,1,.5-.5h4.66a.5.5,0,0,1,.5.5A.5.5,0,0,1,22.13,27.9Z" style="fill:#363838"/><path d="M11.9,27.9H7a.5.5,0,0,1-.5-.5.5.5,0,0,1,.5-.5H11.9a.5.5,0,0,1,.5.5A.5.5,0,0,1,11.9,27.9Z" style="fill:#363838"/><path d="M27.2,27.9H22.13a.5.5,0,0,1-.5-.5.5.5,0,0,1,.5-.5H27.2a.51.51,0,0,1,.5.5A.5.5,0,0,1,27.2,27.9Z" style="fill:#363838"/><path d="M7,9.66a1.84,1.84,0,0,1-1.28-.55.41.41,0,0,1,0-.57.4.4,0,0,1,.56,0,1,1,0,0,0,1.45,0,.4.4,0,1,1,.53.6A1.9,1.9,0,0,1,7,9.66Z" style="fill:#363838"/><path d="M22.13,9.66a1.85,1.85,0,0,1-1.29-.55.4.4,0,1,1,.58-.56,1,1,0,0,0,1.45,0,.4.4,0,0,1,.52.6A1.88,1.88,0,0,1,22.13,9.66Z" style="fill:#363838"/><path d="M18.3,18.75a1.69,1.69,0,0,1-1.18-.51.4.4,0,0,1,0-.57.4.4,0,0,1,.56,0,.85.85,0,0,0,1.25,0,.4.4,0,1,1,.53.6A1.75,1.75,0,0,1,18.3,18.75Z" style="fill:#363838"/><path d="M10.85,18.75a1.71,1.71,0,0,1-1.18-.51.4.4,0,1,1,.57-.56h0a.85.85,0,0,0,1.25,0,.41.41,0,0,1,.57,0,.4.4,0,0,1,0,.56A1.74,1.74,0,0,1,10.85,18.75Z" style="fill:#363838"/></svg>