<svg xmlns="http://www.w3.org/2000/svg" viewBox="0 0 30 30"><title>ic_room_structure</title><path d="M27.5,28H2.5a.5.5,0,0,1-.5-.5v-25A.5.5,0,0,1,2.5,2h25a.5.5,0,0,1,.5.5v25A.5.5,0,0,1,27.5,28ZM3,27H27V3H3Z" style="fill:#363838"/><path d="M27.5,17.5H16.64a.5.5,0,0,1-.5-.5V2.52a.5.5,0,0,1,.5-.5.51.51,0,0,1,.5.5v14H27.5a.5.5,0,0,1,.5.5A.5.5,0,0,1,27.5,17.5Z" style="fill:#363838"/><path d="M19.05,28a.5.5,0,0,1-.5-.5V20.89a.5.5,0,0,1,.5-.5.5.5,0,0,1,.5.5v6.63A.5.5,0,0,1,19.05,28Z" style="fill:#363838"/><path d="M14.52,24.06H2.85a.5.5,0,0,1-.5-.5.5.5,0,0,1,.5-.5H14.52a.5.5,0,0,1,.5.5A.5.5,0,0,1,14.52,24.06Z" style="fill:#363838"/><path d="M13.3,13.42H2.5a.5.5,0,0,1-.5-.5V5.31a.5.5,0,0,1,.5-.5H13.3a.5.5,0,0,1,.5.5v7.61A.5.5,0,0,1,13.3,13.42ZM3,12.42h9.8V5.81H3Z" style="fill:#363838"/><path d="M13.3,5.81a.51.51,0,0,1-.5-.5V2.53a.5.5,0,0,1,.5-.5.5.5,0,0,1,.5.5V5.31A.5.5,0,0,1,13.3,5.81Z" style="fill:#363838"/></svg>