<svg xmlns="http://www.w3.org/2000/svg" viewBox="0 0 30 30"><title>ic_width</title><rect x="2.82" y="2.52" width="19.94" height="19.94" style="fill:none;stroke:#363838;stroke-linecap:round;stroke-linejoin:round"/><polyline points="9.28 2.52 9.28 12.49 22.76 12.49" style="fill:none;stroke:#363838;stroke-linecap:round;stroke-linejoin:round"/><line x1="16.02" y1="22.47" x2="16.02" y2="14.73" style="fill:none;stroke:#363838;stroke-linecap:round;stroke-linejoin:round"/><line x1="3.1" y1="19.31" x2="12.41" y2="19.31" style="fill:none;stroke:#363838;stroke-linecap:round;stroke-linejoin:round"/><rect x="2.82" y="4.74" width="2.83" height="7.78" style="fill:none;stroke:#363838;stroke-linecap:round;stroke-linejoin:round"/><line x1="26.64" y1="21.91" x2="26.64" y2="2.52" style="fill:none;stroke:#363838;stroke-linecap:round;stroke-linejoin:round"/><line x1="26.64" y1="2.52" x2="25.25" y2="4.57" style="fill:none;stroke:#363838;stroke-linecap:round;stroke-linejoin:round"/><line x1="26.64" y1="2.52" x2="28.03" y2="4.57" style="fill:none;stroke:#363838;stroke-linecap:round;stroke-linejoin:round"/><line x1="26.64" y1="22.96" x2="28.03" y2="20.91" style="fill:none;stroke:#363838;stroke-linecap:round;stroke-linejoin:round"/><line x1="26.64" y1="22.96" x2="25.25" y2="20.91" style="fill:none;stroke:#363838;stroke-linecap:round;stroke-linejoin:round"/><line x1="3.6" y1="26.76" x2="22.99" y2="26.76" style="fill:none;stroke:#363838;stroke-linecap:round;stroke-linejoin:round"/><line x1="22.99" y1="26.76" x2="20.94" y2="25.37" style="fill:none;stroke:#363838;stroke-linecap:round;stroke-linejoin:round"/><line x1="22.99" y1="26.76" x2="20.94" y2="28.15" style="fill:none;stroke:#363838;stroke-linecap:round;stroke-linejoin:round"/><line x1="2.55" y1="26.76" x2="4.6" y2="28.15" style="fill:none;stroke:#363838;stroke-linecap:round;stroke-linejoin:round"/><line x1="2.55" y1="26.76" x2="4.6" y2="25.37" style="fill:none;stroke:#363838;stroke-linecap:round;stroke-linejoin:round"/></svg>