<svg xmlns="http://www.w3.org/2000/svg" viewBox="0 0 68 68"><title>img_profile_m</title><path d="M37.83,38a20.74,20.74,0,0,1-6.67,0c0,2.65,3.31,2.44,3.31,2.44C38,40.45,37.83,38,37.83,38Zm4.43-.54c1.29,0,2.32-.57,2.3-1.21s-1.06-1.14-2.35-1.11-2.31.57-2.3,1.21S41,37.46,42.26,37.43Zm-4-2.45c.41,0,.72-.65.71-1.42s-.36-1.39-.77-1.38-.72.64-.7,1.41S37.88,35,38.28,35ZM40.2,21.39a6.07,6.07,0,0,1,.76,0,4.93,4.93,0,0,1,1.28.21,2.37,2.37,0,0,1,.69.36h0a1.38,1.38,0,0,1,.53.91c-.08.36-.16.7-.24,1-.48,2-.94,4,1.73,4.46a11,11,0,0,1,.12,1.54V34.1c0,.37,0,.74,0,1.11a10.71,10.71,0,0,1-21.31,0,9.54,9.54,0,0,1-.05-1.08V29.88a10.57,10.57,0,0,1,.58-3.44,4.93,4.93,0,0,0,2.37-.71,4.65,4.65,0,0,0,4.46-.11c2.74.71,5.67-.3,6.52-3.13.07-.25.13-.53.19-.81s.31-.37.64-.42a3,3,0,0,1,.89,0A5.72,5.72,0,0,1,40.2,21.39ZM26.27,34.61c-1.28,0-2.32.52-2.32,1.17s1,1.16,2.32,1.16,2.33-.52,2.33-1.16S27.56,34.61,26.27,34.61Zm3.19-3.92.07,0h0l.15,0h.21l.33,0h0l.15,0,.25.06.22.07a.51.51,0,0,0,.67-.26.38.38,0,0,0-.1-.34A.83.83,0,0,0,31.1,30a5.09,5.09,0,0,0-1-.23,2.08,2.08,0,0,0-1.63.29c-.24.18-.12.46.08.62a.71.71,0,0,0,.82.06l0,0,.05,0Zm8.71,0,.15,0h.21l.33,0h0l.15,0,.25.06.23.07a.51.51,0,0,0,.66-.26.38.38,0,0,0-.1-.34.83.83,0,0,0-.38-.23,5.09,5.09,0,0,0-1-.23,2.08,2.08,0,0,0-1.63.29c-.23.18-.12.46.08.62a.71.71,0,0,0,.82.06l0,0,0,0h0l.07,0h.05ZM30,32.3c-.4,0-.72.65-.7,1.42s.36,1.39.76,1.38.72-.64.7-1.41S30.41,32.29,30,32.3Z" style="fill:#f2d6c2"/><path d="M29.45,30.7l-.05,0h.05Z" style="fill:#38444b"/><path d="M29.59,30.64h0Z" style="fill:#38444b"/><path d="M29.53,30.66l-.07,0s0,0,0,0h0l0,0a.71.71,0,0,1-.82-.06c-.2-.16-.32-.44-.08-.62a2.08,2.08,0,0,1,1.63-.29,5.09,5.09,0,0,1,1,.23.83.83,0,0,1,.38.23.38.38,0,0,1,.1.34.51.51,0,0,1-.67.26l-.22-.07-.25-.06-.15,0h0l-.33,0h-.21l-.15,0h0Z" style="fill:#38444b"/><path d="M45.21,30.34a1.93,1.93,0,0,1,.42,0,2.44,2.44,0,0,1-.42,4.85l-.19,0c0-.37,0-.74,0-1.11V30.35Z" style="fill:#f2d6c2"/><path d="M43.46,22.87a4,4,0,0,0-.05-2.25,1.25,1.25,0,0,0-.48-.61,1.36,1.36,0,0,0-.69-.19,2,2,0,0,0-.64.19c-.21.09-.45.19-.66.26s-.59.16-.74,0A2.61,2.61,0,0,0,39,19.65a.69.69,0,0,0-.68.29,4.65,4.65,0,0,0-.53,1.74c-.06.28-.12.56-.19.81-.85,2.83-3.78,3.84-6.52,3.13a4.65,4.65,0,0,1-4.46.11,4.93,4.93,0,0,1-2.37.71,4.76,4.76,0,0,1-1.67-.28,7,7,0,0,1-2.86-2.1c3.05.57,2.6-3.75,2.6-3.75.09-5.64,3.75-7.91,8.76-8.63a6.57,6.57,0,0,1,7.14,3.43c.43-2.86,3.29-2.1,3.29-2.1,3.61.12,4.32,4.62,4.48,7.41v.11c0,1.75-1.95,7.77-.11,7.9h0a7.4,7.4,0,0,1-.92-.1c-2.67-.47-2.21-2.48-1.73-4.46C43.3,23.57,43.38,23.23,43.46,22.87Z" style="fill:#4a5256"/><path d="M45.87,28.44a13.62,13.62,0,0,1-.24,1.94,1.93,1.93,0,0,0-.42,0h-.14v-.47A11,11,0,0,0,45,28.34,7.4,7.4,0,0,0,45.87,28.44Z" style="fill:#4a5256"/><path d="M38.18,30.64h0Z" style="fill:#38444b"/><path d="M38,30.75a.71.71,0,0,1-.82-.06c-.2-.16-.31-.44-.08-.62a2.08,2.08,0,0,1,1.63-.29,5.09,5.09,0,0,1,1,.23.83.83,0,0,1,.38.23.38.38,0,0,1,.1.34.51.51,0,0,1-.66.26l-.23-.07L39,30.71l-.15,0h0l-.33,0h-.21l-.15,0h-.05l-.07,0s0,0,0,0h0Z" style="fill:#38444b"/><path d="M41.6,20v1.43a3.61,3.61,0,0,0-.63-.06V20.31l0,0C41.15,20.2,41.39,20.1,41.6,20Z" style="fill:#4a5256"/><path d="M40.2,21.39a5.72,5.72,0,0,0-.89-.13h0L39,19.65a2.61,2.61,0,0,1,1.21.66Z" style="fill:#4a5256"/><path d="M38,30.7l0,0h0Z" style="fill:#38444b"/><path d="M48.81,68H11.13a28.66,28.66,0,0,1,1.18-7.69A18.43,18.43,0,0,1,25.18,46.88l5.42,8.17a.66.66,0,0,0,1-.19l3-4.77,3.18,5.48c.7.19.86-.19.86-.19l4.71-8.55A18.56,18.56,0,0,1,55.26,56.94a16.92,16.92,0,0,1,1.51,6.45c0,.37.28,4.61-.08,4.61Z" style="fill:#da606f"/><path d="M46,20.53c0,.73.11,5-.11,7.9C44,28.3,46,22.28,46,20.53Z" style="fill:#4a5256"/><path d="M44.56,36.22c0,.64-1,1.19-2.3,1.21s-2.33-.47-2.35-1.11,1-1.18,2.3-1.21S44.55,35.58,44.56,36.22Z" style="fill:#e59f8d"/><path d="M43.41,20.62a4,4,0,0,1,.05,2.25,1.38,1.38,0,0,0-.53-.91h0V20A1.25,1.25,0,0,1,43.41,20.62Z" style="fill:#4a5256"/><path d="M43.36,46.81v0l-4.71,8.55s-.16.38-.86.19L34.6,50.09,36,48.37l1.61-2,.17-.2v-.79Z" style="fill:#ed96a5"/><path d="M42.93,20V22a2.37,2.37,0,0,0-.69-.36V19.82A1.36,1.36,0,0,1,42.93,20Z" style="fill:#4a5256"/><path d="M42.24,19.82v1.77a3.61,3.61,0,0,0-.65-.15V20A2,2,0,0,1,42.24,19.82Z" style="fill:#4a5256"/><path d="M41,21.25v.13a6.07,6.07,0,0,0-.76,0V20.31c.15.12.43.07.74,0l0,0Z" style="fill:#4a5256"/><path d="M39.31,21.25h0a3,3,0,0,0-.89,0h0l-.11-1.31a.69.69,0,0,1,.68-.29Z" style="fill:#4a5256"/><path d="M39,33.56c0,.77-.3,1.41-.71,1.42s-.74-.61-.76-1.39.3-1.4.7-1.41S39,32.79,39,33.56Z" style="fill:#39454c"/><path d="M38.42,21.25h0c-.33,0-.58.17-.64.42a4.65,4.65,0,0,1,.53-1.74Z" style="fill:#4a5256"/><path d="M37.83,38s.13,2.48-3.36,2.39c0,0-3.33.21-3.31-2.44A20.74,20.74,0,0,0,37.83,38Z" style="fill:#e8b097"/><path d="M37.78,44.24v1.15a3.35,3.35,0,0,1-.1.79c0,.07,0,.14-.07.2l-1.61,2-1.4,1.72-1.41-1.51-2.08-2.23-.06-.17a3.35,3.35,0,0,1-.1-.79V44.24a10.52,10.52,0,0,0,6.83,0Z" style="fill:#f2d6c2"/><path d="M33.19,48.58l1.41,1.51-3,4.77a.66.66,0,0,1-1,.19l-5.42-8.17h0L31,45.39a3.35,3.35,0,0,0,.1.79l.06.17Z" style="fill:#ed96a5"/><path d="M30.76,33.69c0,.77-.29,1.4-.7,1.41s-.74-.61-.76-1.38.3-1.41.7-1.42S30.75,32.91,30.76,33.69Z" style="fill:#39454c"/><path d="M26.27,34.61c1.29,0,2.33.52,2.33,1.17s-1,1.16-2.33,1.16S24,36.42,24,35.78,25,34.61,26.27,34.61Z" style="fill:#e59f8d"/><path d="M22.57,26.16a4.76,4.76,0,0,0,1.67.28,10.57,10.57,0,0,0-.58,3.44v.5a2.45,2.45,0,0,0-.38,0,1.75,1.75,0,0,0-.4,0A23.61,23.61,0,0,1,22.57,26.16Z" style="fill:#4a5256"/><path d="M23.66,34.1a9.54,9.54,0,0,0,.05,1.08,2,2,0,0,1-.43,0,2.44,2.44,0,0,1-.4-4.85,1.75,1.75,0,0,1,.4,0,2.45,2.45,0,0,1,.38,0Z" style="fill:#f2d6c2"/><path d="M31,44.24a10.75,10.75,0,0,1-7.24-9.06" style="fill:none;stroke:#254254;stroke-linecap:round;stroke-linejoin:round;stroke-width:0.75px"/><path d="M23.66,30.38v-.5a10.57,10.57,0,0,1,.58-3.44" style="fill:none;stroke:#254254;stroke-linecap:round;stroke-linejoin:round;stroke-width:0.75px"/><path d="M45.07,30.35V34.1c0,.37,0,.74,0,1.11" style="fill:none;stroke:#254254;stroke-linecap:round;stroke-linejoin:round;stroke-width:0.75px"/><path d="M31,44.24a10.52,10.52,0,0,0,6.83,0" style="fill:none;stroke:#254254;stroke-linecap:round;stroke-linejoin:round;stroke-width:0.75px"/><path d="M45,35.21a10.77,10.77,0,0,1-7.24,9" style="fill:none;stroke:#254254;stroke-linecap:round;stroke-linejoin:round;stroke-width:0.75px"/><path d="M23.66,30.38V34.1a9.54,9.54,0,0,0,.05,1.08" style="fill:none;stroke:#254254;stroke-linecap:round;stroke-linejoin:round;stroke-width:0.75px"/><path d="M45.07,30.35v-.47A11,11,0,0,0,45,28.34" style="fill:none;stroke:#254254;stroke-linecap:round;stroke-linejoin:round;stroke-width:0.75px"/><path d="M34.17,22.72a9.06,9.06,0,0,1-3.1,2.9,4.65,4.65,0,0,1-4.46.11" style="fill:none;stroke:#254254;stroke-linecap:round;stroke-linejoin:round;stroke-width:0.75px"/><path d="M43.22,23.88c-.48,2-.94,4,1.73,4.46" style="fill:none;stroke:#254254;stroke-linecap:round;stroke-linejoin:round;stroke-width:0.75px"/><path d="M31.07,25.62c2.74.71,5.67-.3,6.52-3.13.07-.25.13-.53.19-.81a4.65,4.65,0,0,1,.53-1.74" style="fill:none;stroke:#254254;stroke-linecap:round;stroke-linejoin:round;stroke-width:0.75px"/><path d="M43.22,23.88c.08-.31.16-.65.24-1a4,4,0,0,0-.05-2.25,1.25,1.25,0,0,0-.48-.61,1.36,1.36,0,0,0-.69-.19,2,2,0,0,0-.64.19c-.21.09-.45.19-.66.26s-.59.16-.74,0A2.61,2.61,0,0,0,39,19.65a.69.69,0,0,0-.68.29l.11,1.31" style="fill:none;stroke:#254254;stroke-linecap:round;stroke-linejoin:round;stroke-width:0.75px"/><path d="M46,20.42c-.16-2.79-.87-7.29-4.48-7.41,0,0-2.86-.76-3.29,2.1a6.57,6.57,0,0,0-7.14-3.43c-5,.72-8.67,3-8.76,8.63,0,0,.45,4.32-2.6,3.75a7,7,0,0,0,2.86,2.1,4.76,4.76,0,0,0,1.67.28" style="fill:none;stroke:#254254;stroke-linecap:round;stroke-linejoin:round;stroke-width:0.75px"/><path d="M45.87,28.43c-1.84-.13.11-6.15.11-7.9" style="fill:none;stroke:#254254;stroke-linecap:round;stroke-linejoin:round;stroke-width:0.75px"/><path d="M45.9,28.44h0" style="fill:none;stroke:#254254;stroke-linecap:round;stroke-linejoin:round;stroke-width:0.75px"/><path d="M45,28.34a7.4,7.4,0,0,0,.92.1" style="fill:none;stroke:#254254;stroke-linecap:round;stroke-linejoin:round;stroke-width:0.75px"/><path d="M24.24,26.44a4.93,4.93,0,0,0,2.37-.71A10.84,10.84,0,0,0,30,22.15" style="fill:none;stroke:#254254;stroke-linecap:round;stroke-linejoin:round;stroke-width:0.75px"/><path d="M23.66,30.38a2.45,2.45,0,0,0-.38,0,1.75,1.75,0,0,0-.4,0,2.44,2.44,0,0,0,.4,4.85,2,2,0,0,0,.43,0" style="fill:none;stroke:#254254;stroke-linecap:round;stroke-linejoin:round;stroke-width:0.75px"/><path d="M45,35.21l.19,0a2.44,2.44,0,0,0,.42-4.85,1.93,1.93,0,0,0-.42,0h-.14" style="fill:none;stroke:#254254;stroke-linecap:round;stroke-linejoin:round;stroke-width:0.75px"/><line x1="37.78" y1="45.39" x2="37.78" y2="44.24" style="fill:none;stroke:#254254;stroke-linecap:round;stroke-linejoin:round;stroke-width:0.75px"/><path d="M31.11,46.35l-.06-.17" style="fill:none;stroke:#254254;stroke-linecap:round;stroke-linejoin:round;stroke-width:0.75px"/><path d="M31,45.39a3.35,3.35,0,0,0,.1.79" style="fill:none;stroke:#254254;stroke-linecap:round;stroke-linejoin:round;stroke-width:0.75px"/><line x1="30.95" y1="44.24" x2="30.95" y2="45.39" style="fill:none;stroke:#254254;stroke-linecap:round;stroke-linejoin:round;stroke-width:0.75px"/><path d="M37.68,46.18a3.35,3.35,0,0,0,.1-.79" style="fill:none;stroke:#254254;stroke-linecap:round;stroke-linejoin:round;stroke-width:0.75px"/><path d="M37.61,46.38c0-.06,0-.13.07-.2" style="fill:none;stroke:#254254;stroke-linecap:round;stroke-linejoin:round;stroke-width:0.75px"/><line x1="37.78" y1="46.18" x2="37.68" y2="46.18" style="fill:none;stroke:#254254;stroke-linecap:round;stroke-linejoin:round;stroke-width:0.75px"/><path d="M25.18,46.88A18.43,18.43,0,0,0,12.31,60.31,28.66,28.66,0,0,0,11.13,68H56.69c.36,0,.1-4.24.08-4.61a16.92,16.92,0,0,0-1.51-6.45A18.56,18.56,0,0,0,43.35,46.83" style="fill:none;stroke:#254254;stroke-linecap:round;stroke-linejoin:round;stroke-width:0.75px"/><line x1="34.6" y1="50.09" x2="36" y2="48.37" style="fill:none;stroke:#254254;stroke-linecap:round;stroke-linejoin:round;stroke-width:0.75px"/><line x1="37.61" y1="46.38" x2="37.78" y2="46.18" style="fill:none;stroke:#254254;stroke-linecap:round;stroke-linejoin:round;stroke-width:0.75px"/><line x1="37.61" y1="46.38" x2="36" y2="48.37" style="fill:none;stroke:#254254;stroke-linecap:round;stroke-linejoin:round;stroke-width:0.75px"/><path d="M43.35,46.83l-4.71,8.55s-.16.38-.86.19L34.6,50.09" style="fill:none;stroke:#254254;stroke-linecap:round;stroke-linejoin:round;stroke-width:0.75px"/><line x1="33.19" y1="48.58" x2="34.6" y2="50.09" style="fill:none;stroke:#254254;stroke-linecap:round;stroke-linejoin:round;stroke-width:0.75px"/><line x1="37.78" y1="46.18" x2="37.78" y2="45.39" style="fill:none;stroke:#254254;stroke-linecap:round;stroke-linejoin:round;stroke-width:0.75px"/><path d="M25.18,46.88l5.42,8.17a.66.66,0,0,0,1-.19l3-4.77.09,9.67h2.23" style="fill:none;stroke:#254254;stroke-linecap:round;stroke-linejoin:round;stroke-width:0.75px"/><polyline points="30.95 45.39 25.17 46.87 25.18 46.88" style="fill:none;stroke:#254254;stroke-linecap:round;stroke-linejoin:round;stroke-width:0.75px"/><line x1="33.19" y1="48.58" x2="31.11" y2="46.35" style="fill:none;stroke:#254254;stroke-linecap:round;stroke-linejoin:round;stroke-width:0.75px"/><polyline points="43.35 46.83 43.36 46.81 37.78 45.39" style="fill:none;stroke:#254254;stroke-linecap:round;stroke-linejoin:round;stroke-width:0.75px"/><path d="M40.2,20.31v1.08a5.72,5.72,0,0,0-.89-.13,3,3,0,0,0-.89,0c-.33,0-.58.17-.64.42" style="fill:none;stroke:#254254;stroke-linecap:round;stroke-linejoin:round;stroke-width:0.75px"/><path d="M42.93,22a1.38,1.38,0,0,1,.53.91v0" style="fill:none;stroke:#254254;stroke-linecap:round;stroke-linejoin:round;stroke-width:0.75px"/><path d="M40.2,21.39a6.07,6.07,0,0,1,.76,0,4.93,4.93,0,0,1,1.28.21,2.37,2.37,0,0,1,.69.36" style="fill:none;stroke:#254254;stroke-linecap:round;stroke-linejoin:round;stroke-width:0.75px"/><line x1="38.99" y1="19.65" x2="39.31" y2="21.25" style="fill:none;stroke:#254254;stroke-linecap:round;stroke-linejoin:round;stroke-width:0.5px"/><line x1="40.96" y1="20.31" x2="40.96" y2="21.25" style="fill:none;stroke:#254254;stroke-linecap:round;stroke-linejoin:round;stroke-width:0.5px"/><line x1="41.6" y1="20.01" x2="41.6" y2="21.37" style="fill:none;stroke:#254254;stroke-linecap:round;stroke-linejoin:round;stroke-width:0.5px"/><line x1="42.24" y1="19.82" x2="42.24" y2="21.59" style="fill:none;stroke:#254254;stroke-linecap:round;stroke-linejoin:round;stroke-width:0.5px"/><line x1="42.93" y1="21.95" x2="42.93" y2="21.96" style="fill:none;stroke:#254254;stroke-linecap:round;stroke-linejoin:round;stroke-width:0.75px"/><line x1="42.93" y1="20.01" x2="42.93" y2="21.95" style="fill:none;stroke:#254254;stroke-linecap:round;stroke-linejoin:round;stroke-width:0.5px"/><path d="M22.57,26.16a23.61,23.61,0,0,0,.31,4.22" style="fill:none;stroke:#254254;stroke-linecap:round;stroke-linejoin:round;stroke-width:0.75px"/><path d="M46,20.42v.11c0,.73.11,5-.11,7.9h0a13.62,13.62,0,0,1-.24,1.94" style="fill:none;stroke:#254254;stroke-linecap:round;stroke-linejoin:round;stroke-width:0.75px"/><path d="M31.16,37.92a20.74,20.74,0,0,0,6.67,0s.13,2.48-3.36,2.39C34.47,40.36,31.14,40.57,31.16,37.92Z" style="fill:none;stroke:#254254;stroke-linecap:round;stroke-linejoin:round;stroke-width:0.75px"/><path d="M44.56,36.22c0,.64-1,1.19-2.3,1.21s-2.33-.47-2.35-1.11,1-1.18,2.3-1.21S44.55,35.58,44.56,36.22Z" style="fill:none;stroke:#254254;stroke-linecap:round;stroke-linejoin:round;stroke-width:0.75px"/><path d="M28.6,35.78c0,.64-1,1.16-2.33,1.16S24,36.42,24,35.78s1-1.17,2.32-1.17S28.6,35.13,28.6,35.78Z" style="fill:none;stroke:#254254;stroke-linecap:round;stroke-linejoin:round;stroke-width:0.75px"/><line x1="19.22" y1="68" x2="19.22" y2="59" style="fill:none;stroke:#254254;stroke-linecap:round;stroke-linejoin:round;stroke-width:0.75px"/><line x1="48.81" y1="68" x2="48.81" y2="59.76" style="fill:none;stroke:#254254;stroke-linecap:round;stroke-linejoin:round;stroke-width:0.75px"/><path d="M32.15,20.56a.27.27,0,0,1-.12,0,.26.26,0,0,1-.11-.34A6,6,0,0,1,35.36,17a4.14,4.14,0,0,1,2.31,0,5.68,5.68,0,0,0-3.08-2.39c-1.65-.45-3.53,0-5.58,1.43a.25.25,0,0,1-.35-.06.25.25,0,0,1,.07-.35c2.18-1.49,4.2-2,6-1.5a6.35,6.35,0,0,1,3.74,3.26.24.24,0,0,1,0,.29.26.26,0,0,1-.3,0,3.66,3.66,0,0,0-2.63-.24,5.5,5.5,0,0,0-3.12,3A.27.27,0,0,1,32.15,20.56Z" style="fill:#254254"/><path d="M22,24.71a6.92,6.92,0,0,1-2.37-.42.26.26,0,0,1-.14-.33.24.24,0,0,1,.33-.13,6.15,6.15,0,0,0,4.3,0,6.31,6.31,0,0,0,3.23-3.87.25.25,0,0,1,.47.18,6.79,6.79,0,0,1-3.5,4.15A5.8,5.8,0,0,1,22,24.71Z" style="fill:#254254"/><path d="M38.25,17.74a.26.26,0,0,1-.22-.13c-.05-.09-1.31-2.13-5.39-1a.25.25,0,0,1-.13-.49c4.48-1.2,5.9,1.18,6,1.28a.27.27,0,0,1-.1.35A.27.27,0,0,1,38.25,17.74Z" style="fill:#254254"/><path d="M40.72,17.74a.22.22,0,0,1-.13,0,.26.26,0,0,1-.08-.34,3.28,3.28,0,0,1,2-1.49,2,2,0,0,1,1.67.7.24.24,0,0,1,0,.35.25.25,0,0,1-.36,0,1.5,1.5,0,0,0-1.26-.55c-.93.1-1.65,1.24-1.65,1.25A.25.25,0,0,1,40.72,17.74Z" style="fill:#254254"/><path d="M36,58.88a.79.79,0,1,1,.78-.78A.78.78,0,0,1,36,58.88Zm0-1.07a.29.29,0,1,0,0,.57.29.29,0,0,0,0-.57Z" style="fill:#254254"/><path d="M36,56.4a.78.78,0,1,1,.78-.78A.78.78,0,0,1,36,56.4Zm0-1.06a.28.28,0,1,0,.28.28A.28.28,0,0,0,36,55.34Z" style="fill:#254254"/><path d="M34.86,34.11c-.26-.49-.66-.48-.88,0l-.43.95a.6.6,0,0,0,.58.92h.72a.56.56,0,0,0,.53-.89Z" style="fill:#e59f8d"/><path d="M22.27,33.47h0a.25.25,0,0,1-.24-.26c0-.08.06-.8.56-1,.33-.14.74,0,1.22.4a.25.25,0,0,1-.33.38c-.3-.26-.56-.38-.69-.32s-.25.43-.26.59A.25.25,0,0,1,22.27,33.47Z" style="fill:#254254"/><path d="M46.33,33.47a.24.24,0,0,1-.23-.16c-.09-.24-.23-.54-.44-.58s-.47.18-.53.24a.24.24,0,0,1-.35,0,.25.25,0,0,1,0-.35,1.18,1.18,0,0,1,1-.4c.35.07.62.38.81.9a.25.25,0,0,1-.15.32Z" style="fill:#254254"/></svg>