<svg xmlns="http://www.w3.org/2000/svg" viewBox="0 0 36 36"><title>btn_movein</title><path d="M33.33,29.8h-.87a7.48,7.48,0,0,0-3.09-10V15.3l.68.51a.58.58,0,0,0,.68,0l2.54-1.87a.58.58,0,0,0,0-.92L18.49,2.16a.48.48,0,0,0-.29-.09.61.61,0,0,0-.45.09L3,13a.57.57,0,0,0,0,.92l2.54,1.87a.6.6,0,0,0,.68,0l.68-.51V29.8H2.48a.57.57,0,0,0-.57.57v3.11a.56.56,0,0,0,.57.57H33.33a.57.57,0,0,0,.58-.57V30.37A.58.58,0,0,0,33.33,29.8Zm-1-3.46a6.4,6.4,0,0,1-1,3.46A6.77,6.77,0,0,1,30.39,31a6.49,6.49,0,0,1-9.12,0,6.77,6.77,0,0,1-.91-1.15,6.4,6.4,0,0,1-1-3.46,6.48,6.48,0,0,1,6.48-6.48,6.32,6.32,0,0,1,2.39.46,6.56,6.56,0,0,1,1.15.59A6.49,6.49,0,0,1,32.31,26.34ZM5.85,14.64,4.27,13.48,18.12,3.31,32,13.48l-1.58,1.16-1.26-.93-2-1.46L18.46,5.87a.6.6,0,0,0-.68,0L9.1,12.25l-2,1.46ZM8,14.46l1.76-1.29L18.12,7l8.34,6.13,1.76,1.29v4.8a7.26,7.26,0,0,0-2.39-.4A7.48,7.48,0,0,0,19.2,29.8H16.83a1.21,1.21,0,0,0,.07-.43V23.61a1.5,1.5,0,0,0-1.5-1.5H11.57a1.5,1.5,0,0,0-1.5,1.5v5.76a1.49,1.49,0,0,0,.07.43H8Zm3.05,14.91V23.61a.51.51,0,0,1,.5-.5H15.4a.5.5,0,0,1,.5.5v5.76a.48.48,0,0,1-.25.43H11.33A.49.49,0,0,1,11.07,29.37Zm-8,3.54V31H19.94a7.52,7.52,0,0,0,2.31,2Zm29.71,0H29.4a7.41,7.41,0,0,0,2.31-2h1Z" style="fill:#383838"/><path d="M14.91,19.12h6a.5.5,0,0,0,.5-.5v-6a.5.5,0,0,0-.5-.5h-6a.5.5,0,0,0-.5.5v6A.5.5,0,0,0,14.91,19.12Zm2.49-1h-2v-2h2Zm3,0h-2v-2h2Zm0-3h-2v-2h2Zm-5-2h2v2h-2Z" style="fill:#383838"/><path d="M23.69,25.69a1,1,0,0,0-1.33,0l-.37.4a.93.93,0,0,0,0,1.33l2.58,2.44a1,1,0,0,0,.65.26.91.91,0,0,0,.68-.3l4.5-4.77a1.08,1.08,0,0,0-.05-1.52l-.2-.19a1,1,0,0,0-.77-.29,1.07,1.07,0,0,0-.75.34L25.2,27.11Zm1.89,2.47,3.82-4.05h.1l.21.19a.08.08,0,0,1,0,.11L25.3,29.08v.09l-2.59-2.35.3-.4,1.86,1.76a.55.55,0,0,0,.36.14A.52.52,0,0,0,25.58,28.16Z" style="fill:#383838"/><path d="M12.4,25.36a.5.5,0,0,0-.5.5v.86a.5.5,0,0,0,.5.5.5.5,0,0,0,.5-.5v-.86A.5.5,0,0,0,12.4,25.36Z" style="fill:#383838"/></svg>