<svg xmlns="http://www.w3.org/2000/svg" viewBox="0 0 36 36"><title>btn_insurance_normal</title><path d="M16,19.83a.55.55,0,0,1-.18,0C9.2,17.73,11,10.68,11.06,10.6a.57.57,0,0,1,.38-.4l4.38-1.56a.59.59,0,0,1,.77.36.61.61,0,0,1-.37.77l-4.07,1.45c-.25,1.24-.83,5.91,4,7.44A.6.6,0,0,1,16,19.83Z" style="fill:#363838"/><path d="M16,19.83a.6.6,0,0,1-.57-.42.6.6,0,0,1,.39-.75c4.89-1.53,4.31-6.2,4.06-7.44L15.82,9.77A.61.61,0,0,1,15.46,9a.59.59,0,0,1,.76-.36l4.39,1.56a.57.57,0,0,1,.38.4c0,.08,1.85,7.13-4.79,9.21A.55.55,0,0,1,16,19.83Z" style="fill:#363838"/><path d="M15.71,16.25a.56.56,0,0,1-.42-.18l-1.5-1.48a.6.6,0,0,1,0-.85.61.61,0,0,1,.85,0l1,1,2.09-2.38a.6.6,0,0,1,.85-.05.59.59,0,0,1,.05.84L16.16,16a.59.59,0,0,1-.43.21Z" style="fill:#363838"/><path d="M27.47,6a.6.6,0,0,1-.6-.6,3.27,3.27,0,0,1,3-3.49.6.6,0,0,1,0,1.2,2.12,2.12,0,0,0-1.79,2.29A.6.6,0,0,1,27.47,6Z" style="fill:#363838"/><path d="M27.47,6a.6.6,0,0,1-.6-.6V5a.6.6,0,0,1,1.2,0v.41A.6.6,0,0,1,27.47,6Z" style="fill:#363838"/><path d="M27.47,14a.6.6,0,0,1-.6-.6v-8a.6.6,0,1,1,1.2,0v8A.6.6,0,0,1,27.47,14Z" style="fill:#363838"/><path d="M5.61,26.24a.6.6,0,0,1-.6-.6V5.94a4.36,4.36,0,0,1,4.62-4h16.8a.6.6,0,0,1,0,1.2H9.63A3.18,3.18,0,0,0,6.21,5.94v19.7A.6.6,0,0,1,5.61,26.24Z" style="fill:#363838"/><path d="M27.47,24.67a.6.6,0,0,1-.6-.6v-8.9a.6.6,0,0,1,1.2,0v8.9A.6.6,0,0,1,27.47,24.67Z" style="fill:#363838"/><path d="M27.47,15.77a.6.6,0,0,1-.6-.6v-1.8a.6.6,0,0,1,1.2,0v1.8A.6.6,0,0,1,27.47,15.77Z" style="fill:#363838"/><path d="M32.25,15.77a.6.6,0,0,1-.6-.6V5.39A2.12,2.12,0,0,0,29.86,3.1a.6.6,0,0,1,0-1.2,3.27,3.27,0,0,1,3,3.49v9.78A.6.6,0,0,1,32.25,15.77Z" style="fill:#363838"/><path d="M29.86,3.1H26.43a.6.6,0,1,1,0-1.2h3.43a.6.6,0,0,1,0,1.2Z" style="fill:#363838"/><path d="M32.25,15.77H27.47a.6.6,0,1,1,0-1.2h4.78a.6.6,0,1,1,0,1.2Z" style="fill:#363838"/><path d="M25.06,34.1a3,3,0,0,1-3-3V25.64a.6.6,0,1,1,1.2,0v5.45a1.81,1.81,0,0,0,1.81,1.81.6.6,0,1,1,0,1.2Z" style="fill:#363838"/><path d="M25.06,34.1a.6.6,0,0,1,0-1.2,1.81,1.81,0,0,0,1.81-1.81v-7a.6.6,0,0,1,1.2,0v7A3,3,0,0,1,25.06,34.1Z" style="fill:#363838"/><path d="M5.61,34.1a3,3,0,0,1-3-3V25.64a.6.6,0,1,1,1.2,0v5.45A1.81,1.81,0,0,0,5.61,32.9a.6.6,0,0,1,0,1.2Z" style="fill:#363838"/><path d="M25.06,34.1H5.61a.6.6,0,1,1,0-1.2H25.06a.6.6,0,1,1,0,1.2Z" style="fill:#363838"/><path d="M25.06,34.1a.6.6,0,0,1-.43-.18.64.64,0,0,1-.13-.19.68.68,0,0,1,0-.46.86.86,0,0,1,.13-.2.67.67,0,0,1,.2-.12.6.6,0,0,1,.65.12.63.63,0,0,1,.13.2.57.57,0,0,1-.13.65A.56.56,0,0,1,25.06,34.1Z" style="fill:#363838"/><path d="M22.65,26.24H3.2A.61.61,0,0,1,3.2,25H22.65a.61.61,0,0,1,0,1.21Z" style="fill:#363838"/><path d="M23.23,23.16H9.44a.6.6,0,0,1-.6-.6.59.59,0,0,1,.6-.6H23.23a.6.6,0,0,1,.6.6A.6.6,0,0,1,23.23,23.16Z" style="fill:#363838"/><path d="M19.83,30.36H6a.6.6,0,1,1,0-1.2h13.8a.6.6,0,0,1,0,1.2Z" style="fill:#363838"/></svg>