<svg xmlns="http://www.w3.org/2000/svg" viewBox="0 0 40 40"><title>btn_home_active</title><path d="M39.11,18.63l-6-5.33V5.11a2.05,2.05,0,0,0-2-2.05H29A2.05,2.05,0,0,0,27,5.11V7.83L20.64,2.2a1,1,0,0,0-1.36,0L.8,18.63a1,1,0,0,0-.28,1.13,1,1,0,0,0,1,.66H6.1V35.89a2.05,2.05,0,0,0,2.05,2h7.7a1,1,0,0,0,1-1V27.68H23v9.24a1,1,0,0,0,1,1h7.7a2.05,2.05,0,0,0,2.05-2V20.42h4.62a1,1,0,0,0,.68-1.79Zm-6.32-.26a1,1,0,0,0-1,1V35.89H25.09V27.68A2.05,2.05,0,0,0,23,25.63H16.88a2.05,2.05,0,0,0-2,2.05v8.21H8.15V19.4a1,1,0,0,0-1-1H4.18L20,4.34l7.35,6.54a.91.91,0,0,0,.13.08,1.18,1.18,0,0,0,.19.11.85.85,0,0,0,.22,0,.7.7,0,0,0,.14,0h0l.23-.05.16,0,.15-.1a1.18,1.18,0,0,0,.18-.13l0,0a.91.91,0,0,0,.08-.13,1.86,1.86,0,0,0,.11-.19,1.7,1.7,0,0,0,0-.22.7.7,0,0,0,0-.14v-5h2.05v8.21s0,0,0,0a1.57,1.57,0,0,0,0,.23c0,.05,0,.11,0,.16a1.06,1.06,0,0,0,0,.19,1.05,1.05,0,0,0,.05.19.71.71,0,0,0,.1.14.83.83,0,0,0,.13.18l0,0,4.39,3.9Z" style="fill:#e83942;stroke:#e83942;stroke-miterlimit:10;stroke-width:0.300000011920929px"/></svg>