<svg xmlns="http://www.w3.org/2000/svg" viewBox="0 0 36 36"><title>btn_notice_normal</title><path d="M30.56,11.73a.6.6,0,0,1-.6-.6V5.9a1.7,1.7,0,1,0-3.39,0v.29a.6.6,0,1,1-1.2,0V5.9a2.9,2.9,0,1,1,5.79,0v5.23A.6.6,0,0,1,30.56,11.73Z" style="fill:#363838"/><path d="M30.56,20.68a.6.6,0,0,1-.6-.61V11.13a.6.6,0,1,1,1.2,0v8.94A.6.6,0,0,1,30.56,20.68Z" style="fill:#363838"/><path d="M28.27,28.31a3,3,0,0,1-2.9-3V25a.6.6,0,1,1,1.2,0v.29a1.7,1.7,0,1,0,3.39,0V20.07a.6.6,0,0,1,1.2,0v5.24A3,3,0,0,1,28.27,28.31Z" style="fill:#363838"/><path d="M26,25.62a.6.6,0,0,1-.6-.6V6.19a.6.6,0,0,1,1.2,0V25A.6.6,0,0,1,26,25.62Z" style="fill:#363838"/><path d="M34,16.1a.6.6,0,0,1-.6-.6V13.05l-3.08-1.37a.6.6,0,1,1,.48-1.09l3.44,1.52a.59.59,0,0,1,.36.55V15.5A.6.6,0,0,1,34,16.1Z" style="fill:#363838"/><path d="M30.56,20.68a.61.61,0,0,1-.55-.36.59.59,0,0,1,.31-.79l3.08-1.37V15.71a.6.6,0,1,1,1.2,0v2.84a.59.59,0,0,1-.36.55L30.8,20.62A.53.53,0,0,1,30.56,20.68Z" style="fill:#363838"/><path d="M34,16.31a.6.6,0,0,1-.6-.6V15.5a.6.6,0,0,1,1.2,0v.21A.6.6,0,0,1,34,16.31Z" style="fill:#363838"/><path d="M4.54,20.13l-.15,0a4.07,4.07,0,0,1-3-4V15.06A4,4,0,0,1,5.34,11H7.11a.59.59,0,0,1,.6.6.6.6,0,0,1-.6.6H5.34A2.82,2.82,0,0,0,2.6,15.06v1.08A2.87,2.87,0,0,0,4.69,19a.6.6,0,0,1-.15,1.18Z" style="fill:#363838"/><path d="M7.11,20.24H5.34a3.73,3.73,0,0,1-1-.13A.59.59,0,0,1,4,19.38.6.6,0,0,1,4.69,19a2.73,2.73,0,0,0,.65.09H7.11a.6.6,0,0,1,.6.6A.59.59,0,0,1,7.11,20.24Z" style="fill:#363838"/><path d="M26,25.62l-.16,0L10.5,21.23a.6.6,0,1,1,.33-1.15l15.31,4.36A.6.6,0,0,1,26,25.62Z" style="fill:#363838"/><path d="M10.66,21.26a.45.45,0,0,1-.16,0L7,20.22a.61.61,0,0,1-.44-.57V11.57a.6.6,0,0,1,1.18-.17.58.58,0,0,1,0,.26v7.53l3.12.89a.6.6,0,0,1,.41.74A.62.62,0,0,1,10.66,21.26Z" style="fill:#363838"/><path d="M7.11,12.17A.6.6,0,0,1,7,11L25.81,5.61a.6.6,0,0,1,.74.41.61.61,0,0,1-.41.75L7.28,12.14A.51.51,0,0,1,7.11,12.17Z" style="fill:#363838"/><path d="M8.6,34.1a1.37,1.37,0,0,1-.73-.21,1.52,1.52,0,0,1-.7-.94L4,19.67a.6.6,0,0,1,1.16-.28L8.34,32.67a.3.3,0,0,0,.14.19.21.21,0,0,0,.18,0l5.07-1.35a.33.33,0,0,0,.21-.39l-.16-.66a.3.3,0,0,0-.14-.2.24.24,0,0,0-.19,0l-.42.11a.61.61,0,0,1-.46-.06.6.6,0,0,1-.28-.38L10.08,20.8a.6.6,0,0,1,.44-.73.59.59,0,0,1,.72.44l2.08,8.56a1.41,1.41,0,0,1,.93.19,1.5,1.5,0,0,1,.69.94l.16.66A1.52,1.52,0,0,1,14,32.7L9,34.05A1.5,1.5,0,0,1,8.6,34.1Z" style="fill:#363838"/><path d="M10.66,17.18a.6.6,0,0,1-.6-.6v-6a.6.6,0,0,1,1.2,0v6A.6.6,0,0,1,10.66,17.18Z" style="fill:#363838"/><path d="M13.78,16.1a.6.6,0,0,1-.6-.6V9.67a.6.6,0,1,1,1.19,0V15.5A.59.59,0,0,1,13.78,16.1Z" style="fill:#363838"/><path d="M7.41,32a.6.6,0,0,1-.16-1.18l5.46-1.6a.59.59,0,0,1,.74.4.61.61,0,0,1-.41.75L7.58,32A.47.47,0,0,1,7.41,32Z" style="fill:#363838"/></svg>