<svg xmlns="http://www.w3.org/2000/svg" viewBox="0 0 36 36"><title>btn_contract_normal</title><path d="M27.53,29.59a.6.6,0,0,1-.6-.6V7.17a.33.33,0,0,0-.32-.32h-5a.6.6,0,0,1,0-1.2h5a1.52,1.52,0,0,1,1.52,1.52V29A.6.6,0,0,1,27.53,29.59Z" style="fill:#363838"/><path d="M12.41,6.85H8.51a.6.6,0,0,1,0-1.2h3.9a.6.6,0,0,1,0,1.2Z" style="fill:#363838"/><path d="M23.5,34.34h-16a1.52,1.52,0,0,1-1.52-1.52V7.17A1.52,1.52,0,0,1,7.45,5.65H8.51a.6.6,0,0,1,0,1.2H7.45a.33.33,0,0,0-.32.32V32.82a.33.33,0,0,0,.32.32H23.5a.6.6,0,0,1,.6.6A.6.6,0,0,1,23.5,34.34Z" style="fill:#363838"/><path d="M12.41,6.85a.6.6,0,0,1-.6-.6V4.76a1.12,1.12,0,0,1,0-.32A.63.63,0,0,1,12.59,4a.58.58,0,0,1,.45.69l-.6-.08.57.2V6.25A.6.6,0,0,1,12.41,6.85Z" style="fill:#363838"/><path d="M12.45,5.13h-.14a.6.6,0,0,1-.44-.73,1.46,1.46,0,0,1,1.4-1.17h1.87a.59.59,0,0,1,.65.48s0,.08,0,.09a.61.61,0,0,1-.16.45.6.6,0,0,1-.44.19H13.27c-.11,0-.2.13-.23.25A.6.6,0,0,1,12.45,5.13Z" style="fill:#363838"/><path d="M21.61,5.13A.6.6,0,0,1,21,4.67c0-.12-.11-.25-.23-.25H18.86a.6.6,0,0,1-.6-.6l.6,0V3.22h1.93a1.46,1.46,0,0,1,1.4,1.17.6.6,0,0,1-.44.73Z" style="fill:#363838"/><path d="M21.65,6.85a.6.6,0,0,1-.6-.6V4.76A.64.64,0,0,1,21.48,4a.56.56,0,0,1,.71.4,1.36,1.36,0,0,1,.06.37V6.25A.6.6,0,0,1,21.65,6.85Z" style="fill:#363838"/><path d="M20.79,8.57H13.27a1.42,1.42,0,0,1-1.46-1.35v-1a.6.6,0,0,1,1.2,0v1c0,.06.1.15.26.15h7.52c.16,0,.26-.09.26-.15v-1a.6.6,0,1,1,1.2,0v1A1.41,1.41,0,0,1,20.79,8.57Z" style="fill:#363838"/><path d="M15.2,4.39a.61.61,0,0,1-.6-.54s0-.09,0-.12a2.44,2.44,0,1,1,4.88,0,.88.88,0,0,1,0,.16.6.6,0,0,1-1.18-.18,1.25,1.25,0,1,0-2.48,0,.59.59,0,0,1-.52.66Z" style="fill:#363838"/><path d="M25.89,32.34a.62.62,0,0,1-.4-.15.61.61,0,0,1,0-.85A7.4,7.4,0,0,0,27,28.8a.6.6,0,0,1,.75-.39.61.61,0,0,1,.39.76,8.4,8.4,0,0,1-1.76,3A.61.61,0,0,1,25.89,32.34Z" style="fill:#363838"/><path d="M23.5,34.34a.68.68,0,0,1-.31-.08.61.61,0,0,1-.29-.52V29a.59.59,0,0,1,.6-.6h4a.6.6,0,0,1,.6.6.6.6,0,0,1-.6.6H24.1v3l.38-.31a.6.6,0,0,1,.78.91,11.33,11.33,0,0,1-1.47,1.07A.6.6,0,0,1,23.5,34.34Z" style="fill:#363838"/><path d="M24.87,33.34a.6.6,0,0,1-.46-.21.61.61,0,0,1,.07-.85,10.88,10.88,0,0,0,1-.94.59.59,0,0,1,.84-.05.6.6,0,0,1,.05.85,10.8,10.8,0,0,1-1.08,1A.62.62,0,0,1,24.87,33.34Z" style="fill:#363838"/><path d="M28.28,33.34H24.87a.6.6,0,0,1,0-1.2h3.41a.6.6,0,0,0,.59-.59V5.72a.6.6,0,0,0-.59-.59H21.61a.6.6,0,0,1,0-1.2h6.67a1.79,1.79,0,0,1,1.79,1.79V31.55A1.79,1.79,0,0,1,28.28,33.34Z" style="fill:#363838"/><path d="M8.51,6.85a.6.6,0,0,1-.6-.6V5.72A1.79,1.79,0,0,1,9.7,3.93h2.75a.6.6,0,1,1,0,1.2H9.7a.59.59,0,0,0-.59.59v.53A.6.6,0,0,1,8.51,6.85Z" style="fill:#363838"/><path d="M24,13.23H10.07a.6.6,0,0,1,0-1.2H24a.6.6,0,0,1,0,1.2Z" style="fill:#363838"/><path d="M24,17.57H10.07a.6.6,0,0,1,0-1.2H24a.6.6,0,0,1,0,1.2Z" style="fill:#363838"/><path d="M20.23,21.9H10.07a.6.6,0,0,1,0-1.2H20.23a.6.6,0,1,1,0,1.2Z" style="fill:#363838"/><path d="M17,30.77h-7a.6.6,0,0,1-.6-.6V25.64a.6.6,0,0,1,.6-.61h7a.6.6,0,0,1,.6.61v4.53A.6.6,0,0,1,17,30.77Zm-6.36-1.2h5.76V26.24H10.67Z" style="fill:#363838"/><circle cx="17.03" cy="3.59" r="0.5" style="fill:#363838"/></svg>