<svg xmlns="http://www.w3.org/2000/svg" viewBox="0 0 40 40"><title>btn_map_normal</title><path d="M20.22,24.86a8.45,8.45,0,1,1,8.45-8.45A8.46,8.46,0,0,1,20.22,24.86Zm0-14.89a6.45,6.45,0,1,0,6.45,6.44A6.46,6.46,0,0,0,20.22,10Z" style="fill:#363838;stroke:#353838;stroke-miterlimit:10;stroke-width:0.400000005960465px"/><path d="M33.76,25.72a16.46,16.46,0,0,0,2.18-8.19A16,16,0,0,0,20.22,1.34,16,16,0,0,0,4.53,16.89a1.13,1.13,0,0,0,0,.18v.28h0a1,1,0,0,0,0,.17,16.6,16.6,0,0,0,1.91,7.74h0c4,8.48,12.9,13.49,13.27,13.7a1,1,0,0,0,.49.13h0a1,1,0,0,0,.49-.13c.36-.2,8.89-5,13-13.2h0l0,0v0ZM20.2,37c-1.84-1.12-8.76-5.69-12-12.57,0,0,0,0,0,0a0,0,0,0,1,0,0A14.56,14.56,0,0,1,6.5,17.5s0-.12,0-.15h0a14,14,0,0,1,13.71-14A14,14,0,0,1,33.94,17.53,14.55,14.55,0,0,1,32,24.78v0l0,0C28.66,31.45,22,35.85,20.2,37Z" style="fill:#363838;stroke:#353838;stroke-linecap:round;stroke-linejoin:round;stroke-width:0.400000005960465px"/></svg>