<svg xmlns="http://www.w3.org/2000/svg" viewBox="0 0 30 30"><title>btn_heart_active</title><path d="M28,11.71a9.65,9.65,0,0,1-2.58,6.34A54.28,54.28,0,0,1,19,24.1c-.89.77-1.92,1.63-3,2.55A1.51,1.51,0,0,1,15,27a1.47,1.47,0,0,1-1-.38c-1.06-.92-2.07-1.78-3-2.54h0a55.43,55.43,0,0,1-6.47-6.05A9.74,9.74,0,0,1,2,11.71,8.16,8.16,0,0,1,4.06,6.16,7,7,0,0,1,9.26,3.9a6.51,6.51,0,0,1,4.09,1.41A8.26,8.26,0,0,1,15,7a8.05,8.05,0,0,1,1.66-1.73A6.48,6.48,0,0,1,20.74,3.9a7,7,0,0,1,5.2,2.26A8.11,8.11,0,0,1,28,11.71Zm-3.75,5.36a8.12,8.12,0,0,0,2.23-5.36,6.64,6.64,0,0,0-1.66-4.52,5.5,5.5,0,0,0-4.08-1.77,5,5,0,0,0-3.16,1.1,7,7,0,0,0-1.75,2A1,1,0,0,1,15,9a.94.94,0,0,1-.82-.46,7.43,7.43,0,0,0-1.76-2,5,5,0,0,0-3.16-1.1A5.51,5.51,0,0,0,5.18,7.19a6.63,6.63,0,0,0-1.65,4.52,8.11,8.11,0,0,0,2.22,5.36A53,53,0,0,0,12,22.94h0c.89.76,1.91,1.63,3,2.56,1.06-.93,2.08-1.8,3-2.57A52.2,52.2,0,0,0,24.25,17.07Z" style="fill:#373838"/><path d="M26.48,11.71a8.12,8.12,0,0,1-2.23,5.36A52.2,52.2,0,0,1,18,22.94c-.9.77-1.92,1.64-3,2.57-1.06-.93-2.08-1.8-3-2.56h0a53,53,0,0,1-6.27-5.87,8.11,8.11,0,0,1-2.22-5.36A6.63,6.63,0,0,1,5.18,7.19,5.51,5.51,0,0,1,9.26,5.42a5,5,0,0,1,3.16,1.1,7.43,7.43,0,0,1,1.76,2A.94.94,0,0,0,15,9a1,1,0,0,0,.83-.46,7,7,0,0,1,1.75-2,5,5,0,0,1,3.16-1.1,5.5,5.5,0,0,1,4.08,1.77A6.64,6.64,0,0,1,26.48,11.71Z" style="fill:#e34d57"/><path d="M15,27a1.47,1.47,0,0,1-1-.38c-1.06-.92-2.07-1.78-3-2.54h0a55.43,55.43,0,0,1-6.47-6.05A9.74,9.74,0,0,1,2,11.71,8.16,8.16,0,0,1,4.06,6.16,7,7,0,0,1,9.26,3.9a6.51,6.51,0,0,1,4.09,1.41A8.26,8.26,0,0,1,15,7a8.05,8.05,0,0,1,1.66-1.73A6.48,6.48,0,0,1,20.74,3.9a7,7,0,0,1,5.2,2.26A8.11,8.11,0,0,1,28,11.71a9.65,9.65,0,0,1-2.58,6.34A54.28,54.28,0,0,1,19,24.1c-.89.77-1.92,1.63-3,2.55A1.51,1.51,0,0,1,15,27Z" style="fill:none;stroke:#383838;stroke-miterlimit:10;stroke-width:0.5px"/><path d="M9.26,5.42A5.51,5.51,0,0,0,5.18,7.19a6.63,6.63,0,0,0-1.65,4.52,8.11,8.11,0,0,0,2.22,5.36A53,53,0,0,0,12,22.94h0c.89.76,1.91,1.63,3,2.56,1.06-.93,2.08-1.8,3-2.57a52.2,52.2,0,0,0,6.27-5.87,8.12,8.12,0,0,0,2.23-5.36,6.64,6.64,0,0,0-1.66-4.52,5.5,5.5,0,0,0-4.08-1.77,5,5,0,0,0-3.16,1.1,7,7,0,0,0-1.75,2A1,1,0,0,1,15,9a.94.94,0,0,1-.82-.46,7.43,7.43,0,0,0-1.76-2A5,5,0,0,0,9.26,5.42Z" style="fill:none;stroke:#383838;stroke-miterlimit:10;stroke-width:0.5px"/></svg>