<svg xmlns="http://www.w3.org/2000/svg" viewBox="0 0 40 40"><title>btn_mylist_normal</title><path d="M20,36.14a2.09,2.09,0,0,1-1.39-.52c-1.46-1.27-2.86-2.47-4.1-3.52h0a76.72,76.72,0,0,1-8.94-8.38C3.09,20.77,2,18,2,14.93A11.26,11.26,0,0,1,4.81,7.25,9.69,9.69,0,0,1,12,4.12a9,9,0,0,1,5.66,2A11.35,11.35,0,0,1,20,8.46a11.31,11.31,0,0,1,2.28-2.39A9,9,0,0,1,27.9,4.12a9.67,9.67,0,0,1,7.2,3.13A11.27,11.27,0,0,1,38,14.93c0,3.05-1.14,5.84-3.57,8.78a76.72,76.72,0,0,1-8.94,8.38c-1.24,1.06-2.64,2.26-4.1,3.53A2.1,2.1,0,0,1,20,36.14ZM12,6.22A7.62,7.62,0,0,0,6.36,8.68a9.16,9.16,0,0,0-2.29,6.25c0,2.57.95,4.86,3.08,7.43a75,75,0,0,0,8.68,8.13h0C17.08,31.55,18.49,32.75,20,34c1.48-1.28,2.89-2.48,4.13-3.54a75,75,0,0,0,8.68-8.13c2.14-2.57,3.09-4.86,3.09-7.43a9.17,9.17,0,0,0-2.3-6.25A7.6,7.6,0,0,0,27.9,6.22a7,7,0,0,0-4.37,1.52,10.22,10.22,0,0,0-2.43,2.81A1.31,1.31,0,0,1,20,11.2a1.33,1.33,0,0,1-1.15-.65,10.05,10.05,0,0,0-2.43-2.81A7,7,0,0,0,12,6.22Z" style="fill:#383838;stroke:#363838;stroke-miterlimit:10;stroke-width:0.25px"/></svg>