<svg xmlns="http://www.w3.org/2000/svg" viewBox="0 0 36 36"><title>ic_apartments</title><path d="M27.62,9.3H17.26a.58.58,0,0,1-.58-.58V6.15a.58.58,0,0,1,.58-.58H27.62a.58.58,0,0,1,.58.58V8.72A.58.58,0,0,1,27.62,9.3ZM17.84,8.14H27V6.73h-9.2Z" style="fill:#fff"/><path d="M27.62,14.67H17.26a.57.57,0,0,1-.58-.57V11.53a.58.58,0,0,1,.58-.58H27.62a.58.58,0,0,1,.58.58V14.1A.57.57,0,0,1,27.62,14.67Zm-9.78-1.15H27V12.11h-9.2Z" style="fill:#fff"/><path d="M27.62,20.05H17.26a.58.58,0,0,1-.58-.58V16.91a.58.58,0,0,1,.58-.58H27.62a.58.58,0,0,1,.58.58v2.56A.58.58,0,0,1,27.62,20.05ZM17.84,18.9H27V17.49h-9.2Z" style="fill:#fff"/><path d="M27.62,25.43H17.26a.58.58,0,0,1-.58-.58V22.29a.58.58,0,0,1,.58-.58H27.62a.58.58,0,0,1,.58.58v2.56A.58.58,0,0,1,27.62,25.43Zm-9.78-1.16H27V22.86h-9.2Z" style="fill:#fff"/><path d="M12.16,29.48H7.78a.58.58,0,0,1-.58-.58V23.72a.58.58,0,0,1,.58-.57h4.38a.58.58,0,0,1,.58.57V28.9A.58.58,0,0,1,12.16,29.48Zm-3.8-1.16h3.22v-4H8.36Z" style="fill:#fff"/><polygon points="14.71 29.9 5.23 29.9 3.15 29.9 3.15 32.84 32.28 32.84 32.28 29.9 30.2 29.9 18.88 29.9 14.71 29.9" style="fill:none"/><path d="M14.13,10.2H6a.22.22,0,0,0-.21.21V28.75h8.33Z" style="fill:none"/><path d="M18.88,28.75H29.62V3.54a.38.38,0,0,0-.38-.38H15.67a.38.38,0,0,0-.38.38V28.75Z" style="fill:none"/><path d="M14.71,28.75h.58V9.62a.58.58,0,0,1-.58.58h-.58V28.75Z" style="fill:#fff"/><path d="M15.29,9.62V3.54a.38.38,0,0,1,.38-.38H29.24a.38.38,0,0,1,.38.38V28.75h1.16V3.54A1.54,1.54,0,0,0,29.24,2H15.67a1.54,1.54,0,0,0-1.54,1.54V9.05h.58A.57.57,0,0,1,15.29,9.62Z" style="fill:#fff"/><path d="M5.8,28.75V10.41A.22.22,0,0,1,6,10.2h8.12V9.05H6a1.36,1.36,0,0,0-1.36,1.36V28.75H5.8Z" style="fill:#fff"/><path d="M14.13,9.62v.58h.58A.58.58,0,0,1,14.13,9.62Z" style="fill:#fff"/><path d="M14.71,9.05h-.58v.57A.57.57,0,0,1,14.71,9.05Z" style="fill:#fff"/><path d="M14.71,10.2a.58.58,0,0,0,.58-.58.58.58,0,0,0-1.16,0A.58.58,0,0,0,14.71,10.2Z" style="fill:#fff"/><path d="M14.13,29.32v-.57H5.8v.57a.57.57,0,0,1-.57.58h9.48A.58.58,0,0,1,14.13,29.32Z" style="fill:#fff"/><path d="M14.71,28.75h-.58v.57A.57.57,0,0,1,14.71,28.75Z" style="fill:#fff"/><path d="M5.8,29.32v-.57H5.23A.56.56,0,0,1,5.8,29.32Z" style="fill:#fff"/><path d="M15.29,29.32a.58.58,0,0,1-.58.58h4.17a.58.58,0,0,1-.58-.58.57.57,0,0,1,.58-.57H15.29Z" style="fill:#fff"/><path d="M15.29,29.32v-.57h-.58A.57.57,0,0,1,15.29,29.32Z" style="fill:#fff"/><circle cx="14.71" cy="29.32" r="0.58" style="fill:#fff"/><path d="M29.62,29.32v-.57H18.88a.56.56,0,0,1,.57.57.57.57,0,0,1-.57.58H30.2A.58.58,0,0,1,29.62,29.32Z" style="fill:#fff"/><path d="M30.2,28.75h-.58v.57A.57.57,0,0,1,30.2,28.75Z" style="fill:#fff"/><circle cx="18.88" cy="29.32" r="0.58" style="fill:#fff"/><path d="M32.86,28.75H30.78v.57a.58.58,0,0,1-.58.58h2.08v2.94H3.15V29.9H5.23a.58.58,0,0,1-.58-.58v-.57H2.57a.57.57,0,0,0-.58.57v4.1a.58.58,0,0,0,.58.58H32.86a.58.58,0,0,0,.58-.58v-4.1A.57.57,0,0,0,32.86,28.75Z" style="fill:#fff"/><path d="M30.78,29.32v-.57H30.2A.57.57,0,0,1,30.78,29.32Z" style="fill:#fff"/><path d="M5.23,28.75H4.65v.57A.57.57,0,0,1,5.23,28.75Z" style="fill:#fff"/><circle cx="5.23" cy="29.32" r="0.58" style="fill:#fff"/><circle cx="30.2" cy="29.32" r="0.58" style="fill:#fff"/></svg>