<svg xmlns="http://www.w3.org/2000/svg" viewBox="0 0 30 30"><title>ic_cost</title><path d="M23.48,19.83a.5.5,0,0,1-.5-.5V3a.46.46,0,0,0-.07-.22.5.5,0,0,1,.88-.48A1.45,1.45,0,0,1,24,3v16.3A.5.5,0,0,1,23.48,19.83Z" style="fill:#363838"/><path d="M6.81,2.53a.5.5,0,1,1,0-1h0a.51.51,0,0,1,.5.5A.5.5,0,0,1,6.81,2.53Z" style="fill:#363838"/><path d="M19.57,2.53h0a.5.5,0,0,1-.5-.5.5.5,0,0,1,.5-.5.51.51,0,0,1,.51.5A.5.5,0,0,1,19.57,2.53Z" style="fill:#363838"/><path d="M15.32,2.53a.5.5,0,1,1,0-1h0a.51.51,0,0,1,.5.5A.5.5,0,0,1,15.32,2.53Z" style="fill:#363838"/><path d="M11.06,2.53a.5.5,0,0,1,0-1h0a.5.5,0,0,1,.5.5A.5.5,0,0,1,11.06,2.53Z" style="fill:#363838"/><path d="M21,28.47H3.31A1.5,1.5,0,0,1,1.81,27V3a1.49,1.49,0,0,1,.62-1.19A.5.5,0,0,1,3,2.65.46.46,0,0,0,2.81,3V27a.5.5,0,0,0,.5.5H21a.5.5,0,0,1,.5.5A.5.5,0,0,1,21,28.47Z" style="fill:#363838"/><path d="M23.48,20a.5.5,0,0,1-.5-.5v-.12a.5.5,0,0,1,1,0v.12A.5.5,0,0,1,23.48,20Z" style="fill:#363838"/><path d="M25.59,28.47A2.61,2.61,0,0,1,23,25.87a.5.5,0,0,1,1,0,1.61,1.61,0,0,0,1.61,1.6.51.51,0,0,1,.5.5A.5.5,0,0,1,25.59,28.47Z" style="fill:#363838"/><path d="M25.59,28.47a.5.5,0,0,1-.5-.5.5.5,0,0,1,.5-.5,1.6,1.6,0,0,0,1.6-1.6V19.45a.54.54,0,0,1,.47-.57.45.45,0,0,1,.52.42.81.81,0,0,1,0,.15v6.42A2.61,2.61,0,0,1,25.59,28.47Z" style="fill:#363838"/><path d="M23.48,20a.5.5,0,0,1-.5-.5s0-.12,0-.14a.52.52,0,0,1,.55-.45.48.48,0,0,1,.45.49s0,.09,0,.1A.5.5,0,0,1,23.48,20Z" style="fill:#363838"/><path d="M23.48,26.37a.5.5,0,0,1-.5-.5V19.45a.5.5,0,0,1,1,0v6.42A.5.5,0,0,1,23.48,26.37Z" style="fill:#363838"/><path d="M25.59,28.47h-5.1A.5.5,0,0,1,20,28a.5.5,0,0,1,.5-.5h5.1a.51.51,0,0,1,.5.5A.5.5,0,0,1,25.59,28.47Z" style="fill:#363838"/><path d="M27.68,19.83H23.49a.5.5,0,1,1,0-1h4.19a.5.5,0,0,1,0,1Z" style="fill:#363838"/><path d="M23.49,19.83a.5.5,0,0,1-.5-.5.49.49,0,0,1,.49-.5h0a.5.5,0,0,1,0,1Z" style="fill:#363838"/><path d="M6.8,2.53a.54.54,0,0,1-.32-.11.52.52,0,0,1-.07-.71h0a.5.5,0,0,1,.7-.07.51.51,0,0,1,.07.71A.51.51,0,0,1,6.8,2.53Z" style="fill:#363838"/><path d="M4.64,5h0a.51.51,0,0,1-.38-.18L2.34,2.56a.5.5,0,0,1,.07-.7.49.49,0,0,1,.7.06L4.64,3.76l1.78-2a.5.5,0,0,1,.76.65L5,4.85A.49.49,0,0,1,4.64,5Z" style="fill:#363838"/><path d="M11.05,2.53a.56.56,0,0,1-.32-.11.51.51,0,0,1-.06-.71h0a.5.5,0,1,1,.77.64A.5.5,0,0,1,11.05,2.53Z" style="fill:#363838"/><path d="M8.89,5h0a.49.49,0,0,1-.38-.18L6.42,2.35a.5.5,0,0,1,.07-.7.49.49,0,0,1,.7.06L8.9,3.76l1.77-2a.51.51,0,0,1,.71-.05.49.49,0,0,1,0,.7L9.27,4.85A.53.53,0,0,1,8.89,5Z" style="fill:#363838"/><path d="M6.8,2.53a.49.49,0,0,1-.38-.18h0a.5.5,0,1,1,.77-.64.52.52,0,0,1-.06.71A.57.57,0,0,1,6.8,2.53Z" style="fill:#363838"/><path d="M15.31,2.53a.5.5,0,0,1-.39-.82h0a.5.5,0,0,1,.7-.07.5.5,0,0,1-.32.89Z" style="fill:#363838"/><path d="M11.06,2.53a.52.52,0,0,1-.35-.14h0a.5.5,0,0,1,.71-.71.5.5,0,0,1,0,.71A.47.47,0,0,1,11.06,2.53Z" style="fill:#363838"/><path d="M13.15,5h0a.51.51,0,0,1-.38-.18l-2.08-2.5a.49.49,0,0,1,.06-.7.51.51,0,0,1,.71.06l1.7,2.05,1.78-2a.5.5,0,0,1,.76.65L13.52,4.85A.49.49,0,0,1,13.15,5Z" style="fill:#363838"/><path d="M15.31,2.53a.49.49,0,0,1-.38-.18h0a.5.5,0,1,1,.7.07A.52.52,0,0,1,15.31,2.53Z" style="fill:#363838"/><path d="M19.56,2.53a.5.5,0,0,1-.35-.15.49.49,0,0,1,0-.7h0a.51.51,0,0,1,.71,0,.5.5,0,0,1,0,.71A.51.51,0,0,1,19.56,2.53Z" style="fill:#363838"/><path d="M17.4,5h0A.49.49,0,0,1,17,4.85l-2.09-2.5a.5.5,0,0,1,.77-.64l1.71,2.05,1.77-2a.51.51,0,0,1,.71-.05.49.49,0,0,1,.05.7L17.78,4.85A.53.53,0,0,1,17.4,5Z" style="fill:#363838"/><path d="M21.65,5h0a.49.49,0,0,1-.38-.18l-2.08-2.5a.49.49,0,0,1,.06-.7.51.51,0,0,1,.71.06l1.7,2.05L23,2.24a.5.5,0,1,1,.76.66L22,4.85A.49.49,0,0,1,21.65,5Z" style="fill:#363838"/><path d="M19.57,2.53a.49.49,0,0,1-.38-.18h0a.51.51,0,0,1,.07-.71.5.5,0,0,1,.7.07.51.51,0,0,1-.06.71A.54.54,0,0,1,19.57,2.53Z" style="fill:#363838"/><path d="M6.35,20.41h1.1V19.17h.86V20.4l1.13,0c.32,0,.6,0,.85-.06l.06.73-.65.06-.85,0-1.1,0H6.35Zm3.54-2.83v.92c0,.1,0,.2,0,.32l0,.37c0,.13,0,.26,0,.38a2.7,2.7,0,0,1-.07.35l-.84-.1A6,6,0,0,0,9,19.14q0-.32,0-.54v-.27H6.72v-.75ZM8.16,22.86h3.47v.74H7.29v-2h.87Zm3.3-3.72h.85v.75h-.85V22h-.85V17.26h.85Z" style="fill:#383838"/><path d="M14.23,21.39h.67l1,0q.51,0,1-.09L17,22c-.33.05-.68.08-1.07.1s-.78,0-1.21,0H13.38v-2.6h2.06v-1H13.38v-.73h2.91v2.48H14.23Zm4.07,2.25h-.87V17.26h.87Z" style="fill:#383838"/><path d="M21,9H13.31a.5.5,0,0,1-.5-.5.51.51,0,0,1,.5-.5H21a.5.5,0,0,1,.5.5A.5.5,0,0,1,21,9Z" style="fill:#363838"/><path d="M19,11.21H13.31a.5.5,0,0,1-.5-.5.51.51,0,0,1,.5-.5H19a.51.51,0,0,1,.5.5A.5.5,0,0,1,19,11.21Z" style="fill:#363838"/><path d="M19,13.47H13.31a.51.51,0,0,1-.5-.5.5.5,0,0,1,.5-.5H19a.5.5,0,0,1,.5.5A.51.51,0,0,1,19,13.47Z" style="fill:#363838"/><path d="M9.45,14.05H5.76a1.5,1.5,0,0,1-1.5-1.5V8.87a1.5,1.5,0,0,1,1.5-1.5H9.45A1.5,1.5,0,0,1,11,8.87v3.68A1.5,1.5,0,0,1,9.45,14.05ZM5.76,8.37a.5.5,0,0,0-.5.5v3.68a.5.5,0,0,0,.5.5H9.45a.5.5,0,0,0,.5-.5V8.87a.5.5,0,0,0-.5-.5Z" style="fill:#363838"/></svg>