<svg xmlns="http://www.w3.org/2000/svg" viewBox="0 0 46 46"><title>ic_call</title><circle cx="23" cy="22.97" r="21" style="fill:#f7f7f7"/><path d="M23,44.72A21.75,21.75,0,1,1,44.75,23,21.77,21.77,0,0,1,23,44.72Zm0-42A20.25,20.25,0,1,0,43.25,23,20.27,20.27,0,0,0,23,2.72Z" style="fill:#e83942"/><path d="M34.45,30.88a.79.79,0,0,1,0,1.12l-.56.56L29.4,28.08l.56-.56a.8.8,0,0,1,1.13,0Z" style="fill:#ffc973"/><path d="M28.38,29.16l4.33,4.34a6.75,6.75,0,0,1-9.12-.43L13.41,22.88A6.76,6.76,0,0,1,13,13.76l4.34,4.33a3.28,3.28,0,0,0,.14,4.5L23.89,29a3.28,3.28,0,0,0,4.49.14Z" style="fill:#ff7171"/><path d="M18.4,17.07,14,12.61l.55-.55a.79.79,0,0,1,1.12,0L19,15.4a.78.78,0,0,1,0,1.11Z" style="fill:#ffc973"/><path d="M14,12.61l4.45,4.46.56-.56a.78.78,0,0,0,0-1.11l-3.34-3.34a.79.79,0,0,0-1.12,0Zm-1,1.15a6.76,6.76,0,0,0,.43,9.12L23.59,33.07a6.75,6.75,0,0,0,9.12.43l-4.33-4.34A3.28,3.28,0,0,1,23.89,29l-6.43-6.43a3.28,3.28,0,0,1-.14-4.5ZM34.45,32a.79.79,0,0,0,0-1.12l-3.36-3.36a.8.8,0,0,0-1.13,0l-.56.56,4.49,4.48Zm.88-2.34a2.29,2.29,0,0,1,0,3.23l-1.18,1.18a8.23,8.23,0,0,1-11.65,0L12.41,24a8.23,8.23,0,0,1,0-11.65l1.18-1.17a2.29,2.29,0,0,1,3.23,0l3.23,3.22a2.3,2.3,0,0,1,0,3.24c-.56.55-1.23,1.23-1.47,1.47a1.73,1.73,0,0,0,0,2.45L25,27.9a1.73,1.73,0,0,0,2.44,0l1.47-1.47a2.3,2.3,0,0,1,3.24,0Z" style="fill:#353535"/><path d="M29.14,21.86a.76.76,0,0,1-.72-.53,6.11,6.11,0,0,0-4.37-4.45.75.75,0,0,1,.24-1.48,7.57,7.57,0,0,1,5.56,5.48.74.74,0,0,1-.49.94A.57.57,0,0,1,29.14,21.86Z" style="fill:#353535"/><path d="M32.72,20.81a.76.76,0,0,1-.72-.53c-1.91-6.05-6.7-6.94-6.91-7a.75.75,0,0,1,.25-1.48c.24,0,5.9,1,8.09,8a.74.74,0,0,1-.49.94A.57.57,0,0,1,32.72,20.81Z" style="fill:#353535"/></svg>