<svg xmlns="http://www.w3.org/2000/svg" viewBox="0 0 30 30"><title>ic_construction</title><path d="M28,6H2.45a.5.5,0,0,1-.5-.5v-3a.5.5,0,0,1,.5-.5H28a.5.5,0,0,1,.5.5v3A.5.5,0,0,1,28,6ZM3,5H27.5V3H3Z" style="fill:#363838"/><path d="M8.1,24h-3a.5.5,0,0,1-.5-.5V5.57a.5.5,0,0,1,.5-.5h3a.5.5,0,0,1,.5.5v17.9A.5.5,0,0,1,8.1,24ZM5.6,23h2V6.07h-2Z" style="fill:#363838"/><path d="M11.76,28H2.45a.5.5,0,0,1-.5-.5v-4a.5.5,0,0,1,.5-.5h9.31a.5.5,0,0,1,.5.5v4A.5.5,0,0,1,11.76,28ZM3,27h8.31V24H3Z" style="fill:#363838"/><path d="M21.12,14.92a.5.5,0,0,1-.5-.5V5.57a.5.5,0,0,1,.5-.5.5.5,0,0,1,.5.5v8.85A.51.51,0,0,1,21.12,14.92Z" style="fill:#363838"/><path d="M25,14.92H17a.51.51,0,0,1-.5-.5v-3a.5.5,0,0,1,.5-.5h8a.5.5,0,0,1,.5.5v3A.5.5,0,0,1,25,14.92Zm-7.5-1h7v-2h-7Z" style="fill:#363838"/><path d="M27.14,28H22.91a.5.5,0,0,1-.5-.5V23.33a.56.56,0,0,0-.5-.59H20.15a.56.56,0,0,0-.5.59v4.14a.5.5,0,0,1-.5.5H14.92a.5.5,0,0,1-.5-.5V17a.51.51,0,0,1,.5-.5H27.14a.5.5,0,0,1,.5.5V27.47A.5.5,0,0,1,27.14,28Zm-3.73-1h3.23V17.5H15.42V27h3.23V23.33a1.55,1.55,0,0,1,1.5-1.59h1.76a1.54,1.54,0,0,1,1.5,1.59Z" style="fill:#363838"/><path d="M28.5,28H1.5a.5.5,0,0,1,0-1h27a.5.5,0,0,1,0,1Z" style="fill:#363838"/><path d="M8.1,24a.52.52,0,0,1-.29-.09l-3-2.11a.5.5,0,0,1,0-.81L7.15,19.2,4.88,18.06a.48.48,0,0,1-.28-.39.52.52,0,0,1,.19-.45l2.32-1.8-2.2-.92a.49.49,0,0,1-.31-.4.49.49,0,0,1,.21-.46l2.4-1.73-2.38-1.5A.49.49,0,0,1,4.6,10a.53.53,0,0,1,.22-.43L7.26,7.94,4.79,6a.5.5,0,0,1,.62-.79l3,2.41A.49.49,0,0,1,8.6,8a.53.53,0,0,1-.22.4L6,10l2.35,1.48a.5.5,0,0,1,0,.83L6.12,13.92l2.17.91a.48.48,0,0,1,.3.39.48.48,0,0,1-.18.46L6,17.52l2.29,1.15a.49.49,0,0,1,.28.4.5.5,0,0,1-.2.44L6,21.35l2.44,1.71a.51.51,0,0,1,.12.7A.49.49,0,0,1,8.1,24Z" style="fill:#363838"/></svg>