<svg xmlns="http://www.w3.org/2000/svg" viewBox="0 0 36 36"><title>ic_forsale</title><path d="M22.93,21.61a.87.87,0,0,0-1.23,0l-.35.38a.85.85,0,0,0-.24.62.87.87,0,0,0,.28.61l2.4,2.27a.85.85,0,0,0,.6.23.86.86,0,0,0,.63-.27l4.18-4.43a1,1,0,0,0,0-1.41L29,19.46a.92.92,0,0,0-.71-.27,1,1,0,0,0-.7.31l-3.23,3.43Zm1.76,2.29,3.54-3.76h.1l.19.18a.06.06,0,0,1,0,.09l-4.09,4.34v.09L22,22.65l.27-.37L24,23.92a.49.49,0,0,0,.33.13A.51.51,0,0,0,24.69,23.9Z" style="fill:#fff"/><path d="M22.9,10.13H12.53A.58.58,0,0,1,12,9.55V7a.58.58,0,0,1,.58-.58H22.9a.57.57,0,0,1,.57.58V9.55A.57.57,0,0,1,22.9,10.13ZM13.11,9h9.21V7.56H13.11Z" style="fill:#fff"/><path d="M22.9,15.5H12.53a.58.58,0,0,1-.58-.58V12.36a.58.58,0,0,1,.58-.58H22.9a.57.57,0,0,1,.57.58v2.56A.57.57,0,0,1,22.9,15.5Zm-9.79-1.15h9.21V12.94H13.11Z" style="fill:#fff"/><path d="M25.37,28.15a5.69,5.69,0,0,0,1-.1V16.16a6.79,6.79,0,0,0-1-.09h-.18V28.14Z" style="fill:none"/><path d="M13.11,18.31v1.41h5.44a7.29,7.29,0,0,1,.67-1.41Z" style="fill:none"/><path d="M18.14,22.11a7.12,7.12,0,0,1,.11-1.23H12.53A.58.58,0,0,1,12,20.3V17.74a.58.58,0,0,1,.58-.58h7.58a7.21,7.21,0,0,1,5.08-2.28V4.47a.35.35,0,0,0-.35-.35H10.53a.35.35,0,0,0-.35.35v23.9a.35.35,0,0,0,.35.35H22.45A7.22,7.22,0,0,1,18.14,22.11Z" style="fill:none"/><polygon points="24.84 29.92 10.53 29.92 4.16 29.92 4.16 29.88 3.15 29.88 3.15 32.82 32.28 32.82 32.28 29.88 31.21 29.88 31.21 29.92 24.84 29.92" style="fill:none"/><path d="M31.41,22.11a6.06,6.06,0,0,0-5-5.95V28.05A6,6,0,0,0,31.41,22.11Z" style="fill:none"/><path d="M22.9,17.16a.57.57,0,0,1,.57.58V20.3a.57.57,0,0,1-.57.58H19.46a6.26,6.26,0,0,0-.12,1.23,6,6,0,0,0,5.85,6V16.08a6,6,0,0,0-3.26,1.08Z" style="fill:none"/><path d="M22.32,19.72V18.31H20.69a6,6,0,0,0-.86,1.41Z" style="fill:none"/><path d="M32.86,28.72H31.21v1.16h1.07v2.94H3.15V29.88h1V28.72H2.57A.58.58,0,0,0,2,29.3v4.1a.58.58,0,0,0,.58.58H32.86a.58.58,0,0,0,.58-.58V29.3A.58.58,0,0,0,32.86,28.72Z" style="fill:#fff"/><path d="M24.84,29.92h6.37v0h-1a.58.58,0,0,1,0-1.16H28.3a7.06,7.06,0,0,1-2.24.59A1.52,1.52,0,0,1,24.84,29.92Z" style="fill:#fff"/><path d="M5.8,29.3a.57.57,0,0,1-.57.58H4.16v0h6.37A1.55,1.55,0,0,1,9,28.72H5.23A.57.57,0,0,1,5.8,29.3Z" style="fill:#fff"/><path d="M29.62,29.3a.58.58,0,0,0,.58.58h1V28.72h-1A.58.58,0,0,0,29.62,29.3Z" style="fill:#fff"/><path d="M5.23,29.88a.58.58,0,0,0,0-1.16H4.16v1.16Z" style="fill:#fff"/><path d="M10.18,28.37V4.47a.35.35,0,0,1,.35-.35H24.84a.35.35,0,0,1,.35.35V14.88h.18a8.59,8.59,0,0,1,1,.08V4.47a1.55,1.55,0,0,0-1.55-1.55H10.53A1.55,1.55,0,0,0,9,4.47v23.9a2,2,0,0,0,0,.35h1.51A.35.35,0,0,1,10.18,28.37Z" style="fill:#fff"/><path d="M10.53,29.92H24.84a1.52,1.52,0,0,0,1.22-.61c-.22,0-.45,0-.69,0a7.15,7.15,0,0,1-2.92-.63H9A1.55,1.55,0,0,0,10.53,29.92Z" style="fill:#fff"/><path d="M18.55,19.72h1.28a6,6,0,0,1,.86-1.41H19.22A7.29,7.29,0,0,0,18.55,19.72Z" style="fill:#fff"/><path d="M20.11,17.16h1.82a6,6,0,0,1,3.26-1.08v-1.2A7.21,7.21,0,0,0,20.11,17.16Z" style="fill:#fff"/><path d="M25.19,28.37v-.23a6,6,0,0,1-5.85-6,6.26,6.26,0,0,1,.12-1.23H18.25a7.12,7.12,0,0,0-.11,1.23,7.22,7.22,0,0,0,4.31,6.61h2.39A.35.35,0,0,0,25.19,28.37Z" style="fill:#fff"/><path d="M31.41,22.11a6,6,0,0,1-5,5.94v.32a1.34,1.34,0,0,1-.05.35h2A7.23,7.23,0,0,0,26.39,15v1.21A6.06,6.06,0,0,1,31.41,22.11Z" style="fill:#fff"/><path d="M26.06,29.31a7.06,7.06,0,0,0,2.24-.59h-2A1.4,1.4,0,0,1,26.06,29.31Z" style="fill:#fff"/><path d="M25.19,14.88v1.2h.18a6.79,6.79,0,0,1,1,.09V15a8.59,8.59,0,0,0-1-.08Z" style="fill:#fff"/><path d="M25.19,28.14v.23a.35.35,0,0,1-.35.35h1.5a1.34,1.34,0,0,0,.05-.35v-.32a5.69,5.69,0,0,1-1,.1Z" style="fill:#fff"/><path d="M24.84,28.72H22.45a7.15,7.15,0,0,0,2.92.63c.24,0,.47,0,.69,0a1.4,1.4,0,0,0,.28-.59Z" style="fill:#fff"/><path d="M13.11,19.72V18.31h6.11a7.67,7.67,0,0,1,.89-1.15H12.53a.58.58,0,0,0-.58.58V20.3a.58.58,0,0,0,.58.58h5.72a7.6,7.6,0,0,1,.3-1.16Z" style="fill:#fff"/><path d="M18.55,19.72a7.6,7.6,0,0,0-.3,1.16h1.21a6.53,6.53,0,0,1,.37-1.16Z" style="fill:#fff"/><path d="M20.69,18.31a6.14,6.14,0,0,1,1.24-1.15H20.11a7.67,7.67,0,0,0-.89,1.15Z" style="fill:#fff"/></svg>