<svg xmlns="http://www.w3.org/2000/svg" viewBox="0 0 36 36"><title>ic_likehouse</title><path d="M28.89,30.89H7.54A.56.56,0,0,1,7,30.32V14.12a.56.56,0,0,1,.57-.57.57.57,0,0,1,.57.57V29.75H28.32V14.12a.57.57,0,0,1,1.14,0v16.2A.56.56,0,0,1,28.89,30.89Z" style="fill:#fff"/><path d="M28.89,14.69a.53.53,0,0,1-.34-.11l-2-1.46a.57.57,0,0,1,.67-.93l2,1.47a.57.57,0,0,1-.34,1Z" style="fill:#fff"/><path d="M30.49,15.86a.53.53,0,0,1-.34-.11l-1.6-1.17a.57.57,0,0,1-.12-.8.58.58,0,0,1,.8-.12l1.26.92,1.57-1.16L18.21,3.26,4.37,13.42l1.57,1.16,1.26-.92a.57.57,0,0,1,.68.92l-1.6,1.17a.57.57,0,0,1-.68,0L3.06,13.89a.59.59,0,0,1,0-.93L17.85,2.11A.56.56,0,0,1,18.3,2a.56.56,0,0,1,.28.1L33.36,13a.57.57,0,0,1,0,.93l-2.54,1.86A.52.52,0,0,1,30.49,15.86Z" style="fill:#fff"/><path d="M26.9,13.23a.6.6,0,0,1-.34-.11L18.21,7,9.87,13.12a.58.58,0,0,1-.8-.13.58.58,0,0,1,.12-.8l8.69-6.37a.56.56,0,0,1,.67,0l8.68,6.37a.57.57,0,0,1-.33,1Z" style="fill:#fff"/><path d="M7.54,14.69a.56.56,0,0,1-.46-.23.57.57,0,0,1,.12-.8l2-1.47a.58.58,0,0,1,.68.93l-2,1.46A.53.53,0,0,1,7.54,14.69Z" style="fill:#fff"/><path d="M33.43,34H2.57A.58.58,0,0,1,2,33.43V30.32a.57.57,0,0,1,.57-.57H33.43a.57.57,0,0,1,.57.57v3.11A.58.58,0,0,1,33.43,34ZM3.14,32.86H32.86v-2H3.14Z" style="fill:#fff"/><path d="M18.21,26.83a.74.74,0,0,1-.48-.18l-1.41-1.22h0a27.29,27.29,0,0,1-3.09-2.89,4.64,4.64,0,0,1-1.23-3,3.89,3.89,0,0,1,1-2.66,3.35,3.35,0,0,1,2.48-1.08,3.09,3.09,0,0,1,2,.68,3.63,3.63,0,0,1,.79.82,4.12,4.12,0,0,1,.79-.82,3.13,3.13,0,0,1,2-.68,3.35,3.35,0,0,1,2.48,1.08,3.89,3.89,0,0,1,1,2.66,4.64,4.64,0,0,1-1.23,3,28.18,28.18,0,0,1-3.09,2.89l-1.42,1.22A.7.7,0,0,1,18.21,26.83ZM15.47,16.5a2.61,2.61,0,0,0-2,.85,3.15,3.15,0,0,0-.79,2.16,3.92,3.92,0,0,0,1.06,2.56,25.79,25.79,0,0,0,3,2.81h0c.43.36.92.78,1.42,1.22l1.43-1.22a27.54,27.54,0,0,0,3-2.81,3.92,3.92,0,0,0,1.06-2.56,3.15,3.15,0,0,0-.79-2.16A2.63,2.63,0,0,0,21,16.5a2.45,2.45,0,0,0-1.51.52,3.52,3.52,0,0,0-.84,1,.45.45,0,0,1-.79,0A3.52,3.52,0,0,0,17,17,2.47,2.47,0,0,0,15.47,16.5Z" style="fill:#fff"/><path d="M18.21,27a.93.93,0,0,1-.61-.23l-1.38-1.19,0,0a26.49,26.49,0,0,1-3.1-2.92,4.81,4.81,0,0,1-1.28-3.15,4.1,4.1,0,0,1,1-2.79,3.54,3.54,0,0,1,2.63-1.15,3.33,3.33,0,0,1,2.08.72,3.68,3.68,0,0,1,.66.65,4.09,4.09,0,0,1,.67-.65A3.31,3.31,0,0,1,21,15.57a3.54,3.54,0,0,1,2.63,1.15,4.08,4.08,0,0,1,1,2.79,4.81,4.81,0,0,1-1.28,3.15,25.92,25.92,0,0,1-3.11,2.92L18.83,26.8A.93.93,0,0,1,18.21,27ZM15.47,16a3.15,3.15,0,0,0-2.34,1,3.69,3.69,0,0,0-.93,2.52,4.45,4.45,0,0,0,1.19,2.9,25.89,25.89,0,0,0,3.06,2.87l1.42,1.22a.53.53,0,0,0,.69,0L20,25.28A25.93,25.93,0,0,0,23,22.41a4.45,4.45,0,0,0,1.19-2.9A3.69,3.69,0,0,0,23.3,17,3.15,3.15,0,0,0,21,16a2.9,2.9,0,0,0-1.83.63,3.77,3.77,0,0,0-.75.79l-.17.22-.16-.22a3.77,3.77,0,0,0-.75-.79A2.92,2.92,0,0,0,15.47,16Zm2.74,10.4-.13-.12c-.5-.44-1-.85-1.42-1.22a27,27,0,0,1-3-2.83,4.08,4.08,0,0,1-1.11-2.69,3.39,3.39,0,0,1,.84-2.3,2.83,2.83,0,0,1,2.1-.91,2.62,2.62,0,0,1,1.63.56,3.61,3.61,0,0,1,.89,1,.27.27,0,0,0,.45,0,3.61,3.61,0,0,1,.89-1A2.62,2.62,0,0,1,21,16.3a2.79,2.79,0,0,1,2.09.91,3.35,3.35,0,0,1,.85,2.3,4.08,4.08,0,0,1-1.11,2.69,25.71,25.71,0,0,1-3,2.81l-1.45,1.24ZM15.47,16.7a2.42,2.42,0,0,0-1.8.78,3,3,0,0,0-.74,2,3.68,3.68,0,0,0,1,2.43,25.26,25.26,0,0,0,3,2.79l1.29,1.11,1.3-1.11a25.34,25.34,0,0,0,3-2.79,3.68,3.68,0,0,0,1-2.43,3,3,0,0,0-.74-2A2.43,2.43,0,0,0,21,16.7a2.21,2.21,0,0,0-1.39.48,3.32,3.32,0,0,0-.79.92.68.68,0,0,1-1.13,0,3.5,3.5,0,0,0-.79-.92A2.23,2.23,0,0,0,15.47,16.7Z" style="fill:#fff"/><path d="M28.8,10.38a.6.6,0,0,1-.6-.6V4.27H26V7.62a.6.6,0,1,1-1.2,0V3.67a.6.6,0,0,1,.6-.6H28.8a.6.6,0,0,1,.6.6V9.78A.6.6,0,0,1,28.8,10.38Z" style="fill:#fff"/></svg>