<svg xmlns="http://www.w3.org/2000/svg" viewBox="0 0 40 40"><title>ic_popup1</title><g style="opacity:0.66"><path d="M35.18,35.64s0,.09,0,.14a2.84,2.84,0,0,1-2.84,2.83H31.06a2.83,2.83,0,0,1-2.83-2.83.61.61,0,0,1,0-.14A2.84,2.84,0,0,1,30.66,33a2.58,2.58,0,0,1,.4,0h1.29A2.84,2.84,0,0,1,35.18,35.64Z" style="fill:#afcdec"/><path d="M31.1,16.85h1.29A1.12,1.12,0,0,1,33.51,18v4.7a1.12,1.12,0,0,1-1.12,1.12H31.1V16.85Z" style="fill:#aabfce"/><path d="M31.09,24.7v.08a4.07,4.07,0,0,1-.13,1H8.77a4.71,4.71,0,0,1-.13-1V16.12a5.44,5.44,0,0,1,.07-.82H31a4.39,4.39,0,0,1,.07.82V24.7Zm-4.22-5a2.42,2.42,0,1,0-2.42,2.42A2.42,2.42,0,0,0,26.87,19.72Zm-4.49,3.14h-5a2.37,2.37,0,0,0,2.52,1.86A2.37,2.37,0,0,0,22.38,22.86ZM17.6,19.72a2.42,2.42,0,1,0-2.43,2.42A2.43,2.43,0,0,0,17.6,19.72Z" style="fill:#d1e0ed"/><path d="M19.87,22.86h2.51a2.37,2.37,0,0,1-2.51,1.86,2.37,2.37,0,0,1-2.52-1.86Z" style="fill:#d1e0ed"/><path d="M31,15.3H8.71a4,4,0,0,1,3.85-3.41H27.18A4,4,0,0,1,31,15.3Z" style="fill:#aabfce"/><path d="M8.77,25.77H31a4.11,4.11,0,0,1-2.73,3,3.71,3.71,0,0,1-1.05.16H12.56a3.6,3.6,0,0,1-1.05-.16A4.12,4.12,0,0,1,8.77,25.77Z" style="fill:#aabfce"/><path d="M11.51,28.78a3.6,3.6,0,0,0,1.05.16H27.18a3.71,3.71,0,0,0,1.05-.16,7.79,7.79,0,0,1,1.9,2.57l-.08,0H9.6A7.51,7.51,0,0,1,11.51,28.78Z" style="fill:#d1e0ed"/><circle cx="24.45" cy="19.72" r="1.37" style="fill:#254254"/><path d="M24.45,18.35a1.37,1.37,0,1,0,1.37,1.37A1.37,1.37,0,0,0,24.45,18.35Zm0,3.79a2.42,2.42,0,1,1,2.42-2.42A2.42,2.42,0,0,1,24.45,22.14Z" style="fill:#fff"/><path d="M21.68,8.91a3.16,3.16,0,0,1,3.15,3H14.9a3.17,3.17,0,0,1,3.15-3h3.63Z" style="fill:#d1e0ed"/><path d="M19.2,5.43a1.89,1.89,0,1,1,1.34,0,1.92,1.92,0,0,1-.68.14A1.86,1.86,0,0,1,19.2,5.43Z" style="fill:#afcdec"/><path d="M19.2,5.43a1.86,1.86,0,0,0,.66.14,1.92,1.92,0,0,0,.68-.14s0,.07,0,.11V8.91H19.18V5.54A.43.43,0,0,1,19.2,5.43Z" style="fill:#aabfce"/><path d="M15.17,18.35a1.37,1.37,0,1,1-1.37,1.37A1.37,1.37,0,0,1,15.17,18.35Z" style="fill:#254254"/><path d="M15.17,21.09a1.37,1.37,0,1,0-1.37-1.37A1.37,1.37,0,0,0,15.17,21.09Zm0-3.79a2.42,2.42,0,1,1-2.42,2.42A2.42,2.42,0,0,1,15.17,17.3Z" style="fill:#fff"/><path d="M4.82,35.64a2.83,2.83,0,0,1,2.82-2.7H8.93l.15,0a2.82,2.82,0,0,1,2.68,2.68s0,.09,0,.14a2.84,2.84,0,0,1-2.84,2.83H7.64a2.83,2.83,0,0,1-2.83-2.83A.61.61,0,0,1,4.82,35.64Z" style="fill:#afcdec"/><path d="M11.76,35.64A2.82,2.82,0,0,0,9.08,33a6.87,6.87,0,0,1,.51-1.57H30.05l.08,0A8.18,8.18,0,0,1,30.66,33a2.84,2.84,0,0,0-2.42,2.66Z" style="fill:#829aae"/><path d="M8.64,17.26v6.53H7.56a1.12,1.12,0,0,1-1.12-1.12V18a1.12,1.12,0,0,1,1.12-1.12H8.64Z" style="fill:#aabfce"/><path d="M15.17,22.37a2.65,2.65,0,1,1,2.66-2.65A2.65,2.65,0,0,1,15.17,22.37Zm0-4.84a2.19,2.19,0,1,0,2.2,2.19A2.19,2.19,0,0,0,15.17,17.53Z" style="fill:#254254"/><path d="M31,15.61H8.71a.31.31,0,0,1,0-.62H31a.31.31,0,1,1,0,.62Z" style="fill:#254254"/><path d="M31,26.08H8.77a.33.33,0,0,1-.33-.31.28.28,0,0,1,.27-.31H31a.34.34,0,0,1,.34.31A.29.29,0,0,1,31,26.08Z" style="fill:#254254"/><path d="M31.09,24.1a.3.3,0,0,1-.3-.31V17.26a.31.31,0,1,1,.61,0v6.53A.31.31,0,0,1,31.09,24.1Z" style="fill:#254254"/><path d="M31.09,25.08a.29.29,0,0,1-.3-.3v-1a.31.31,0,0,1,.61,0v1A.3.3,0,0,1,31.09,25.08Z" style="fill:#254254"/><path d="M8.64,17.16a.31.31,0,0,1-.31-.31v-.73a5.12,5.12,0,0,1,.08-.87,4.34,4.34,0,0,1,4.15-3.67H14.9a.31.31,0,0,1,.31.31.3.3,0,0,1-.31.3H12.56A3.72,3.72,0,0,0,9,15.36a3.91,3.91,0,0,0-.07.76v.73A.31.31,0,0,1,8.64,17.16Z" style="fill:#254254"/><path d="M8.64,17.57a.31.31,0,0,1-.31-.31v-.41a.31.31,0,1,1,.62,0v.41A.31.31,0,0,1,8.64,17.57Z" style="fill:#254254"/><path d="M31.09,17.16a.3.3,0,0,1-.3-.31v-.73a5.12,5.12,0,0,0-.07-.77,3.72,3.72,0,0,0-3.54-3.16H24.83a.29.29,0,0,1-.3-.3.3.3,0,0,1,.3-.31h2.35a4.35,4.35,0,0,1,4.15,3.66,5.3,5.3,0,0,1,.07.88v.73A.31.31,0,0,1,31.09,17.16Z" style="fill:#254254"/><path d="M31.09,17.57a.3.3,0,0,1-.3-.31v-.41a.31.31,0,1,1,.61,0v.41A.31.31,0,0,1,31.09,17.57Z" style="fill:#254254"/><path d="M8.64,24.1a.31.31,0,0,1-.31-.31V17.26a.31.31,0,1,1,.62,0v6.53A.31.31,0,0,1,8.64,24.1Z" style="fill:#254254"/><path d="M8.64,25.08a.3.3,0,0,1-.31-.3v-1a.31.31,0,0,1,.62,0v1A.3.3,0,0,1,8.64,25.08Z" style="fill:#254254"/><path d="M24.83,12.19H14.9a.3.3,0,0,1-.31-.3.31.31,0,0,1,.31-.31h9.93a.31.31,0,0,1,.31.31A.3.3,0,0,1,24.83,12.19Z" style="fill:#254254"/><path d="M28.23,29.09a.32.32,0,0,1-.3-.22.32.32,0,0,1,.21-.39,3.77,3.77,0,0,0,2.52-2.78,4.25,4.25,0,0,0,.13-.93.3.3,0,0,1,.3-.3h0a.3.3,0,0,1,.3.31,4.3,4.3,0,0,1-.14,1.07,4.39,4.39,0,0,1-2.94,3.22Z" style="fill:#254254"/><path d="M27.18,29.25H12.56a3.72,3.72,0,0,1-1.14-.18.31.31,0,0,1-.21-.39.31.31,0,0,1,.39-.2,3.2,3.2,0,0,0,1,.15H27.18a3.2,3.2,0,0,0,1-.15.3.3,0,0,1,.38.2.31.31,0,0,1-.2.39A3.77,3.77,0,0,1,27.18,29.25Z" style="fill:#254254"/><path d="M11.51,29.09l-.09,0a4.42,4.42,0,0,1-2.95-3.23,5.4,5.4,0,0,1-.14-1.06.31.31,0,0,1,.31-.31.31.31,0,0,1,.31.3,5,5,0,0,0,.12.93,3.78,3.78,0,0,0,2.53,2.78.31.31,0,0,1-.09.61Z" style="fill:#254254"/><path d="M14.9,12.19h0a.3.3,0,0,1-.29-.32A3.47,3.47,0,0,1,18.05,8.6h1.13a.31.31,0,0,1,.31.31.3.3,0,0,1-.31.3H18.05a2.86,2.86,0,0,0-2.84,2.69A.31.31,0,0,1,14.9,12.19Z" style="fill:#254254"/><path d="M24.83,12.19a.3.3,0,0,1-.3-.29,2.87,2.87,0,0,0-2.85-2.69H20.56a.3.3,0,0,1-.31-.3.31.31,0,0,1,.31-.31h1.12a3.47,3.47,0,0,1,3.46,3.27.3.3,0,0,1-.29.32Z" style="fill:#254254"/><path d="M20.56,9.21H19.18a.3.3,0,0,1-.31-.3.31.31,0,0,1,.31-.31h1.38a.31.31,0,0,1,.31.31A.3.3,0,0,1,20.56,9.21Z" style="fill:#254254"/><path d="M8.64,24.1H7.56a1.43,1.43,0,0,1-1.43-1.43V18a1.43,1.43,0,0,1,1.43-1.43H8.64a.31.31,0,0,1,0,.62H7.56a.81.81,0,0,0-.81.81v4.7a.83.83,0,0,0,.81.82H8.64a.3.3,0,0,1,.31.3A.31.31,0,0,1,8.64,24.1Z" style="fill:#254254"/><path d="M32.39,24.1h-1.3a.3.3,0,0,1-.3-.31.29.29,0,0,1,.3-.3h1.3a.83.83,0,0,0,.81-.82V18a.81.81,0,0,0-.81-.81h-1.3a.31.31,0,0,1,0-.62h1.3A1.44,1.44,0,0,1,33.82,18v4.7A1.44,1.44,0,0,1,32.39,24.1Z" style="fill:#254254"/><path d="M20.56,9.21a.3.3,0,0,1-.31-.3V5.54a.32.32,0,0,1,.24-.38.28.28,0,0,1,.35.22.57.57,0,0,1,0,.16V8.91A.3.3,0,0,1,20.56,9.21Z" style="fill:#254254"/><path d="M19.18,9.21a.3.3,0,0,1-.31-.3V5.54a.41.41,0,0,1,0-.14.34.34,0,0,1,.37-.25.29.29,0,0,1,.24.33V8.91A.3.3,0,0,1,19.18,9.21Z" style="fill:#254254"/><path d="M20.54,5.74a.3.3,0,0,1-.29-.2.31.31,0,0,1,.18-.4,1.59,1.59,0,1,0-1.12,0,.31.31,0,0,1,.18.4.31.31,0,0,1-.4.18,2.19,2.19,0,1,1,1.56,0A.23.23,0,0,1,20.54,5.74Z" style="fill:#254254"/><path d="M19.86,5.87a2.23,2.23,0,0,1-.77-.15.3.3,0,0,1-.18-.39.32.32,0,0,1,.4-.19,1.41,1.41,0,0,0,1.12,0,.32.32,0,0,1,.4.19.31.31,0,0,1-.18.39A2.3,2.3,0,0,1,19.86,5.87Z" style="fill:#254254"/><path d="M4.82,36h0a.31.31,0,0,1-.29-.33,3.14,3.14,0,0,1,3.13-3H8.93l.19,0a.3.3,0,0,1,.26.35.31.31,0,0,1-.35.26H7.64a2.52,2.52,0,0,0-2.51,2.4A.32.32,0,0,1,4.82,36Z" style="fill:#254254"/><path d="M11.76,36a.31.31,0,0,1-.31-.3,2.52,2.52,0,0,0-2.39-2.39.3.3,0,0,1-.29-.32.29.29,0,0,1,.32-.29,3.13,3.13,0,0,1,3,3,.32.32,0,0,1-.3.33Z" style="fill:#254254"/><path d="M8.93,38.92H7.64A3.15,3.15,0,0,1,4.5,35.78a1.21,1.21,0,0,1,0-.19.33.33,0,0,1,.35-.26.31.31,0,0,1,.26.35s0,.06,0,.1A2.53,2.53,0,0,0,7.64,38.3H8.93a2.52,2.52,0,0,0,2.53-2.52.82.82,0,0,1,0-.14.31.31,0,0,1,.62,0,.76.76,0,0,1,0,.14A3.15,3.15,0,0,1,8.93,38.92Zm3.14-3.28Z" style="fill:#254254"/><path d="M28.24,36H11.76a.31.31,0,0,1,0-.62H28.24a.31.31,0,0,1,0,.62Z" style="fill:#254254"/><path d="M30.66,33.29a.31.31,0,0,1-.3-.25,8.14,8.14,0,0,0-.51-1.56A7.47,7.47,0,0,0,28,29a.31.31,0,0,1,0-.44.29.29,0,0,1,.43,0,8,8,0,0,1,2,2.68A7.61,7.61,0,0,1,31,32.92a.29.29,0,0,1-.24.36Z" style="fill:#254254"/><path d="M9.6,31.7a.31.31,0,0,1-.13,0,.33.33,0,0,1-.16-.41,8.1,8.1,0,0,1,2-2.71.31.31,0,0,1,.44,0,.31.31,0,0,1,0,.44,7.31,7.31,0,0,0-1.83,2.5A.3.3,0,0,1,9.6,31.7Z" style="fill:#254254"/><path d="M9.08,33.26H9a.32.32,0,0,1-.24-.37,7.43,7.43,0,0,1,.54-1.63.3.3,0,0,1,.41-.15.3.3,0,0,1,.15.41A6.59,6.59,0,0,0,9.38,33,.31.31,0,0,1,9.08,33.26Z" style="fill:#254254"/><path d="M32.35,38.92H31.06a3.15,3.15,0,0,1-3.14-3.14c0-.06,0-.12,0-.18a.32.32,0,0,1,.35-.26.3.3,0,0,1,.27.34h0a.28.28,0,0,0,0,.09,2.52,2.52,0,0,0,2.52,2.52h1.29a2.53,2.53,0,0,0,2.54-2.52c0-.07,0-.11,0-.14a.31.31,0,0,1,.62,0,.76.76,0,0,1,0,.14A3.15,3.15,0,0,1,32.35,38.92Z" style="fill:#254254"/><path d="M35.18,36a.32.32,0,0,1-.31-.3,2.53,2.53,0,0,0-2.52-2.4H31.06a2,2,0,0,0-.35,0,.32.32,0,0,1-.36-.26.31.31,0,0,1,.26-.35,2.3,2.3,0,0,1,.45,0h1.29a3.16,3.16,0,0,1,3.14,3,.31.31,0,0,1-.29.33Z" style="fill:#254254"/><path d="M28.24,36h0a.32.32,0,0,1-.3-.33,3.14,3.14,0,0,1,2.69-2.94.31.31,0,0,1,.35.26.32.32,0,0,1-.27.35,2.51,2.51,0,0,0-2.15,2.36A.31.31,0,0,1,28.24,36Z" style="fill:#254254"/><path d="M30.05,31.7H9.6a.31.31,0,0,1-.31-.31.3.3,0,0,1,.3-.31H30.05a.31.31,0,1,1,0,.62Z" style="fill:#254254"/><path d="M15,15.89a.43.43,0,0,0-.55.29c-.39,1.25-2.3,1.5-2.32,1.5a.44.44,0,0,0-.38.49.43.43,0,0,0,.43.39h.05c.11,0,2.5-.31,3.06-2.11A.44.44,0,0,0,15,15.89Z" style="fill:#254254"/><path d="M27.58,17.86s-1.93-.25-2.32-1.5a.44.44,0,0,0-.84.26,3.35,3.35,0,0,0,.21.47l-.18,0a2.65,2.65,0,1,0,2.4,1.53,6.41,6.41,0,0,0,.63.14h.05a.44.44,0,0,0,0-.88Zm-.94,1.86a2.19,2.19,0,1,1-2.19-2.19,2.27,2.27,0,0,1,.59.09,3.54,3.54,0,0,0,1.11.74A2.15,2.15,0,0,1,26.64,19.72Z" style="fill:#254254"/></g><path d="M18.09,23.79a2.49,2.49,0,0,1,3.82,0" style="fill:none;stroke:#254254;stroke-linecap:round;stroke-miterlimit:10;opacity:0.66"/></svg>