<svg xmlns="http://www.w3.org/2000/svg" viewBox="0 0 46 46"><title>ic_placemarker</title><circle cx="23" cy="23" r="21" style="fill:#f7f7f7"/><path d="M23,44.75A21.75,21.75,0,1,1,44.75,23,21.78,21.78,0,0,1,23,44.75Zm0-42A20.25,20.25,0,1,0,43.25,23,20.27,20.27,0,0,0,23,2.75Z" style="fill:#e83942"/><path d="M28.25,21.11A5.25,5.25,0,1,0,23,26.36,5.25,5.25,0,0,0,28.25,21.11ZM23,14.5a6.61,6.61,0,1,1-6.6,6.61A6.61,6.61,0,0,1,23,14.5Z" style="fill:#353535"/><path d="M29.61,21.11A6.61,6.61,0,1,0,23,27.71,6.61,6.61,0,0,0,29.61,21.11Zm-15,4.74a10,10,0,0,1-1.17-4.74V21a10,10,0,0,1,2.84-6.88A9.38,9.38,0,0,1,23,11.27a9.7,9.7,0,0,1,9.53,9.85,10,10,0,0,1-1.35,5v0h0c-2.31,4.6-6.93,7.66-8.18,8.42-1.28-.78-6.09-4-8.34-8.73a0,0,0,0,0,0,0Z" style="fill:#ff7171"/><path d="M22.63,36c-.26-.15-6.43-3.62-9.22-9.52h0a11.7,11.7,0,0,1-1.32-5.39s0-.1,0-.11h0v-.19s0-.09,0-.12A11.11,11.11,0,0,1,23,9.88,11.1,11.1,0,0,1,33.92,21.12a11.49,11.49,0,0,1-1.51,5.7h0a0,0,0,0,1,0,0c-2.87,5.68-8.81,9-9,9.17a.69.69,0,0,1-.34.09h0A.72.72,0,0,1,22.63,36Zm-8-10.14c2.25,4.77,7.06,8,8.34,8.73,1.25-.76,5.87-3.82,8.18-8.42h0v0a10,10,0,0,0,1.35-5A9.7,9.7,0,0,0,23,11.27a9.38,9.38,0,0,0-6.69,2.85A10,10,0,0,0,13.47,21v.11a10,10,0,0,0,1.17,4.74v0A0,0,0,0,1,14.65,25.89Z" style="fill:#353535"/><path d="M29,36.87H17a.75.75,0,1,1,0-1.5H29a.75.75,0,1,1,0,1.5Z" style="fill:#003535"/><polygon points="23 18.73 23.77 20.3 25.5 20.55 24.25 21.76 24.55 23.48 23 22.67 21.45 23.48 21.75 21.76 20.5 20.55 22.23 20.3 23 18.73" style="fill:#ffc973"/><path d="M24.55,24a.52.52,0,0,1-.24-.05L23,23.24l-1.31.69A.5.5,0,0,1,21,23.4l.25-1.46-1.06-1a.51.51,0,0,1-.13-.51.51.51,0,0,1,.41-.34l1.47-.21.65-1.33a.52.52,0,0,1,.9,0l.65,1.33,1.47.21a.51.51,0,0,1,.41.34.51.51,0,0,1-.13.51l-1.06,1L25,23.4a.51.51,0,0,1-.2.49A.52.52,0,0,1,24.55,24Zm-3-3.08.53.51a.48.48,0,0,1,.14.44l-.12.72.65-.34a.47.47,0,0,1,.46,0l.65.34-.12-.72a.48.48,0,0,1,.14-.44l.53-.51-.73-.11a.53.53,0,0,1-.38-.27L23,19.86l-.32.66a.53.53,0,0,1-.38.27Z" style="fill:#353535"/></svg>