<svg xmlns="http://www.w3.org/2000/svg" viewBox="0 0 36 36"><title>ic_robot</title><path d="M13.55,16.26a1,1,0,1,0,.95.95A1,1,0,0,0,13.55,16.26Z" style="fill:none"/><path d="M23.08,7.47a.41.41,0,0,0-.41-.41H14.05a.42.42,0,0,0-.42.41V9.24h9.45Z" style="fill:none"/><path d="M4.55,14.87v7.37a.42.42,0,0,0,.41.41h1V14.46H5A.42.42,0,0,0,4.55,14.87Z" style="fill:none"/><path d="M18.37,21.74H15.92a1.36,1.36,0,0,0,.29.43,3,3,0,0,0,2.16.67,3,3,0,0,0,2.16-.67,1.36,1.36,0,0,0,.29-.43H18.37Z" style="fill:none"/><path d="M11.24,27.86a10,10,0,0,0-2.74,5.8H28.34a10,10,0,0,0-2.73-5.8Z" style="fill:none"/><path d="M31.89,14.46H31v8.19h.86a.42.42,0,0,0,.41-.41V14.87A.42.42,0,0,0,31.89,14.46Z" style="fill:none"/><path d="M29.23,10.58H7.73a.47.47,0,0,0-.46.47v15a.47.47,0,0,0,.46.47h21.5a.47.47,0,0,0,.46-.47v-15A.47.47,0,0,0,29.23,10.58Zm-18,6.63a2.29,2.29,0,1,1,2.29,2.29A2.29,2.29,0,0,1,11.26,17.21ZM21.49,23a4.12,4.12,0,0,1-3.12,1.09A4.12,4.12,0,0,1,15.25,23a2.85,2.85,0,0,1-.77-2,.65.65,0,0,1,.65-.61h6.48a.65.65,0,0,1,.65.61A2.85,2.85,0,0,1,21.49,23Zm1.8-3.54a2.29,2.29,0,1,1,2.29-2.29A2.29,2.29,0,0,1,23.29,19.5Z" style="fill:none"/><path d="M23.29,16.26a1,1,0,1,0,.95.95A1,1,0,0,0,23.29,16.26Z" style="fill:none"/><path d="M31.89,13.12H31V11.05a1.81,1.81,0,0,0-1.8-1.81H24.42V7.47a1.75,1.75,0,0,0-1.75-1.75H14.05A1.75,1.75,0,0,0,12.3,7.47V9.24H7.73a1.81,1.81,0,0,0-1.8,1.81v2.07H5a1.75,1.75,0,0,0-1.75,1.75v7.37A1.75,1.75,0,0,0,5,24h1v2.07a1.81,1.81,0,0,0,1.8,1.8H9.47A11.4,11.4,0,0,0,7.1,34.3v0h0s0,.07,0,.1a.8.8,0,0,0,0,.15l.06.1a1,1,0,0,0,.08.11l.1.08.11.07a.53.53,0,0,0,.12,0l.12,0H29.1a.42.42,0,0,0,.12,0,.61.61,0,0,0,.13,0l.1-.07.11-.08a.41.41,0,0,0,.07-.11.33.33,0,0,0,.06-.1.8.8,0,0,0,0-.15.3.3,0,0,0,0-.1h0v0a11.26,11.26,0,0,0-2.37-6.44h1.86a1.81,1.81,0,0,0,1.8-1.8V24h.86a1.76,1.76,0,0,0,1.75-1.75V14.87A1.75,1.75,0,0,0,31.89,13.12Zm-26,9.53H5a.42.42,0,0,1-.41-.41V14.87A.42.42,0,0,1,5,14.46h1Zm7.7-15.18a.42.42,0,0,1,.42-.41h8.62a.41.41,0,0,1,.41.41V9.24H13.63ZM28.34,33.66H8.5a10,10,0,0,1,2.74-5.8H25.61A10,10,0,0,1,28.34,33.66Zm1.35-19.87V26.06a.47.47,0,0,1-.46.47H7.73a.47.47,0,0,1-.46-.47v-15a.47.47,0,0,1,.46-.47h21.5a.47.47,0,0,1,.46.47Zm2.61,8.45a.42.42,0,0,1-.41.41H31V14.46h.86a.42.42,0,0,1,.41.41Z" style="fill:#fff"/><path d="M15.84,17.21a2.29,2.29,0,1,0-2.29,2.29A2.29,2.29,0,0,0,15.84,17.21Zm-2.29,1a1,1,0,1,1,.95-1A1,1,0,0,1,13.55,18.17Z" style="fill:#fff"/><path d="M23.29,14.93a2.29,2.29,0,1,0,2.29,2.28A2.29,2.29,0,0,0,23.29,14.93Zm0,3.24a1,1,0,1,1,.95-1A1,1,0,0,1,23.29,18.17Z" style="fill:#fff"/><path d="M21.61,20.44H15.13a.65.65,0,0,0-.65.61,2.85,2.85,0,0,0,.77,2,4.12,4.12,0,0,0,3.12,1.09A4.12,4.12,0,0,0,21.49,23a2.85,2.85,0,0,0,.77-2A.65.65,0,0,0,21.61,20.44Zm-1.08,1.73a3,3,0,0,1-2.16.67,3,3,0,0,1-2.16-.67,1.36,1.36,0,0,1-.29-.43h4.9A1.36,1.36,0,0,1,20.53,22.17Z" style="fill:#fff"/><path d="M19.49,1H17.35a1.58,1.58,0,1,0,0,3.15h.42V5.72H19V4.14h.52a1.58,1.58,0,1,0,0-3.15Zm0,2H17.35A.38.38,0,0,1,17,2.57a.38.38,0,0,1,.38-.38h2.14a.38.38,0,1,1,0,.75Z" style="fill:#fff"/></svg>