<svg xmlns="http://www.w3.org/2000/svg" viewBox="0 0 30 30"><title>ic_room_number</title><path d="M27.5,28H2.5a.5.5,0,0,1-.5-.5v-25A.5.5,0,0,1,2.5,2h25a.5.5,0,0,1,.5.5v25A.5.5,0,0,1,27.5,28ZM3,27H27V3H3Z" style="fill:#363838"/><path d="M27.5,15.52H10.6a.5.5,0,0,1-.5-.5V2.52a.51.51,0,0,1,.5-.5.5.5,0,0,1,.5.5v12H27.5a.5.5,0,0,1,.5.5A.5.5,0,0,1,27.5,15.52Z" style="fill:#363838"/><path d="M19.05,28a.5.5,0,0,1-.5-.5V17.83a.5.5,0,0,1,.5-.5.5.5,0,0,1,.5.5v9.69A.5.5,0,0,1,19.05,28Z" style="fill:#363838"/><path d="M14.52,24.06H2.85a.5.5,0,0,1-.5-.5.5.5,0,0,1,.5-.5H14.52a.5.5,0,0,1,.5.5A.5.5,0,0,1,14.52,24.06Z" style="fill:#363838"/><path d="M18.62,11.54a.52.52,0,0,1-.35-.14L15.39,8.62a.5.5,0,0,1,.7-.72l2.48,2.4L22.7,5.07A.52.52,0,0,1,23.41,5a.5.5,0,0,1,.08.7L19,11.35a.52.52,0,0,1-.36.19Z" style="fill:#363838"/><path d="M6.05,15.56H2.5a.5.5,0,0,1-.5-.5V5.31a.5.5,0,0,1,.5-.5H6.05a.5.5,0,0,1,.5.5v9.75A.5.5,0,0,1,6.05,15.56Zm-3-1H5.55V5.81H3Z" style="fill:#363838"/></svg>