<svg xmlns="http://www.w3.org/2000/svg" viewBox="0 0 46 46"><title>ic_save</title><circle cx="23" cy="22.95" r="21" style="fill:#f7f7f7"/><path d="M23,44.7A21.75,21.75,0,1,1,44.75,23,21.78,21.78,0,0,1,23,44.7Zm0-42A20.25,20.25,0,1,0,43.25,23,20.27,20.27,0,0,0,23,2.7Z" style="fill:#e83942"/><path d="M30.74,24.07H15.26a.87.87,0,0,0-.88.88v8.36H12.64V12.58h3.84v6.15a.89.89,0,0,0,.9.88H28.62a.89.89,0,0,0,.9-.88V13.84l3.85,3.84V33.31H31.62V25A.87.87,0,0,0,30.74,24.07Z" style="fill:#ff7171"/><rect x="15.66" y="25.49" width="14.67" height="7.81" style="fill:#f7f7f7"/><rect x="17.59" y="12.58" width="10.81" height="5.97" style="fill:#f7f7f7"/><path d="M28.4,12.58H17.59v6H28.4ZM15.66,25.49v7.82H30.34V25.49Zm18,9H12.35a.85.85,0,0,1-.85-.84V12.28a.85.85,0,0,1,.85-.84h16a.86.86,0,0,1,.6.25L34.25,17a.82.82,0,0,1,.25.6v16A.85.85,0,0,1,33.66,34.45ZM16.48,12.58H12.64V33.31h1.74V25a.87.87,0,0,1,.88-.88H30.74a.87.87,0,0,1,.88.88v8.36h1.75V17.68l-3.85-3.84v4.89a.89.89,0,0,1-.9.88H17.38a.89.89,0,0,1-.9-.88Z" style="fill:#383838"/><path d="M34.25,17l-5.32-5.33a.86.86,0,0,0-.6-.25h-16a.85.85,0,0,0-.85.84V33.61a.85.85,0,0,0,.85.84H33.66a.85.85,0,0,0,.84-.84v-16A.82.82,0,0,0,34.25,17Z" style="fill:none;stroke:#353535;stroke-miterlimit:10;stroke-width:0.25px"/><rect x="17.59" y="12.58" width="10.81" height="5.97" style="fill:none;stroke:#353535;stroke-miterlimit:10;stroke-width:0.25px"/><rect x="15.66" y="25.49" width="14.67" height="7.81" style="fill:none;stroke:#353535;stroke-miterlimit:10;stroke-width:0.25px"/><path d="M33.37,33.31H31.62V25a.87.87,0,0,0-.88-.88H15.26a.87.87,0,0,0-.88.88v8.36H12.64V12.58h3.84v6.15a.89.89,0,0,0,.9.88H28.62a.89.89,0,0,0,.9-.88V13.84l3.85,3.84Z" style="fill:none;stroke:#353535;stroke-miterlimit:10;stroke-width:0.25px"/><polygon points="23 27.12 23.77 28.68 25.5 28.94 24.25 30.16 24.55 31.88 23 31.06 21.45 31.88 21.75 30.16 20.5 28.94 22.23 28.68 23 27.12" style="fill:#ffc973"/><path d="M24.54,32.38a.53.53,0,0,1-.23-.06L23,31.63l-1.31.69a.5.5,0,0,1-.73-.53l.25-1.46-1.06-1a.51.51,0,0,1-.13-.51.51.51,0,0,1,.41-.34l1.47-.21.65-1.33a.52.52,0,0,1,.9,0l.65,1.33,1.47.21a.51.51,0,0,1,.41.34.51.51,0,0,1-.13.51l-1.06,1L25,31.79a.51.51,0,0,1-.2.49A.54.54,0,0,1,24.54,32.38ZM23,30.56a.46.46,0,0,1,.23.06l.65.34-.12-.72a.48.48,0,0,1,.14-.44l.53-.51-.73-.11a.53.53,0,0,1-.38-.27L23,28.25l-.32.66a.53.53,0,0,1-.38.27l-.73.11.53.51a.48.48,0,0,1,.14.44l-.12.72.65-.34A.46.46,0,0,1,23,30.56Z" style="fill:#353535"/></svg>