<svg xmlns="http://www.w3.org/2000/svg" viewBox="0 0 161 100"><title>img_ai</title><g style="opacity:0.66"><g style="opacity:0.6"><rect x="43.41" y="23.85" width="70.09" height="0.8" transform="translate(-2.87 12.88) rotate(-9.22)" style="fill:#778891"/></g><g style="opacity:0.7000000000000001"><path d="M128.69,19.94a8,8,0,1,1-8-8A8,8,0,0,1,128.69,19.94Z" style="fill:#798a93"/></g><g style="opacity:0.7000000000000001"><circle cx="148.08" cy="46.12" r="9.69" style="fill:#798a93"/></g><g style="opacity:0.7000000000000001"><circle cx="23.34" cy="81.41" r="7.98" style="fill:#798a93"/></g><path d="M27.06,84.34h-.55V81.2a3.2,3.2,0,0,0-2.39-3.08.92.92,0,0,0,.15-.51,1,1,0,1,0-1.92,0,1,1,0,0,0,.15.5,3.2,3.2,0,0,0-2.4,3.09v3.14h-.47a.32.32,0,0,0-.32.32.32.32,0,0,0,.32.32h2.18a1.59,1.59,0,0,0,3.09,0h2.16a.32.32,0,0,0,.32-.32A.33.33,0,0,0,27.06,84.34Zm-3.75-7a.32.32,0,0,1,.32.32.32.32,0,1,1-.64,0A.32.32,0,0,1,23.31,77.29Zm0,1.36a2.55,2.55,0,0,1,2.55,2.55v3.14H20.74V81.2A2.57,2.57,0,0,1,23.31,78.65Zm.05,6.89a1,1,0,0,1-.87-.56h1.73A1,1,0,0,1,23.36,85.54Z" style="fill:#fff"/><g style="opacity:0.7000000000000001"><circle cx="137.24" cy="78.01" r="7.98" style="fill:#798a93"/></g><path d="M137.24,81.9a.7.7,0,0,1-.48-.18l-.62-.54-.31-.26a15.6,15.6,0,0,1-1.78-1.68,3,3,0,0,1-.8-2,2.57,2.57,0,0,1,.66-1.77,2.27,2.27,0,0,1,3-.27,2.61,2.61,0,0,1,.31.27,1.93,1.93,0,0,1,.3-.27,2.28,2.28,0,0,1,3,.27,2.62,2.62,0,0,1,.66,1.77,3.06,3.06,0,0,1-.8,2A16.56,16.56,0,0,1,138.55,81l-.12.11-.73.62A.69.69,0,0,1,137.24,81.9Zm-.86-1.23.11.1c.2.17.42.35.64.55a.17.17,0,0,0,.21,0l.73-.63.12-.1a15.61,15.61,0,0,0,1.82-1.7,2.52,2.52,0,0,0,.67-1.64,2,2,0,0,0-.52-1.4,1.71,1.71,0,0,0-2.28-.21,1.91,1.91,0,0,0-.42.43l-.22.31-.22-.31a2.15,2.15,0,0,0-.42-.43,1.72,1.72,0,0,0-2.29.21,2.07,2.07,0,0,0-.52,1.4,2.54,2.54,0,0,0,.68,1.64,15.42,15.42,0,0,0,1.81,1.7Z" style="fill:#fff"/><path d="M148.08,47.47A2.45,2.45,0,1,1,150.53,45,2.45,2.45,0,0,1,148.08,47.47Zm0-4.32A1.87,1.87,0,1,0,150,45,1.87,1.87,0,0,0,148.08,43.15Z" style="fill:#fff"/><path d="M152,47.72a4.87,4.87,0,0,0,.63-2.38,4.56,4.56,0,1,0-9.11-.18.43.43,0,0,0,0,.05v.08h0v.05a4.87,4.87,0,0,0,.56,2.25h0a10.17,10.17,0,0,0,3.85,4,.23.23,0,0,0,.14,0h0a.23.23,0,0,0,.14,0A10.22,10.22,0,0,0,152,47.73h0ZM148.08,51a9.48,9.48,0,0,1-3.48-3.64h0a4.21,4.21,0,0,1-.49-2v0h0a4,4,0,1,1,7.95.05,4.18,4.18,0,0,1-.56,2.1h0A9.57,9.57,0,0,1,148.08,51Z" style="fill:#fff"/><path d="M125.19,19.63l-1.4-1.24V16.47a.49.49,0,0,0-.48-.48h-.48a.48.48,0,0,0-.48.48v.64l-1.48-1.32a.24.24,0,0,0-.32,0l-4.32,3.84a.25.25,0,0,0-.06.27.23.23,0,0,0,.22.15h1.08v3.62a.49.49,0,0,0,.48.48h1.8a.24.24,0,0,0,.24-.24V21.75h1.44v2.16a.24.24,0,0,0,.24.24h1.8a.49.49,0,0,0,.48-.48V20.05H125a.23.23,0,0,0,.22-.15A.25.25,0,0,0,125.19,19.63Zm-1.48-.06a.24.24,0,0,0-.24.24v3.86h-1.56V21.75a.48.48,0,0,0-.48-.48H120a.48.48,0,0,0-.48.48v1.92H118V19.81a.24.24,0,0,0-.24-.24H117l3.69-3.28,1.72,1.53,0,0,0,0h.19l0,0,0,0h0l0,0,0,0a.13.13,0,0,0,0-.06s0,0,0,0V16.47h.48v1.92h0a.07.07,0,0,0,0,.05s0,0,0,0,0,0,0,0a.09.09,0,0,1,0,0l0,0,0,0h0l1,.91Z" style="fill:#fff"/><g style="opacity:0.7000000000000001"><circle cx="29.22" cy="20.1" r="7.98" style="fill:#798a93"/></g><path d="M29.51,24.66h-.57a.84.84,0,0,1-.84-.84v-.2a3.23,3.23,0,0,1-.58-.24l-.13.14a.84.84,0,0,1-1.19,0l-.4-.4a.83.83,0,0,1,0-1.19l.13-.14a3.57,3.57,0,0,1-.23-.57h-.2a.85.85,0,0,1-.84-.84v-.57A.85.85,0,0,1,25.5,19h.2a3.57,3.57,0,0,1,.23-.57l-.13-.14a.83.83,0,0,1,0-1.19l.4-.4a.85.85,0,0,1,1.19,0l.13.14a3.23,3.23,0,0,1,.58-.24v-.19a.83.83,0,0,1,.84-.84h.57a.84.84,0,0,1,.84.84v.19a3.14,3.14,0,0,1,.57.24l.14-.14a.84.84,0,0,1,1.18,0l.41.4a.85.85,0,0,1,0,1.19l-.14.14a3.61,3.61,0,0,1,.24.57h.19a.85.85,0,0,1,.84.84v.57a.85.85,0,0,1-.84.84h-.19a3.61,3.61,0,0,1-.24.57l.14.14a.85.85,0,0,1,0,1.19l-.41.4a.83.83,0,0,1-1.18,0l-.14-.14a3.14,3.14,0,0,1-.57.24v.2A.85.85,0,0,1,29.51,24.66Zm-1.9-1.84a3.09,3.09,0,0,0,.82.34.27.27,0,0,1,.2.26v.4a.31.31,0,0,0,.31.3h.57a.3.3,0,0,0,.3-.3v-.4a.28.28,0,0,1,.2-.26,3.09,3.09,0,0,0,.82-.34.27.27,0,0,1,.32,0l.28.28a.31.31,0,0,0,.44,0l.4-.4a.3.3,0,0,0,0-.43L32,22a.27.27,0,0,1,0-.33,3.39,3.39,0,0,0,.34-.81.27.27,0,0,1,.26-.2h.39a.31.31,0,0,0,.31-.31v-.57a.31.31,0,0,0-.31-.31h-.39a.27.27,0,0,1-.26-.2,3.39,3.39,0,0,0-.34-.81.27.27,0,0,1,0-.33l.28-.28a.3.3,0,0,0,0-.43l-.4-.4a.31.31,0,0,0-.44,0l-.28.28a.27.27,0,0,1-.32,0A3.09,3.09,0,0,0,30,17a.28.28,0,0,1-.2-.26v-.39a.3.3,0,0,0-.3-.31h-.57a.31.31,0,0,0-.31.31v.39a.27.27,0,0,1-.2.26,3.09,3.09,0,0,0-.82.34.27.27,0,0,1-.32,0L27,17.05a.3.3,0,0,0-.43,0l-.41.4a.31.31,0,0,0,0,.43l.28.28a.26.26,0,0,1,0,.33,3.39,3.39,0,0,0-.34.81.26.26,0,0,1-.25.2h-.4a.3.3,0,0,0-.3.31v.57a.3.3,0,0,0,.3.31h.4a.26.26,0,0,1,.25.2,3.39,3.39,0,0,0,.34.81.26.26,0,0,1,0,.33l-.28.28a.31.31,0,0,0,0,.43l.41.4a.29.29,0,0,0,.43,0l.28-.28a.27.27,0,0,1,.32,0Z" style="fill:#fff"/><path d="M29.22,22.08a2,2,0,1,1,2-2A2,2,0,0,1,29.22,22.08Zm0-3.43a1.45,1.45,0,1,0,1.45,1.45,1.45,1.45,0,0,0-1.45-1.45Z" style="fill:#fff"/><g style="opacity:0.7000000000000001"><circle cx="11.61" cy="48.58" r="9.69" style="fill:#798a93"/></g><path d="M9.59,52.21H8.24A.18.18,0,0,1,8.07,52V50.44a.18.18,0,0,1,.17-.18H9.59a.18.18,0,0,1,.18.18V52A.18.18,0,0,1,9.59,52.21Zm-1.17-.35h1V50.62h-1Z" style="fill:#fff"/><polygon points="10.38 52.34 7.46 52.34 6.82 52.34 6.82 53.25 15.8 53.25 15.8 52.34 15.16 52.34 11.67 52.34 10.38 52.34" style="fill:none"/><path d="M10.2,46.27H7.7a.06.06,0,0,0-.06.06V52H10.2Z" style="fill:none"/><path d="M11.67,52H15V44.21a.12.12,0,0,0-.12-.12H10.68a.12.12,0,0,0-.12.12V52Z" style="fill:none"/><path d="M10.38,52h.18v-5.9a.18.18,0,0,1-.18.18H10.2V52Z" style="fill:#fff"/><path d="M10.56,46.09V44.21a.12.12,0,0,1,.12-.12h4.18a.12.12,0,0,1,.12.12V52h.36V44.21a.47.47,0,0,0-.48-.47H10.68a.48.48,0,0,0-.48.47v1.7h.18A.18.18,0,0,1,10.56,46.09Z" style="fill:#fff"/><path d="M7.64,52V46.33a.06.06,0,0,1,.06-.06h2.5v-.36H7.7a.42.42,0,0,0-.42.42V52h.36Z" style="fill:#fff"/><path d="M10.2,46.09v.18h.18A.18.18,0,0,1,10.2,46.09Z" style="fill:#fff"/><path d="M10.38,45.91H10.2v.18A.18.18,0,0,1,10.38,45.91Z" style="fill:#fff"/><path d="M10.38,46.27a.18.18,0,1,0-.18-.18A.18.18,0,0,0,10.38,46.27Z" style="fill:#fff"/><path d="M10.2,52.16V52H7.64v.17a.18.18,0,0,1-.18.18h2.92A.18.18,0,0,1,10.2,52.16Z" style="fill:#fff"/><path d="M10.38,52H10.2v.17A.18.18,0,0,1,10.38,52Z" style="fill:#fff"/><path d="M7.64,52.16V52H7.46A.18.18,0,0,1,7.64,52.16Z" style="fill:#fff"/><path d="M10.56,52.16a.18.18,0,0,1-.18.18h1.29a.18.18,0,0,1-.18-.18.18.18,0,0,1,.18-.17H10.56Z" style="fill:#fff"/><path d="M10.56,52.16V52h-.18A.18.18,0,0,1,10.56,52.16Z" style="fill:#fff"/><circle cx="10.38" cy="52.16" r="0.18" style="fill:#fff"/><path d="M15,52.16V52H11.67a.18.18,0,0,1,.18.17.18.18,0,0,1-.18.18h3.49A.18.18,0,0,1,15,52.16Z" style="fill:#fff"/><path d="M15.16,52H15v.17A.18.18,0,0,1,15.16,52Z" style="fill:#fff"/><circle cx="11.67" cy="52.16" r="0.18" style="fill:#fff"/><path d="M16,52h-.64v.17a.18.18,0,0,1-.18.18h.64v.91h-9v-.91h.64a.18.18,0,0,1-.18-.18V52H6.64a.18.18,0,0,0-.18.17v1.27a.18.18,0,0,0,.18.18H16a.18.18,0,0,0,.18-.18V52.16A.18.18,0,0,0,16,52Z" style="fill:#fff"/><path d="M15.34,52.16V52h-.18A.18.18,0,0,1,15.34,52.16Z" style="fill:#fff"/><path d="M7.46,52H7.28v.17A.18.18,0,0,1,7.46,52Z" style="fill:#fff"/><circle cx="7.46" cy="52.16" r="0.18" style="fill:#fff"/><circle cx="15.16" cy="52.16" r="0.18" style="fill:#fff"/><rect x="11.31" y="45.32" width="3.01" height="0.46" style="fill:#fff"/><rect x="11.31" y="46.66" width="3.01" height="0.46" style="fill:#fff"/><rect x="11.31" y="48" width="3.01" height="0.46" style="fill:#fff"/><rect x="11.31" y="49.35" width="3.01" height="0.46" style="fill:#fff"/><g style="opacity:0.7000000000000001"><rect x="48.86" y="17.3" width="0.8" height="31.89" transform="translate(-5.03 57.41) rotate(-58.01)" style="fill:#778891"/></g><g style="opacity:0.7000000000000001"><rect x="28.51" y="70.19" width="38.58" height="0.8" transform="translate(-26.55 28.87) rotate(-26.6)" style="fill:#778891"/></g><g style="opacity:0.7000000000000001"><rect x="34.6" y="42.75" width="0.8" height="34.6" transform="translate(-34.32 54.89) rotate(-55.51)" style="fill:#778891"/></g><g style="opacity:0.7000000000000001"><rect x="26.43" y="45.86" width="30.18" height="0.8" transform="translate(-19.49 58.16) rotate(-59.13)" style="fill:#778891"/></g><g style="opacity:0.7000000000000001"><rect x="106.36" y="48.01" width="32.16" height="0.8" transform="translate(-2.63 7.26) rotate(-3.36)" style="fill:#778891"/></g><g style="opacity:0.7000000000000001"><polygon points="130.07 74.03 118.21 49.21 118.94 48.86 130.79 73.69 130.07 74.03" style="fill:#778891"/></g><g style="opacity:0.7000000000000001"><rect x="107.89" y="70.36" width="20.14" height="0.8" transform="translate(-14.56 33.89) rotate(-15.41)" style="fill:#778891"/></g><g style="opacity:0.7000000000000001"><rect x="98.22" y="31.41" width="19.14" height="0.8" transform="translate(8.25 83.99) rotate(-44.1)" style="fill:#778891"/></g><g style="opacity:0.7000000000000001"><rect x="125.54" y="27.16" width="0.8" height="21.07" transform="translate(-5.47 34.21) rotate(-15.14)" style="fill:#778891"/></g></g><g style="opacity:0.66"><path d="M113.66,75.43a6.68,6.68,0,1,1,0,13.35H103.8v-8.2a4.92,4.92,0,0,0,4.91-4.91c0-.08,0-.16,0-.24Z" style="fill:#da606f"/><path d="M108.69,75.43c0,.08,0,.16,0,.24a4.92,4.92,0,0,1-4.91,4.91h-2.24a4.91,4.91,0,0,1-4.9-4.91,1,1,0,0,1,0-.24,4.89,4.89,0,0,1,4.18-4.59,5.2,5.2,0,0,1,.69-.07h2.24A4.92,4.92,0,0,1,108.69,75.43Z" style="fill:#afcdec"/><path d="M101.62,42.94h2.24a1.93,1.93,0,0,1,1.93,1.93V53A2,2,0,0,1,103.86,55h-2.24v-12Z" style="fill:#aabfce"/><path d="M103.8,80.58v8.2h-53a6.68,6.68,0,1,1,0-13.35h5.42a1.94,1.94,0,0,0,0,.24,4.91,4.91,0,0,0,4.9,4.91h2.24a4.92,4.92,0,0,0,4.91-4.91c0-.08,0-.16,0-.24H96.69a1,1,0,0,0,0,.24,4.91,4.91,0,0,0,4.9,4.91Z" style="fill:#fff"/><path d="M101.39,58.37H63a8.18,8.18,0,0,1-.22-1.72v-15a8.16,8.16,0,0,1,.12-1.42H101.5a8.16,8.16,0,0,1,.12,1.42v15A7.51,7.51,0,0,1,101.39,58.37ZM82.2,56.55a4.11,4.11,0,0,0,4.36-3.21H77.84A4.12,4.12,0,0,0,82.2,56.55ZM86,47.91a4.18,4.18,0,1,0,4.18-4.19A4.18,4.18,0,0,0,86,47.91Zm-7.67,0a4.19,4.19,0,1,0-4.2,4.18A4.19,4.19,0,0,0,78.28,47.91Z" style="fill:#d1e0ed"/><path d="M101.5,40.26H62.91a7,7,0,0,1,6.65-5.91H94.85A7,7,0,0,1,101.5,40.26Z" style="fill:#aabfce"/><path d="M63,58.37h38.38a7.08,7.08,0,0,1-4.73,5.2,6.06,6.06,0,0,1-1.81.28H69.56a6.18,6.18,0,0,1-1.82-.28A7.12,7.12,0,0,1,63,58.37Z" style="fill:#aabfce"/><path d="M67.74,63.57a6.18,6.18,0,0,0,1.82.28H94.85a6.06,6.06,0,0,0,1.81-.28A13.34,13.34,0,0,1,100,68l-.13,0H64.44A13.16,13.16,0,0,1,67.74,63.57Z" style="fill:#d1e0ed"/><circle cx="90.13" cy="47.91" r="2.37" style="fill:#254254"/><path d="M90.13,45.54a2.37,2.37,0,1,0,2.37,2.37A2.37,2.37,0,0,0,90.13,45.54Zm0,6.55a4.19,4.19,0,1,1,4.18-4.18A4.18,4.18,0,0,1,90.13,52.09Z" style="fill:#fff"/><path d="M85.34,29.2a5.48,5.48,0,0,1,5.45,5.15H73.61a5.5,5.5,0,0,1,5.45-5.15h6.28Z" style="fill:#d1e0ed"/><path d="M81.05,23.19a3.27,3.27,0,1,1,2.31,0,3,3,0,0,1-2.31,0Z" style="fill:#afcdec"/><path d="M82.2,56.55a4.12,4.12,0,0,1-4.36-3.21h8.72A4.11,4.11,0,0,1,82.2,56.55Z" style="fill:#829aae"/><path d="M81.05,23.19a3,3,0,0,0,2.31,0,1.25,1.25,0,0,1,0,.19V29.2H81V23.38A1.29,1.29,0,0,1,81.05,23.19Z" style="fill:#aabfce"/><path d="M74.08,45.54a2.37,2.37,0,1,1-2.37,2.37A2.38,2.38,0,0,1,74.08,45.54Z" style="fill:#254254"/><path d="M74.08,50.28a2.37,2.37,0,1,0-2.37-2.37A2.38,2.38,0,0,0,74.08,50.28Zm0-6.56a4.19,4.19,0,1,1-4.18,4.19A4.19,4.19,0,0,1,74.08,43.72Z" style="fill:#fff"/><path d="M56.17,75.43a4.91,4.91,0,0,1,4.88-4.66h2.24a1,1,0,0,1,.25,0,4.89,4.89,0,0,1,4.64,4.63c0,.08,0,.16,0,.24a4.92,4.92,0,0,1-4.91,4.91H61.05a4.91,4.91,0,0,1-4.9-4.91A1.94,1.94,0,0,1,56.17,75.43Z" style="fill:#afcdec"/><path d="M68.18,75.43a4.89,4.89,0,0,0-4.64-4.63,12,12,0,0,1,.89-2.72H99.82l.13,0a13.22,13.22,0,0,1,.92,2.81,4.89,4.89,0,0,0-4.18,4.59Z" style="fill:#829aae"/><path d="M62.79,43.64V55H60.92A2,2,0,0,1,59,53V44.87a1.94,1.94,0,0,1,1.94-1.93h1.87Z" style="fill:#aabfce"/><path d="M103.8,89.32a.54.54,0,0,1-.54-.54v-8.2a.54.54,0,1,1,1.07,0v8.2A.54.54,0,0,1,103.8,89.32Z" style="fill:#254254"/><path d="M74.08,52.49a4.59,4.59,0,1,1,4.6-4.58A4.59,4.59,0,0,1,74.08,52.49Zm0-8.37a3.79,3.79,0,1,0,3.8,3.79A3.79,3.79,0,0,0,74.08,44.12Z" style="fill:#254254"/><path d="M90.13,52.49a4.59,4.59,0,1,1,4.58-4.58A4.59,4.59,0,0,1,90.13,52.49Zm0-8.37a3.79,3.79,0,1,0,3.78,3.79A3.79,3.79,0,0,0,90.13,44.12Z" style="fill:#254254"/><path d="M82.2,57.08a4.66,4.66,0,0,1-4.88-3.65.54.54,0,0,1,.52-.62H82.2a.54.54,0,0,1,0,1.07H78.57A3.65,3.65,0,0,0,82.2,56a.54.54,0,0,1,0,1.07Z" style="fill:#254254"/><path d="M82.2,57.08a.54.54,0,1,1,0-1.07,3.65,3.65,0,0,0,3.64-2.13H82.2a.54.54,0,1,1,0-1.07h4.36A.53.53,0,0,1,87,53a.52.52,0,0,1,.12.43A4.68,4.68,0,0,1,82.2,57.08Z" style="fill:#254254"/><path d="M101.5,40.79H62.91a.53.53,0,0,1-.53-.53.53.53,0,0,1,.53-.53H101.5a.53.53,0,0,1,.53.53A.53.53,0,0,1,101.5,40.79Z" style="fill:#254254"/><path d="M101.5,58.9H63a.57.57,0,0,1-.58-.53.49.49,0,0,1,.48-.53h38.48a.58.58,0,0,1,.59.53A.49.49,0,0,1,101.5,58.9Z" style="fill:#254254"/><path d="M101.62,55.48a.53.53,0,0,1-.53-.53V43.64a.53.53,0,0,1,.53-.53.53.53,0,0,1,.53.53V55A.52.52,0,0,1,101.62,55.48Z" style="fill:#254254"/><path d="M101.62,57.18a.53.53,0,0,1-.53-.53V55a.53.53,0,0,1,.53-.53.53.53,0,0,1,.53.53v1.7A.53.53,0,0,1,101.62,57.18Z" style="fill:#254254"/><path d="M62.79,43.47a.54.54,0,0,1-.54-.53V41.68a8.57,8.57,0,0,1,.14-1.51,7.5,7.5,0,0,1,7.17-6.35h4a.54.54,0,1,1,0,1.07h-4a6.43,6.43,0,0,0-6.12,5.47,7.37,7.37,0,0,0-.12,1.32v1.26A.53.53,0,0,1,62.79,43.47Z" style="fill:#254254"/><path d="M62.79,44.18a.54.54,0,0,1-.54-.54v-.7a.54.54,0,1,1,1.07,0v.7A.54.54,0,0,1,62.79,44.18Z" style="fill:#254254"/><path d="M101.62,43.47a.53.53,0,0,1-.53-.53V41.68a7.48,7.48,0,0,0-.12-1.33,6.44,6.44,0,0,0-6.12-5.46H90.79a.54.54,0,0,1,0-1.07h4.06A7.51,7.51,0,0,1,102,40.16a8.75,8.75,0,0,1,.13,1.52v1.26A.53.53,0,0,1,101.62,43.47Z" style="fill:#254254"/><path d="M101.62,44.18a.54.54,0,0,1-.53-.54v-.7a.54.54,0,0,1,.53-.54.53.53,0,0,1,.53.54v.7A.53.53,0,0,1,101.62,44.18Z" style="fill:#254254"/><path d="M62.79,55.48a.53.53,0,0,1-.54-.53V43.64a.54.54,0,0,1,1.07,0V55A.53.53,0,0,1,62.79,55.48Z" style="fill:#254254"/><path d="M62.79,57.18a.54.54,0,0,1-.54-.53V55a.54.54,0,0,1,1.07,0v1.7A.53.53,0,0,1,62.79,57.18Z" style="fill:#254254"/><path d="M90.79,34.89H73.61a.54.54,0,0,1,0-1.07H90.79a.54.54,0,1,1,0,1.07Z" style="fill:#254254"/><path d="M96.66,64.1a.53.53,0,0,1-.15-1,6.56,6.56,0,0,0,4.36-4.81,6.79,6.79,0,0,0,.22-1.61.52.52,0,0,1,.53-.52h0a.52.52,0,0,1,.52.54,8.14,8.14,0,0,1-.24,1.84,7.63,7.63,0,0,1-5.09,5.58A.44.44,0,0,1,96.66,64.1Z" style="fill:#254254"/><path d="M94.85,64.39H69.56a6.81,6.81,0,0,1-2-.31.53.53,0,0,1-.34-.67.52.52,0,0,1,.66-.35,5.63,5.63,0,0,0,1.66.26H94.85a5.57,5.57,0,0,0,1.65-.26.53.53,0,1,1,.32,1A6.69,6.69,0,0,1,94.85,64.39Z" style="fill:#254254"/><path d="M67.74,64.1a.39.39,0,0,1-.15,0A7.61,7.61,0,0,1,62.5,58.5a7.76,7.76,0,0,1-.25-1.84.54.54,0,0,1,.53-.54.55.55,0,0,1,.54.52,7.32,7.32,0,0,0,.21,1.6,6.57,6.57,0,0,0,4.37,4.82.53.53,0,0,1,.36.66A.55.55,0,0,1,67.74,64.1Z" style="fill:#254254"/><path d="M73.62,34.89h0a.54.54,0,0,1-.5-.57,6,6,0,0,1,6-5.65h2a.54.54,0,0,1,.54.53.53.53,0,0,1-.54.53h-2a4.94,4.94,0,0,0-4.91,4.66A.53.53,0,0,1,73.62,34.89Z" style="fill:#254254"/><path d="M90.79,34.89a.53.53,0,0,1-.53-.5,5,5,0,0,0-4.92-4.66h-2a.53.53,0,0,1-.53-.53.53.53,0,0,1,.53-.53h2a6,6,0,0,1,6,5.65.55.55,0,0,1-.51.57Z" style="fill:#254254"/><path d="M83.39,29.73H81a.53.53,0,0,1-.53-.53.53.53,0,0,1,.53-.53h2.38a.54.54,0,0,1,.54.53A.53.53,0,0,1,83.39,29.73Z" style="fill:#254254"/><path d="M62.79,55.48H60.92A2.46,2.46,0,0,1,58.45,53V44.87a2.47,2.47,0,0,1,2.47-2.47h1.87a.54.54,0,0,1,0,1.07H60.92a1.41,1.41,0,0,0-1.41,1.4V53a1.43,1.43,0,0,0,1.41,1.41h1.87a.53.53,0,0,1,.53.53A.53.53,0,0,1,62.79,55.48Z" style="fill:#254254"/><path d="M103.86,55.48h-2.24a.53.53,0,0,1-.53-.53.53.53,0,0,1,.53-.53h2.24a1.43,1.43,0,0,0,1.4-1.41V44.87a1.4,1.4,0,0,0-1.4-1.4h-2.24a.54.54,0,0,1,0-1.07h2.24a2.48,2.48,0,0,1,2.47,2.47V53A2.47,2.47,0,0,1,103.86,55.48Z" style="fill:#254254"/><path d="M83.39,29.73a.53.53,0,0,1-.53-.53V23.38a.56.56,0,0,1,.42-.66.49.49,0,0,1,.61.39.91.91,0,0,1,0,.27V29.2A.53.53,0,0,1,83.39,29.73Z" style="fill:#254254"/><path d="M81,29.73a.53.53,0,0,1-.53-.53V23.38a1.2,1.2,0,0,1,0-.25.56.56,0,0,1,.64-.42.5.5,0,0,1,.42.57s0,.1,0,.12v5.8A.53.53,0,0,1,81,29.73Z" style="fill:#254254"/><path d="M83.36,23.73a.53.53,0,0,1-.19-1,2.75,2.75,0,1,0-1.93,0,.53.53,0,1,1-.38,1,3.8,3.8,0,1,1,2.69,0A.43.43,0,0,1,83.36,23.73Z" style="fill:#254254"/><path d="M82.2,24a3.88,3.88,0,0,1-1.34-.26.54.54,0,0,1,.37-1,2.47,2.47,0,0,0,1.94,0,.54.54,0,0,1,.69.32.55.55,0,0,1-.31.69A3.93,3.93,0,0,1,82.2,24Z" style="fill:#254254"/><path d="M56.18,76h0a.54.54,0,0,1-.51-.56,5.42,5.42,0,0,1,5.41-5.17h2.24a1.58,1.58,0,0,1,.32,0,.53.53,0,0,1,.46.6.54.54,0,0,1-.61.45H61.05a4.34,4.34,0,0,0-4.34,4.15A.54.54,0,0,1,56.18,76Z" style="fill:#254254"/><path d="M68.18,76a.54.54,0,0,1-.54-.51,4.33,4.33,0,0,0-4.13-4.13.53.53,0,0,1-.5-.56.51.51,0,0,1,.55-.51,5.41,5.41,0,0,1,5.15,5.15.54.54,0,0,1-.51.56Z" style="fill:#254254"/><path d="M63.29,81.11H61.05a5.44,5.44,0,0,1-5.43-5.44,1.63,1.63,0,0,1,0-.31.53.53,0,1,1,1.05.15c0,.06,0,.11,0,.16A4.37,4.37,0,0,0,61.05,80h2.24a4.38,4.38,0,0,0,4.38-4.37,1.2,1.2,0,0,1,0-.24.54.54,0,0,1,1.07,0,1.2,1.2,0,0,1,0,.24A5.45,5.45,0,0,1,63.29,81.11Zm5.42-5.68h0Z" style="fill:#254254"/><path d="M96.69,76H68.18a.54.54,0,1,1,0-1.07H96.69a.54.54,0,0,1,0,1.07Z" style="fill:#254254"/><path d="M113.66,89.32H50.75a7.21,7.21,0,0,1,0-14.42h5.42a.54.54,0,1,1,0,1.07H50.75a6.14,6.14,0,1,0,0,12.28h62.91a6.14,6.14,0,0,0,0-12.28h-5a.54.54,0,0,1,0-1.07h5a7.21,7.21,0,1,1,0,14.42Z" style="fill:#254254"/><path d="M100.87,71.37a.53.53,0,0,1-.52-.42,13,13,0,0,0-4-7,.53.53,0,1,1,.71-.8,13.88,13.88,0,0,1,3.41,4.64,13.33,13.33,0,0,1,1,2.92.53.53,0,0,1-.41.63Z" style="fill:#254254"/><path d="M64.44,68.62a.59.59,0,0,1-.22-.05.53.53,0,0,1-.27-.7,13.6,13.6,0,0,1,3.44-4.7.53.53,0,0,1,.71.8,12.63,12.63,0,0,0-3.17,4.33A.54.54,0,0,1,64.44,68.62Z" style="fill:#254254"/><path d="M63.54,71.33h-.11a.53.53,0,0,1-.41-.63,12.51,12.51,0,0,1,.92-2.83.53.53,0,0,1,.71-.26.53.53,0,0,1,.26.71,11.74,11.74,0,0,0-.85,2.59A.52.52,0,0,1,63.54,71.33Z" style="fill:#254254"/><path d="M103.8,81.11h-2.24a5.44,5.44,0,0,1-5.43-5.44,1.43,1.43,0,0,1,0-.29.54.54,0,0,1,.6-.47.53.53,0,0,1,.45.6h0s0,.1,0,.15A4.37,4.37,0,0,0,101.56,80h2.24a4.38,4.38,0,0,0,4.38-4.37,1.15,1.15,0,0,1,0-.24.53.53,0,0,1,.53-.53.53.53,0,0,1,.53.53,1.25,1.25,0,0,1,0,.24A5.45,5.45,0,0,1,103.8,81.11Z" style="fill:#254254"/><path d="M108.69,76a.53.53,0,0,1-.53-.51,4.38,4.38,0,0,0-4.36-4.15h-2.24a4.07,4.07,0,0,0-.61.06.53.53,0,0,1-.61-.45.55.55,0,0,1,.45-.61,6.48,6.48,0,0,1,.77-.07h2.24a5.44,5.44,0,0,1,5.42,5.17.53.53,0,0,1-.5.56Z" style="fill:#254254"/><path d="M96.69,76h0a.55.55,0,0,1-.51-.56,5.44,5.44,0,0,1,4.64-5.1.55.55,0,0,1,.61.46.53.53,0,0,1-.46.6,4.36,4.36,0,0,0-3.72,4.09A.54.54,0,0,1,96.69,76Z" style="fill:#254254"/><path d="M99.82,68.62H64.44a.54.54,0,0,1-.54-.54.53.53,0,0,1,.53-.53H99.82a.54.54,0,0,1,0,1.07Z" style="fill:#254254"/><path d="M87.38,11.09a.57.57,0,0,1-.3-.1,8.6,8.6,0,0,0-9.89,0,.52.52,0,0,1-.74-.11.53.53,0,0,1,.11-.75s5.51-4,11.13,0a.53.53,0,0,1-.31,1Z" style="fill:#254254"/><path d="M85.09,14.36a.54.54,0,0,1-.31-.1,4.65,4.65,0,0,0-5.3,0,.53.53,0,1,1-.63-.85,5.73,5.73,0,0,1,6.55,0,.53.53,0,0,1,.13.74A.54.54,0,0,1,85.09,14.36Z" style="fill:#254254"/></g><g style="opacity:0.66"><rect x="52.32" y="83.94" width="43.8" height="0.8" style="fill:#b5c3c9"/></g><path d="M115.35,85.58l-2.22-2.21a2.64,2.64,0,1,0-.32.32L115,85.9a.2.2,0,0,0,.16.07.23.23,0,0,0,.16-.07A.24.24,0,0,0,115.35,85.58Zm-5.79-2.36a2.21,2.21,0,0,1-.64-1.55,2.19,2.19,0,1,1,4.38,0,2.19,2.19,0,0,1-3.74,1.55Z" style="fill:#fff;opacity:0.66"/></svg>