<svg xmlns="http://www.w3.org/2000/svg" viewBox="0 0 68 68"><title>img_profile_f</title><path d="M43.58,60.45a18.22,18.22,0,0,1-1.85,8H26.51a15.2,15.2,0,0,1-1.85-8Z" style="fill:#75b6c6"/><path d="M24.66,60.45a15.2,15.2,0,0,0,1.85,8H18.6l.2-4.76.22-5,.26-5.87.12-2.63c.26-.22.54-.42.82-.63l0,0A20.8,20.8,0,0,1,24.66,47v8.78H43.54V52.8l0-4.9v-.73a20.82,20.82,0,0,1,5.31,3.48l.06,2.15.18,5.87.15,5,.14,4.76H41.73a18.22,18.22,0,0,0,1.85-8Z" style="fill:#8fd3e5"/><path d="M50.37,52.12c.21.22.4.45.6.68h-2l-.06-2.15A18.78,18.78,0,0,1,50.37,52.12Z" style="fill:#da606f"/><path d="M55.94,63.72H49.27l-.15-5h5.43A22.44,22.44,0,0,1,55.94,63.72Z" style="fill:#da606f"/><path d="M30.83,47.9s3.34,1.93,6.32,0h6.42l0,4.9H24.66V47.9Z" style="fill:#da606f"/><path d="M19.4,50.17l-.12,2.63H16.77A21.78,21.78,0,0,1,19.4,50.17Z" style="fill:#da606f"/><path d="M19,58.67l-.22,5h-7a22.27,22.27,0,0,1,1.37-5Z" style="fill:#da606f"/><path d="M56.19,67.07v1.41H49.41l-.14-4.76h6.67A23.07,23.07,0,0,1,56.19,67.07Z" style="fill:#ed96a5"/><path d="M18.8,63.72l-.2,4.76h-7V67.07a23.17,23.17,0,0,1,.27-3.35Z" style="fill:#ed96a5"/><path d="M16.77,52.8h2.51L19,58.67H13.19A22,22,0,0,1,16.77,52.8Z" style="fill:#ed96a5"/><path d="M48.94,52.8h2a22.21,22.21,0,0,1,3.58,5.87H49.12Z" style="fill:#ed96a5"/><path d="M43.57,47.17v.73H37.15a3.59,3.59,0,0,0,.2-1.14v-1.3A20.42,20.42,0,0,1,43.57,47.17Z" style="fill:#ed96a5"/><path d="M24.66,47a20.39,20.39,0,0,1,6-1.51v1.32a3.59,3.59,0,0,0,.2,1.14H24.66Z" style="fill:#ed96a5"/><polygon points="43.55 52.8 43.54 55.73 24.66 55.73 24.66 52.8 43.55 52.8" style="fill:#ed96a5"/><path d="M37.32,42.76a10.65,10.65,0,0,0,6.86-7.63,1.43,1.43,0,0,0,.5.09,1.7,1.7,0,1,0,0-3.39,1.38,1.38,0,0,0-.2,0V28.38a1.56,1.56,0,0,1,.2.16l1.51,0a3,3,0,0,0,.92,2.59,8.61,8.61,0,0,1,2.49,2.9A4.94,4.94,0,0,1,50.29,37c-.21,1.82-4,4.91-1.54,6.68,0,0,7.38,4,2.19,8l-.57.48a18.78,18.78,0,0,0-1.49-1.47,20.82,20.82,0,0,0-5.31-3.48,20.42,20.42,0,0,0-6.22-1.71V43.11C37.35,43,37.33,42.87,37.32,42.76Z" style="fill:#4a5256"/><path d="M21.86,33.53a1.69,1.69,0,0,0,1.69,1.69,1.71,1.71,0,0,0,.51-.09,10.65,10.65,0,0,0,6.62,7.53,3.44,3.44,0,0,0-.05.45v2.33a20.39,20.39,0,0,0-6,1.51,20.8,20.8,0,0,0-4.4,2.56l0-.06c-1.19-.89-3.54-3.43-2.12-5,.42-.45,1-.5,1.43-.81a3.82,3.82,0,0,0,1.59-4.6c-.54-1.19-1.42-1.93-1.5-3.36A5.86,5.86,0,0,1,20.92,32l1.43.33A1.72,1.72,0,0,0,21.86,33.53Z" style="fill:#4a5256"/><path d="M34.9,28.07a9.55,9.55,0,0,0-3.87.18,5.56,5.56,0,0,1-3.73-.11,3.53,3.53,0,0,0-.56-.14,4.73,4.73,0,0,0-1.91,0,4.94,4.94,0,0,0-1.07.34v3.52a1.52,1.52,0,0,0-.21,0,1.68,1.68,0,0,0-1.2.5L20.92,32c.89-1.21-.55-4-.55-4a4,4,0,0,1,1.22-4.39c1-.93,1.27-3,1.6-4.29.47-1.81,2.4-3.44,4-4.25a8.52,8.52,0,0,1,6.84-.3,11.7,11.7,0,0,1,7.77,1.06,7.75,7.75,0,0,1,2.06,1.73c.61.72.84,1.7,1.52,2.37a7.51,7.51,0,0,1,1,1,5.15,5.15,0,0,1,.19,5,12.07,12.07,0,0,0-.34,2.58l-1.51,0a1.56,1.56,0,0,0-.2-.16,2.79,2.79,0,0,0-1.66-.48,21.22,21.22,0,0,0-3.42.5,5.67,5.67,0,0,1-1.2.08C37.1,28.4,36,28.2,34.9,28.07Z" style="fill:#4a5256"/><path d="M24.06,35.13a1.71,1.71,0,0,1-.51.09,1.69,1.69,0,0,1-1.69-1.69,1.72,1.72,0,0,1,.49-1.2,1.68,1.68,0,0,1,1.2-.5,1.52,1.52,0,0,1,.21,0v.72A11.26,11.26,0,0,0,24.06,35.13Z" style="fill:#f2d6c2"/><path d="M46.38,33.53a1.7,1.7,0,0,1-1.7,1.69,1.43,1.43,0,0,1-.5-.09,11.26,11.26,0,0,0,.3-2.55v-.72a1.38,1.38,0,0,1,.2,0A1.7,1.7,0,0,1,46.38,33.53Z" style="fill:#f2d6c2"/><path d="M30.63,43.11a3.44,3.44,0,0,1,.05-.45,9.86,9.86,0,0,0,3.44.63,10,10,0,0,0,3.2-.53c0,.11,0,.23,0,.35v3.65a3.59,3.59,0,0,1-.2,1.14c-3,1.93-6.32,0-6.32,0a3.59,3.59,0,0,1-.2-1.14V43.11Z" style="fill:#f2d6c2"/><path d="M24.83,28a4.73,4.73,0,0,1,1.91,0,3.53,3.53,0,0,1,.56.14,5.56,5.56,0,0,0,3.73.11,9.55,9.55,0,0,1,3.87-.18c1.1.13,2.2.33,3.3.41a5.67,5.67,0,0,0,1.2-.08,21.22,21.22,0,0,1,3.42-.5,2.79,2.79,0,0,1,1.66.48v4.2a11.26,11.26,0,0,1-.3,2.55,10.65,10.65,0,0,1-6.86,7.63,10,10,0,0,1-3.2.53,9.86,9.86,0,0,1-3.44-.63,10.65,10.65,0,0,1-6.62-7.53,11.26,11.26,0,0,1-.3-2.55V28.34A4.94,4.94,0,0,1,24.83,28Z" style="fill:#f2d6c2"/><path d="M44.48,28.38a1.56,1.56,0,0,1,.2.16" style="fill:none;stroke:#254254;stroke-linecap:round;stroke-linejoin:round;stroke-width:0.75px"/><path d="M39.4,28.4a5.67,5.67,0,0,1-1.2.08c-1.1-.08-2.2-.28-3.3-.41a9.55,9.55,0,0,0-3.87.18" style="fill:none;stroke:#254254;stroke-linecap:round;stroke-linejoin:round;stroke-width:0.75px"/><path d="M44.48,28.38a2.79,2.79,0,0,0-1.66-.48,21.22,21.22,0,0,0-3.42.5" style="fill:none;stroke:#254254;stroke-linecap:round;stroke-linejoin:round;stroke-width:0.75px"/><path d="M31,28.25a5.56,5.56,0,0,1-3.73-.11,3.53,3.53,0,0,0-.56-.14,4.73,4.73,0,0,0-1.91,0,4.94,4.94,0,0,0-1.07.34" style="fill:none;stroke:#254254;stroke-linecap:round;stroke-linejoin:round;stroke-width:0.75px"/><path d="M23.32,28.54a4.28,4.28,0,0,1,.44-.2" style="fill:none;stroke:#254254;stroke-linecap:round;stroke-linejoin:round;stroke-width:0.75px"/><path d="M41.77,15.83a7.75,7.75,0,0,1,2.06,1.73c.61.72.84,1.7,1.52,2.37a7.51,7.51,0,0,1,1,1,5.15,5.15,0,0,1,.19,5,12.07,12.07,0,0,0-.34,2.58,3,3,0,0,0,.92,2.59,8.61,8.61,0,0,1,2.49,2.9A4.94,4.94,0,0,1,50.29,37c-.21,1.82-4,4.91-1.54,6.68,0,0,7.38,4,2.19,8l-.57.48" style="fill:none;stroke:#254254;stroke-linecap:round;stroke-linejoin:round;stroke-width:0.75px"/><path d="M27.16,15.07c-1.57.81-3.5,2.44-4,4.25-.33,1.27-.62,3.36-1.6,4.29A4,4,0,0,0,20.37,28s1.44,2.79.55,4a5.86,5.86,0,0,0-1.3,3.71c.08,1.43,1,2.17,1.5,3.36a3.82,3.82,0,0,1-1.59,4.6c-.47.31-1,.36-1.43.81-1.42,1.54.93,4.08,2.12,5" style="fill:none;stroke:#254254;stroke-linecap:round;stroke-linejoin:round;stroke-width:0.75px"/><path d="M27.16,15.07a8.52,8.52,0,0,1,6.84-.3,11.7,11.7,0,0,1,7.77,1.06" style="fill:none;stroke:#254254;stroke-linecap:round;stroke-linejoin:round;stroke-width:0.75px"/><path d="M56.19,68.48V67.07a23.07,23.07,0,0,0-.25-3.35,22.44,22.44,0,0,0-1.39-5" style="fill:none;stroke:#254254;stroke-linecap:round;stroke-linejoin:round;stroke-width:0.75px"/><path d="M43.57,47.17a20.82,20.82,0,0,1,5.31,3.48" style="fill:none;stroke:#254254;stroke-linecap:round;stroke-linejoin:round;stroke-width:0.75px"/><path d="M24.66,47a20.39,20.39,0,0,1,6-1.51" style="fill:none;stroke:#254254;stroke-linecap:round;stroke-linejoin:round;stroke-width:0.75px"/><path d="M37.35,45.46a20.42,20.42,0,0,1,6.22,1.71" style="fill:none;stroke:#254254;stroke-linecap:round;stroke-linejoin:round;stroke-width:0.75px"/><path d="M11.82,63.72a23.17,23.17,0,0,0-.27,3.35v1.41" style="fill:none;stroke:#254254;stroke-linecap:round;stroke-linejoin:round;stroke-width:0.75px"/><path d="M51,52.8c-.2-.23-.39-.46-.6-.68a18.78,18.78,0,0,0-1.49-1.47" style="fill:none;stroke:#254254;stroke-linecap:round;stroke-linejoin:round;stroke-width:0.75px"/><path d="M13.19,58.67a22,22,0,0,1,3.58-5.87" style="fill:none;stroke:#254254;stroke-linecap:round;stroke-linejoin:round;stroke-width:0.75px"/><path d="M54.55,58.67A22.21,22.21,0,0,0,51,52.8" style="fill:none;stroke:#254254;stroke-linecap:round;stroke-linejoin:round;stroke-width:0.75px"/><path d="M24.66,47a20.8,20.8,0,0,0-4.4,2.56l0,0" style="fill:none;stroke:#254254;stroke-linecap:round;stroke-linejoin:round;stroke-width:0.75px"/><path d="M20.22,49.54c-.28.21-.56.41-.82.63" style="fill:none;stroke:#254254;stroke-linecap:round;stroke-linejoin:round;stroke-width:0.75px"/><path d="M16.77,52.8a21.78,21.78,0,0,1,2.63-2.63" style="fill:none;stroke:#254254;stroke-linecap:round;stroke-linejoin:round;stroke-width:0.75px"/><path d="M11.82,63.72a22.27,22.27,0,0,1,1.37-5" style="fill:none;stroke:#254254;stroke-linecap:round;stroke-linejoin:round;stroke-width:0.75px"/><polyline points="43.55 52.8 43.54 55.73 24.66 55.73 24.66 52.8" style="fill:none;stroke:#254254;stroke-linecap:round;stroke-linejoin:round;stroke-width:0.75px"/><line x1="43.57" y1="47.17" x2="43.57" y2="47.9" style="fill:none;stroke:#254254;stroke-linecap:round;stroke-linejoin:round;stroke-width:0.75px"/><line x1="24.66" y1="47.9" x2="24.66" y2="52.8" style="fill:none;stroke:#254254;stroke-linecap:round;stroke-linejoin:round;stroke-width:0.75px"/><line x1="43.55" y1="52.8" x2="43.57" y2="47.9" style="fill:none;stroke:#254254;stroke-linecap:round;stroke-linejoin:round;stroke-width:0.75px"/><line x1="24.66" y1="46.95" x2="24.66" y2="47.9" style="fill:none;stroke:#254254;stroke-linecap:round;stroke-linejoin:round;stroke-width:0.75px"/><polyline points="49.12 58.67 49.27 63.72 49.41 68.48" style="fill:none;stroke:#254254;stroke-linecap:round;stroke-linejoin:round;stroke-width:0.75px"/><line x1="48.88" y1="50.65" x2="48.88" y2="50.63" style="fill:none;stroke:#254254;stroke-linecap:round;stroke-linejoin:round;stroke-width:0.75px"/><line x1="48.88" y1="50.65" x2="48.94" y2="52.8" style="fill:none;stroke:#254254;stroke-linecap:round;stroke-linejoin:round;stroke-width:0.75px"/><line x1="19.4" y1="50.17" x2="19.4" y2="50.16" style="fill:none;stroke:#254254;stroke-linecap:round;stroke-linejoin:round;stroke-width:0.75px"/><line x1="19.28" y1="52.8" x2="19.4" y2="50.17" style="fill:none;stroke:#254254;stroke-linecap:round;stroke-linejoin:round;stroke-width:0.75px"/><line x1="18.6" y1="68.48" x2="18.8" y2="63.72" style="fill:none;stroke:#254254;stroke-linecap:round;stroke-linejoin:round;stroke-width:0.75px"/><line x1="48.94" y1="52.8" x2="49.12" y2="58.67" style="fill:none;stroke:#254254;stroke-linecap:round;stroke-linejoin:round;stroke-width:0.75px"/><polyline points="18.8 63.72 19.02 58.67 19.28 52.8" style="fill:none;stroke:#254254;stroke-linecap:round;stroke-linejoin:round;stroke-width:0.75px"/><path d="M41.73,68.48a18.22,18.22,0,0,0,1.85-8H24.66a15.2,15.2,0,0,0,1.85,8" style="fill:none;stroke:#254254;stroke-linecap:round;stroke-linejoin:round;stroke-width:0.75px"/><line x1="43.58" y1="52.8" x2="43.55" y2="52.8" style="fill:none;stroke:#254254;stroke-linecap:round;stroke-linejoin:round;stroke-width:0.75px"/><line x1="43.55" y1="52.8" x2="24.66" y2="52.8" style="fill:none;stroke:#254254;stroke-linecap:round;stroke-linejoin:round;stroke-width:0.75px"/><line x1="30.83" y1="47.9" x2="24.66" y2="47.9" style="fill:none;stroke:#254254;stroke-linecap:round;stroke-linejoin:round;stroke-width:0.75px"/><line x1="37.15" y1="47.9" x2="43.57" y2="47.9" style="fill:none;stroke:#254254;stroke-linecap:round;stroke-linejoin:round;stroke-width:0.75px"/><line x1="16.77" y1="52.8" x2="16.75" y2="52.8" style="fill:none;stroke:#254254;stroke-linecap:round;stroke-linejoin:round;stroke-width:0.75px"/><line x1="16.77" y1="52.8" x2="19.28" y2="52.8" style="fill:none;stroke:#254254;stroke-linecap:round;stroke-linejoin:round;stroke-width:0.75px"/><line x1="50.99" y1="52.8" x2="50.97" y2="52.8" style="fill:none;stroke:#254254;stroke-linecap:round;stroke-linejoin:round;stroke-width:0.75px"/><line x1="48.94" y1="52.8" x2="50.97" y2="52.8" style="fill:none;stroke:#254254;stroke-linecap:round;stroke-linejoin:round;stroke-width:0.75px"/><line x1="49.12" y1="58.67" x2="54.55" y2="58.67" style="fill:none;stroke:#254254;stroke-linecap:round;stroke-linejoin:round;stroke-width:0.75px"/><line x1="13.19" y1="58.67" x2="19.02" y2="58.67" style="fill:none;stroke:#254254;stroke-linecap:round;stroke-linejoin:round;stroke-width:0.75px"/><line x1="11.82" y1="63.72" x2="18.8" y2="63.72" style="fill:none;stroke:#254254;stroke-linecap:round;stroke-linejoin:round;stroke-width:0.75px"/><path d="M30.68,42.66a10.65,10.65,0,0,1-6.62-7.53" style="fill:none;stroke:#254254;stroke-linecap:round;stroke-linejoin:round;stroke-width:0.75px"/><line x1="23.76" y1="28.34" x2="23.76" y2="31.86" style="fill:none;stroke:#254254;stroke-linecap:round;stroke-linejoin:round;stroke-width:0.75px"/><path d="M24.06,35.13a11.26,11.26,0,0,1-.3-2.55v-.72" style="fill:none;stroke:#254254;stroke-linecap:round;stroke-linejoin:round;stroke-width:0.75px"/><path d="M37.32,42.76a10.65,10.65,0,0,0,6.86-7.63" style="fill:none;stroke:#254254;stroke-linecap:round;stroke-linejoin:round;stroke-width:0.75px"/><path d="M44.48,31.86v.72a11.26,11.26,0,0,1-.3,2.55" style="fill:none;stroke:#254254;stroke-linecap:round;stroke-linejoin:round;stroke-width:0.75px"/><line x1="44.48" y1="28.38" x2="44.48" y2="31.86" style="fill:none;stroke:#254254;stroke-linecap:round;stroke-linejoin:round;stroke-width:0.75px"/><path d="M30.68,42.66a9.86,9.86,0,0,0,3.44.63,10,10,0,0,0,3.2-.53" style="fill:none;stroke:#254254;stroke-linecap:round;stroke-linejoin:round;stroke-width:0.75px"/><path d="M37.35,45.46V43.11c0-.12,0-.24,0-.35" style="fill:none;stroke:#254254;stroke-linecap:round;stroke-linejoin:round;stroke-width:0.75px"/><path d="M37.35,45.46v1.3a3.59,3.59,0,0,1-.2,1.14" style="fill:none;stroke:#254254;stroke-linecap:round;stroke-linejoin:round;stroke-width:0.75px"/><path d="M30.83,47.9a3.59,3.59,0,0,1-.2-1.14V45.44" style="fill:none;stroke:#254254;stroke-linecap:round;stroke-linejoin:round;stroke-width:0.75px"/><path d="M37.15,47.9c-3,1.93-6.32,0-6.32,0" style="fill:none;stroke:#254254;stroke-linecap:round;stroke-linejoin:round;stroke-width:0.75px"/><path d="M30.68,42.66a3.44,3.44,0,0,0-.05.45v2.33" style="fill:none;stroke:#254254;stroke-linecap:round;stroke-linejoin:round;stroke-width:0.75px"/><path d="M28.52,19.36C26.08,21.78,26.74,28,26.74,28" style="fill:none;stroke:#254254;stroke-linecap:round;stroke-linejoin:round;stroke-width:0.75px"/><path d="M31.84,18C30,20.23,31,28.25,31,28.25" style="fill:none;stroke:#254254;stroke-linecap:round;stroke-linejoin:round;stroke-width:0.75px"/><path d="M34.9,28.07s-.19-5.73-.43-7.72" style="fill:none;stroke:#254254;stroke-linecap:round;stroke-linejoin:round;stroke-width:0.75px"/><path d="M39.4,28.4c1-5.1-2.68-10.26-2.68-10.26" style="fill:none;stroke:#254254;stroke-linecap:round;stroke-linejoin:round;stroke-width:0.75px"/><path d="M42.82,27.9c1-4.41-3.25-9.11-3.25-9.11" style="fill:none;stroke:#254254;stroke-linecap:round;stroke-linejoin:round;stroke-width:0.75px"/><path d="M24.83,28c-.7-2.7.64-6.85.64-6.85" style="fill:none;stroke:#254254;stroke-linecap:round;stroke-linejoin:round;stroke-width:0.75px"/><path d="M24.06,35.13a1.71,1.71,0,0,1-.51.09,1.69,1.69,0,0,1-1.69-1.69,1.72,1.72,0,0,1,.49-1.2,1.68,1.68,0,0,1,1.2-.5,1.52,1.52,0,0,1,.21,0" style="fill:none;stroke:#254254;stroke-linecap:round;stroke-linejoin:round;stroke-width:0.75px"/><path d="M44.48,31.86a1.38,1.38,0,0,1,.2,0,1.7,1.7,0,1,1,0,3.39,1.43,1.43,0,0,1-.5-.09" style="fill:none;stroke:#254254;stroke-linecap:round;stroke-linejoin:round;stroke-width:0.75px"/><line x1="49.27" y1="63.72" x2="55.92" y2="63.72" style="fill:none;stroke:#254254;stroke-linecap:round;stroke-linejoin:round;stroke-width:0.75px"/><path d="M30.54,38.35a20.5,20.5,0,0,0,6.66.06s.13,2.48-3.35,2.39C33.85,40.8,30.51,41,30.54,38.35Z" style="fill:#e2ad95"/><path d="M33.66,41.17a4.21,4.21,0,0,1-2.74-.91,2.47,2.47,0,0,1-.76-1.91.37.37,0,0,1,.14-.29.39.39,0,0,1,.31-.07,20.79,20.79,0,0,0,6.53,0,.37.37,0,0,1,.3.08.34.34,0,0,1,.13.27,2.53,2.53,0,0,1-.73,1.82,3.85,3.85,0,0,1-3,1ZM31,38.81a1.65,1.65,0,0,0,.48.91,3.69,3.69,0,0,0,2.39.7,3.25,3.25,0,0,0,2.48-.72,1.85,1.85,0,0,0,.47-.86A22,22,0,0,1,31,38.81Z" style="fill:#254254"/><ellipse cx="29.41" cy="34.14" rx="0.73" ry="1.4" transform="translate(-0.72 0.63) rotate(-1.22)" style="fill:#39454c"/><ellipse cx="37.63" cy="34.01" rx="0.73" ry="1.4" transform="translate(-0.72 0.81) rotate(-1.22)" style="fill:#39454c"/><path d="M38.88,31.27l-.23-.07-.25-.06-.15,0h-.07c-.1,0,.18,0,0,0l-.33,0h-.17s-.14,0,.05,0h-.09l-.15,0s-.15,0,0,0l-.07,0a.84.84,0,0,0-.14.06c.13-.06.07-.05,0,0l-.07.05a.7.7,0,0,1-.82-.07c-.19-.15-.31-.43-.08-.62a2.1,2.1,0,0,1,1.64-.28,4.82,4.82,0,0,1,1,.22.83.83,0,0,1,.38.23.44.44,0,0,1,.11.34c-.08.29-.45.34-.67.26Z" style="fill:#38444b"/><path d="M30.29,31.27l-.23-.07-.25-.06-.15,0h-.07c-.1,0,.18,0,.05,0l-.33,0h-.17c-.05,0-.14,0,.05,0H29.1l-.15,0c-.05,0-.15,0,0,0l-.07,0a.84.84,0,0,0-.14.06c.13-.06.07-.05,0,0l-.07.05a.7.7,0,0,1-.82-.07c-.19-.15-.31-.43-.08-.62a2.1,2.1,0,0,1,1.64-.28,5,5,0,0,1,1,.22.83.83,0,0,1,.38.23A.44.44,0,0,1,31,31a.51.51,0,0,1-.67.26Z" style="fill:#38444b"/><ellipse cx="41.27" cy="36.71" rx="2.33" ry="1.16" transform="translate(-0.77 0.89) rotate(-1.22)" style="fill:#de9b8a"/><path d="M41.19,38.25c-1.49,0-2.61-.63-2.62-1.49s1.12-1.56,2.66-1.59,2.72.6,2.74,1.48h0c0,.88-1.13,1.56-2.67,1.59Zm.16-2.33h-.1c-1.19,0-1.94.51-1.93.83s.76.77,2,.74,1.94-.5,1.94-.83h0C43.21,36.35,42.48,35.92,41.35,35.92Z" style="fill:#254254"/><ellipse cx="26.51" cy="36.94" rx="2.33" ry="1.16" style="fill:#de9b8a"/><path d="M26.51,38.47c-1.54,0-2.7-.66-2.7-1.53S25,35.4,26.51,35.4s2.7.66,2.7,1.54S28.05,38.47,26.51,38.47Zm0-2.32c-1.19,0-2,.46-2,.79s.76.78,2,.78,1.95-.46,1.95-.78S27.7,36.15,26.51,36.15Z" style="fill:#254254"/><path d="M23,34.25a.24.24,0,0,1-.23-.14c-.08-.16-.31-.65,0-.93s.95,0,1.21.09a.24.24,0,0,1,.12.33.26.26,0,0,1-.34.12,1.35,1.35,0,0,0-.64-.18,2.08,2.08,0,0,0,.13.35.26.26,0,0,1-.11.34Z" style="fill:#254254"/><path d="M45.27,34.22h0A.25.25,0,0,1,45,34c0-.3-.06-.4-.08-.41s-.23,0-.36.13a.25.25,0,1,1-.3-.4s.51-.37.88-.18.37.42.36.87A.25.25,0,0,1,45.27,34.22Z" style="fill:#254254"/><path d="M34.23,34.88c-.25-.48-.65-.47-.88,0l-.43,1a.6.6,0,0,0,.59.91h.72a.55.55,0,0,0,.53-.88Z" style="fill:#e59f8d"/></svg>