<svg xmlns="http://www.w3.org/2000/svg" viewBox="0 0 120 100"><title>img_main_illust1</title><polygon points="50.78 30.54 50.78 79.11 68.11 79.11 68.11 35.29 50.78 30.54" style="fill:#fff3f3"/><polygon points="82.02 32.63 82.02 79.11 97.7 79.11 97.7 28.21 82.02 32.63" style="fill:#fff3f3"/><polygon points="21.59 46.01 21.59 92.5 37.27 92.5 37.27 41.6 21.59 46.01" style="fill:#fff3f3"/><polygon points="68.85 52.43 68.85 92.5 95.78 92.5 95.78 43.93 68.85 52.43" style="fill:#ffe1e1"/><rect x="14.23" y="51.98" width="7.51" height="27.1" style="fill:#ffccd5"/><rect x="18.36" y="48.61" width="17.08" height="30.5" style="fill:#ffe9ee"/><polygon points="39.85 46.11 39.85 79.11 54.42 79.11 54.42 45 39.85 46.11" style="fill:#ffe9ee"/><polygon points="61.27 46.55 61.27 79.11 76.72 79.11 76.72 50.23 61.27 46.55" style="fill:#ffe9ee"/><rect x="76.72" y="42.35" width="10.6" height="36.76" style="fill:#ffe9ee"/><polygon points="97.13 55.66 97.13 51.52 86.26 53.73 86.26 55.66 84.34 55.66 84.34 79.11 98.39 79.11 98.39 55.66 97.13 55.66" style="fill:#ffccd5"/><polygon points="69.66 51.52 61.93 58.36 61.93 79.11 77.39 79.11 77.39 58.36 69.66 51.52" style="fill:#ffccd5"/><rect x="44.37" y="53.73" width="14.24" height="25.39" style="fill:#ffccd5"/><polygon points="45.26 53.73 57.84 53.73 57.84 51.98 45.26 50.23 45.26 53.73" style="fill:#ffccd5"/><polygon points="25.16 79.11 40.73 79.11 40.73 58.61 25.16 55.69 25.16 79.11" style="fill:#ffccd5"/><polygon points="57.84 69.59 57.84 79.11 64.25 79.11 64.25 67.38 57.84 69.59" style="fill:#3b5f93"/><rect x="59.32" y="74.89" width="1.51" height="1.51" style="fill:#7390b0"/><rect x="61.52" y="74.89" width="1.51" height="1.51" style="fill:#7390b0"/><rect x="59.32" y="76.87" width="1.51" height="1.51" style="fill:#7390b0"/><rect x="61.52" y="76.87" width="1.51" height="1.51" style="fill:#7390b0"/><polygon points="49.01 67.38 49.01 79.11 55.41 79.11 55.41 69.59 49.01 67.38" style="fill:#3b5f93"/><rect x="52.43" y="74.89" width="1.51" height="1.51" style="fill:#7390b0"/><rect x="50.23" y="74.89" width="1.51" height="1.51" style="fill:#7390b0"/><rect x="52.43" y="76.87" width="1.51" height="1.51" style="fill:#7390b0"/><rect x="50.23" y="76.87" width="1.51" height="1.51" style="fill:#7390b0"/><rect x="92.29" y="58.91" width="7.73" height="20.2" style="fill:#d696a4"/><rect x="93.73" y="77.09" width="0.87" height="0.87" style="fill:#fff"/><rect x="93.73" y="75.55" width="0.87" height="0.87" style="fill:#fff"/><rect x="93.73" y="74" width="0.87" height="0.87" style="fill:#fff"/><rect x="93.73" y="72.46" width="0.87" height="0.87" style="fill:#fff"/><rect x="93.73" y="70.91" width="0.87" height="0.87" style="fill:#fff"/><rect x="93.73" y="69.37" width="0.87" height="0.87" style="fill:#fff"/><rect x="93.73" y="67.82" width="0.87" height="0.87" style="fill:#fff"/><rect x="93.73" y="66.27" width="0.87" height="0.87" style="fill:#fff"/><rect x="93.73" y="64.73" width="0.87" height="0.87" style="fill:#fff"/><rect x="93.73" y="63.18" width="0.87" height="0.87" style="fill:#fff"/><rect x="95" y="77.09" width="0.87" height="0.87" style="fill:#fff"/><rect x="95" y="75.55" width="0.87" height="0.87" style="fill:#fff"/><rect x="95" y="74" width="0.87" height="0.87" style="fill:#fff"/><rect x="95" y="72.46" width="0.87" height="0.87" style="fill:#fff"/><rect x="95" y="70.91" width="0.87" height="0.87" style="fill:#fff"/><rect x="95" y="69.37" width="0.87" height="0.87" style="fill:#fff"/><rect x="95" y="67.82" width="0.87" height="0.87" style="fill:#fff"/><rect x="95" y="66.27" width="0.87" height="0.87" style="fill:#fff"/><rect x="95" y="64.73" width="0.87" height="0.87" style="fill:#fff"/><rect x="95" y="63.18" width="0.87" height="0.87" style="fill:#fff"/><rect x="96.26" y="77.09" width="0.87" height="0.87" style="fill:#fff"/><rect x="96.26" y="75.55" width="0.87" height="0.87" style="fill:#fff"/><rect x="96.26" y="74" width="0.87" height="0.87" style="fill:#fff"/><rect x="96.26" y="72.46" width="0.87" height="0.87" style="fill:#fff"/><rect x="96.26" y="70.91" width="0.87" height="0.87" style="fill:#fff"/><rect x="96.26" y="69.37" width="0.87" height="0.87" style="fill:#fff"/><rect x="96.26" y="67.82" width="0.87" height="0.87" style="fill:#fff"/><rect x="96.26" y="66.27" width="0.87" height="0.87" style="fill:#fff"/><rect x="96.26" y="64.73" width="0.87" height="0.87" style="fill:#fff"/><rect x="96.26" y="63.18" width="0.87" height="0.87" style="fill:#fff"/><rect x="97.53" y="77.09" width="0.87" height="0.87" style="fill:#fff"/><rect x="97.53" y="75.55" width="0.87" height="0.87" style="fill:#fff"/><rect x="97.53" y="74" width="0.87" height="0.87" style="fill:#fff"/><rect x="97.53" y="72.46" width="0.87" height="0.87" style="fill:#fff"/><rect x="97.53" y="70.91" width="0.87" height="0.87" style="fill:#fff"/><rect x="97.53" y="69.37" width="0.87" height="0.87" style="fill:#fff"/><rect x="97.53" y="67.82" width="0.87" height="0.87" style="fill:#fff"/><rect x="97.53" y="66.27" width="0.87" height="0.87" style="fill:#fff"/><rect x="97.53" y="64.73" width="0.87" height="0.87" style="fill:#fff"/><rect x="97.53" y="63.18" width="0.87" height="0.87" style="fill:#fff"/><rect x="78.75" y="69.71" width="10.27" height="9.4" style="fill:#d696a4"/><rect x="79.63" y="72.87" width="1.51" height="1.51" style="fill:#5c7cab"/><rect x="81.84" y="72.87" width="1.51" height="1.51" style="fill:#5c7cab"/><rect x="84.05" y="72.87" width="1.51" height="1.51" style="fill:#5c7cab"/><rect x="86.26" y="72.87" width="1.51" height="1.51" style="fill:#5c7cab"/><rect x="79.63" y="74.86" width="1.51" height="1.51" style="fill:#5c7cab"/><rect x="81.84" y="74.86" width="1.51" height="1.51" style="fill:#5c7cab"/><rect x="84.05" y="74.86" width="1.51" height="1.51" style="fill:#5c7cab"/><rect x="86.26" y="74.86" width="1.51" height="1.51" style="fill:#5c7cab"/><rect x="31.09" y="63.01" width="1.51" height="3.42" style="fill:#fff"/><rect x="33.3" y="63.01" width="1.51" height="3.42" style="fill:#fff"/><rect x="31.09" y="67.52" width="1.51" height="3.42" style="fill:#fff"/><rect x="33.3" y="67.52" width="1.51" height="3.42" style="fill:#fff"/><rect x="21.74" y="45" width="10.22" height="3.61" style="fill:#ffe9ee"/><rect x="54.66" y="56.65" width="1.51" height="3.42" style="fill:#fff"/><rect x="54.66" y="63.05" width="1.51" height="3.42" style="fill:#fff"/><rect x="87.32" y="58.36" width="1.51" height="3.42" style="fill:#fff"/><rect x="87.32" y="64.55" width="1.51" height="3.42" style="fill:#fff"/><rect x="73.1" y="59.85" width="1.51" height="16.8" style="fill:#fff"/><polygon points="48.75 49.34 48.75 92.5 64.43 92.5 64.43 53.48 48.75 49.34" style="fill:#ffe9ee"/><polygon points="8.12 49.34 8.12 92.5 27.77 92.5 27.77 58.39 8.12 49.34" style="fill:#ffe9ee"/><rect x="40.8" y="62" width="16.78" height="30.5" style="fill:#ffe9ee"/><rect x="98.88" y="58.39" width="11.92" height="34.11" style="fill:#efd0d5"/><rect x="99.94" y="55.37" width="9.86" height="3.02" style="fill:#efd0d5"/><rect x="85.41" y="64.35" width="16.34" height="28.15" style="fill:#ffccd5"/><polygon points="65.61 62.29 65.61 92.5 82.75 92.5 82.75 66.41 65.61 62.29" style="fill:#ffccd5"/><polygon points="103.73 73.85 103.73 92.5 113.89 92.5 113.89 77.38 103.73 73.85" style="fill:#ffccd5"/><rect x="104.84" y="89.78" width="9.94" height="2.72" style="fill:#d696a4"/><rect x="80.88" y="72.3" width="7.73" height="20.2" style="fill:#d696a4"/><rect x="82.32" y="90.48" width="0.87" height="0.87" style="fill:#d696a4"/><rect x="82.32" y="88.93" width="0.87" height="0.87" style="fill:#d696a4"/><rect x="82.32" y="87.39" width="0.87" height="0.87" style="fill:#d696a4"/><rect x="82.32" y="85.84" width="0.87" height="0.87" style="fill:#d696a4"/><rect x="82.32" y="84.3" width="0.87" height="0.87" style="fill:#d696a4"/><rect x="82.32" y="82.75" width="0.87" height="0.87" style="fill:#d696a4"/><rect x="82.32" y="81.21" width="0.87" height="0.87" style="fill:#d696a4"/><rect x="82.32" y="79.66" width="0.87" height="0.87" style="fill:#d696a4"/><rect x="82.32" y="78.11" width="0.87" height="0.87" style="fill:#d696a4"/><rect x="82.32" y="76.57" width="0.87" height="0.87" style="fill:#d696a4"/><rect x="83.58" y="90.48" width="0.87" height="0.87" style="fill:#d696a4"/><rect x="83.58" y="88.93" width="0.87" height="0.87" style="fill:#d696a4"/><rect x="83.58" y="87.39" width="0.87" height="0.87" style="fill:#d696a4"/><rect x="83.58" y="85.84" width="0.87" height="0.87" style="fill:#d696a4"/><rect x="83.58" y="84.3" width="0.87" height="0.87" style="fill:#d696a4"/><rect x="83.58" y="82.75" width="0.87" height="0.87" style="fill:#d696a4"/><rect x="83.58" y="81.21" width="0.87" height="0.87" style="fill:#d696a4"/><rect x="83.58" y="79.66" width="0.87" height="0.87" style="fill:#d696a4"/><rect x="83.58" y="78.11" width="0.87" height="0.87" style="fill:#d696a4"/><rect x="83.58" y="76.57" width="0.87" height="0.87" style="fill:#d696a4"/><rect x="84.85" y="90.48" width="0.87" height="0.87" style="fill:#d696a4"/><rect x="84.85" y="88.93" width="0.87" height="0.87" style="fill:#d696a4"/><rect x="84.85" y="87.39" width="0.87" height="0.87" style="fill:#d696a4"/><rect x="84.85" y="85.84" width="0.87" height="0.87" style="fill:#d696a4"/><rect x="84.85" y="84.3" width="0.87" height="0.87" style="fill:#d696a4"/><rect x="84.85" y="82.75" width="0.87" height="0.87" style="fill:#d696a4"/><rect x="84.85" y="81.21" width="0.87" height="0.87" style="fill:#d696a4"/><rect x="84.85" y="79.66" width="0.87" height="0.87" style="fill:#d696a4"/><rect x="84.85" y="78.11" width="0.87" height="0.87" style="fill:#d696a4"/><rect x="84.85" y="76.57" width="0.87" height="0.87" style="fill:#d696a4"/><rect x="86.12" y="90.48" width="0.87" height="0.87" style="fill:#d696a4"/><rect x="86.12" y="88.93" width="0.87" height="0.87" style="fill:#d696a4"/><rect x="86.12" y="87.39" width="0.87" height="0.87" style="fill:#d696a4"/><rect x="86.12" y="85.84" width="0.87" height="0.87" style="fill:#d696a4"/><rect x="86.12" y="84.3" width="0.87" height="0.87" style="fill:#d696a4"/><rect x="86.12" y="82.75" width="0.87" height="0.87" style="fill:#d696a4"/><rect x="86.12" y="81.21" width="0.87" height="0.87" style="fill:#d696a4"/><rect x="86.12" y="79.66" width="0.87" height="0.87" style="fill:#d696a4"/><rect x="86.12" y="78.11" width="0.87" height="0.87" style="fill:#d696a4"/><rect x="86.12" y="76.57" width="0.87" height="0.87" style="fill:#d696a4"/><rect x="70.28" y="72.3" width="7.73" height="20.2" style="fill:#d696a4"/><rect x="71.72" y="90.48" width="0.87" height="0.87" style="fill:#d696a4"/><rect x="71.72" y="88.93" width="0.87" height="0.87" style="fill:#d696a4"/><rect x="71.72" y="87.39" width="0.87" height="0.87" style="fill:#d696a4"/><rect x="71.72" y="85.84" width="0.87" height="0.87" style="fill:#d696a4"/><rect x="71.72" y="84.3" width="0.87" height="0.87" style="fill:#d696a4"/><rect x="71.72" y="82.75" width="0.87" height="0.87" style="fill:#d696a4"/><rect x="71.72" y="81.21" width="0.87" height="0.87" style="fill:#d696a4"/><rect x="71.72" y="79.66" width="0.87" height="0.87" style="fill:#d696a4"/><rect x="71.72" y="78.11" width="0.87" height="0.87" style="fill:#d696a4"/><rect x="71.72" y="76.57" width="0.87" height="0.87" style="fill:#d696a4"/><rect x="72.98" y="90.48" width="0.87" height="0.87" style="fill:#d696a4"/><rect x="72.98" y="88.93" width="0.87" height="0.87" style="fill:#d696a4"/><rect x="72.98" y="87.39" width="0.87" height="0.87" style="fill:#d696a4"/><rect x="72.98" y="85.84" width="0.87" height="0.87" style="fill:#d696a4"/><rect x="72.98" y="84.3" width="0.87" height="0.87" style="fill:#d696a4"/><rect x="72.98" y="82.75" width="0.87" height="0.87" style="fill:#d696a4"/><rect x="72.98" y="81.21" width="0.87" height="0.87" style="fill:#d696a4"/><rect x="72.98" y="79.66" width="0.87" height="0.87" style="fill:#d696a4"/><rect x="72.98" y="78.11" width="0.87" height="0.87" style="fill:#d696a4"/><rect x="72.98" y="76.57" width="0.87" height="0.87" style="fill:#d696a4"/><rect x="74.25" y="90.48" width="0.87" height="0.87" style="fill:#d696a4"/><rect x="74.25" y="88.93" width="0.87" height="0.87" style="fill:#d696a4"/><rect x="74.25" y="87.39" width="0.87" height="0.87" style="fill:#d696a4"/><rect x="74.25" y="85.84" width="0.87" height="0.87" style="fill:#d696a4"/><rect x="74.25" y="84.3" width="0.87" height="0.87" style="fill:#d696a4"/><rect x="74.25" y="82.75" width="0.87" height="0.87" style="fill:#d696a4"/><rect x="74.25" y="81.21" width="0.87" height="0.87" style="fill:#d696a4"/><rect x="74.25" y="79.66" width="0.87" height="0.87" style="fill:#d696a4"/><rect x="74.25" y="78.11" width="0.87" height="0.87" style="fill:#d696a4"/><rect x="74.25" y="76.57" width="0.87" height="0.87" style="fill:#d696a4"/><rect x="75.52" y="90.48" width="0.87" height="0.87" style="fill:#d696a4"/><rect x="75.52" y="88.93" width="0.87" height="0.87" style="fill:#d696a4"/><rect x="75.52" y="87.39" width="0.87" height="0.87" style="fill:#d696a4"/><rect x="75.52" y="85.84" width="0.87" height="0.87" style="fill:#d696a4"/><rect x="75.52" y="84.3" width="0.87" height="0.87" style="fill:#d696a4"/><rect x="75.52" y="82.75" width="0.87" height="0.87" style="fill:#d696a4"/><rect x="75.52" y="81.21" width="0.87" height="0.87" style="fill:#d696a4"/><rect x="75.52" y="79.66" width="0.87" height="0.87" style="fill:#d696a4"/><rect x="75.52" y="78.11" width="0.87" height="0.87" style="fill:#d696a4"/><rect x="75.52" y="76.57" width="0.87" height="0.87" style="fill:#d696a4"/><polygon points="61.98 70.75 61.98 69.13 53.77 69.77 53.77 72.71 51.35 73.29 51.35 92.5 63.44 92.5 63.44 70.4 61.98 70.75" style="fill:#ffccd5"/><rect x="32.74" y="71.75" width="15.37" height="20.75" style="fill:#ffccd5"/><rect x="34.99" y="69.04" width="11.53" height="2.7" style="fill:#ffccd5"/><polygon points="19.44 64.9 7.29 71.75 7.29 92.5 31.58 92.5 31.58 71.75 19.44 64.9" style="fill:#ffccd5"/><polygon points="17.21 92.5 23.62 92.5 23.62 80.77 17.21 82.97 17.21 92.5" style="fill:#d696a4"/><rect x="18.68" y="88.27" width="1.51" height="1.51" style="fill:#d696a4"/><rect x="20.89" y="88.27" width="1.51" height="1.51" style="fill:#d696a4"/><rect x="18.68" y="90.26" width="1.51" height="1.51" style="fill:#d696a4"/><rect x="20.89" y="90.26" width="1.51" height="1.51" style="fill:#d696a4"/><rect x="43.42" y="80.91" width="11.24" height="11.59" style="fill:#3b5f93"/><rect x="44.87" y="87.03" width="1.65" height="1.65" style="fill:#5c7cab"/><rect x="47.28" y="87.03" width="1.65" height="1.65" style="fill:#5c7cab"/><rect x="49.7" y="87.03" width="1.65" height="1.65" style="fill:#5c7cab"/><rect x="52.12" y="87.03" width="1.65" height="1.65" style="fill:#5c7cab"/><rect x="44.87" y="89.21" width="1.65" height="1.65" style="fill:#5c7cab"/><rect x="47.28" y="89.21" width="1.65" height="1.65" style="fill:#5c7cab"/><rect x="49.7" y="89.21" width="1.65" height="1.65" style="fill:#5c7cab"/><rect x="52.12" y="89.21" width="1.65" height="1.65" style="fill:#5c7cab"/><rect x="43.42" y="80.91" width="11.24" height="11.59" style="fill:#d696a4"/><rect x="44.87" y="87.03" width="1.65" height="1.65" style="fill:#fff"/><rect x="47.28" y="87.03" width="1.65" height="1.65" style="fill:#fff"/><rect x="49.7" y="87.03" width="1.65" height="1.65" style="fill:#fff"/><rect x="52.12" y="87.03" width="1.65" height="1.65" style="fill:#fff"/><rect x="44.87" y="89.21" width="1.65" height="1.65" style="fill:#fff"/><rect x="47.28" y="89.21" width="1.65" height="1.65" style="fill:#fff"/><rect x="49.7" y="89.21" width="1.65" height="1.65" style="fill:#fff"/><rect x="52.12" y="89.21" width="1.65" height="1.65" style="fill:#fff"/><rect x="56.94" y="85.44" width="10.27" height="7.06" style="fill:#d696a4"/><rect x="58.27" y="88.63" width="1.51" height="1.51" style="fill:#fff"/><rect x="60.47" y="88.63" width="1.51" height="1.51" style="fill:#fff"/><rect x="62.68" y="88.63" width="1.51" height="1.51" style="fill:#fff"/><rect x="64.89" y="88.63" width="1.51" height="1.51" style="fill:#fff"/><rect x="58.27" y="90.61" width="1.51" height="1.51" style="fill:#fff"/><rect x="60.47" y="90.61" width="1.51" height="1.51" style="fill:#fff"/><rect x="62.68" y="90.61" width="1.51" height="1.51" style="fill:#fff"/><rect x="64.89" y="90.61" width="1.51" height="1.51" style="fill:#fff"/><rect x="90.49" y="80.69" width="10.27" height="11.81" style="fill:#d696a4"/><rect x="91.81" y="86.29" width="1.51" height="1.51" style="fill:#fff"/><rect x="94.02" y="86.29" width="1.51" height="1.51" style="fill:#fff"/><rect x="96.23" y="86.29" width="1.51" height="1.51" style="fill:#fff"/><rect x="98.44" y="86.29" width="1.51" height="1.51" style="fill:#fff"/><rect x="91.81" y="88.27" width="1.51" height="1.51" style="fill:#fff"/><rect x="94.02" y="88.27" width="1.51" height="1.51" style="fill:#fff"/><rect x="96.23" y="88.27" width="1.51" height="1.51" style="fill:#fff"/><rect x="98.44" y="88.27" width="1.51" height="1.51" style="fill:#fff"/><rect x="91.81" y="90.26" width="1.51" height="1.51" style="fill:#fff"/><rect x="94.02" y="90.26" width="1.51" height="1.51" style="fill:#fff"/><rect x="96.23" y="90.26" width="1.51" height="1.51" style="fill:#fff"/><rect x="98.44" y="90.26" width="1.51" height="1.51" style="fill:#fff"/><rect x="90.78" y="68.62" width="2.21" height="6.77" style="fill:#fff"/><rect x="96.63" y="71.75" width="2.21" height="4.53" style="fill:#fff"/><rect x="13.94" y="74.95" width="3.64" height="3.47" style="fill:#fff"/><rect x="18.35" y="74.95" width="3.64" height="3.47" style="fill:#fff"/><rect x="22.77" y="74.95" width="3.64" height="3.47" style="fill:#fff"/><rect x="107.08" y="79.89" width="1.51" height="1.51" style="fill:#fff"/><rect x="109.29" y="79.89" width="1.51" height="1.51" style="fill:#fff"/><rect x="107.08" y="81.88" width="1.51" height="1.51" style="fill:#fff"/><rect x="109.29" y="81.88" width="1.51" height="1.51" style="fill:#fff"/><rect x="57.88" y="74.79" width="2.27" height="2.98" style="fill:#fff"/><rect x="57.88" y="79.2" width="2.27" height="2.98" style="fill:#fff"/><rect x="36.95" y="83.71" width="1.75" height="1.75" style="fill:#fff"/><rect x="36.95" y="80.58" width="1.75" height="1.75" style="fill:#fff"/><rect x="36.95" y="77.45" width="1.75" height="1.75" style="fill:#fff"/><rect x="39.51" y="83.71" width="1.75" height="1.75" style="fill:#fff"/><rect x="39.51" y="80.58" width="1.75" height="1.75" style="fill:#fff"/><rect x="39.51" y="77.45" width="1.75" height="1.75" style="fill:#fff"/><path d="M117.48,92.75H.56a.25.25,0,0,1,0-.5H117.48a.25.25,0,1,1,0,.5Z" style="fill:#999"/><path d="M75.7,91.71v1.45l-2.23,2.07C68.82,100.05,65.93,98,65.93,98c-1.24-.84-.92-1.51-.84-1.64-.06.14-.38,1.14,2.45,1.08,0,0,2.66.5,7.48-4.37A1.73,1.73,0,0,0,75.7,91.71Z" style="fill:#564449"/><path d="M67.14,94.56c0-.11-.23-.81,1.17-2-.2.08-1.82.77-1.88,1.65Zm1.18-2c-.06.14-.76,1.65-.28,2.43l.78-.39s-.73-1.27,0-2c1.78.14,4.34-1.57,4.49-3.22h0c.24-.14.49-.29.74-.46l1.2,1.56a2.12,2.12,0,0,1,.46,1.24A1.73,1.73,0,0,1,75,93c-4.82,4.87-7.48,4.37-7.48,4.37-2.83.06-2.51-.94-2.45-1.08a0,0,0,0,1,0,0c-.22-2.61,3.38-5.13,3.38-5.13a8,8,0,0,0-.55.91c-.11.27.23.4.4.45Z" style="fill:#705a5f"/><path d="M73.61,85.2c1.25.75,1.08,3.24,1.08,3.24-.22.17-.44.32-.65.47s-.5.32-.74.46a13.33,13.33,0,0,1-4.82,1.79,8.64,8.64,0,0,1-1.83.11c-.8,0-1.22-2.24-1.22-2.24l.07-.59A21.09,21.09,0,0,0,73.78,86Z" style="fill:#215870"/><path d="M62.06,76.89,60.6,89.19a4.9,4.9,0,0,1-2.62,0c-2.16-.33-5.94-.75-5.94-.75l.37-16.29L53.49,57h0c1.8-.21,6.53-.9,7.71-2.24l9.11,2.32L70,53.5c.92,2.3,1,9.92,1,9.92v9l2.57,12.8.17.83a21.09,21.09,0,0,1-8.28,2.41Z" style="fill:#336d8c"/><path d="M73.3,89.37h0c-.15,1.65-2.71,3.36-4.49,3.22a2.51,2.51,0,0,1-.49-.08c-.17,0-.51-.18-.4-.45a8,8,0,0,1,.55-.91A13.33,13.33,0,0,0,73.3,89.37Z" style="fill:#f3d2bf"/><path d="M70,53.5l.28,3.6L61.2,54.78A30.72,30.72,0,0,0,70,53.5Z" style="fill:#d9e6e8"/><path d="M53.06,53.31c-1.55-2.13-.87-10.73-.87-10.73,0-1.23,0-2.34.08-3.36,0-.19,0-.35,0-.54.38-4.18,1.49-6.47,2.49-7.68a4.72,4.72,0,0,1,1-.92,2.5,2.5,0,0,1,.8-.43l2.69,4.51,1.92-2,1.75,2,2.91-4.51a10.82,10.82,0,0,1,3,2.18C72.93,45.36,70,53.5,70,53.5a30.72,30.72,0,0,1-8.83,1.28,26,26,0,0,1-7.47-1A1.05,1.05,0,0,1,53.06,53.31Z" style="fill:#da606f"/><path d="M68.82,94.57,68,95c-.48-.78.22-2.29.28-2.43h0a2.51,2.51,0,0,0,.49.08C68.09,93.3,68.82,94.57,68.82,94.57Z" style="fill:#564449"/><path d="M68,17.88c-.14.86-.55,1.13-.87,1.21a.93.93,0,0,1-.43,0,1.43,1.43,0,0,1-.73.06c-1.53-.32-2.2-3.44-2.2-3.44-.72-2.16-1.83-.56-1.83-.56s.12-.88.16-1.82c0-.3,0-.61,0-.89a5,5,0,0,0-.09-.84,2,2,0,0,0-.08-.26,2,2,0,0,0-.22-.87s5.21-3.35,6,4.8c0,0-.56,1.94.83,1.83A3.66,3.66,0,0,1,68,17.88Z" style="fill:#39454c"/><path d="M66.43,94.18c.06-.88,1.68-1.57,1.88-1.65-1.4,1.22-1.21,1.92-1.17,2Z" style="fill:#564449"/><path d="M67.06,19.81a1.28,1.28,0,0,1,.48,1,1.13,1.13,0,0,1-1,1.23,1,1,0,0,1-.33-.08v-.06L66,20v-.11a.87.87,0,0,1,.54-.23A.83.83,0,0,1,67.06,19.81Z" style="fill:#f3d2bf"/><path d="M66.21,22a5.14,5.14,0,0,1,0,.68,5.7,5.7,0,0,1-4.32,5.24,4.67,4.67,0,0,1-.65.13l-.62.07a5.19,5.19,0,0,1-1.31-.06,4.23,4.23,0,0,1-.62-.11,5.56,5.56,0,0,1-4.18-4.8l0-.24L54.18,20l0-.55a1.89,1.89,0,0,0,2.45-.67A2.11,2.11,0,0,0,58.69,16c0-1.5.62-1.64.62-1.64,2.14-.64,2.58.74,2.58.74s1.11-1.6,1.83.56c0,0,.67,3.12,2.2,3.44l.08.71V20l.2,2Z" style="fill:#f3d2bf"/><path d="M65.86,29.65,63,34.16l-1.75-2,1.25-1.79a2,2,0,0,0,.5-.71h0a2,2,0,0,0,.13-.68v-.31A5.25,5.25,0,0,1,65.86,29.65Z" style="fill:#d9e6e8"/><path d="M63.08,28.66V29a2,2,0,0,1-.13.68h0l-.5.71L61.2,32.16l-1.4-1.93a1.6,1.6,0,0,1-.22-.31h0a1.87,1.87,0,0,1-.26-.94v-.91a5.19,5.19,0,0,0,1.31.06l.62-.07a4.67,4.67,0,0,0,.65-.13,5.48,5.48,0,0,0,1.19-.44Z" style="fill:#f3d2bf"/><path d="M62,11.59a5,5,0,0,1,.09.84c0,.28,0,.59,0,.89,0,.94-.16,1.82-.16,1.82s-.44-1.38-2.58-.74c0,0-.67.14-.62,1.64a2.11,2.11,0,0,1-2.11,2.73,1.89,1.89,0,0,1-2.45.67,5.5,5.5,0,0,1-.8-.34l0-.15a1.14,1.14,0,0,0,.79-.27l.05,0h-.05a5.5,5.5,0,0,1-.92-.13c-1.45-.32-1.64-1.06-1.64-1.06,2,0,1.27-2.61,1.27-2.61a4,4,0,0,1,3.79-5.22c3.47-1,4.67,0,5.09.84a2,2,0,0,1,.22.87A2,2,0,0,1,62,11.59Z" style="fill:#39454c"/><path d="M59.8,30.23l1.4,1.93-1.92,2-2.69-4.51a4.7,4.7,0,0,1,2.69-1h0V29a1.87,1.87,0,0,0,.26.94h0A1.6,1.6,0,0,0,59.8,30.23Z" style="fill:#d9e6e8"/><path d="M53.94,91.33l-.11,0a18.17,18.17,0,0,1-2.25-.5c-.28-.33,0-1.82,0-1.82,0-.84.46-.59.46-.59s3.78.42,5.94.75a4.9,4.9,0,0,0,2.62,0c.79-.16.18,2.09.18,2.09a1,1,0,0,1-.64.37,3,3,0,0,1-.75.09h-.62a29.37,29.37,0,0,1-4.88-.39Z" style="fill:#215870"/><path d="M60.56,92.93a2,2,0,0,1,0,1.35,1.7,1.7,0,0,1-1.06,1c-6.17,3-8.51,1.63-8.51,1.63-2.61-.86-2.09-1.68-2-1.83l0,0c.59-2.28,4.09-3.46,4.77-3.67h.06a7.17,7.17,0,0,0-.76.64c-.19.21.08.44.23.55s-2,.06-2.34.93l.54.61s-.09-.8,1.79-1.53c-.13.14-1.27,1.31-1.08,2.2l.86-.12s-.25-1.43.66-1.85a5,5,0,0,0,5-1h.62a3,3,0,0,0,.75-.09Z" style="fill:#705a5f"/><path d="M60.56,94.28l-.47,1.34L57.3,96.83c-6,3-8,0-8,0-.89-1.21-.37-1.74-.25-1.82-.14.15-.66,1,2,1.83,0,0,2.34,1.36,8.51-1.63A1.7,1.7,0,0,0,60.56,94.28Z" style="fill:#564449"/><path d="M61.2,54.78c-1.18,1.34-5.91,2-7.71,2.24l-.7.08.27-3.79a1.05,1.05,0,0,0,.67.47A26,26,0,0,0,61.2,54.78Z" style="fill:#d9e6e8"/><path d="M52.28,31.63a4.62,4.62,0,0,1,3.51-1.55,4.72,4.72,0,0,0-1,.92c-1,1.21-2.11,3.5-2.49,7.68l-3.14-2.46-.64-.5,0,0Z" style="fill:#da606f"/><path d="M58.77,91.75a5,5,0,0,1-5,1,1.64,1.64,0,0,1-.43-.24c-.15-.11-.42-.34-.23-.55a7.17,7.17,0,0,1,.76-.64A29.37,29.37,0,0,0,58.77,91.75Z" style="fill:#f3d2bf"/><path d="M54.18,20l.3,2.92a1.48,1.48,0,0,1-.84-2.8,1,1,0,0,1,.54-.12Z" style="fill:#f3d2bf"/><path d="M53.36,92.55a1.64,1.64,0,0,0,.43.24c-.91.42-.66,1.85-.66,1.85l-.86.12c-.19-.89.95-2.06,1.08-2.2Z" style="fill:#564449"/><path d="M53.36,92.55h0c-1.88.73-1.79,1.53-1.79,1.53L51,93.48C51.38,92.61,53.36,92.55,53.36,92.55Z" style="fill:#564449"/><path d="M49.18,36.22l3.14,2.46c-3.63,4.53-6.45,3.54-6.45,3.54-2.44.52-8.29-10.4-8.29-10.4l3.59-4.16a3.26,3.26,0,0,1-.07,3l5.77,6.9Z" style="fill:#f3d2bf"/><path d="M48,22.36a1.12,1.12,0,0,1,0,1.58L44.94,27.2a1.12,1.12,0,0,1-1.58,0L43.09,27a1.1,1.1,0,0,1-.34-.85,1.14,1.14,0,0,1,.29-.73l3.06-3.25a1,1,0,0,1,.17-.12,1.1,1.1,0,0,1,1.41.07Z" style="fill:#76a4ce"/><path d="M34.7,21.26l-1.52-1,7.21-7.68L46.27,22a1,1,0,0,0-.17.12L43,25.41a1.14,1.14,0,0,0-.29.73l-.1.09-3.25-2Z" style="fill:#afcdec"/><path d="M42.65,26.23h0l-1.48,1.42-3.59,4.16-.8.93a1,1,0,0,1-1.41.11l-.92-.79a1,1,0,0,1-.11-1.41l.87-1,.9-1s.12,1.2,1.56.55l2.1-1.88s1-.6-.92-1.85l.55-1.22h0Z" style="fill:#76a4ce"/><path d="M40.5,10.88a1.12,1.12,0,0,1,0,1.58l-.16.17-7.21,7.68-.16.16a1.12,1.12,0,0,1-1.58.05l-.27-.25a1.12,1.12,0,0,1-.05-1.58l2-2.09,3.6-3.83,2-2.09a1.12,1.12,0,0,1,1.58,0Z" style="fill:#76a4ce"/><path d="M38.85,25.43c1.95,1.25.92,1.85.92,1.85l-2.1,1.88c-1.44.65-1.56-.55-1.56-.55l-.9,1c-.91-1.4-.31-2-.31-2a8.23,8.23,0,0,1,2.66-2.61C38.22,24.54,38.85,25.43,38.85,25.43Z" style="fill:#f3d2bf"/><path d="M36.69,12.77l-3.6,3.83a2.63,2.63,0,1,1,3.6-3.83Z" style="fill:#afcdec"/><path d="M64.16,12.76c-.45-1.36-1.86-.5-2.1-.33" style="fill:none;stroke:#254254;stroke-linecap:round;stroke-linejoin:round;stroke-width:0.5px"/><path d="M58.69,12.46a2.78,2.78,0,0,1,3.33,0,.07.07,0,0,1,0,0" style="fill:none;stroke:#254254;stroke-linecap:round;stroke-linejoin:round;stroke-width:0.5px"/><line x1="66.01" y1="19.96" x2="66" y2="19.85" style="fill:none;stroke:#254254;stroke-linecap:round;stroke-linejoin:round;stroke-width:0.5px"/><line x1="54.13" y1="19.44" x2="54.18" y2="19.99" style="fill:none;stroke:#254254;stroke-linecap:round;stroke-linejoin:round;stroke-width:0.5px"/><path d="M54.08,18.64v0" style="fill:none;stroke:#254254;stroke-linecap:round;stroke-linejoin:round;stroke-width:0.5px"/><line x1="65.92" y1="19.14" x2="66" y2="19.85" style="fill:none;stroke:#254254;stroke-linecap:round;stroke-linejoin:round;stroke-width:0.5px"/><line x1="54.48" y1="22.91" x2="54.18" y2="19.99" style="fill:none;stroke:#254254;stroke-linecap:round;stroke-linejoin:round;stroke-width:0.5px"/><path d="M66.21,22.68a5.14,5.14,0,0,0,0-.68" style="fill:none;stroke:#254254;stroke-linecap:round;stroke-linejoin:round;stroke-width:0.5px"/><path d="M66,20l.2,2V22" style="fill:none;stroke:#254254;stroke-linecap:round;stroke-linejoin:round;stroke-width:0.5px"/><path d="M54.18,20a1,1,0,0,0-.54.12,1.48,1.48,0,0,0,.84,2.8" style="fill:none;stroke:#254254;stroke-linecap:round;stroke-linejoin:round;stroke-width:0.5px"/><path d="M54.08,18.64a5.5,5.5,0,0,1-.92-.13c-1.45-.32-1.64-1.06-1.64-1.06,2,0,1.27-2.61,1.27-2.61a4,4,0,0,1,3.79-5.22c3.47-1,4.67,0,5.09.84" style="fill:none;stroke:#254254;stroke-linecap:round;stroke-linejoin:round;stroke-width:0.5px"/><path d="M62,11.59a5,5,0,0,1,.09.84" style="fill:none;stroke:#254254;stroke-linecap:round;stroke-linejoin:round;stroke-width:0.5px"/><path d="M62.05,13.32c0-.3,0-.61,0-.89" style="fill:none;stroke:#254254;stroke-linecap:round;stroke-linejoin:round;stroke-width:0.5px"/><path d="M54.18,18.65h0" style="fill:none;stroke:#254254;stroke-linecap:round;stroke-linejoin:round;stroke-width:0.5px"/><path d="M62.05,13.32c0,.94-.16,1.82-.16,1.82" style="fill:none;stroke:#254254;stroke-linecap:round;stroke-linejoin:round;stroke-width:0.5px"/><path d="M57.07,14.84c-1,.1-.49,1.66-.49,1.66.21,1.92-1.29,2.15-1.29,2.15a6.43,6.43,0,0,0,1.29.12A2.11,2.11,0,0,0,58.69,16c0-1.5.62-1.64.62-1.64,2.14-.64,2.58.74,2.58.74" style="fill:none;stroke:#254254;stroke-linecap:round;stroke-linejoin:round;stroke-width:0.5px"/><path d="M62,11.59a2,2,0,0,0-.08-.26,2,2,0,0,0-.22-.87" style="fill:none;stroke:#254254;stroke-linecap:round;stroke-linejoin:round;stroke-width:0.5px"/><path d="M54.08,18.64h.05" style="fill:none;stroke:#254254;stroke-linecap:round;stroke-linejoin:round;stroke-width:0.5px"/><path d="M54.13,19.44a5.5,5.5,0,0,1-.8-.34" style="fill:none;stroke:#254254;stroke-linecap:round;stroke-linejoin:round;stroke-width:0.5px"/><path d="M52.79,18.77l0,0,.05,0,0,0,.42.25" style="fill:none;stroke:#254254;stroke-linecap:round;stroke-linejoin:round;stroke-width:0.5px"/><path d="M53.29,19a1.34,1.34,0,0,1-.38-.1" style="fill:none;stroke:#254254;stroke-linecap:round;stroke-linejoin:round;stroke-width:0.5px"/><path d="M54.08,18.68l.05,0" style="fill:none;stroke:#254254;stroke-linecap:round;stroke-linejoin:round;stroke-width:0.5px"/><path d="M54.08,18.68a1.14,1.14,0,0,1-.79.27" style="fill:none;stroke:#254254;stroke-linecap:round;stroke-linejoin:round;stroke-width:0.5px"/><path d="M54.49,16.57a2.82,2.82,0,0,1,.8-2.63" style="fill:none;stroke:#254254;stroke-linecap:round;stroke-linejoin:round;stroke-width:0.5px"/><path d="M54.13,19.44a1.89,1.89,0,0,0,2.45-.67" style="fill:none;stroke:#254254;stroke-linecap:round;stroke-linejoin:round;stroke-width:0.5px"/><path d="M54.13,18.64l.08-.06a1.59,1.59,0,0,0,.36-1.5,4.5,4.5,0,0,1-.08-.51" style="fill:none;stroke:#254254;stroke-linecap:round;stroke-linejoin:round;stroke-width:0.5px"/><line x1="53.33" y1="19.1" x2="53.29" y2="18.95" style="fill:none;stroke:#254254;stroke-linecap:round;stroke-linejoin:round;stroke-width:0.5px"/><line x1="53.64" y1="20.11" x2="53.33" y2="19.1" style="fill:none;stroke:#254254;stroke-linecap:round;stroke-linejoin:round;stroke-width:0.5px"/><line x1="53.16" y1="18.51" x2="53.29" y2="18.95" style="fill:none;stroke:#254254;stroke-linecap:round;stroke-linejoin:round;stroke-width:0.5px"/><path d="M56.58,11.88A4.52,4.52,0,0,1,62,11.59" style="fill:none;stroke:#254254;stroke-linecap:round;stroke-linejoin:round;stroke-width:0.5px"/><path d="M64.65,11.59a2.36,2.36,0,0,0-2.68,0" style="fill:none;stroke:#254254;stroke-linecap:round;stroke-linejoin:round;stroke-width:0.5px"/><path d="M66.54,17.92a.89.89,0,0,0,1.41,0" style="fill:none;stroke:#254254;stroke-linecap:round;stroke-linejoin:round;stroke-width:0.5px"/><path d="M68,17.88a3.66,3.66,0,0,0,.59-.79c-1.39.11-.83-1.83-.83-1.83-.83-8.15-6-4.8-6-4.8" style="fill:none;stroke:#254254;stroke-linecap:round;stroke-linejoin:round;stroke-width:0.5px"/><path d="M65.92,19.14c-1.53-.32-2.2-3.44-2.2-3.44-.72-2.16-1.83-.56-1.83-.56" style="fill:none;stroke:#254254;stroke-linecap:round;stroke-linejoin:round;stroke-width:0.5px"/><path d="M65.43,17.64a1.16,1.16,0,0,0,.43.92" style="fill:none;stroke:#254254;stroke-linecap:round;stroke-linejoin:round;stroke-width:0.5px"/><path d="M66.65,19.08a1.43,1.43,0,0,1-.73.06" style="fill:none;stroke:#254254;stroke-linecap:round;stroke-linejoin:round;stroke-width:0.5px"/><path d="M66.65,19.08a3.3,3.3,0,0,1-.79-.52" style="fill:none;stroke:#254254;stroke-linecap:round;stroke-linejoin:round;stroke-width:0.5px"/><path d="M66.65,19.08a.93.93,0,0,0,.43,0c.32-.08.73-.35.87-1.21" style="fill:none;stroke:#254254;stroke-linecap:round;stroke-linejoin:round;stroke-width:0.5px"/><polyline points="67.08 19.08 67.08 19.09 67.08 19.78" style="fill:none;stroke:#254254;stroke-linecap:round;stroke-linejoin:round;stroke-width:0.5px"/><path d="M66,19.85a.87.87,0,0,1,.54-.23.83.83,0,0,1,.52.19,1.28,1.28,0,0,1,.48,1,1.13,1.13,0,0,1-1,1.23,1,1,0,0,1-.33-.08" style="fill:none;stroke:#254254;stroke-linecap:round;stroke-linejoin:round;stroke-width:0.5px"/><path d="M54.48,22.91l0,.24A5.56,5.56,0,0,0,58.69,28" style="fill:none;stroke:#254254;stroke-linecap:round;stroke-linejoin:round;stroke-width:0.5px"/><path d="M59.31,28.06a5.19,5.19,0,0,0,1.31.06l.62-.07a4.67,4.67,0,0,0,.65-.13" style="fill:none;stroke:#254254;stroke-linecap:round;stroke-linejoin:round;stroke-width:0.5px"/><path d="M58.69,28a4.23,4.23,0,0,0,.62.11" style="fill:none;stroke:#254254;stroke-linecap:round;stroke-linejoin:round;stroke-width:0.5px"/><path d="M63.08,27.48a5.53,5.53,0,0,0,3.13-4.8" style="fill:none;stroke:#254254;stroke-linecap:round;stroke-linejoin:round;stroke-width:0.5px"/><path d="M63.08,27.48a5.48,5.48,0,0,1-1.19.44" style="fill:none;stroke:#254254;stroke-linecap:round;stroke-linejoin:round;stroke-width:0.5px"/><path d="M59.31,28.06V29a1.87,1.87,0,0,0,.26.94" style="fill:none;stroke:#254254;stroke-linecap:round;stroke-linejoin:round;stroke-width:0.5px"/><line x1="63.08" y1="27.48" x2="63.08" y2="28.66" style="fill:none;stroke:#254254;stroke-linecap:round;stroke-linejoin:round;stroke-width:0.5px"/><path d="M62.45,30.37a2,2,0,0,0,.5-.71" style="fill:none;stroke:#254254;stroke-linecap:round;stroke-linejoin:round;stroke-width:0.5px"/><path d="M63,29.65a2,2,0,0,0,.13-.68v-.31" style="fill:none;stroke:#254254;stroke-linecap:round;stroke-linejoin:round;stroke-width:0.5px"/><line x1="62.45" y1="30.37" x2="62.95" y2="29.66" style="fill:none;stroke:#254254;stroke-linecap:round;stroke-linejoin:round;stroke-width:0.5px"/><line x1="62.95" y1="29.65" x2="62.95" y2="29.66" style="fill:none;stroke:#254254;stroke-linecap:round;stroke-linejoin:round;stroke-width:0.5px"/><path d="M59.58,29.92a1.6,1.6,0,0,0,.22.31" style="fill:none;stroke:#254254;stroke-linecap:round;stroke-linejoin:round;stroke-width:0.5px"/><line x1="59.57" y1="29.91" x2="59.58" y2="29.92" style="fill:none;stroke:#254254;stroke-linecap:round;stroke-linejoin:round;stroke-width:0.5px"/><line x1="62.45" y1="30.37" x2="61.2" y2="32.16" style="fill:none;stroke:#254254;stroke-linecap:round;stroke-linejoin:round;stroke-width:0.5px"/><line x1="61.2" y1="32.16" x2="59.8" y2="30.23" style="fill:none;stroke:#254254;stroke-linecap:round;stroke-linejoin:round;stroke-width:0.5px"/><polyline points="61.2 32.16 62.95 34.16 65.86 29.65" style="fill:none;stroke:#254254;stroke-linecap:round;stroke-linejoin:round;stroke-width:0.5px"/><polyline points="56.59 29.65 59.28 34.16 61.2 32.16" style="fill:none;stroke:#254254;stroke-linecap:round;stroke-linejoin:round;stroke-width:0.5px"/><path d="M59.28,28.67a4.7,4.7,0,0,0-2.69,1" style="fill:none;stroke:#254254;stroke-linecap:round;stroke-linejoin:round;stroke-width:0.5px"/><path d="M65.86,29.65a5.25,5.25,0,0,0-2.78-1" style="fill:none;stroke:#254254;stroke-linecap:round;stroke-linejoin:round;stroke-width:0.5px"/><path d="M52.32,38.68c.38-4.18,1.49-6.47,2.49-7.68" style="fill:none;stroke:#254254;stroke-linecap:round;stroke-linejoin:round;stroke-width:0.5px"/><path d="M52.32,38.68c0,.19,0,.35,0,.54" style="fill:none;stroke:#254254;stroke-linecap:round;stroke-linejoin:round;stroke-width:0.5px"/><path d="M70,53.5a30.72,30.72,0,0,1-8.83,1.28,26,26,0,0,1-7.47-1,1.05,1.05,0,0,1-.67-.47c-1.55-2.13-.87-10.73-.87-10.73,0-1.23,0-2.34.08-3.36" style="fill:none;stroke:#254254;stroke-linecap:round;stroke-linejoin:round;stroke-width:0.5px"/><path d="M70,53.5s2.9-8.14-1.16-21.67a10.82,10.82,0,0,0-3-2.18" style="fill:none;stroke:#254254;stroke-linecap:round;stroke-linejoin:round;stroke-width:0.5px"/><path d="M55.79,30.08a4.72,4.72,0,0,0-1,.92" style="fill:none;stroke:#254254;stroke-linecap:round;stroke-linejoin:round;stroke-width:0.5px"/><path d="M56.59,29.65a2.5,2.5,0,0,0-.8.43" style="fill:none;stroke:#254254;stroke-linecap:round;stroke-linejoin:round;stroke-width:0.5px"/><line x1="52.32" y1="38.68" x2="49.18" y2="36.22" style="fill:none;stroke:#254254;stroke-linecap:round;stroke-linejoin:round;stroke-width:0.5px"/><path d="M52.32,38.68c-3.63,4.53-6.45,3.54-6.45,3.54-2.44.52-8.29-10.4-8.29-10.4" style="fill:none;stroke:#254254;stroke-linecap:round;stroke-linejoin:round;stroke-width:0.5px"/><path d="M55.79,30.08a4.62,4.62,0,0,0-3.51,1.55l-3.71,4.06,0,0,.64.5" style="fill:none;stroke:#254254;stroke-linecap:round;stroke-linejoin:round;stroke-width:0.5px"/><polyline points="61.2 32.16 60.95 36.82 62.06 36.82" style="fill:none;stroke:#254254;stroke-linecap:round;stroke-linejoin:round;stroke-width:0.5px"/><path d="M65.5,88.44A21.09,21.09,0,0,0,73.78,86l-.17-.83" style="fill:none;stroke:#254254;stroke-linecap:round;stroke-linejoin:round;stroke-width:0.5px"/><line x1="65.5" y1="88.44" x2="62.06" y2="76.89" style="fill:none;stroke:#254254;stroke-linecap:round;stroke-linejoin:round;stroke-width:0.5px"/><path d="M70,53.5c.92,2.3,1,9.92,1,9.92v9l2.57,12.8" style="fill:none;stroke:#254254;stroke-linecap:round;stroke-linejoin:round;stroke-width:0.5px"/><path d="M53.06,53.3h0l-.27,3.79.7-.08c1.8-.21,6.53-.9,7.71-2.24l9.11,2.32L70,53.5" style="fill:none;stroke:#254254;stroke-linecap:round;stroke-linejoin:round;stroke-width:0.5px"/><path d="M65.5,88.44l-.07.59s.42,2.24,1.22,2.24a8.64,8.64,0,0,0,1.83-.11,13.33,13.33,0,0,0,4.82-1.79c.24-.14.49-.29.74-.46s.43-.3.65-.47c0,0,.17-2.49-1.08-3.24" style="fill:none;stroke:#254254;stroke-linecap:round;stroke-linejoin:round;stroke-width:0.5px"/><path d="M68.33,92.52a2.51,2.51,0,0,0,.49.08c1.78.14,4.34-1.57,4.49-3.22" style="fill:none;stroke:#254254;stroke-linecap:round;stroke-linejoin:round;stroke-width:0.5px"/><path d="M65.09,96.31c-.06.14-.38,1.14,2.45,1.08,0,0,2.66.5,7.48-4.37a1.73,1.73,0,0,0,.68-1.31,2.12,2.12,0,0,0-.46-1.24L74,88.91" style="fill:none;stroke:#254254;stroke-linecap:round;stroke-linejoin:round;stroke-width:0.5px"/><path d="M68.33,92.52c-.17,0-.51-.18-.4-.45a8,8,0,0,1,.55-.91s-3.6,2.52-3.38,5.13" style="fill:none;stroke:#254254;stroke-linecap:round;stroke-linejoin:round;stroke-width:0.5px"/><path d="M65.1,96.29a0,0,0,0,0,0,0c-.08.13-.4.8.84,1.64,0,0,2.89,2.1,7.54-2.72l2.23-2.07V91.52" style="fill:none;stroke:#254254;stroke-linecap:round;stroke-linejoin:round;stroke-width:0.5px"/><path d="M67.15,94.57h0c0-.11-.23-.81,1.17-2" style="fill:none;stroke:#254254;stroke-linecap:round;stroke-linejoin:round;stroke-width:0.5px"/><path d="M68.31,92.53c-.2.08-1.82.77-1.88,1.65l.71.38" style="fill:none;stroke:#254254;stroke-linecap:round;stroke-linejoin:round;stroke-width:0.5px"/><line x1="68.31" y1="92.53" x2="68.32" y2="92.53" style="fill:none;stroke:#254254;stroke-linecap:round;stroke-linejoin:round;stroke-width:0.5px"/><path d="M68.33,92.52h0c-.06.14-.76,1.65-.28,2.43l.78-.39s-.73-1.27,0-2" style="fill:none;stroke:#254254;stroke-linecap:round;stroke-linejoin:round;stroke-width:0.5px"/><polyline points="53.49 57.03 52.41 72.15 52.04 88.44" style="fill:none;stroke:#254254;stroke-linecap:round;stroke-linejoin:round;stroke-width:0.5px"/><path d="M52,88.44s3.78.42,5.94.75a4.9,4.9,0,0,0,2.62,0" style="fill:none;stroke:#254254;stroke-linecap:round;stroke-linejoin:round;stroke-width:0.5px"/><polyline points="60.95 58.27 60.95 72.81 62.06 76.89" style="fill:none;stroke:#254254;stroke-linecap:round;stroke-linejoin:round;stroke-width:0.5px"/><line x1="60.6" y1="89.19" x2="62.06" y2="76.89" style="fill:none;stroke:#254254;stroke-linecap:round;stroke-linejoin:round;stroke-width:0.5px"/><path d="M58.77,91.75h.62a3,3,0,0,0,.75-.09" style="fill:none;stroke:#254254;stroke-linecap:round;stroke-linejoin:round;stroke-width:0.5px"/><path d="M53.83,91.35h.06" style="fill:none;stroke:#254254;stroke-linecap:round;stroke-linejoin:round;stroke-width:0.5px"/><path d="M53.89,91.36a29.37,29.37,0,0,0,4.88.39" style="fill:none;stroke:#254254;stroke-linecap:round;stroke-linejoin:round;stroke-width:0.5px"/><path d="M60.14,91.65a1,1,0,0,0,.64-.37s.61-2.25-.18-2.09" style="fill:none;stroke:#254254;stroke-linecap:round;stroke-linejoin:round;stroke-width:0.5px"/><path d="M53.83,91.35a18.17,18.17,0,0,1-2.25-.5c-.28-.33,0-1.82,0-1.82,0-.84.46-.59.46-.59" style="fill:none;stroke:#254254;stroke-linecap:round;stroke-linejoin:round;stroke-width:0.5px"/><path d="M54,91.32h0l-.11,0" style="fill:none;stroke:#254254;stroke-linecap:round;stroke-linejoin:round;stroke-width:0.5px"/><path d="M53.89,91.36l0,0" style="fill:none;stroke:#254254;stroke-linecap:round;stroke-linejoin:round;stroke-width:0.5px"/><path d="M53.36,92.55c-.15-.11-.42-.34-.23-.55a7.17,7.17,0,0,1,.76-.64" style="fill:none;stroke:#254254;stroke-linecap:round;stroke-linejoin:round;stroke-width:0.5px"/><path d="M53.83,91.35c-.68.21-4.18,1.39-4.77,3.67" style="fill:none;stroke:#254254;stroke-linecap:round;stroke-linejoin:round;stroke-width:0.5px"/><path d="M53.36,92.55a1.64,1.64,0,0,0,.43.24,5,5,0,0,0,5-1" style="fill:none;stroke:#254254;stroke-linecap:round;stroke-linejoin:round;stroke-width:0.5px"/><path d="M49,95.05c-.14.15-.66,1,2,1.83,0,0,2.34,1.36,8.51-1.63a1.7,1.7,0,0,0,1.06-1,2,2,0,0,0,0-1.35l-.42-1.28" style="fill:none;stroke:#254254;stroke-linecap:round;stroke-linejoin:round;stroke-width:0.5px"/><path d="M49.06,95l0,0c-.12.08-.64.61.25,1.82,0,0,2,2.95,8,0l2.79-1.21.47-1.34.08-.21" style="fill:none;stroke:#254254;stroke-linecap:round;stroke-linejoin:round;stroke-width:0.5px"/><path d="M53.36,92.55s-2,.06-2.34.93l.54.61s-.09-.8,1.79-1.53" style="fill:none;stroke:#254254;stroke-linecap:round;stroke-linejoin:round;stroke-width:0.5px"/><path d="M53.36,92.55h0c-.13.14-1.27,1.31-1.08,2.2l.86-.12s-.25-1.43.66-1.85" style="fill:none;stroke:#254254;stroke-linecap:round;stroke-linejoin:round;stroke-width:0.5px"/><path d="M41.17,27.66a3.26,3.26,0,0,1-.07,3l5.77,6.9,2.31-1.37" style="fill:none;stroke:#254254;stroke-linecap:round;stroke-linejoin:round;stroke-width:0.5px"/><line x1="42.65" y1="26.23" x2="42.75" y2="26.14" style="fill:none;stroke:#254254;stroke-linecap:round;stroke-linejoin:round;stroke-width:0.5px"/><path d="M36.11,28.61l-.9,1-.87,1a1,1,0,0,0,.11,1.41l.92.79a1,1,0,0,0,1.41-.11l.8-.93,3.59-4.16,1.48-1.42" style="fill:none;stroke:#254254;stroke-linecap:round;stroke-linejoin:round;stroke-width:0.5px"/><path d="M36.11,28.61s.12,1.2,1.56.55l2.1-1.88s1-.6-.92-1.85" style="fill:none;stroke:#254254;stroke-linecap:round;stroke-linejoin:round;stroke-width:0.5px"/><path d="M35.21,29.65c-.91-1.4-.31-2-.31-2a8.23,8.23,0,0,1,2.66-2.61c.66-.54,1.29.35,1.29.35" style="fill:none;stroke:#254254;stroke-linecap:round;stroke-linejoin:round;stroke-width:0.5px"/><polyline points="42.75 26.14 42.66 26.24 42.65 26.24 42.65 26.23 39.4 24.2 34.7 21.26 33.18 20.31" style="fill:none;stroke:#254254;stroke-linecap:round;stroke-linejoin:round;stroke-width:0.5px"/><line x1="46.27" y1="22.04" x2="40.39" y2="12.63" style="fill:none;stroke:#254254;stroke-linecap:round;stroke-linejoin:round;stroke-width:0.5px"/><path d="M40.39,12.63l.16-.17a1.12,1.12,0,0,0,0-1.58l-.27-.25a1.12,1.12,0,0,0-1.58,0l-2,2.09" style="fill:none;stroke:#254254;stroke-linecap:round;stroke-linejoin:round;stroke-width:0.5px"/><path d="M33.09,16.6l-2,2.09a1.12,1.12,0,0,0,.05,1.58l.27.25A1.12,1.12,0,0,0,33,20.47l.16-.16" style="fill:none;stroke:#254254;stroke-linecap:round;stroke-linejoin:round;stroke-width:0.5px"/><line x1="33.09" y1="16.6" x2="36.69" y2="12.77" style="fill:none;stroke:#254254;stroke-linecap:round;stroke-linejoin:round;stroke-width:0.5px"/><line x1="33.18" y1="20.31" x2="40.39" y2="12.63" style="fill:none;stroke:#254254;stroke-linecap:round;stroke-linejoin:round;stroke-width:0.5px"/><path d="M46.27,22a1.1,1.1,0,0,1,1.41.07l.27.25a1.12,1.12,0,0,1,0,1.58L44.94,27.2a1.12,1.12,0,0,1-1.58,0L43.09,27a1.1,1.1,0,0,1-.34-.85" style="fill:none;stroke:#254254;stroke-linecap:round;stroke-linejoin:round;stroke-width:0.5px"/><path d="M46.27,22a1,1,0,0,0-.17.12L43,25.41a1.14,1.14,0,0,0-.29.73" style="fill:none;stroke:#254254;stroke-linecap:round;stroke-linejoin:round;stroke-width:0.5px"/><path d="M33.09,16.6a2.63,2.63,0,1,1,3.6-3.83" style="fill:none;stroke:#254254;stroke-linecap:round;stroke-linejoin:round;stroke-width:0.5px"/><line x1="38.85" y1="25.43" x2="39.4" y2="24.21" style="fill:none;stroke:#254254;stroke-linecap:round;stroke-linejoin:round;stroke-width:0.5px"/><line x1="34.7" y1="21.26" x2="37.58" y2="18.25" style="fill:none;stroke:#254254;stroke-linecap:round;stroke-linejoin:round;stroke-width:0.5px"/><line x1="36.53" y1="22.33" x2="38.65" y2="20.11" style="fill:none;stroke:#254254;stroke-linecap:round;stroke-linejoin:round;stroke-width:0.5px"/><path d="M73,50.62,76.18,57l-1.49.74L72.1,52.55C72.37,52,72.68,51.32,73,50.62Z" style="fill:#ece9e1"/><path d="M74.69,57.76l.48,1-1,.49-.48-1L71.48,53.8c.16-.32.38-.75.62-1.25Z" style="fill:#ece9e1"/><path d="M65,59.79c-.08.2,0,.48.61.67a.46.46,0,0,0,0,.41c.12.19.43.39,1.18.43,0,0,2.32.14,3.78-2.89.14-.31.27-.65.4-1,0,0,.07-.25.15-.65a6.88,6.88,0,0,0,0-2.34s.12-.22.31-.6l2.22,4.46.48,1,.69,1.39L65.45,65.3,58.58,51.52l.69-.34,1.49-.74L68,46.83l1.52,3c-.24.75-.48,1.5-.74,2.25l-1.27-2.54-6.45,3.21,1.57,3.14L68.48,53c-.15.44-.31.87-.47,1.31a5.89,5.89,0,0,1-2.44,2.14s-.32.16-.34.34.14.3.77.41a3.12,3.12,0,0,0,1.68-.91,2.24,2.24,0,0,1,0,.72,3.44,3.44,0,0,1-2.52,2.52A.63.63,0,0,0,65,59.79Z" style="fill:#ece9e1"/><path d="M72.31,37.8c1.4,2.27,2.53,7,2.53,7A20.94,20.94,0,0,1,73,50.62l-2.36-4.75.08-.49-2.54-6Z" style="fill:#f3d2bf"/><path d="M70.63,45.87,73,50.62c-.31.7-.62,1.36-.89,1.93L70,48.34l.48-1.57Z" style="fill:#f3d2bf"/><path d="M72.82,37.55a.08.08,0,0,1,0,0l-.52.21-4.14,1.63-.65.26s0,0,0,0L65.75,35.2c-.72-1.81-.1-3.76,1.36-4.33s3.24.43,4,2.23Z" style="fill:#da606f"/><path d="M70,48.34l2.1,4.21c-.24.5-.46.93-.62,1.25l-2-3.93C69.69,49.36,69.85,48.85,70,48.34Z" style="fill:#f3d2bf"/><path d="M65.23,56.81c0-.18.34-.34.34-.34A5.89,5.89,0,0,0,68,54.33c.16-.44.32-.87.47-1.31l.61-.3-.3-.6c.26-.75.5-1.5.74-2.25l2,3.93c-.19.38-.31.6-.31.6a6.88,6.88,0,0,1,0,2.34h0L65,59.79a.63.63,0,0,1,.17-.24A3.44,3.44,0,0,0,67.65,57a2.24,2.24,0,0,0,0-.72,3.12,3.12,0,0,1-1.68.91C65.37,57.11,65.21,57,65.23,56.81Z" style="fill:#f3d2bf"/><path d="M71.09,56.73h0c-.08.4-.15.65-.15.65-.13.37-.26.71-.4,1l-5,2.46a.46.46,0,0,1,0-.41c-.64-.19-.69-.47-.61-.67Z" style="fill:#f3d2bf"/><path d="M69.35,43.3l1.28,2.57-.15.9L70,48.34,68.34,45l-8.24,4.1-.48-1Z" style="fill:#ece9e1"/><path d="M65.61,60.87l5-2.46c-1.46,3-3.78,2.89-3.78,2.89C66,61.26,65.73,61.06,65.61,60.87Z" style="fill:#f3d2bf"/><path d="M68.34,45,70,48.34c-.15.51-.31,1-.47,1.53l-1.52-3-7.25,3.61-1.49.74-.66-1.33,1.49-.74Z" style="fill:#ece9e1"/><path d="M68.79,52.12l.3.6-.61.3C68.59,52.72,68.69,52.42,68.79,52.12Z" style="fill:#f3d2bf"/><path d="M67.52,49.58l1.27,2.54c-.1.3-.2.6-.31.9l-5.84,2.91-1.57-3.14Z" style="fill:#d6d3cc"/><polyline points="68.48 53.02 62.64 55.94 61.07 52.8 67.52 49.59 68.79 52.13" style="fill:none;stroke:#254254;stroke-linecap:round;stroke-linejoin:round;stroke-width:0.5px"/><line x1="63.5" y1="57.67" x2="65.23" y2="56.81" style="fill:none;stroke:#254254;stroke-linecap:round;stroke-linejoin:round;stroke-width:0.5px"/><line x1="64.07" y1="58.81" x2="67.65" y2="57.03" style="fill:none;stroke:#254254;stroke-linecap:round;stroke-linejoin:round;stroke-width:0.5px"/><line x1="64.64" y1="59.95" x2="64.96" y2="59.79" style="fill:none;stroke:#254254;stroke-linecap:round;stroke-linejoin:round;stroke-width:0.5px"/><line x1="70.57" y1="58.41" x2="71.65" y2="57.87" style="fill:none;stroke:#254254;stroke-linecap:round;stroke-linejoin:round;stroke-width:0.5px"/><line x1="65.2" y1="61.08" x2="65.61" y2="60.87" style="fill:none;stroke:#254254;stroke-linecap:round;stroke-linejoin:round;stroke-width:0.5px"/><line x1="74.18" y1="59.22" x2="73.7" y2="58.26" style="fill:none;stroke:#254254;stroke-linecap:round;stroke-linejoin:round;stroke-width:0.5px"/><line x1="71.48" y1="53.8" x2="73.7" y2="58.26" style="fill:none;stroke:#254254;stroke-linecap:round;stroke-linejoin:round;stroke-width:0.5px"/><polyline points="60.76 50.45 68.01 46.84 69.53 49.88" style="fill:none;stroke:#254254;stroke-linecap:round;stroke-linejoin:round;stroke-width:0.5px"/><polyline points="59.27 51.19 58.58 51.52 65.45 65.31 74.87 60.62 74.18 59.23" style="fill:none;stroke:#254254;stroke-linecap:round;stroke-linejoin:round;stroke-width:0.5px"/><line x1="59.27" y1="51.18" x2="60.76" y2="50.44" style="fill:none;stroke:#254254;stroke-linecap:round;stroke-linejoin:round;stroke-width:0.5px"/><polyline points="74.69 57.77 75.17 58.73 74.18 59.23" style="fill:none;stroke:#254254;stroke-linecap:round;stroke-linejoin:round;stroke-width:0.5px"/><polyline points="59.27 51.19 58.61 49.85 60.1 49.12" style="fill:none;stroke:#254254;stroke-linecap:round;stroke-linejoin:round;stroke-width:0.5px"/><polyline points="70 48.34 68.34 45.02 60.1 49.12" style="fill:none;stroke:#254254;stroke-linecap:round;stroke-linejoin:round;stroke-width:0.5px"/><line x1="74.69" y1="57.76" x2="72.1" y2="52.55" style="fill:none;stroke:#254254;stroke-linecap:round;stroke-linejoin:round;stroke-width:0.5px"/><polyline points="70.63 45.88 69.35 43.3 59.62 48.16 60.1 49.12" style="fill:none;stroke:#254254;stroke-linecap:round;stroke-linejoin:round;stroke-width:0.5px"/><polyline points="74.69 57.77 76.18 57.02 72.99 50.63" style="fill:none;stroke:#254254;stroke-linecap:round;stroke-linejoin:round;stroke-width:0.5px"/><path d="M72.31,37.8l.52-.21a.08.08,0,0,0,0,0L71.07,33.1c-.72-1.8-2.5-2.81-4-2.23S65,33.39,65.75,35.2l1.75,4.45s0,0,0,0l.65-.26Z" style="fill:none;stroke:#254254;stroke-linecap:round;stroke-linejoin:round;stroke-width:0.5px"/><path d="M72.31,37.8c1.4,2.27,2.53,7,2.53,7A20.94,20.94,0,0,1,73,50.62c-.31.7-.62,1.36-.89,1.93s-.46.93-.62,1.25-.31.6-.31.6a6.88,6.88,0,0,1,0,2.34c-.08.4-.15.65-.15.65-.13.37-.26.71-.4,1-1.46,3-3.78,2.89-3.78,2.89-.75,0-1.06-.24-1.18-.43a.46.46,0,0,1,0-.41c-.64-.19-.69-.47-.61-.67a.63.63,0,0,1,.17-.24A3.44,3.44,0,0,0,67.65,57a2.24,2.24,0,0,0,0-.72,3.12,3.12,0,0,1-1.68.91c-.63-.11-.79-.27-.77-.41s.34-.34.34-.34A5.89,5.89,0,0,0,68,54.33c.16-.44.32-.87.47-1.31s.21-.6.31-.9c.26-.75.5-1.5.74-2.25.16-.51.32-1,.47-1.53l.48-1.57.15-.9.08-.49-2.54-6" style="fill:none;stroke:#254254;stroke-linecap:round;stroke-linejoin:round;stroke-width:0.5px"/><path d="M57.87,24.57a13.13,13.13,0,0,0,4.25-.37s.23,1.57-2,1.73C60.13,25.93,58,26.26,57.87,24.57Z" style="fill:#e8b097"/><path d="M59.72,26.1a2.32,2.32,0,0,1-1.43-.41,1.48,1.48,0,0,1-.57-1.11.18.18,0,0,1,.05-.12.16.16,0,0,1,.12,0,13.29,13.29,0,0,0,4.2-.36.11.11,0,0,1,.11,0,.14.14,0,0,1,.07.1,1.62,1.62,0,0,1-.34,1.14,2.44,2.44,0,0,1-1.79.76S60,26.1,59.72,26.1Zm-1.67-1.37a1.15,1.15,0,0,0,.42.72,2.48,2.48,0,0,0,1.64.33,2.13,2.13,0,0,0,1.59-.65,1.27,1.27,0,0,0,.28-.74A13.47,13.47,0,0,1,58.05,24.73Z" style="fill:#254254"/><ellipse cx="57.72" cy="22.03" rx="0.47" ry="0.9" transform="translate(-0.46 1.23) rotate(-1.22)" style="fill:#39454c"/><ellipse cx="61.52" cy="21.95" rx="0.47" ry="0.9" transform="translate(-0.45 1.32) rotate(-1.22)" style="fill:#39454c"/><path d="M56.83,20.15l.12,0,.13,0,.08,0h0s-.09,0,0,0l.18,0h.09s.08,0,0,0h.13s.08,0,0,0h0l.08,0c-.07,0,0,0,0,0a.05.05,0,0,0,0,0,.39.39,0,0,0,.44,0c.1-.09.16-.23,0-.31a1.25,1.25,0,0,0-.89-.11,2.52,2.52,0,0,0-.54.14.41.41,0,0,0-.2.12.21.21,0,0,0,0,.17c0,.13.25.15.37.11Z" style="fill:#38444b"/><path d="M62.06,20l-.12,0-.14,0h-.12s.1,0,0,0l-.18,0h-.19s-.09,0,0,0h0l-.08,0c.07,0,0,0,0,0l0,0a.41.41,0,0,1-.44,0c-.11-.08-.17-.22-.05-.31a1.24,1.24,0,0,1,.89-.14,3.45,3.45,0,0,1,.54.11.4.4,0,0,1,.2.11.18.18,0,0,1,.06.17.29.29,0,0,1-.36.13Z" style="fill:#38444b"/><ellipse cx="64.62" cy="23.42" rx="1.49" ry="0.74" transform="translate(-2.94 10.76) rotate(-9.3)" style="fill:#e59f8d"/><path d="M64.28,24.32c-.67,0-1.18-.24-1.25-.63s.56-1,1.45-1.12,1.66.11,1.74.59a.77.77,0,0,1-.4.72,2.47,2.47,0,0,1-1.06.4A2.67,2.67,0,0,1,64.28,24.32ZM65,22.78l-.44,0c-.79.13-1.29.55-1.24.84s.65.52,1.44.39a2.15,2.15,0,0,0,1-.37c.22-.15.32-.32.3-.47S65.53,22.78,65,22.78Z" style="fill:#254254"/><ellipse cx="55.29" cy="23.68" rx="1.49" ry="0.74" style="fill:#e59f8d"/><path d="M55.29,24.55c-.91,0-1.61-.39-1.61-.87s.7-.87,1.61-.87,1.61.38,1.61.87S56.19,24.55,55.29,24.55Zm0-1.49c-.8,0-1.36.32-1.36.62s.56.62,1.36.62,1.36-.33,1.36-.62S56.09,23.06,55.29,23.06Z" style="fill:#254254"/><path d="M54.18,88.73h0a.25.25,0,0,1-.24-.26L54.08,83a.24.24,0,0,1,.26-.24.25.25,0,0,1,.24.25l-.15,5.45A.25.25,0,0,1,54.18,88.73Z" style="fill:#254254"/><path d="M57.33,89.16h0a.25.25,0,0,1-.19-.3L58,85a.25.25,0,0,1,.3-.19.24.24,0,0,1,.18.3L57.58,89A.26.26,0,0,1,57.33,89.16Z" style="fill:#254254"/><path d="M68.54,88.24a.24.24,0,0,1-.23-.15L66.42,83.8a.26.26,0,0,1,.13-.33.26.26,0,0,1,.33.13l1.88,4.29a.25.25,0,0,1-.12.33A.2.2,0,0,1,68.54,88.24Z" style="fill:#254254"/><path d="M71.82,87.23a.25.25,0,0,1-.24-.18l-.79-2.61a.25.25,0,0,1,.17-.31.24.24,0,0,1,.31.16l.79,2.62a.25.25,0,0,1-.17.31Z" style="fill:#254254"/><path d="M95.3,77.07H87.08a.25.25,0,0,1-.25-.25.25.25,0,0,1,.25-.25H95.3a.25.25,0,0,1,.25.25A.26.26,0,0,1,95.3,77.07Z" style="fill:#fff"/><path d="M98.88,49.8h-19a.25.25,0,0,1,0-.5h19a.25.25,0,0,1,0,.5Z" style="fill:#fff"/><path d="M114.36,84.83h-19a.25.25,0,0,1,0-.5h19a.25.25,0,0,1,0,.5Z" style="fill:#fff"/><path d="M34.07,89.43h-19a.25.25,0,0,1,0-.5h19a.25.25,0,0,1,0,.5Z" style="fill:#fff"/><path d="M23,87.07H4a.25.25,0,0,1,0-.5H23a.25.25,0,1,1,0,.5Z" style="fill:#fff"/><path d="M14.23,60.32H6a.25.25,0,0,1-.25-.25A.25.25,0,0,1,6,59.82h8.21a.25.25,0,0,1,.25.25A.25.25,0,0,1,14.23,60.32Z" style="fill:#fff"/><path d="M97.14,62.18a7.67,7.67,0,0,1-.82,0,6.49,6.49,0,1,1,1.61-12.88,6.41,6.41,0,0,1,4.32,2.45,6.5,6.5,0,0,1-5.11,10.48Zm0-12.48A5.91,5.91,0,0,0,93.45,51a6,6,0,1,0,9.62,5.47h0a6,6,0,0,0-5.2-6.69A6.45,6.45,0,0,0,97.11,49.7Zm6.21,6.76h0Z" style="fill:#fff"/><path d="M86.55,52l-.42,0a3.37,3.37,0,0,1-2.93-3.77A3.38,3.38,0,1,1,86.55,52Zm0-6.26a2.86,2.86,0,1,0,.35,0Z" style="fill:#fff"/><path d="M26.42,72.39a3.11,3.11,0,0,1-.43,0,3.36,3.36,0,0,1-2.93-3.77,3.39,3.39,0,0,1,3.77-2.93,3.37,3.37,0,0,1,2.93,3.77,3.38,3.38,0,0,1-3.34,3Zm0-6.25a2.84,2.84,0,0,0-1.76.6,2.87,2.87,0,0,0-.5,4,2.87,2.87,0,0,0,4,.5,2.86,2.86,0,0,0,.5-4,2.82,2.82,0,0,0-1.91-1.09A2.3,2.3,0,0,0,26.4,66.14Z" style="fill:#fff"/></svg>