<svg xmlns="http://www.w3.org/2000/svg" viewBox="0 0 48 48"><title>img_jikbang</title><path d="M16.43,34.84a3.08,3.08,0,0,1-3.07-3.07V16.45a3.08,3.08,0,0,1,3.07-3.07H26.82a3.1,3.1,0,0,1,3.07,3.1V19l-1.81-1.14a2.19,2.19,0,0,0-1.28-.41,2.17,2.17,0,0,0-1.28.41l-9,5.61a2.32,2.32,0,0,0-.48.4,2.16,2.16,0,0,0-.54,1.2,2.23,2.23,0,0,0,.18,1.19,2.12,2.12,0,0,0,.77.93,2.22,2.22,0,0,0,1.25.38h.44v4.1a4.59,4.59,0,0,0,.35,1.75,4.54,4.54,0,0,0,1,1.42Z" style="fill:#fafafb"/><path d="M36.61,25.72a.9.9,0,0,1-.83.53H34v5.42a3.17,3.17,0,0,1-3.17,3.17H22.68a3.17,3.17,0,0,1-3.17-3.17V26.25H17.7a.89.89,0,0,1-.82-.53,1.09,1.09,0,0,1-.08-.39.59.59,0,0,1,0-.23.43.43,0,0,1,0-.05s0,0,0,0a1,1,0,0,1,.16-.26.77.77,0,0,1,.19-.16l9-5.64a1.19,1.19,0,0,1,.54-.18,1.07,1.07,0,0,1,.55.19l8.92,5.63a1.12,1.12,0,0,1,.2.17.92.92,0,0,1,.15.25l0,0a.08.08,0,0,1,0,0,.67.67,0,0,1,0,.24,1,1,0,0,1-.08.38" style="fill:#ec9c13"/><path d="M20.82,17.51H16.18a.69.69,0,0,1-.69-.69.68.68,0,0,1,.69-.68h4.64a.67.67,0,0,1,.68.68.68.68,0,0,1-.68.69" style="fill:#352e27"/><path d="M17.78,20.91H16.16a.69.69,0,0,1-.69-.69.68.68,0,0,1,.69-.68h1.62a.68.68,0,0,1,.69.68.69.69,0,0,1-.69.69" style="fill:#352e27"/><path d="M24.63,27.49l-1.81-1.81a.38.38,0,0,1,.27-.64H24.9a.38.38,0,0,1,.37.38v1.8a.37.37,0,0,1-.64.27" style="fill:#352e27"/><path d="M29.24,27.48l-1.81-1.8A.38.38,0,0,1,27.7,25h1.81a.38.38,0,0,1,.37.38v1.81a.37.37,0,0,1-.64.26" style="fill:#352e27"/><path d="M29.24,32.12l-1.81-1.81a.37.37,0,0,1,.27-.64h1.81a.38.38,0,0,1,.37.38v1.8a.37.37,0,0,1-.64.27" style="fill:#352e27"/><path d="M38,25.08a2.22,2.22,0,0,0-.53-1.2,2.32,2.32,0,0,0-.48-.4l-5.74-3.63V16.52a4.44,4.44,0,0,0-1.32-3.18A4.68,4.68,0,0,0,26.74,12H16.5a4.5,4.5,0,0,0-3.17,1.32,4.37,4.37,0,0,0-1,1.43A4.52,4.52,0,0,0,12,16.5V31.71a4.59,4.59,0,0,0,.35,1.75,4.65,4.65,0,0,0,2.39,2.39,4.59,4.59,0,0,0,1.75.35H31a3.84,3.84,0,0,0,1.6-.35A4.55,4.55,0,0,0,35,33.47a4.42,4.42,0,0,0,.36-1.75V27.57h.45A2.23,2.23,0,0,0,37,27.19a2.3,2.3,0,0,0,.77-.92A2.23,2.23,0,0,0,38,25.08M16.43,34.84a3.08,3.08,0,0,1-3.07-3.07V16.45a3.08,3.08,0,0,1,3.07-3.07H26.82a3.1,3.1,0,0,1,3.07,3.1V19l-1.81-1.14a2.2,2.2,0,0,0-2.56,0l-9,5.61a2.32,2.32,0,0,0-.48.4,2.16,2.16,0,0,0-.54,1.2,2.25,2.25,0,0,0,.95,2.12,2.22,2.22,0,0,0,1.25.38h.44v4.1a4.59,4.59,0,0,0,.35,1.75,4.54,4.54,0,0,0,1,1.42Zm20.18-9.12a.9.9,0,0,1-.83.53H34v5.42a3.17,3.17,0,0,1-3.17,3.17H22.68a3.17,3.17,0,0,1-3.17-3.17V26.25H17.7a.89.89,0,0,1-.82-.53,1.09,1.09,0,0,1-.08-.39.67.67,0,0,1,0-.24s0,0,0,0,0,0,0,0a.67.67,0,0,1,.16-.25.63.63,0,0,1,.19-.17l9-5.64a1.19,1.19,0,0,1,.54-.18,1.07,1.07,0,0,1,.55.19l8.92,5.63a1.12,1.12,0,0,1,.2.17.92.92,0,0,1,.15.25l0,0a.08.08,0,0,1,0,0,.67.67,0,0,1,0,.24,1,1,0,0,1-.08.38" style="fill:#352e27"/><circle cx="24.01" cy="24.11" r="23" style="fill:none;stroke:#e8e8e8;stroke-miterlimit:10"/></svg>