<svg xmlns="http://www.w3.org/2000/svg" viewBox="0 0 161 140"><title>img_done</title><path d="M88.29,42.39v89.5a4.37,4.37,0,0,1-4.37,4.37H24.26a4.37,4.37,0,0,1-4.37-4.37V42.39A4.37,4.37,0,0,1,24.26,38H38.1v4.73H29.37a4.59,4.59,0,0,0-4.58,4.58v79.61a4.59,4.59,0,0,0,4.58,4.59H78.81a4.59,4.59,0,0,0,4.57-4.59V47.33a4.58,4.58,0,0,0-4.57-4.58H70.07V38H83.92A4.37,4.37,0,0,1,88.29,42.39Z" style="fill:#aabfce"/><path d="M74.32,62.53a.6.6,0,1,1,0,1.2H46a.6.6,0,1,1,0-1.2Z" style="fill:#254254"/><path d="M74.32,79.31a.6.6,0,0,1,0,1.2H46a.6.6,0,0,1,0-1.2Z" style="fill:#254254"/><path d="M74.32,96.1a.6.6,0,0,1,0,1.2H46a.6.6,0,0,1,0-1.2Z" style="fill:#254254"/><path d="M74.32,112.89a.6.6,0,0,1,0,1.2H46a.6.6,0,1,1,0-1.2Z" style="fill:#254254"/><path d="M70.07,42.75v.6a.6.6,0,0,0-.6-.6Z" style="fill:#254254"/><rect x="69.47" y="38.02" width="0.6" height="4.73" style="fill:#254254"/><path d="M70.07,37.42V38h-.6A.6.6,0,0,0,70.07,37.42Z" style="fill:#254254"/><path d="M70.07,36.82v.6a.6.6,0,0,0-.6-.6Z" style="fill:#254254"/><path d="M69.47,37.42h.6a.6.6,0,0,1-.6.6Z" style="fill:#254254"/><path d="M70.07,37.42h-.6v-.6A.6.6,0,0,1,70.07,37.42Z" style="fill:#254254"/><path d="M70.07,43.67A1.27,1.27,0,0,1,70,44h-.57a.59.59,0,0,0,.6-.6Z" style="fill:#254254"/><path d="M69.47,42.75a.6.6,0,0,1,.6.6h-.6Z" style="fill:#254254"/><path d="M70.07,43.35a.59.59,0,0,1-.6.6h0a.87.87,0,0,0,0-.28v-.32Z" style="fill:#254254"/><path d="M68.87,37.42a.6.6,0,0,1,.6-.6V38A.6.6,0,0,1,68.87,37.42Z" style="fill:#254254"/><path d="M69.47,38v4.73a.6.6,0,0,0-.6.6V37.42A.6.6,0,0,0,69.47,38Z" style="fill:#254254"/><path d="M69.42,44a.61.61,0,0,1-.55-.55v0a.6.6,0,0,1,.6-.6v.92A.87.87,0,0,1,69.42,44Z" style="fill:#254254"/><path d="M65.34,56.85a.6.6,0,1,1,0,1.2H46a.6.6,0,1,1,0-1.2Z" style="fill:#254254"/><path d="M65.34,73.63a.6.6,0,1,1,0,1.2H46a.6.6,0,1,1,0-1.2Z" style="fill:#254254"/><path d="M65.34,90.42a.6.6,0,1,1,0,1.2H46a.6.6,0,1,1,0-1.2Z" style="fill:#254254"/><path d="M65.34,107.21a.6.6,0,1,1,0,1.2H46a.6.6,0,0,1,0-1.2Z" style="fill:#254254"/><path d="M56.7,33.24a2.62,2.62,0,1,0-2.61,2.61A2.62,2.62,0,0,0,56.7,33.24Zm-5.83,0a3.22,3.22,0,1,1,3.22,3.2A3.22,3.22,0,0,1,50.87,33.24Z" style="fill:#254254"/><path d="M54.09,30a3.21,3.21,0,1,0,3.21,3.22A3.22,3.22,0,0,0,54.09,30Zm0,7a3.81,3.81,0,1,1,3.81-3.8A3.81,3.81,0,0,1,54.09,37Z" style="fill:#254254"/><path d="M47.46,33.87a6.63,6.63,0,1,1,13.21.78.58.58,0,0,0,.14.47.59.59,0,0,0,.45.2h7.32a.3.3,0,0,1,.29.3v8.05a.3.3,0,0,1-.29.3h-29a.31.31,0,0,1-.3-.3V35.62a.31.31,0,0,1,.3-.3h7.32a.61.61,0,0,0,.45-.2.61.61,0,0,0,.14-.47A6.66,6.66,0,0,1,47.46,33.87Zm2.81-.63a3.82,3.82,0,1,0,3.82-3.82A3.81,3.81,0,0,0,50.27,33.24Z" style="fill:#f490a2"/><path d="M46,90.42a.6.6,0,1,0,0,1.2H65.34a.6.6,0,1,0,0-1.2Zm-.6,17.39a.6.6,0,0,0,.6.6H65.34a.6.6,0,1,0,0-1.2H46A.6.6,0,0,0,45.4,107.81Zm0-33.58a.6.6,0,0,0,.6.6H65.34a.6.6,0,1,0,0-1.2H46A.6.6,0,0,0,45.4,74.23Zm0-16.78a.6.6,0,0,0,.6.6H65.34a.6.6,0,1,0,0-1.2H46A.6.6,0,0,0,45.4,57.45Zm0,5.68a.6.6,0,0,0,.6.6H74.32a.6.6,0,1,0,0-1.2H46A.6.6,0,0,0,45.4,63.13Zm0,16.78a.6.6,0,0,0,.6.6H74.32a.6.6,0,0,0,0-1.2H46A.6.6,0,0,0,45.4,79.91Zm0,16.79a.6.6,0,0,0,.6.6H74.32a.6.6,0,0,0,0-1.2H46A.6.6,0,0,0,45.4,96.7Zm0,16.79a.6.6,0,0,0,.6.6H74.32a.6.6,0,0,0,0-1.2H46A.6.6,0,0,0,45.4,113.49ZM40.31,98.2a2.41,2.41,0,0,0,2.41-2.41V90a2.2,2.2,0,0,0-.22-1l1.86-2.25a.59.59,0,0,0-.09-.84.58.58,0,0,0-.84.08l-1.69,2a2.4,2.4,0,0,0-1.43-.47H34.57A2.42,2.42,0,0,0,32.15,90v5.75a2.42,2.42,0,0,0,2.42,2.41Zm0,16.79a2.41,2.41,0,0,0,2.41-2.41v-5.75a2.2,2.2,0,0,0-.22-1l1.86-2.25a.59.59,0,0,0-.09-.84.58.58,0,0,0-.84.08l-1.69,2a2.4,2.4,0,0,0-1.43-.47H34.57a2.42,2.42,0,0,0-2.42,2.41v5.75A2.42,2.42,0,0,0,34.57,115Zm0-50.35a2.41,2.41,0,0,0,2.41-2.41V56.48a2.21,2.21,0,0,0-.22-1l1.86-2.25a.59.59,0,0,0-.09-.84.6.6,0,0,0-.84.08l-1.69,2.05a2.4,2.4,0,0,0-1.43-.47H34.57a2.43,2.43,0,0,0-2.42,2.42v5.75a2.42,2.42,0,0,0,2.42,2.41Zm0,16.78A2.42,2.42,0,0,0,42.72,79V73.26a2.2,2.2,0,0,0-.22-1L44.36,70a.6.6,0,0,0-.93-.76l-1.69,2a2.4,2.4,0,0,0-1.43-.47H34.57a2.42,2.42,0,0,0-2.42,2.41V79a2.43,2.43,0,0,0,2.42,2.42ZM82.18,47.33v79.61a3.38,3.38,0,0,1-3.37,3.39H29.37A3.39,3.39,0,0,1,26,126.94V47.33A3.39,3.39,0,0,1,29.37,44h8.76a1.49,1.49,0,0,0,1.47,1.22h29A1.49,1.49,0,0,0,70,44h8.77A3.38,3.38,0,0,1,82.18,47.33Z" style="fill:#eaedef"/><path d="M44.36,53.24,42.5,55.49a2.13,2.13,0,0,0-.23-.42,2.47,2.47,0,0,0-.53-.54l1.69-2.05a.6.6,0,0,1,.84-.08A.59.59,0,0,1,44.36,53.24Z" style="fill:#254254"/><path d="M44.36,70,42.5,72.28a2.13,2.13,0,0,0-.23-.42,2.47,2.47,0,0,0-.53-.54l1.69-2a.6.6,0,0,1,.93.76Z" style="fill:#254254"/><path d="M44.36,86.81,42.5,89.06a1.44,1.44,0,0,0-.23-.42,2.47,2.47,0,0,0-.53-.54l1.69-2a.58.58,0,0,1,.84-.08A.59.59,0,0,1,44.36,86.81Z" style="fill:#254254"/><path d="M44.36,103.6l-1.86,2.25a1.44,1.44,0,0,0-.23-.42,2.47,2.47,0,0,0-.53-.54l1.69-2a.58.58,0,0,1,.84-.08A.59.59,0,0,1,44.36,103.6Z" style="fill:#254254"/><path d="M41.35,55l.39-.47a2.47,2.47,0,0,1,.53.54,2.13,2.13,0,0,1,.23.42l-.44.54a1.74,1.74,0,0,0-.71-1Z" style="fill:#254254"/><path d="M41.35,88.57l.39-.47a2.47,2.47,0,0,1,.53.54,1.44,1.44,0,0,1,.23.42l-.44.54a1.74,1.74,0,0,0-.71-1Z" style="fill:#254254"/><path d="M41.35,71.79l.39-.47a2.47,2.47,0,0,1,.53.54,2.13,2.13,0,0,1,.23.42l-.44.54a1.74,1.74,0,0,0-.71-1Z" style="fill:#254254"/><path d="M41.35,105.36l.39-.47a2.47,2.47,0,0,1,.53.54,1.44,1.44,0,0,1,.23.42l-.44.54a1.74,1.74,0,0,0-.71-1Z" style="fill:#254254"/><path d="M41,55.47l.38-.47a1.74,1.74,0,0,1,.71,1l-.54.66v-.21a1.21,1.21,0,0,0-.22-.7A1.08,1.08,0,0,0,41,55.47Z" style="fill:#254254"/><path d="M41.52,73.26a1.18,1.18,0,0,0-.22-.69,1.1,1.1,0,0,0-.34-.31l.39-.47a1.74,1.74,0,0,1,.71,1l-.54.65Z" style="fill:#254254"/><path d="M41,89l.39-.47a1.74,1.74,0,0,1,.71,1l-.54.66V90a1.16,1.16,0,0,0-.22-.69A1.1,1.1,0,0,0,41,89Z" style="fill:#254254"/><path d="M41,105.83l.39-.47a1.74,1.74,0,0,1,.71,1l-.54.65v-.21a1.21,1.21,0,0,0-.22-.7A1.07,1.07,0,0,0,41,105.83Z" style="fill:#254254"/><path d="M39.3,37.42v5.93a.6.6,0,0,0-.6-.6V38A.6.6,0,0,0,39.3,37.42Z" style="fill:#254254"/><path d="M46.86,33.87a7.23,7.23,0,0,1,14.45,0,6,6,0,0,1-.05.85h7.32a.9.9,0,0,1,.89.9v1.2a.6.6,0,0,0-.6.6v-1.8a.3.3,0,0,0-.29-.3H61.26a.59.59,0,0,1-.45-.2.58.58,0,0,1-.14-.47,6.63,6.63,0,1,0-13.16,0,.61.61,0,0,1-.14.47.61.61,0,0,1-.45.2H39.6a.31.31,0,0,0-.3.3v1.8a.6.6,0,0,0-.6-.6v-1.2a.91.91,0,0,1,.9-.9h7.32A6,6,0,0,1,46.86,33.87Z" style="fill:#254254"/><path d="M38.7,38v-1.2a.6.6,0,1,1,0,1.2Z" style="fill:#254254"/><path d="M68.87,43.4a.61.61,0,0,0,.55.55.88.88,0,0,1-.84.62h-29a.9.9,0,0,1-.85-.62.6.6,0,0,0,.55-.6v.32a.31.31,0,0,0,.3.3h29a.3.3,0,0,0,.29-.3Z" style="fill:#254254"/><path d="M38.7,42.75a.6.6,0,0,1,0,1.2.87.87,0,0,1,0-.28v-.92Z" style="fill:#254254"/><path d="M68.58,44.57a.88.88,0,0,0,.84-.62H70a1.49,1.49,0,0,1-1.46,1.22h-29A1.49,1.49,0,0,1,38.13,44h.62a.9.9,0,0,0,.85.62Z" style="fill:#254254"/><path d="M38.7,42.75v.6h-.6A.6.6,0,0,1,38.7,42.75Z" style="fill:#254254"/><rect x="38.1" y="38.02" width="0.6" height="4.73" style="fill:#254254"/><path d="M38.7,37.42V38a.6.6,0,0,1-.6-.6Z" style="fill:#254254"/><path d="M38.7,36.82v.6h-.6A.6.6,0,0,1,38.7,36.82Z" style="fill:#254254"/><path d="M46.92,34.72H39.6a.91.91,0,0,0-.9.9v1.2h-.6v-1.2a1.5,1.5,0,0,1,1.5-1.5h6.67a2,2,0,0,1,0-.25,7.83,7.83,0,0,1,15.65,0v.25h6.67a1.5,1.5,0,0,1,1.49,1.5v1.2h-.6v-1.2a.9.9,0,0,0-.89-.9H61.26a6,6,0,0,0,.05-.85,7.23,7.23,0,0,0-14.45,0A6,6,0,0,0,46.92,34.72Z" style="fill:#254254"/><path d="M38.1,36.82h.6a.6.6,0,0,0-.6.6Z" style="fill:#254254"/><path d="M38.1,37.42a.6.6,0,0,0,.6.6h-.6Z" style="fill:#254254"/><path d="M38.1,42.75h.6a.6.6,0,0,0-.6.6Z" style="fill:#254254"/><path d="M38.7,43.67a.87.87,0,0,0,0,.28h-.07a.6.6,0,0,1-.58-.55v0h.6Z" style="fill:#254254"/><path d="M38.1,43.4a.6.6,0,0,0,.58.55h-.55a1.27,1.27,0,0,1,0-.28Z" style="fill:#254254"/><path d="M37.4,59.8,41,55.47a1.08,1.08,0,0,1,.33.31,1.21,1.21,0,0,1,.22.7v.21L37.9,61.08a.58.58,0,0,1-.44.21h0a.57.57,0,0,1-.43-.18l-2.28-2.34a.6.6,0,0,1,0-.85.59.59,0,0,1,.84,0Z" style="fill:#254254"/><path d="M37.4,76.58,41,72.26a1.1,1.1,0,0,1,.34.31,1.18,1.18,0,0,1,.22.69v.21L37.9,77.86a.58.58,0,0,1-.44.21h0a.57.57,0,0,1-.43-.18l-2.28-2.33a.61.61,0,0,1,0-.85.6.6,0,0,1,.85,0Z" style="fill:#254254"/><path d="M37.4,93.36,41,89a1.1,1.1,0,0,1,.34.31,1.16,1.16,0,0,1,.22.69v.22L37.9,94.65a.58.58,0,0,1-.44.21h0a.57.57,0,0,1-.43-.18l-2.28-2.33a.61.61,0,0,1,0-.85.59.59,0,0,1,.85,0Z" style="fill:#254254"/><path d="M37.4,110.15,41,105.83a1.07,1.07,0,0,1,.34.3,1.21,1.21,0,0,1,.22.7V107l-3.62,4.39a.56.56,0,0,1-.44.22h0a.57.57,0,0,1-.43-.18l-2.28-2.35a.59.59,0,0,1,0-.84.58.58,0,0,1,.84,0Z" style="fill:#254254"/><path d="M33.35,62.23V56.48a1.22,1.22,0,0,1,1.22-1.22h5.74a1.1,1.1,0,0,1,.66.21L37.4,59.8l-1.81-1.87a.59.59,0,0,0-.84,0,.6.6,0,0,0,0,.85L37,61.11a.57.57,0,0,0,.43.18h0a.58.58,0,0,0,.44-.21l3.62-4.39v5.54a1.22,1.22,0,0,1-1.21,1.21H34.57A1.22,1.22,0,0,1,33.35,62.23Z" style="fill:#f490a2"/><path d="M33.35,79V73.26a1.22,1.22,0,0,1,1.22-1.21h5.74a1.07,1.07,0,0,1,.65.21L37.4,76.58l-1.81-1.86a.6.6,0,0,0-.85,0,.61.61,0,0,0,0,.85L37,77.89a.57.57,0,0,0,.43.18h0a.58.58,0,0,0,.44-.21l3.62-4.39V79a1.22,1.22,0,0,1-1.21,1.22H34.57A1.22,1.22,0,0,1,33.35,79Z" style="fill:#f2d17c"/><path d="M33.35,95.79V90a1.22,1.22,0,0,1,1.22-1.21h5.74A1.07,1.07,0,0,1,41,89L37.4,93.36l-1.81-1.85a.59.59,0,0,0-.85,0,.61.61,0,0,0,0,.85L37,94.68a.57.57,0,0,0,.43.18h0a.58.58,0,0,0,.44-.21l3.62-4.39v5.53A1.22,1.22,0,0,1,40.31,97H34.57A1.22,1.22,0,0,1,33.35,95.79Z" style="fill:#f490a2"/><path d="M33.35,112.58v-5.75a1.22,1.22,0,0,1,1.22-1.21h5.74a1.07,1.07,0,0,1,.65.21l-3.56,4.32-1.81-1.86a.58.58,0,0,0-.84,0,.59.59,0,0,0,0,.84L37,111.47a.57.57,0,0,0,.43.18h0a.56.56,0,0,0,.44-.22L41.52,107v5.54a1.21,1.21,0,0,1-1.21,1.21H34.57A1.22,1.22,0,0,1,33.35,112.58Z" style="fill:#f2d17c"/><path d="M40.31,54.66a1.75,1.75,0,0,1,1,.34l-.38.47a1.1,1.1,0,0,0-.66-.21H34.57a1.22,1.22,0,0,0-1.22,1.22v5.75a1.22,1.22,0,0,0,1.22,1.21h5.74a1.22,1.22,0,0,0,1.21-1.21V56.69l.54-.66a1.63,1.63,0,0,1,.06.45v5.75A1.82,1.82,0,0,1,40.31,64H34.57a1.82,1.82,0,0,1-1.82-1.81V56.48a1.83,1.83,0,0,1,1.82-1.82Z" style="fill:#254254"/><path d="M40.31,71.45a1.75,1.75,0,0,1,1,.34l-.39.47a1.07,1.07,0,0,0-.65-.21H34.57a1.22,1.22,0,0,0-1.22,1.21V79a1.22,1.22,0,0,0,1.22,1.22h5.74A1.22,1.22,0,0,0,41.52,79V73.47l.54-.65a1.61,1.61,0,0,1,.06.44V79a1.82,1.82,0,0,1-1.81,1.82H34.57A1.83,1.83,0,0,1,32.75,79V73.26a1.82,1.82,0,0,1,1.82-1.81Z" style="fill:#254254"/><path d="M40.31,88.23a1.75,1.75,0,0,1,1,.34L41,89a1.07,1.07,0,0,0-.65-.21H34.57A1.22,1.22,0,0,0,33.35,90v5.75A1.22,1.22,0,0,0,34.57,97h5.74a1.22,1.22,0,0,0,1.21-1.22V90.26l.54-.66a1.61,1.61,0,0,1,.06.44v5.75a1.82,1.82,0,0,1-1.81,1.81H34.57a1.82,1.82,0,0,1-1.82-1.81V90a1.82,1.82,0,0,1,1.82-1.81Z" style="fill:#254254"/><path d="M40.31,105a1.75,1.75,0,0,1,1,.34l-.39.47a1.07,1.07,0,0,0-.65-.21H34.57a1.22,1.22,0,0,0-1.22,1.21v5.75a1.22,1.22,0,0,0,1.22,1.21h5.74a1.21,1.21,0,0,0,1.21-1.21V107l.54-.65a1.61,1.61,0,0,1,.06.44v5.75a1.82,1.82,0,0,1-1.81,1.81H34.57a1.82,1.82,0,0,1-1.82-1.81v-5.75A1.82,1.82,0,0,1,34.57,105Z" style="fill:#254254"/><path d="M41.35,55a1.75,1.75,0,0,0-1-.34H34.57a1.83,1.83,0,0,0-1.82,1.82v5.75A1.82,1.82,0,0,0,34.57,64h5.74a1.82,1.82,0,0,0,1.81-1.81V56.48a1.63,1.63,0,0,0-.06-.45l.44-.54a2.21,2.21,0,0,1,.22,1v5.75a2.41,2.41,0,0,1-2.41,2.41H34.57a2.42,2.42,0,0,1-2.42-2.41V56.48a2.43,2.43,0,0,1,2.42-2.42h5.74a2.4,2.4,0,0,1,1.43.47Z" style="fill:#254254"/><path d="M41.35,71.79a1.75,1.75,0,0,0-1-.34H34.57a1.82,1.82,0,0,0-1.82,1.81V79a1.83,1.83,0,0,0,1.82,1.82h5.74A1.82,1.82,0,0,0,42.12,79V73.26a1.61,1.61,0,0,0-.06-.44l.44-.54a2.2,2.2,0,0,1,.22,1V79a2.42,2.42,0,0,1-2.41,2.42H34.57A2.43,2.43,0,0,1,32.15,79V73.26a2.42,2.42,0,0,1,2.42-2.41h5.74a2.4,2.4,0,0,1,1.43.47Z" style="fill:#254254"/><path d="M41.35,88.57a1.75,1.75,0,0,0-1-.34H34.57A1.82,1.82,0,0,0,32.75,90v5.75a1.82,1.82,0,0,0,1.82,1.81h5.74a1.82,1.82,0,0,0,1.81-1.81V90a1.61,1.61,0,0,0-.06-.44l.44-.54a2.2,2.2,0,0,1,.22,1v5.75a2.41,2.41,0,0,1-2.41,2.41H34.57a2.42,2.42,0,0,1-2.42-2.41V90a2.42,2.42,0,0,1,2.42-2.41h5.74a2.4,2.4,0,0,1,1.43.47Z" style="fill:#254254"/><path d="M41.35,105.36a1.75,1.75,0,0,0-1-.34H34.57a1.82,1.82,0,0,0-1.82,1.81v5.75a1.82,1.82,0,0,0,1.82,1.81h5.74a1.82,1.82,0,0,0,1.81-1.81v-5.75a1.61,1.61,0,0,0-.06-.44l.44-.54a2.2,2.2,0,0,1,.22,1v5.75A2.41,2.41,0,0,1,40.31,115H34.57a2.42,2.42,0,0,1-2.42-2.41v-5.75a2.42,2.42,0,0,1,2.42-2.41h5.74a2.4,2.4,0,0,1,1.43.47Z" style="fill:#254254"/><path d="M26,47.33v79.61a3.39,3.39,0,0,0,3.38,3.39H78.81a3.38,3.38,0,0,0,3.37-3.39V47.33A3.38,3.38,0,0,0,78.81,44H70a1.27,1.27,0,0,0,0-.28v-.32h8.74a4,4,0,0,1,4,4v79.61a4,4,0,0,1-4,4H29.37a4,4,0,0,1-4-4V47.33a4,4,0,0,1,4-4H38.1v.32a1.27,1.27,0,0,0,0,.28H29.37A3.39,3.39,0,0,0,26,47.33Z" style="fill:#254254"/><path d="M24.79,47.33a4.59,4.59,0,0,1,4.58-4.58H38.1v.6H29.37a4,4,0,0,0-4,4v79.61a4,4,0,0,0,4,4H78.81a4,4,0,0,0,4-4V47.33a4,4,0,0,0-4-4H70.07v-.6h8.74a4.58,4.58,0,0,1,4.57,4.58v79.61a4.59,4.59,0,0,1-4.57,4.59H29.37a4.59,4.59,0,0,1-4.58-4.59Z" style="fill:#254254"/><path d="M24.26,136.26H83.92a4.37,4.37,0,0,0,4.37-4.37V42.39A4.37,4.37,0,0,0,83.92,38H70.07v-.6H83.92a5,5,0,0,1,5,5v89.5a5,5,0,0,1-5,5H24.26a5,5,0,0,1-5-5V42.39a5,5,0,0,1,5-5H38.1V38H24.26a4.37,4.37,0,0,0-4.37,4.37v89.5A4.37,4.37,0,0,0,24.26,136.26Z" style="fill:#254254"/><path d="M24.26,136.86H83.92a5,5,0,0,0,5-5V42.39a5,5,0,0,0-5-5H70.07v-.6H83.92a5.58,5.58,0,0,1,5.57,5.57v89.5a5.58,5.58,0,0,1-5.57,5.57H24.26a5.58,5.58,0,0,1-5.57-5.57V42.39a5.58,5.58,0,0,1,5.57-5.57H38.1v.6H24.26a5,5,0,0,0-5,5v89.5A5,5,0,0,0,24.26,136.86Z" style="fill:#254254"/><polygon points="81.54 4.48 83.59 8.63 88.17 9.3 84.86 12.53 85.64 17.1 81.54 14.94 77.45 17.1 78.23 12.53 74.91 9.3 79.5 8.63 81.54 4.48" style="fill:#ebcc7b"/><path d="M85.64,17.7a.72.72,0,0,1-.28-.07l-3.82-2-3.81,2a.62.62,0,0,1-.64-.05.63.63,0,0,1-.24-.59l.73-4.25-3.09-3a.6.6,0,0,1-.15-.61.59.59,0,0,1,.49-.41l4.27-.62L81,4.22a.62.62,0,0,1,1.07,0L84,8.09l4.27.62a.59.59,0,0,1,.49.41.59.59,0,0,1-.16.61l-3.09,3L86.23,17a.59.59,0,0,1-.24.59A.55.55,0,0,1,85.64,17.7Zm-9.44-8,2.45,2.38a.62.62,0,0,1,.17.53L78.24,16l3-1.59a.61.61,0,0,1,.56,0l3,1.59-.58-3.37a.59.59,0,0,1,.17-.53l2.45-2.38-3.38-.49a.58.58,0,0,1-.45-.33L81.54,5.84,80,8.9a.58.58,0,0,1-.45.33Z" style="fill:#254254"/><polygon points="108.27 8.21 110.32 12.36 114.9 13.03 111.59 16.26 112.37 20.82 108.27 18.67 104.17 20.82 104.96 16.26 101.64 13.03 106.22 12.36 108.27 8.21" style="fill:#ebcc7b"/><path d="M112.37,21.42a.67.67,0,0,1-.28-.06l-3.82-2-3.82,2a.62.62,0,0,1-.63-.05.61.61,0,0,1-.24-.59l.73-4.25-3.09-3a.62.62,0,0,1-.15-.62.6.6,0,0,1,.48-.4l4.27-.63,1.91-3.87a.6.6,0,0,1,.54-.33h0a.6.6,0,0,1,.54.33l1.91,3.87,4.27.63a.59.59,0,0,1,.48.4.59.59,0,0,1-.15.62l-3.09,3,.73,4.25a.59.59,0,0,1-.24.59A.56.56,0,0,1,112.37,21.42Zm-4.1-3.35a.55.55,0,0,1,.28.07l3,1.59L111,16.36a.59.59,0,0,1,.17-.53l2.44-2.38L110.23,13a.61.61,0,0,1-.45-.33l-1.51-3.06-1.51,3.06a.61.61,0,0,1-.45.33l-3.38.49,2.45,2.38a.62.62,0,0,1,.17.53L105,19.73l3-1.59A.58.58,0,0,1,108.27,18.07Z" style="fill:#254254"/><polygon points="57.3 8.21 59.35 12.36 63.93 13.03 60.62 16.26 61.4 20.82 57.3 18.67 53.2 20.82 53.98 16.26 50.67 13.03 55.25 12.36 57.3 8.21" style="fill:#ebcc7b"/><path d="M61.4,21.42a.67.67,0,0,1-.28-.06l-3.82-2-3.82,2a.62.62,0,0,1-.63-.05.59.59,0,0,1-.24-.59l.73-4.25-3.09-3a.62.62,0,0,1-.15-.62.6.6,0,0,1,.48-.4l4.27-.63,1.91-3.87a.6.6,0,0,1,.54-.33h0a.6.6,0,0,1,.54.33l1.91,3.87,4.27.63a.6.6,0,0,1,.48.4.62.62,0,0,1-.15.62l-3.09,3L62,20.72a.59.59,0,0,1-.24.59A.56.56,0,0,1,61.4,21.42Zm-9.44-8,2.44,2.38a.62.62,0,0,1,.18.53L54,19.73l3-1.59a.61.61,0,0,1,.56,0l3,1.59L60,16.36a.62.62,0,0,1,.18-.53l2.44-2.38L59.26,13a.61.61,0,0,1-.45-.33L57.3,9.57l-1.51,3.06a.61.61,0,0,1-.45.33Z" style="fill:#254254"/><path d="M141.58,114.33l-.34-.16a20,20,0,0,0,.76-5.38V101a19.74,19.74,0,0,0-5.14-13.28,7.23,7.23,0,0,0,1.47-.74c6.06,6.68,17.83,21.24,11.15,27.11C149.48,114.09,147.85,117.37,141.58,114.33Z" style="fill:#829aae"/><path d="M144.72,71.1v4.68a2.05,2.05,0,0,1-2.05,2h-1.06V69.06h1.06A2.05,2.05,0,0,1,144.72,71.1Z" style="fill:#a0cbe8"/><path d="M142,101v7.79a20,20,0,0,1-.76,5.38s0,.11-.05.16H103.05a19.53,19.53,0,0,1-.81-5.54V101a19.76,19.76,0,0,1,5-13.16,7.24,7.24,0,0,0,2,.3h25.15a7,7,0,0,0,2.4-.42A19.74,19.74,0,0,1,142,101Zm-5.75,3.23V99.39A2.61,2.61,0,0,0,134,96.56H109.53a2.61,2.61,0,0,0-2.26,2.83v4.84a2.61,2.61,0,0,0,2.26,2.83H134A2.61,2.61,0,0,0,136.25,104.23Z" style="fill:#d1e0ed"/><path d="M141.61,77.83V81a6.77,6.77,0,0,1-.21,1.7h-39a7.26,7.26,0,0,1-.21-1.7V64.86a7.73,7.73,0,0,1,.07-1h39.31a7.73,7.73,0,0,1,.07,1v13Zm-8-3a4.08,4.08,0,1,0-5.78,0A4.07,4.07,0,0,0,133.6,74.79Zm-7.82,1.79H118s.17,3,3.81,3H122C125.61,79.54,125.78,76.58,125.78,76.58ZM116,74.79a4.08,4.08,0,1,0-5.78,0A4.09,4.09,0,0,0,116,74.79Z" style="fill:#d1e0ed"/><path d="M141.54,63.91H102.23a7.18,7.18,0,0,1,7.08-6.2h25.15A7.17,7.17,0,0,1,141.54,63.91Z" style="fill:#829aae"/><path d="M129.86,82.69H141.4a7.29,7.29,0,0,1-4.54,5,7,7,0,0,1-2.4.42H109.31a7.24,7.24,0,0,1-2-.3,7.41,7.41,0,0,1-1.27-.53,7.2,7.2,0,0,1-3.63-4.62h27.49Z" style="fill:#829aae"/><path d="M103.05,114.33h38.14a19.86,19.86,0,0,1-38.14,0Z" style="fill:#829aae"/><path d="M136.25,99.39v4.84a2.61,2.61,0,0,1-2.26,2.83H109.53a2.61,2.61,0,0,1-2.26-2.83V99.39a2.61,2.61,0,0,1,2.26-2.83H134A2.61,2.61,0,0,1,136.25,99.39Zm-3.18,3.47v-2.1c0-.67-.79-1.22-1.76-1.22h-19c-1,0-1.74.55-1.74,1.22v2.1c0,.67.78,1.22,1.74,1.22h19C132.28,104.08,133.07,103.53,133.07,102.86Z" style="fill:#a0cbe8"/><path d="M133.07,100.76v2.1c0,.67-.79,1.22-1.76,1.22h-19c-1,0-1.74-.55-1.74-1.22v-2.1c0-.67.78-1.22,1.74-1.22h19C132.28,99.54,133.07,100.09,133.07,100.76Z" style="fill:#eaedef"/><path d="M132.38,70.24a2.35,2.35,0,1,1-3.33,0A2.35,2.35,0,0,1,132.38,70.24Z" style="fill:#254254"/><path d="M131,55.9v1.81H113.29V55.9a3.07,3.07,0,0,1,3.07-3.06h11.52A3.07,3.07,0,0,1,131,55.9Z" style="fill:#a0cbe8"/><path d="M122,76.58h3.81s-.17,3-3.81,3h-.17c-3.64-.09-3.81-3-3.81-3h4Z" style="fill:#829aae"/><path d="M125.62,45.65A3.5,3.5,0,0,1,123.24,49a3.42,3.42,0,0,1-1.12.19A3.36,3.36,0,0,1,121,49a3.5,3.5,0,1,1,4.61-3.31Z" style="fill:#afcdec"/><path d="M123.51,49.76v3.08h-2.77V49.76A1.31,1.31,0,0,1,121,49a3.36,3.36,0,0,0,1.11.19,3.42,3.42,0,0,0,1.12-.19A1.31,1.31,0,0,1,123.51,49.76Z" style="fill:#d1e0ed"/><path d="M114.72,70.24a2.35,2.35,0,1,1-3.33,0A2.35,2.35,0,0,1,114.72,70.24Z" style="fill:#254254"/><path d="M106,87.31a7.41,7.41,0,0,0,1.27.53,19.76,19.76,0,0,0-5,13.16v7.79a19.53,19.53,0,0,0,.81,5.54c-6.28,3-7.91-.24-7.91-.24a5.84,5.84,0,0,1-1.25-1.54,6.08,6.08,0,0,1-.48-1.18s0,0,0,0a8.84,8.84,0,0,1,0-4.16l0-.13c0-.23.11-.47.18-.71a29.56,29.56,0,0,1,3.52-7.52h0c.35-.54.69-1.08,1.05-1.61l.58-.86q.38-.54.75-1c.28-.39.55-.77.83-1.14C102.3,91.54,104.33,89.15,106,87.31Z" style="fill:#829aae"/><path d="M102.16,69.06v8.77h-1.29a2.05,2.05,0,0,1-2-2V71.1a2,2,0,0,1,2-2Z" style="fill:#a0cbe8"/><path d="M122,80.24h-.09a.66.66,0,0,1-.21,0c-3.23-.13-4.21-2.42-4.28-3.62a.57.57,0,0,1,.17-.44A.59.59,0,0,1,118,76h7.79a.59.59,0,0,1,.43.19.57.57,0,0,1,.17.44c-.07,1.2-1,3.49-4.28,3.62Zm-3.24-3.06c.27.73,1,1.8,3.09,1.85H122c2.08,0,2.82-1.12,3.08-1.85Z" style="fill:#254254"/><path d="M129.86,83.29H114.39a.6.6,0,0,1,0-1.2h15.47a.6.6,0,0,1,0,1.2Z" style="fill:#254254"/><path d="M114.39,83.29h-12a.6.6,0,1,1,0-1.2h12a.6.6,0,1,1,0,1.2Z" style="fill:#254254"/><path d="M141.4,83.29H129.86a.6.6,0,1,1,0-1.2H141.4a.6.6,0,0,1,0,1.2Z" style="fill:#254254"/><path d="M113.05,76.6h0a4.69,4.69,0,0,1-3.31-8,4.63,4.63,0,0,1,3.31-1.38h0a4.69,4.69,0,0,1,3.32,8h0A4.65,4.65,0,0,1,113.05,76.6Zm0-8.18h0a3.45,3.45,0,0,0-2.46,1,3.5,3.5,0,0,0,2.46,6,3.61,3.61,0,0,0,2.47-1,3.49,3.49,0,0,0-2.47-6Zm2.9,6.37h0Z" style="fill:#254254"/><path d="M130.71,76.6a4.69,4.69,0,0,1,0-9.38h0A4.65,4.65,0,0,1,134,68.6h0a4.69,4.69,0,0,1-3.31,8Zm0-8.18a3.49,3.49,0,0,0,0,7h0a3.5,3.5,0,0,0,2.46-6h0a3.45,3.45,0,0,0-2.46-1Z" style="fill:#254254"/><path d="M141.61,69.66a.6.6,0,0,1-.6-.6v-4.2A8.48,8.48,0,0,0,141,64a.59.59,0,0,1,.51-.67.6.6,0,0,1,.68.52,8.74,8.74,0,0,1,.07,1v4.2A.6.6,0,0,1,141.61,69.66Z" style="fill:#254254"/><path d="M102.16,69.66a.6.6,0,0,1-.6-.6v-4.2a8.74,8.74,0,0,1,.07-1,.6.6,0,1,1,1.19.15,8.48,8.48,0,0,0-.06.87v4.2A.6.6,0,0,1,102.16,69.66Z" style="fill:#254254"/><path d="M141.61,78.43a.6.6,0,0,1-.6-.6V69.06a.6.6,0,0,1,1.2,0v8.77A.6.6,0,0,1,141.61,78.43Z" style="fill:#254254"/><path d="M106,87.91a.68.68,0,0,1-.28-.07,7.79,7.79,0,0,1-3.93-5,.6.6,0,0,1,.44-.72.59.59,0,0,1,.72.44,6.6,6.6,0,0,0,3.33,4.23.61.61,0,0,1,.25.81A.61.61,0,0,1,106,87.91Z" style="fill:#254254"/><path d="M107.28,88.44a.57.57,0,0,1-.18,0,7.77,7.77,0,0,1-1.38-.57.6.6,0,0,1-.25-.81.59.59,0,0,1,.81-.25,6.81,6.81,0,0,0,1.16.48.6.6,0,0,1-.16,1.18Z" style="fill:#254254"/><path d="M114.82,88.74h-5.51a7.64,7.64,0,0,1-2.21-.33.59.59,0,0,1-.4-.75.61.61,0,0,1,.75-.4,6.33,6.33,0,0,0,1.86.29h5.51a.6.6,0,1,1,0,1.19Z" style="fill:#254254"/><path d="M129.8,88.74h-15a.6.6,0,1,1,0-1.19h15a.6.6,0,1,1,0,1.19Z" style="fill:#254254"/><path d="M134.46,88.74H129.8a.6.6,0,1,1,0-1.19h4.66a6.24,6.24,0,0,0,2.2-.4.6.6,0,0,1,.41,1.13A7.6,7.6,0,0,1,134.46,88.74Z" style="fill:#254254"/><path d="M141.4,83.29l-.16,0a.59.59,0,0,1-.42-.73A6,6,0,0,0,141,81V77.83a.6.6,0,0,1,1.2,0V81a7.5,7.5,0,0,1-.23,1.85A.61.61,0,0,1,141.4,83.29Z" style="fill:#254254"/><path d="M102.37,83.29a.6.6,0,0,1-.58-.46,7.36,7.36,0,0,1-.23-1.84V77.83a.6.6,0,1,1,1.2,0V81a6.65,6.65,0,0,0,.19,1.56.59.59,0,0,1-.44.72Z" style="fill:#254254"/><path d="M138.33,87.58a.62.62,0,0,1-.5-.27.61.61,0,0,1,.17-.83,6.54,6.54,0,0,0,2.81-3.93.6.6,0,0,1,1.17.28,7.76,7.76,0,0,1-3.32,4.65A.56.56,0,0,1,138.33,87.58Z" style="fill:#254254"/><path d="M136.86,88.32a.6.6,0,0,1-.2-1.17,6.77,6.77,0,0,0,1.35-.67.6.6,0,1,1,.65,1,7,7,0,0,1-1.6.8A.71.71,0,0,1,136.86,88.32Z" style="fill:#254254"/><path d="M102.16,78.43a.6.6,0,0,1-.6-.6V69.06a.6.6,0,0,1,1.2,0v8.77A.6.6,0,0,1,102.16,78.43Z" style="fill:#254254"/><path d="M123.51,58.31h-2.77a.6.6,0,1,1,0-1.2h2.77a.6.6,0,0,1,0,1.2Z" style="fill:#254254"/><path d="M141.54,64.51A.59.59,0,0,1,141,64a6.58,6.58,0,0,0-6.49-5.68H131a.6.6,0,1,1,0-1.2h3.51a7.78,7.78,0,0,1,7.68,6.72.61.61,0,0,1-.52.68Z" style="fill:#254254"/><path d="M131,58.31h-7.44a.6.6,0,0,1,0-1.2H131a.6.6,0,0,1,0,1.2Z" style="fill:#254254"/><path d="M102.23,64.51h-.08a.61.61,0,0,1-.52-.68,7.78,7.78,0,0,1,7.68-6.72h4a.6.6,0,0,1,0,1.2h-4A6.58,6.58,0,0,0,102.82,64,.6.6,0,0,1,102.23,64.51Z" style="fill:#254254"/><path d="M120.74,58.31h-7.45a.6.6,0,0,1,0-1.2h7.45a.6.6,0,1,1,0,1.2Z" style="fill:#254254"/><path d="M141.54,64.51H102.23a.6.6,0,0,1,0-1.2h39.31a.6.6,0,1,1,0,1.2Z" style="fill:#254254"/><path d="M141.61,64.51h-.07a.6.6,0,0,1,0-1.2.64.64,0,0,1,.64.6A.58.58,0,0,1,141.61,64.51Z" style="fill:#254254"/><path d="M102.23,64.51h-.07a.6.6,0,0,1,0-1.2.63.63,0,0,1,.63.6A.57.57,0,0,1,102.23,64.51Z" style="fill:#254254"/><path d="M123.51,53.44h-2.77a.6.6,0,0,1,0-1.2h2.77a.6.6,0,0,1,0,1.2Z" style="fill:#254254"/><path d="M131,58.31a.6.6,0,0,1-.6-.6V55.9a2.47,2.47,0,0,0-2.47-2.46h-4.37a.6.6,0,1,1,0-1.2h4.37a3.67,3.67,0,0,1,3.67,3.66v1.81A.6.6,0,0,1,131,58.31Z" style="fill:#254254"/><path d="M113.29,58.31a.6.6,0,0,1-.6-.6V55.9a3.67,3.67,0,0,1,3.67-3.66h4.38a.6.6,0,1,1,0,1.2h-4.38a2.47,2.47,0,0,0-2.47,2.46v1.81A.6.6,0,0,1,113.29,58.31Z" style="fill:#254254"/><path d="M123.51,53.44a.6.6,0,0,1-.6-.6V49.76a.76.76,0,0,0-.15-.45.6.6,0,0,1,.13-.84.6.6,0,0,1,.84.13,2,2,0,0,1,.38,1.16v3.08A.6.6,0,0,1,123.51,53.44Z" style="fill:#254254"/><path d="M120.74,53.44a.6.6,0,0,1-.6-.6V49.76a2,2,0,0,1,.38-1.16.6.6,0,0,1,.84-.13.6.6,0,0,1,.13.84.76.76,0,0,0-.15.45v3.08A.6.6,0,0,1,120.74,53.44Z" style="fill:#254254"/><path d="M123.24,49.56a.59.59,0,0,1-.56-.41.6.6,0,0,1,.37-.76,2.91,2.91,0,1,0-1.85,0,.6.6,0,0,1-.39,1.13,4.1,4.1,0,1,1,2.63,0A.48.48,0,0,1,123.24,49.56Z" style="fill:#254254"/><path d="M122.12,49.75a4,4,0,0,1-1.31-.23.59.59,0,0,1-.37-.76.6.6,0,0,1,.77-.37,2.7,2.7,0,0,0,1.84,0,.6.6,0,1,1,.39,1.13A3.87,3.87,0,0,1,122.12,49.75Z" style="fill:#254254"/><path d="M102.16,78.43h-1.29a2.65,2.65,0,0,1-2.64-2.65V71.1a2.64,2.64,0,0,1,2.64-2.64h1.29a.6.6,0,1,1,0,1.2h-1.29a1.44,1.44,0,0,0-1.44,1.44v4.68a1.44,1.44,0,0,0,1.44,1.45h1.29a.6.6,0,0,1,0,1.2Z" style="fill:#254254"/><path d="M142.67,78.43h-1.06a.6.6,0,1,1,0-1.2h1.06a1.45,1.45,0,0,0,1.45-1.45V71.1a1.45,1.45,0,0,0-1.45-1.44h-1.06a.6.6,0,1,1,0-1.2h1.06a2.65,2.65,0,0,1,2.65,2.64v4.68A2.65,2.65,0,0,1,142.67,78.43Z" style="fill:#254254"/><path d="M103,114.93a.61.61,0,0,1-.57-.43,20.54,20.54,0,0,1-.83-5.71V101a20.38,20.38,0,0,1,5.19-13.56.59.59,0,0,1,.84,0,.6.6,0,0,1,0,.85A19.18,19.18,0,0,0,102.84,101v7.79a19.22,19.22,0,0,0,.78,5.37.6.6,0,0,1-.41.74A.47.47,0,0,1,103,114.93Z" style="fill:#254254"/><path d="M122.12,129.27a20.19,20.19,0,0,1-12.38-4.2,20.63,20.63,0,0,1-7.27-10.57.61.61,0,0,1,.41-.75.6.6,0,0,1,.74.41,19.45,19.45,0,0,0,6.85,10,19,19,0,0,0,11.65,3.95,19.4,19.4,0,0,0,18.5-13.91,1.44,1.44,0,0,1,.07-.22.6.6,0,0,1,1.11.44s-.05.16-.05.17A20.57,20.57,0,0,1,122.12,129.27Z" style="fill:#254254"/><path d="M141.24,114.77l-.16,0a.6.6,0,0,1-.41-.74,19.61,19.61,0,0,0,.73-5.21V101a19.23,19.23,0,0,0-5-12.88.59.59,0,0,1,0-.85.61.61,0,0,1,.85,0A20.45,20.45,0,0,1,142.6,101v7.79a20.47,20.47,0,0,1-.78,5.54A.6.6,0,0,1,141.24,114.77Z" style="fill:#254254"/><path d="M146.26,116.23a11.51,11.51,0,0,1-4.94-1.36,4,4,0,0,1-.36-.18.59.59,0,0,1-.24-.81.6.6,0,0,1,.81-.24l.3.14c5.61,2.73,7.06.15,7.11,0a1.24,1.24,0,0,1,.14-.18,5.17,5.17,0,0,0,1.78-3.81c.38-6.67-8-16.93-13-22.45a.6.6,0,0,1,.89-.8c5.13,5.66,13.68,16.21,13.28,23.32a6.46,6.46,0,0,1-2.11,4.58A4.13,4.13,0,0,1,146.26,116.23Z" style="fill:#254254"/><path d="M93.89,113.15a.6.6,0,0,1-.53-.31,6.28,6.28,0,0,1-.53-1.32.6.6,0,0,1,.43-.73.59.59,0,0,1,.73.42,4.92,4.92,0,0,0,.43,1.06.59.59,0,0,1-.53.88Z" style="fill:#254254"/><path d="M93.4,111.93a.62.62,0,0,1-.58-.44,9.51,9.51,0,0,1,0-4.45.6.6,0,0,1,1.18.25,8.27,8.27,0,0,0,0,3.87.6.6,0,0,1-.42.74A.45.45,0,0,1,93.4,111.93Z" style="fill:#254254"/><path d="M93.43,107.65h-.1a.6.6,0,0,1-.49-.7c0-.25.11-.51.19-.78a30.13,30.13,0,0,1,3.59-7.67.6.6,0,0,1,.83-.19.61.61,0,0,1,.19.83,29,29,0,0,0-3.46,7.36c-.06.23-.12.45-.16.66A.6.6,0,0,1,93.43,107.65Z" style="fill:#254254"/><path d="M97.13,99.4a.62.62,0,0,1-.32-.09.61.61,0,0,1-.19-.83c.34-.54.69-1.08,1.07-1.63.18-.28.38-.58.59-.87a.6.6,0,1,1,1,.7c-.2.27-.38.55-.56.83-.37.55-.72,1.07-1,1.61A.6.6,0,0,1,97.13,99.4Z" style="fill:#254254"/><path d="M99.51,95.88a.57.57,0,0,1-.35-.12.6.6,0,0,1-.13-.84l.82-1.13a.6.6,0,1,1,1,.71L100,95.63A.61.61,0,0,1,99.51,95.88Z" style="fill:#254254"/><path d="M141.61,114.93H103.05a.6.6,0,0,1,0-1.2h38.53a.62.62,0,0,1,.62.6A.59.59,0,0,1,141.61,114.93Z" style="fill:#254254"/><path d="M134,107.65H109.53a3.18,3.18,0,0,1-2.86-3.42V99.39A3.19,3.19,0,0,1,109.53,96H134a3.19,3.19,0,0,1,2.86,3.43v4.84A3.18,3.18,0,0,1,134,107.65ZM109.53,97.16c-.9,0-1.66,1-1.66,2.23v4.84c0,1.2.76,2.23,1.66,2.23H134c.9,0,1.66-1,1.66-2.23V99.39c0-1.21-.76-2.23-1.66-2.23Z" style="fill:#254254"/><path d="M131.31,104.68h-19a2.11,2.11,0,0,1-2.34-1.82v-2.1a2.11,2.11,0,0,1,2.34-1.82h19c1.33,0,2.36.8,2.36,1.82v2.1C133.67,103.88,132.64,104.68,131.31,104.68Zm-19-4.54c-.64,0-1.14.33-1.14.62v2.1c0,.29.5.62,1.14.62h19c.66,0,1.16-.33,1.16-.62v-2.1c0-.29-.5-.62-1.16-.62Z" style="fill:#254254"/><path d="M98.36,116.23a4.1,4.1,0,0,1-3.69-1.75,6.11,6.11,0,0,1-1.3-1.64,6,6,0,0,1-.53-1.3h0s0,0,0,0a9.55,9.55,0,0,1,0-4.43l0-.15c0-.18.09-.38.14-.58l0-.14a.6.6,0,0,1,1.17.3l0,.14c-.05.18-.09.37-.13.55l0,.14a8.29,8.29,0,0,0,0,3.85v0a5.09,5.09,0,0,0,.43,1.07,5,5,0,0,0,1.12,1.37,1.33,1.33,0,0,1,.14.19c0,.1,1.5,2.68,7.1,0a.6.6,0,0,1,.53,1.08A11.51,11.51,0,0,1,98.36,116.23Z" style="fill:#254254"/><path d="M97.13,99.4a.59.59,0,0,1-.6-.59h0a.53.53,0,0,1,.1-.32c.35-.56.7-1.1,1.05-1.63l.59-.86c.25-.36.5-.72.76-1.07s.55-.77.83-1.14c2.17-2.88,4.29-5.33,5.69-6.88a.61.61,0,0,1,.85,0,.6.6,0,0,1,0,.85c-1.38,1.53-3.48,4-5.62,6.79-.27.37-.55.74-.82,1.12s-.5.69-.74,1l-.58.85c-.35.52-.69,1-1,1.58A.6.6,0,0,1,97.13,99.4Z" style="fill:#254254"/><path d="M116.08,33.73a.55.55,0,0,0,.76.12,8.77,8.77,0,0,1,10.1,0,.5.5,0,0,0,.31.1.55.55,0,0,0,.32-1c-5.74-4.06-11.32,0-11.38,0A.54.54,0,0,0,116.08,33.73Z" style="fill:#254254"/><path d="M118.42,37.08a.54.54,0,0,0,.76.11,4.75,4.75,0,0,1,5.42,0,.57.57,0,0,0,.31.1.56.56,0,0,0,.45-.23.55.55,0,0,0-.13-.76,5.88,5.88,0,0,0-6.7,0A.55.55,0,0,0,118.42,37.08Z" style="fill:#254254"/><path d="M100.69,107.48a1.45,1.45,0,0,1-.61,2l-3.28,1.75a1.48,1.48,0,0,1-2-.61l-.33-.65,5.85-3.11Z" style="fill:#ffd38d"/><polygon points="86.92 81.42 100.34 106.82 94.48 109.93 81.06 84.51 86.92 81.42" style="fill:#eaedef"/><polygon points="85.92 79.53 86.92 81.42 81.06 84.51 80.07 82.63 85.92 79.53" style="fill:#ffd38d"/><path d="M85.92,79.53l-5.85,3.1a1.42,1.42,0,0,1-.14-.36l0,0L80,75.47l5.71,3.73,0,0A1.05,1.05,0,0,1,85.92,79.53Z" style="fill:#d1e0ed"/><path d="M96.13,112a2.06,2.06,0,0,1-1.83-1.09L94,110.2,79.54,82.92a1.17,1.17,0,0,1-.13-.28.52.52,0,0,1-.12-.36l.14-6.82a.62.62,0,0,1,.32-.52.6.6,0,0,1,.61,0l5.71,3.73a.63.63,0,0,1,.25.33,1.76,1.76,0,0,1,.14.23l14.76,27.93a2.06,2.06,0,0,1-.86,2.78l-3.28,1.75A2,2,0,0,1,96.13,112ZM80.49,82.06a.14.14,0,0,1,0,.06,1.11,1.11,0,0,0,.07.2l1,1.91L95.36,110.3a.87.87,0,0,0,1.16.36l3.28-1.75a.85.85,0,0,0,.36-1.15l-.35-.65L85.39,79.81h0a.79.79,0,0,0-.12-.15l-.07-.08-4.59-3Z" style="fill:#254254"/><path d="M80.07,83.23a.58.58,0,0,1-.53-.31.6.6,0,0,1,.25-.82L85.64,79a.61.61,0,0,1,.81.25.59.59,0,0,1-.25.81l-5.85,3.1A.58.58,0,0,1,80.07,83.23Z" style="fill:#254254"/><path d="M81.06,85.11a.6.6,0,0,1-.53-.32.59.59,0,0,1,.25-.81l5.85-3.09a.6.6,0,0,1,.82.25.61.61,0,0,1-.25.81L81.34,85A.58.58,0,0,1,81.06,85.11Z" style="fill:#254254"/><path d="M94.49,110.53a.6.6,0,0,1-.29-1.13l5.86-3.11a.61.61,0,0,1,.81.25.6.6,0,0,1-.25.81l-5.85,3.11A.72.72,0,0,1,94.49,110.53Z" style="fill:#254254"/></svg>