<svg xmlns="http://www.w3.org/2000/svg" viewBox="0 0 48 48"><title>img_naver</title><rect x="32.15" y="14.9" width="5.02" height="9" style="fill:#00af27"/><polygon points="23.56 22.61 37.17 22.61 24 9.59 17.19 16.32 23.56 22.61 23.56 22.61" style="fill:#05cd3a"/><polygon points="17.19 16.32 10.83 22.61 23.56 22.61 17.19 16.32" style="fill:#29ef37"/><polygon points="23.56 22.61 23.56 22.61 23.56 22.61 23.56 22.61" style="fill:#29ef37"/><polygon points="23.56 22.61 10.83 22.61 10.83 35.76 23.56 35.76 23.56 22.61 23.56 22.61" style="fill:#29ef37"/><polygon points="23.56 22.61 23.56 22.61 29.13 28.12 23.56 22.61 23.56 35.76 37.17 35.76 37.17 22.61 23.56 22.61" style="fill:#05cd3a"/><polygon points="33.9 29.83 33.9 32.01 32.4 29.83 30.78 29.83 30.78 34.16 32.4 34.16 32.4 31.97 33.9 34.16 35.51 34.16 35.51 29.83 33.9 29.83" style="fill:#fff"/><path d="M35.61,34.26H33.84l0,0L32.5,32.3v2H30.68V29.73h1.78l0,0,1.31,1.92v-2h1.81ZM34,34.06h1.46V29.93H34v2.41l-1.65-2.41H30.88v4.13H32.3V31.65Z" style="fill:#00af27"/><rect x="14.4" y="23.85" width="1.81" height="1.81" style="fill:#02a922"/><rect x="17.4" y="23.85" width="1.81" height="1.81" style="fill:#02a922"/><rect x="14.4" y="26.74" width="1.81" height="1.81" style="fill:#02a922"/><rect x="17.4" y="26.74" width="1.81" height="1.81" style="fill:#02a922"/><circle cx="24.01" cy="24.11" r="23" style="fill:none;stroke:#e8e8e8;stroke-miterlimit:10"/></svg>