<svg xmlns="http://www.w3.org/2000/svg" viewBox="0 0 48 48"><title>img_dabang</title><polygon points="21.79 19.38 19.31 19.38 16.97 19.38 16.97 21.72 16.97 24.18 19.31 24.18 19.31 21.72 21.79 21.72 21.79 19.38" style="fill:#337dff"/><polygon points="37.63 19.38 35.15 19.38 32.81 19.38 32.81 21.72 32.81 24.18 35.15 24.18 35.15 21.72 37.63 21.72 37.63 19.38" style="fill:#337dff"/><polygon points="15.03 21.72 15.03 19.38 8.99 19.38 8.99 20.55 8.99 21.72 8.99 25.5 8.99 26.59 8.99 27.85 15.03 27.85 15.03 25.5 11.34 25.5 11.34 21.72 15.03 21.72" style="fill:#337dff"/><path d="M28.48,19.38v1.84h-1.9V19.38H24.24v8.47h6.59V19.38Zm-1.9,6.12V23.57h1.9V25.5Z" style="fill:#337dff"/><path d="M35.76,25.5A3.27,3.27,0,1,0,39,28.76,3.26,3.26,0,0,0,35.76,25.5Zm0,4.3a1,1,0,1,1,1-1A1,1,0,0,1,35.76,29.8Z" style="fill:#337dff"/><circle cx="24.01" cy="24.11" r="23" style="fill:none;stroke:#e8e8e8;stroke-miterlimit:10"/></svg>