<svg xmlns="http://www.w3.org/2000/svg" viewBox="0 0 48 48"><title>img_dabang_1</title><circle cx="24.01" cy="24.11" r="23" style="fill:none;stroke:#e8e8e8;stroke-miterlimit:10"/><rect x="31.7" y="14.51" width="5.1" height="10.28" rx="0.46" style="fill:#007ede"/><path d="M36.76,21.11a.9.9,0,0,0-.33-1l-12-9.31a.93.93,0,0,0-1.14,0l-12,9.31a.9.9,0,0,0-.32,1,1,1,0,0,0,0,.24V36.56a.91.91,0,0,0,.91.91H35.88a.92.92,0,0,0,.92-.91V21.35A1,1,0,0,0,36.76,21.11Z" style="fill:#0a9afe"/><path d="M25.46,22.82a5.51,5.51,0,0,0-1.22-.15H20a.9.9,0,0,0-.89.9v9.15a.89.89,0,0,0,.89.9h4.24a5.47,5.47,0,0,0,1.22-10.8Zm-.63,7.46a2,2,0,0,1-.49.06H22.65a.36.36,0,0,1-.36-.36V26.32a.36.36,0,0,1,.36-.36h1.69a2.63,2.63,0,0,1,.49.05,2.19,2.19,0,0,1,0,4.27Z" style="fill:#fff"/></svg>