<svg xmlns="http://www.w3.org/2000/svg" viewBox="0 0 120 100"><title>img_main_illust2</title><path d="M110.51,12.55V46.42H57.32V12.55ZM107.28,43V15.93H60.58V43H65c0,.09.09.15.11.15l2.75,0L68,43H93.21c0,.07.09.11.12.11l5.65.09.09-.2Z" style="fill:#f4e7df"/><path d="M102.51,27.87a7.1,7.1,0,0,1,.24,2.59c-.14,4.35-1.9,8.67-3.68,12.57H93.21a17.22,17.22,0,0,1-1-2.16A46.27,46.27,0,0,1,90,35.21a20.66,20.66,0,0,1-1.17-6.5c0-1.73.68-4.9,2.7-5.36,3.2-.72,5.39,3.92,6.1,6.17-.19-.6.63-2.12,1-2.57C99.82,25.3,101.92,26.21,102.51,27.87Z" style="fill:#ffc5cd"/><path d="M99.07,43l-.09.2-5.65-.09s-.08,0-.12-.11Z" style="fill:#fff7f3"/><path d="M69.57,35.78A3.29,3.29,0,0,1,69.68,37,16.06,16.06,0,0,1,68,43H65c-.16-.28-.39-.87-.43-1a22.79,22.79,0,0,1-1.06-2.74,10.22,10.22,0,0,1-.57-3.05v-.11c0-.84.33-2.37,1.31-2.6,1.55-.35,2.61,1.91,3,3-.09-.3.31-1,.47-1.25C68.26,34.53,69.28,35,69.57,35.78Z" style="fill:#ffc5cd"/><path d="M68,43l-.09.2-2.75,0S65,43.12,65,43Z" style="fill:#fff7f3"/><path d="M63.51,39.34a22.79,22.79,0,0,0,1.06,2.74c0,.08.27.67.43,1H60.58V36.29h2.36A10.22,10.22,0,0,0,63.51,39.34Z" style="fill:#fff7f3"/><path d="M67.21,36.58c-.35-1.09-1.41-3.35-3-3-1,.23-1.29,1.76-1.31,2.6v.11H60.58V15.93h46.7V43H99.07c1.78-3.9,3.54-8.22,3.68-12.57a7.1,7.1,0,0,0-.24-2.59c-.59-1.66-2.69-2.57-3.9-.92-.33.45-1.15,2-1,2.57-.71-2.25-2.9-6.89-6.1-6.17-2,.46-2.66,3.63-2.7,5.36A20.66,20.66,0,0,0,90,35.21a46.27,46.27,0,0,0,2.19,5.66,17.22,17.22,0,0,0,1,2.16H68a16.06,16.06,0,0,0,1.73-6,3.29,3.29,0,0,0-.11-1.25c-.29-.81-1.31-1.25-1.89-.45C67.52,35.55,67.12,36.28,67.21,36.58Z" style="fill:#fff7f3"/><g style="opacity:0.85"><polygon points="112.45 64.75 112.45 89.25 90.2 89.25 90.2 64.75 100.05 64.75 100.05 75.74 100.98 75.63 101.64 75.92 102.23 75.63 102.81 76.03 103.91 75.43 104.35 74.04 104.35 64.75 112.45 64.75" style="fill:#ffccd5"/><polygon points="104.35 64.75 104.35 74.04 103.91 75.43 102.81 76.03 102.23 75.63 101.64 75.92 100.98 75.63 100.05 75.74 100.05 64.75 104.35 64.75" style="fill:#e0babe"/><polygon points="104.35 64.75 112.45 64.75 112.45 89.25 90.2 89.25 90.2 64.75 100.05 64.75 104.35 64.75" style="fill:none;stroke:#968f8f;stroke-linecap:round;stroke-linejoin:round;stroke-width:0.5px"/><polyline points="100.05 64.73 100.05 64.75 100.05 75.74 100.98 75.63 101.64 75.92 102.23 75.63 102.81 76.03 103.91 75.43 104.35 74.04 104.35 64.75" style="fill:none;stroke:#968f8f;stroke-linecap:round;stroke-linejoin:round;stroke-width:0.5px"/></g><g style="opacity:0.62"><polygon points="37.85 46.52 37.85 61.56 15.96 61.56 15.96 46.52 25.64 46.52 25.64 53.27 26.57 53.2 27.21 53.38 27.8 53.2 28.36 53.44 29.44 53.08 29.88 52.22 29.88 46.52 37.85 46.52" style="fill:#ffccd5"/><polygon points="29.88 46.52 29.88 52.22 29.44 53.08 28.36 53.44 27.8 53.2 27.21 53.38 26.57 53.2 25.64 53.27 25.64 46.52 29.88 46.52" style="fill:#e0babe"/><polygon points="29.88 46.52 37.85 46.52 37.85 61.56 15.96 61.56 15.96 46.52 25.64 46.52 29.88 46.52" style="fill:none;stroke:#999;stroke-linecap:round;stroke-linejoin:round;stroke-width:0.5px"/><polyline points="25.64 46.51 25.64 46.52 25.64 53.27 26.57 53.2 27.21 53.38 27.8 53.2 28.36 53.44 29.44 53.08 29.88 52.22 29.88 46.52" style="fill:none;stroke:#999;stroke-linecap:round;stroke-linejoin:round;stroke-width:0.5px"/></g><path d="M120,89.92H3.08a.25.25,0,1,1,0-.5H120a.25.25,0,0,1,0,.5Z" style="fill:#999"/><line x1="5.88" y1="84.23" x2="14.09" y2="84.23" style="fill:none;stroke:#999;stroke-linecap:round;stroke-linejoin:round;stroke-width:0.5px"/><path d="M27.57,58.85H19.36a.25.25,0,0,1,0-.5h8.21a.25.25,0,0,1,0,.5Z" style="fill:#fff"/><line x1="11.86" y1="50" x2="20.07" y2="50" style="fill:none;stroke:#fff;stroke-linecap:round;stroke-linejoin:round;stroke-width:0.5px"/><path d="M111.39,80.32h-8.21a.25.25,0,0,1,0-.5h8.21a.25.25,0,0,1,0,.5Z" style="fill:#fff"/><path d="M68.44,38.46H60.23a.25.25,0,0,1,0-.5h8.21a.25.25,0,0,1,0,.5Z" style="fill:#fff"/><path d="M33.8,22.49V38.85H8.12V22.49ZM32.24,37.21V24.12H9.69V37.21h2.13s0,.07.06.07l1.32,0,.05-.1h12.2a.08.08,0,0,0,.05,0l2.73.05.05-.1Z" style="fill:#f4e7df"/><path d="M32.24,24.12V37.21h-4a16.6,16.6,0,0,0,1.77-6.07,3.31,3.31,0,0,0-.11-1.25,1.08,1.08,0,0,0-1.89-.44c-.16.21-.55.95-.46,1.24-.34-1.09-1.4-3.33-2.95-3-1,.22-1.28,1.75-1.3,2.59a9.89,9.89,0,0,0,.57,3.13A22.11,22.11,0,0,0,25,36.17a8.2,8.2,0,0,0,.49,1H13.25a7.74,7.74,0,0,0,.83-2.9,1.52,1.52,0,0,0-.05-.6c-.14-.39-.63-.6-.91-.22-.08.11-.27.46-.23.61-.17-.53-.68-1.62-1.43-1.45-.47.11-.62.85-.63,1.25V34H9.69V24.12Z" style="fill:#fff7f3"/><path d="M29.94,29.89a3.31,3.31,0,0,1,.11,1.25,16.6,16.6,0,0,1-1.77,6.07H25.45a8.2,8.2,0,0,1-.49-1,22.11,22.11,0,0,1-1.05-2.74,9.89,9.89,0,0,1-.57-3.13c0-.84.33-2.37,1.3-2.59,1.55-.35,2.61,1.89,2.95,3-.09-.29.3-1,.46-1.24A1.08,1.08,0,0,1,29.94,29.89Z" style="fill:#ffccd5"/><path d="M28.28,37.21l-.05.1-2.73-.05a.08.08,0,0,1-.05,0Z" style="fill:#e0caca"/><path d="M14,33.71a1.52,1.52,0,0,1,.05.6,7.74,7.74,0,0,1-.83,2.9H11.82c-.07-.14-.18-.42-.2-.46a10.64,10.64,0,0,1-.52-1.32A4.9,4.9,0,0,1,10.83,34V33.9c0-.4.16-1.14.63-1.25.75-.17,1.26.92,1.43,1.45,0-.15.15-.5.23-.61C13.4,33.11,13.89,33.32,14,33.71Z" style="fill:#ffccd5"/><path d="M13.25,37.21l-.05.1-1.32,0s0,0-.06-.07Z" style="fill:#e0caca"/><path d="M11.82,37.21H9.69V34h1.14a4.9,4.9,0,0,0,.27,1.47,10.64,10.64,0,0,0,.52,1.32S11.75,37.07,11.82,37.21Z" style="fill:#fff7f3"/><g style="opacity:0.85"><polygon points="38.17 61.59 38.17 89.25 13.05 89.25 13.05 61.59 24.17 61.59 24.17 74 25.22 73.87 25.96 74.2 26.63 73.87 27.28 74.32 28.52 73.65 29.02 72.08 29.02 61.59 38.17 61.59" style="fill:#ffccd5"/><polygon points="29.02 61.59 29.02 72.08 28.52 73.65 27.28 74.32 26.63 73.87 25.96 74.2 25.22 73.87 24.17 74 24.17 61.59 29.02 61.59" style="fill:#e0babe"/><polygon points="29.02 61.59 38.17 61.59 38.17 89.25 13.05 89.25 13.05 61.59 24.17 61.59 29.02 61.59" style="fill:none;stroke:#968f8f;stroke-linecap:round;stroke-linejoin:round;stroke-width:0.5px"/><polyline points="24.17 61.57 24.17 61.59 24.17 74 25.22 73.87 25.96 74.2 26.63 73.87 27.28 74.32 28.52 73.65 29.02 72.08 29.02 61.59" style="fill:none;stroke:#968f8f;stroke-linecap:round;stroke-linejoin:round;stroke-width:0.5px"/></g><g style="opacity:0.62"><polygon points="112.17 51.4 112.17 64.72 92.78 64.72 92.78 51.4 101.36 51.4 101.36 57.38 102.17 57.32 102.75 57.47 103.26 57.32 103.77 57.53 104.72 57.21 105.11 56.45 105.11 51.4 112.17 51.4" style="fill:#ffccd5"/><polygon points="105.11 51.4 105.11 56.45 104.72 57.21 103.77 57.53 103.26 57.32 102.75 57.47 102.17 57.32 101.36 57.38 101.36 51.4 105.11 51.4" style="fill:#e0babe"/><polygon points="105.11 51.4 112.17 51.4 112.17 64.72 92.78 64.72 92.78 51.4 101.36 51.4 105.11 51.4" style="fill:none;stroke:#999;stroke-linecap:round;stroke-linejoin:round;stroke-width:0.5px"/><polyline points="101.36 51.39 101.36 51.4 101.36 57.38 102.17 57.32 102.75 57.47 103.26 57.32 103.77 57.53 104.72 57.21 105.11 56.45 105.11 51.4" style="fill:none;stroke:#999;stroke-linecap:round;stroke-linejoin:round;stroke-width:0.5px"/></g><polygon points="69.47 83.67 70.1 83.25 70.59 83.52 71.44 83.25 72.43 83.67 72.43 73.65 78.43 73.65 78.43 90.97 59.35 90.97 59.35 85.74 59.35 81.85 59.35 73.73 59.41 73.65 67.95 73.65 67.95 73.73 67.95 83.67 68.94 83.25 69.47 83.67" style="fill:#ffccd5"/><polygon points="69.29 66.11 69.82 64.43 74.96 64.43 77.59 64.43 75.79 70.33 67.96 70.33 69.29 66.11" style="fill:#ece9e1"/><polygon points="67.54 67.74 68.3 65.3 69.29 66.11 67.96 70.33 66.73 70.33 67.54 67.74" style="fill:#ece9e1"/><polygon points="67.95 73.65 72.43 73.65 72.43 83.67 71.44 83.25 70.59 83.52 70.1 83.25 69.47 83.67 68.94 83.25 67.95 83.67 67.95 73.73 67.95 73.65" style="fill:#e0babe"/><path d="M63.81,56.17,67.39,67.7l-8.2,2.59-.75-2.21c1.2,0,2.33-.49,2.45-1.85,0,0,.19-1.61-1.13-1.61A11.09,11.09,0,0,1,57,64.45l-.5-1.7L55.41,59Z" style="fill:#ece9e1"/><polygon points="62.4 70.33 66.73 70.33 67.96 70.33 75.79 70.33 81.84 70.33 78.43 73.65 72.43 73.65 67.95 73.65 59.41 73.65 61.52 71.29 62.4 70.33" style="fill:#ffccd5"/><polygon points="59.41 73.65 56.3 73.65 55.41 71.29 61.52 71.29 59.41 73.65" style="fill:#e0babe"/><polygon points="56.3 76.16 56.3 73.65 59.41 73.65 59.35 73.73 59.35 81.85 59.35 85.74 59.35 90.97 56.3 90.97 56.3 88.09 56.3 76.16" style="fill:#e0babe"/><path d="M55.14,62.74a4,4,0,0,1,1.37,0l.5,1.7a11.09,11.09,0,0,0,2.75.17c1.32,0,1.13,1.61,1.13,1.61-.12,1.36-1.25,1.8-2.45,1.85a10.55,10.55,0,0,1-3-.38,39.21,39.21,0,0,1-6,.43h-.76a22.26,22.26,0,0,1-4-.42c-2.23-.62-6.1-8.67-6.1-8.67l3.87-2.42,3.77,5.66,4,.76,2.89.55A5.25,5.25,0,0,1,55.14,62.74Z" style="fill:#f3d2bf"/><path d="M50.17,53.45l3.17,8,1.8,1.32a5.25,5.25,0,0,0-2.08.84L50.17,63A18.55,18.55,0,0,0,50,60.66a44.3,44.3,0,0,0-1-6.5l1.14-.72Z" style="fill:#f3d2bf"/><path d="M50.17,53.44,49,54.16c-.06-.25-.12-.49-.19-.74l1.31-1.08h0l.48.8Z" style="fill:#2b647e"/><path d="M47.71,69.78a8.66,8.66,0,0,0,1.67-1.65,61.51,61.51,0,0,1,6.93,8V88.09a5.34,5.34,0,0,1-.9,0h0c-.18-2.34-1.59-6.4-7.12-12.82l.75-.83-2.4-3.92c.21-.13.43-.27.65-.43l.43-.31Z" style="fill:#afcdec"/><path d="M50.15,52.34l-1.31,1.08a18.64,18.64,0,0,0-2.44-5.84A3.36,3.36,0,0,1,48,48.93Z" style="fill:#336d8c"/><path d="M49.38,68.13a8.66,8.66,0,0,1-1.67,1.65v-.84a3.65,3.65,0,0,0,.91-.82Z" style="fill:#afcdec"/><path d="M47.71,68.94v.86l-.43.31,0,0v-.9l.14-.05A1.68,1.68,0,0,0,47.71,68.94Z" style="fill:#afcdec"/><path d="M44.66,35.49a1.5,1.5,0,0,1,1.5,1.5,1.48,1.48,0,0,1-1.28,1.46l-.54-2.87v0A1.2,1.2,0,0,1,44.66,35.49Z" style="fill:#f3d2bf"/><path d="M44.21,34.79a6,6,0,0,0-.51-1.46,2.15,2.15,0,0,0,.64-.27v2.45Z" style="fill:#66524d"/><path d="M44,71.66V70.24l.61-.17h0c.89-.26,1.77-.56,2.61-.88v.9l0,0c-.22.16-.44.3-.65.43a9.75,9.75,0,0,1-2.29,1Z" style="fill:#afcdec"/><path d="M43.1,72V70.48c.31-.07.61-.15.92-.24v1.42h0C43.71,71.78,43.39,71.87,43.1,72Z" style="fill:#829aae"/><path d="M39.25,41.65A13.09,13.09,0,0,0,43.18,40s.7,1.42-1.35,2.27C41.83,42.24,39.92,43.22,39.25,41.65Z" style="fill:#e9bc99"/><path d="M42.73,38.8c-.24.08-.56-.22-.73-.69s-.11-.92.14-1,.57.22.74.68S43,38.71,42.73,38.8Z" style="fill:#454e63"/><path d="M40.45,52l2.15,3.41L36.76,59,34.63,55.6a3.45,3.45,0,0,1-.42-2.66,3.57,3.57,0,0,1,1.51-2.07A3.44,3.44,0,0,1,40.45,52Z" style="fill:#336d8c"/><path d="M43.1,72a13,13,0,0,1-2.68.52l.07-1.5c.63-.08,1.27-.2,1.9-.33l.71-.17Z" style="fill:#afcdec"/><path d="M41.63,36.1l0,0Z" style="fill:#454e63"/><path d="M41.77,35.62a2.5,2.5,0,0,1,.54-.07.45.45,0,0,1,.23,0,.17.17,0,0,1,.11.14c0,.15-.18.24-.3.24H42l-.15,0-.05,0h-.07l0,0h0l0,0-.06,0v0a.41.41,0,0,1-.43.12c-.12-.05-.23-.16-.14-.29A1.19,1.19,0,0,1,41.77,35.62Z" style="fill:#454e63"/><path d="M42.37,45.15a1.61,1.61,0,0,1-3.17.58l-.05-.36a5,5,0,0,0,.66,0l.61-.12a5.27,5.27,0,0,0,1.83-.7Z" style="fill:#f3d2bf"/><path d="M40.49,71l-.07,1.5v0l-1,.06V71.1Q40,71.05,40.49,71Z" style="fill:#829aae"/><path d="M38.42,39.37c-.17-.46-.1-.91.14-1s.58.23.75.7.1.91-.15,1S38.58,39.85,38.42,39.37Z" style="fill:#454e63"/><polygon points="42.39 56.61 38.52 59.03 37.26 59.82 36.76 59.03 42.6 55.37 43.1 56.17 42.39 56.61" style="fill:#2b647e"/><path d="M41.83,42.24c2.05-.85,1.35-2.27,1.35-2.27a13.09,13.09,0,0,1-3.93,1.68C39.92,43.22,41.83,42.24,41.83,42.24Zm-3.89-4.83h0l.08,0h.13a.37.37,0,0,0,.4-.18c.07-.11.08-.26-.07-.3a1.23,1.23,0,0,0-.87.18,3.7,3.7,0,0,0-.47.29.63.63,0,0,0-.15.18.17.17,0,0,0,0,.17c.09.12.28.08.38,0l.1-.07.12-.08.07,0,0,0,.13-.07Zm4.2-.3c-.25.08-.31.54-.14,1s.49.77.73.69.31-.54.15-1S42.38,37,42.14,37.11ZM42.35,36c.12,0,.3-.09.3-.24a.17.17,0,0,0-.11-.14.45.45,0,0,0-.23,0,2.5,2.5,0,0,0-.54.07,1.19,1.19,0,0,0-.8.4c-.09.13,0,.24.14.29a.41.41,0,0,0,.43-.12v0l.06,0,0,0h0l0,0h.07l.05,0L42,36h.39Zm-3.79,2.4c-.24.09-.31.54-.14,1s.49.78.74.69.31-.53.15-1S38.81,38.29,38.56,38.37Zm5.78-2.79.54,2.87,0,.24a5.6,5.6,0,0,1-2.67,5.81,5.27,5.27,0,0,1-1.83.7l-.61.12a5,5,0,0,1-.66,0,5.57,5.57,0,0,1-5-2.5h0a5.36,5.36,0,0,1-.63-1.32,5.94,5.94,0,0,1-.21-.72l-.36-2-.1-.52.67-2a2.92,2.92,0,0,0,2.82-1.6c3.74-.08,4.37-3,4.37-3s1.27,2,3,1.56a6,6,0,0,1,.51,1.46l.13.72v.07Z" style="fill:#f3d2bf"/><path d="M38.14,37.36h-.08l-.08,0h0l-.06,0-.13.07,0,0-.07,0-.12.08-.1.07c-.1.08-.29.12-.38,0a.17.17,0,0,1,0-.17.63.63,0,0,1,.15-.18,3.7,3.7,0,0,1,.47-.29,1.23,1.23,0,0,1,.87-.18c.15,0,.14.19.07.3a.37.37,0,0,1-.4.18h0Z" style="fill:#454e63"/><path d="M36.22,71.1a16.42,16.42,0,0,0,2.22.06l1-.06v1.46a14.89,14.89,0,0,1-3.25-.18Z" style="fill:#afcdec"/><path d="M48.84,53.42c.07.25.13.49.19.74a44.3,44.3,0,0,1,1,6.5A18.55,18.55,0,0,1,50.17,63l-4-.76-3.77-5.66.71-.44-.5-.8L40.45,52a3.44,3.44,0,0,0-4.73-1.09,3.57,3.57,0,0,0-1.51,2.07l-1.66-.36a9.44,9.44,0,0,1,6.65-6.85,1.61,1.61,0,0,0,3.17-.58,4.94,4.94,0,0,1,4,2.43A18.64,18.64,0,0,1,48.84,53.42Z" style="fill:#336d8c"/><path d="M35.05,70.94a11.35,11.35,0,0,0,1.17.16v1.28c-.5-.08-.94-.17-1.32-.26Z" style="fill:#829aae"/><path d="M34.9,72.12a10.35,10.35,0,0,1-1.73-.58,7.21,7.21,0,0,1,.33-1,4.55,4.55,0,0,0,1.55.43Z" style="fill:#afcdec"/><path d="M38.52,59s3.87,8,6.1,8.67a22.26,22.26,0,0,0,4,.42,3.65,3.65,0,0,1-.91.82,1.68,1.68,0,0,1-.31.19l-.14.05c-.84.32-1.72.62-2.61.88h0l-.61.17c-.31.09-.61.17-.92.24l-.71.17c-.63.13-1.27.25-1.9.33q-.51.08-1,.12l-1,.06a16.42,16.42,0,0,1-2.22-.06,11.35,11.35,0,0,1-1.17-.16,4.55,4.55,0,0,1-1.55-.43,1.67,1.67,0,0,1-.79-1.24,46.47,46.47,0,0,1-.44-8.59c0-2.12,0-4.25,0-6.37a10.82,10.82,0,0,1,.27-1.73l1.66.36a3.45,3.45,0,0,0,.42,2.66L36.76,59l.5.79Z" style="fill:#336d8c"/><path d="M34.13,42.86l-1.46-1a1.47,1.47,0,0,0,.83-.27A5.36,5.36,0,0,0,34.13,42.86Z" style="fill:#66524d"/><path d="M32.93,38.86l.36,2a5.94,5.94,0,0,0,.21.72,1.47,1.47,0,0,1-.83.27,1.5,1.5,0,0,1-1.5-1.5,1.47,1.47,0,0,1,.19-.73,1.49,1.49,0,0,1,1.31-.78A1.22,1.22,0,0,1,32.93,38.86Z" style="fill:#f3d2bf"/><path d="M33.18,75.67A10.39,10.39,0,0,0,37,81.28l-2.86-.44q-1.7-.36-3-.57c-1.51-4.18-.09-5-.09-5h0a20.37,20.37,0,0,1,2.09.39Z" style="fill:#afcdec"/><path d="M31.36,39.58c-4.57-5-1.61-6.31-1.61-6.31-1.19-3.79,3.21-5,3.7-5.09h0c4.61-3.72,6.44.49,6.44.49h0l0-.51c.48-.17,3.13-.9,3.79,3.52a5.15,5.15,0,0,0,1.45.62,3.8,3.8,0,0,1-.91.77,2.15,2.15,0,0,1-.64.27c-1.74.44-3-1.56-3-1.56s-.63,2.93-4.37,3a2.92,2.92,0,0,1-2.82,1.6l-.67,2-.16.46A1.49,1.49,0,0,0,31.36,39.58Z" style="fill:#66524d"/><path d="M37,81.28a10.39,10.39,0,0,1-3.82-5.61,8.72,8.72,0,0,1,0-4.13,10.35,10.35,0,0,0,1.73.58c.38.09.82.18,1.32.26a14.89,14.89,0,0,0,3.25.18l1-.06v0A13,13,0,0,0,43.1,72c.29-.09.61-.18.92-.29h0l.32-.12a9.75,9.75,0,0,0,2.29-1L49,74.46l-.75.83c5.53,6.42,6.94,10.48,7.12,12.82a3.89,3.89,0,0,1-.49,2.58s-4.12,2.92-7.71,1.69A105.67,105.67,0,0,1,35,88.47v0l-5.42-.63a9.12,9.12,0,0,1-.8-7.78l0-.14c.65.07,1.42.17,2.36.33s1.84.33,3,.57Z" style="fill:#afcdec"/><path d="M28.55,75.55a2.77,2.77,0,0,1,.26-.55s1.1.12,2.27.28h0s-1.42.8.09,5c-.94-.16-1.71-.26-2.36-.33h0c0-.07-.08-.27-.16-.58A6.93,6.93,0,0,1,28.55,75.55Z" style="fill:#829aae"/><path d="M27.6,78.84a4,4,0,0,1,0-3.29h.95a6.93,6.93,0,0,0,.09,3.81h-.05Z" style="fill:#f3d2bf"/><path d="M27.6,75.55a4,4,0,0,0,0,3.29l-.77-.36c-.53-3.44.21-3.77.53-3.75h0c.34.08.54.15.54.15.63.18.4.67.4.67Z" style="fill:#4f606a"/><path d="M26.09,80.61c0-.24,0-.49.08-.75a9.88,9.88,0,0,1,2.63.08h0l0,.14a9.12,9.12,0,0,0,.8,7.78l-1.51-.17A1.63,1.63,0,0,1,26.93,87a4.22,4.22,0,0,1-.79-1.88c0-.19-.07-.38-.09-.59a15.49,15.49,0,0,1,0-3.11C26,81.15,26.05,80.88,26.09,80.61Z" style="fill:#829aae"/><path d="M26.93,87a5.48,5.48,0,0,1-.38.59,4.08,4.08,0,0,1-1.64.54,7.16,7.16,0,0,0-.3-1.09l.67-1.51.86-.41A4.22,4.22,0,0,0,26.93,87Z" style="fill:#4f606a"/><path d="M26.17,79.86c0,.26-.06.51-.08.75h-.42a.47.47,0,0,0-.22-.6c.23-2,1-1.7,1-1.7l.34.17.77.36,1,.53h.05c.08.31.15.51.16.58A9.88,9.88,0,0,0,26.17,79.86Z" style="fill:#3f4448"/><path d="M24.93,79.84a14.59,14.59,0,0,1,.46-5.4,10.84,10.84,0,0,1,2,.29c-.32,0-1.06.31-.53,3.75l-.34-.17s-.81-.26-1,1.7a.54.54,0,0,0-.17-.07Z" style="fill:#4f606a"/><path d="M24.72,81.22a2.54,2.54,0,0,1,.22-.61h1.15c0,.27-.06.54-.08.81a15.49,15.49,0,0,0,0,3.11l-1.11-.63A4.43,4.43,0,0,1,24.72,81.22Z" style="fill:#f3d2bf"/><path d="M24.94,80.61a2.54,2.54,0,0,0-.22.61,4.43,4.43,0,0,0,.22,2.68l-.76-.36A13.9,13.9,0,0,1,24,81.26c.05-1.35.51-1.49.72-1.47a.5.5,0,0,1,.13,0l.08,0,.35.1a.54.54,0,0,1,.17.07.47.47,0,0,1,.22.6h-.73Z" style="fill:#4f606a"/><path d="M24.61,87a4.48,4.48,0,0,0-1.8-.69.69.69,0,0,1-.07-.15c0-3.2,1.1-2.83,1.1-2.83l.34.17.76.36,1.11.63c0,.21.06.4.09.59l-.86.41Z" style="fill:#3f4448"/><path d="M23.84,83.37s-1.09-.37-1.1,2.83v.14l-.34,0c-.06-.53-.1-1-.13-1.48a14.53,14.53,0,0,1,.47-5.32,9.79,9.79,0,0,1,2,.29c-.21,0-.67.12-.72,1.47a13.9,13.9,0,0,0,.18,2.28Z" style="fill:#4f606a"/><path d="M22.81,86.35a4.48,4.48,0,0,1,1.8.69,7.16,7.16,0,0,1,.3,1.09,6,6,0,0,1-1,4.52,3.52,3.52,0,0,1-2.92.41,12.91,12.91,0,0,1-1.85-6.67l1.93,0a6.64,6.64,0,0,1,.73-.07,2.91,2.91,0,0,1,.6,0l.34,0Z" style="fill:#3f4448"/><path d="M25.39,74.44a14.59,14.59,0,0,0-.46,5.4l-.08,0a.27.27,0,0,0-.13,0,9.79,9.79,0,0,0-2-.29,6.76,6.76,0,0,0-.9,0,21,21,0,0,1,1-5l.94,0A8.7,8.7,0,0,1,25.39,74.44Z" style="fill:#3f4448"/><path d="M22.85,74.45a21,21,0,0,0-1,5,5.53,5.53,0,0,0-.7.07l-.18,0a33.37,33.37,0,0,1,.63-4.67c.25-.64.75-.45.75-.45Z" style="fill:#4f606a"/><path d="M19.14,86.39a20.41,20.41,0,0,1,1.06-6.88l.76,0,.18,0a5.53,5.53,0,0,1,.7-.07,6.76,6.76,0,0,1,.9,0,14.53,14.53,0,0,0-.47,5.32c0,.47.07,1,.13,1.48a2.91,2.91,0,0,0-.6,0,6.64,6.64,0,0,0-.73.07Z" style="fill:#3f4448"/><path d="M18.94,79.94c.25-.64.75-.45.75-.45l.51,0a20.41,20.41,0,0,0-1.06,6.88A12.91,12.91,0,0,0,21,93.06a3.4,3.4,0,0,1-1.68-1.36C17.18,87.68,18.94,79.94,18.94,79.94Z" style="fill:#4f606a"/><path d="M44.34,35.51l-.13-.72a6,6,0,0,0-.51-1.46" style="fill:none;stroke:#254254;stroke-linecap:round;stroke-linejoin:round;stroke-width:0.5px"/><line x1="32.83" y1="38.34" x2="32.93" y2="38.86" style="fill:none;stroke:#254254;stroke-linecap:round;stroke-linejoin:round;stroke-width:0.5px"/><path d="M42.25,44.5a5.6,5.6,0,0,0,2.67-5.81l0-.24" style="fill:none;stroke:#254254;stroke-linecap:round;stroke-linejoin:round;stroke-width:0.5px"/><line x1="44.34" y1="35.58" x2="44.88" y2="38.45" style="fill:none;stroke:#254254;stroke-linecap:round;stroke-linejoin:round;stroke-width:0.5px"/><path d="M42.25,44.5a5.27,5.27,0,0,1-1.83.7l-.61.12a5,5,0,0,1-.66,0" style="fill:none;stroke:#254254;stroke-linecap:round;stroke-linejoin:round;stroke-width:0.5px"/><path d="M34.13,42.86a5.36,5.36,0,0,1-.63-1.32" style="fill:none;stroke:#254254;stroke-linecap:round;stroke-linejoin:round;stroke-width:0.5px"/><path d="M39.15,45.37a5.57,5.57,0,0,1-5-2.5" style="fill:none;stroke:#254254;stroke-linecap:round;stroke-linejoin:round;stroke-width:0.5px"/><path d="M32.93,38.86l.36,2a5.94,5.94,0,0,0,.21.72" style="fill:none;stroke:#254254;stroke-linecap:round;stroke-linejoin:round;stroke-width:0.5px"/><path d="M32.67,38.8a1.49,1.49,0,0,0-1.31.78,1.47,1.47,0,0,0-.19.73,1.5,1.5,0,0,0,1.5,1.5,1.47,1.47,0,0,0,.83-.27" style="fill:none;stroke:#254254;stroke-linecap:round;stroke-linejoin:round;stroke-width:0.5px"/><path d="M32.67,38.8a1.22,1.22,0,0,1,.26.06" style="fill:none;stroke:#254254;stroke-linecap:round;stroke-linejoin:round;stroke-width:0.5px"/><polyline points="44.34 35.92 44.34 35.58 44.34 35.55 44.34 35.51 44.34 33.06 44.34 32.88" style="fill:none;stroke:#254254;stroke-linecap:round;stroke-linejoin:round;stroke-width:0.5px"/><path d="M44.34,35.55a1.2,1.2,0,0,1,.32-.06,1.5,1.5,0,0,1,1.5,1.5,1.48,1.48,0,0,1-1.28,1.46" style="fill:none;stroke:#254254;stroke-linecap:round;stroke-linejoin:round;stroke-width:0.5px"/><path d="M42.25,44.5l.12.65a1.61,1.61,0,0,1-3.17.58l-.05-.36" style="fill:none;stroke:#254254;stroke-linecap:round;stroke-linejoin:round;stroke-width:0.5px"/><line x1="32.83" y1="38.34" x2="33.5" y2="36.38" style="fill:none;stroke:#254254;stroke-linecap:round;stroke-linejoin:round;stroke-width:0.5px"/><path d="M42.39,30.2a4.25,4.25,0,0,0,1.41,1.47" style="fill:none;stroke:#254254;stroke-linecap:round;stroke-linejoin:round;stroke-width:0.5px"/><line x1="32.67" y1="38.8" x2="32.83" y2="38.34" style="fill:none;stroke:#254254;stroke-linecap:round;stroke-linejoin:round;stroke-width:0.5px"/><path d="M43.7,33.33a2.15,2.15,0,0,0,.64-.27,3.8,3.8,0,0,0,.91-.77,5.15,5.15,0,0,1-1.45-.62" style="fill:none;stroke:#254254;stroke-linecap:round;stroke-linejoin:round;stroke-width:0.5px"/><path d="M36.32,34.78c3.74-.08,4.37-3,4.37-3s1.27,2,3,1.56" style="fill:none;stroke:#254254;stroke-linecap:round;stroke-linejoin:round;stroke-width:0.5px"/><path d="M36.32,34.78a2.92,2.92,0,0,1-2.82,1.6" style="fill:none;stroke:#254254;stroke-linecap:round;stroke-linejoin:round;stroke-width:0.5px"/><path d="M37.93,31.77a4.64,4.64,0,0,1-3.42,1.54,1.88,1.88,0,0,0,1.81,1.47" style="fill:none;stroke:#254254;stroke-linecap:round;stroke-linejoin:round;stroke-width:0.5px"/><path d="M33.5,28.17c4.61-3.72,6.44.49,6.44.49s-2.61-2.18-5,2.46a8.72,8.72,0,0,1-1.69,2.69" style="fill:none;stroke:#254254;stroke-linecap:round;stroke-linejoin:round;stroke-width:0.5px"/><path d="M31.36,39.58c-4.57-5-1.61-6.31-1.61-6.31-1.19-3.79,3.21-5,3.7-5.09" style="fill:none;stroke:#254254;stroke-linecap:round;stroke-linejoin:round;stroke-width:0.5px"/><path d="M43.8,31.67C43.14,27.25,40.49,28,40,28.15l-.07,0" style="fill:none;stroke:#254254;stroke-linecap:round;stroke-linejoin:round;stroke-width:0.5px"/><path d="M30.67,35.24c.16.09.85.41,1.95-.54" style="fill:none;stroke:#254254;stroke-linecap:round;stroke-linejoin:round;stroke-width:0.5px"/><path d="M30.64,35.22l0,0a4.11,4.11,0,0,0,1.85,1" style="fill:none;stroke:#254254;stroke-linecap:round;stroke-linejoin:round;stroke-width:0.5px"/><path d="M33.5,36.38a2.77,2.77,0,0,1-1-.11" style="fill:none;stroke:#254254;stroke-linecap:round;stroke-linejoin:round;stroke-width:0.5px"/><path d="M30.64,35.22s1.72-.74,2.29-3.89c0,0,.29-1.9,1.58-1.94" style="fill:none;stroke:#254254;stroke-linecap:round;stroke-linejoin:round;stroke-width:0.5px"/><path d="M33.5,28.17h0a3.54,3.54,0,0,0-2.28,4.31" style="fill:none;stroke:#254254;stroke-linecap:round;stroke-linejoin:round;stroke-width:0.5px"/><path d="M37,31.12c.36-1.68,2.93-2.46,2.93-2.46h0a1.59,1.59,0,0,1,1.28.73" style="fill:none;stroke:#254254;stroke-linecap:round;stroke-linejoin:round;stroke-width:0.5px"/><path d="M39.94,28.66s1.51,1.07.75,2" style="fill:none;stroke:#254254;stroke-linecap:round;stroke-linejoin:round;stroke-width:0.5px"/><polyline points="32.67 41.81 34.13 42.86 34.14 42.87" style="fill:none;stroke:#254254;stroke-linecap:round;stroke-linejoin:round;stroke-width:0.5px"/><path d="M39.25,41.65A13.09,13.09,0,0,0,43.18,40s.7,1.42-1.35,2.27C41.83,42.24,39.92,43.22,39.25,41.65Z" style="fill:none;stroke:#254254;stroke-linecap:round;stroke-linejoin:round;stroke-width:0.300000011920929px"/><polyline points="50.17 53.45 53.34 61.42 55.14 62.74" style="fill:none;stroke:#254254;stroke-linecap:round;stroke-linejoin:round;stroke-width:0.5px"/><polyline points="46.63 70.54 49.03 74.46 48.28 75.29" style="fill:none;stroke:#254254;stroke-linecap:round;stroke-linejoin:round;stroke-width:0.5px"/><line x1="35.05" y1="70.94" x2="34.9" y2="72.12" style="fill:none;stroke:#254254;stroke-linecap:round;stroke-linejoin:round;stroke-width:0.5px"/><line x1="36.22" y1="71.1" x2="36.22" y2="72.38" style="fill:none;stroke:#254254;stroke-linecap:round;stroke-linejoin:round;stroke-width:0.5px"/><polyline points="39.47 71.1 39.47 72.56 39.47 72.59" style="fill:none;stroke:#254254;stroke-linecap:round;stroke-linejoin:round;stroke-width:0.5px"/><polyline points="40.49 70.94 40.49 70.98 40.42 72.48" style="fill:none;stroke:#254254;stroke-linecap:round;stroke-linejoin:round;stroke-width:0.5px"/><polyline points="43.1 70.35 43.1 70.48 43.1 71.96 43.1 71.97" style="fill:none;stroke:#254254;stroke-linecap:round;stroke-linejoin:round;stroke-width:0.5px"/><line x1="44.02" y1="70.24" x2="44.02" y2="71.66" style="fill:none;stroke:#254254;stroke-linecap:round;stroke-linejoin:round;stroke-width:0.5px"/><line x1="47.26" y1="69.18" x2="47.26" y2="70.08" style="fill:none;stroke:#254254;stroke-linecap:round;stroke-linejoin:round;stroke-width:0.5px"/><line x1="47.71" y1="69.8" x2="47.71" y2="69.81" style="fill:none;stroke:#254254;stroke-linecap:round;stroke-linejoin:round;stroke-width:0.5px"/><line x1="47.71" y1="68.94" x2="47.71" y2="69.78" style="fill:none;stroke:#254254;stroke-linecap:round;stroke-linejoin:round;stroke-width:0.5px"/><line x1="36.76" y1="59.03" x2="42.6" y2="55.37" style="fill:none;stroke:#254254;stroke-linecap:round;stroke-linejoin:round;stroke-width:0.5px"/><line x1="50.15" y1="52.34" x2="48.84" y2="53.42" style="fill:none;stroke:#254254;stroke-linecap:round;stroke-linejoin:round;stroke-width:0.5px"/><path d="M38.83,46.79s1.93,3.38,4.69-.85" style="fill:none;stroke:#254254;stroke-linecap:round;stroke-linejoin:round;stroke-width:0.5px"/><path d="M49,54.16c-.06-.25-.12-.49-.19-.74a18.64,18.64,0,0,0-2.44-5.84" style="fill:none;stroke:#254254;stroke-linecap:round;stroke-linejoin:round;stroke-width:0.5px"/><path d="M44.65,70.06c.89-.26,1.77-.56,2.61-.88l.14-.05a1.68,1.68,0,0,0,.31-.19,3.65,3.65,0,0,0,.91-.82" style="fill:none;stroke:#254254;stroke-linecap:round;stroke-linejoin:round;stroke-width:0.5px"/><path d="M38.44,71.16a16.42,16.42,0,0,1-2.22-.06,11.35,11.35,0,0,1-1.17-.16,4.55,4.55,0,0,1-1.55-.43,1.67,1.67,0,0,1-.79-1.24,46.47,46.47,0,0,1-.44-8.59c0-2.12,0-4.25,0-6.37a10.82,10.82,0,0,1,.27-1.73,9.44,9.44,0,0,1,6.65-6.85" style="fill:none;stroke:#254254;stroke-linecap:round;stroke-linejoin:round;stroke-width:0.5px"/><path d="M44.63,70.07l-.61.17c-.31.09-.61.17-.92.24l-.71.17" style="fill:none;stroke:#254254;stroke-linecap:round;stroke-linejoin:round;stroke-width:0.5px"/><path d="M42.37,45.15a4.94,4.94,0,0,1,4,2.43" style="fill:none;stroke:#254254;stroke-linecap:round;stroke-linejoin:round;stroke-width:0.5px"/><path d="M38.44,71.16l1-.06q.51,0,1-.12c.63-.08,1.27-.2,1.9-.33" style="fill:none;stroke:#254254;stroke-linecap:round;stroke-linejoin:round;stroke-width:0.5px"/><path d="M49,54.16a44.3,44.3,0,0,1,1,6.5A18.55,18.55,0,0,1,50.17,63" style="fill:none;stroke:#254254;stroke-linecap:round;stroke-linejoin:round;stroke-width:0.5px"/><path d="M38.44,71.16l.08,0" style="fill:none;stroke:#254254;stroke-linecap:round;stroke-linejoin:round;stroke-width:0.5px"/><path d="M36.22,68.4c.84,2.26,1.92,2.68,2.22,2.76" style="fill:none;stroke:#254254;stroke-linecap:round;stroke-linejoin:round;stroke-width:0.5px"/><line x1="42.39" y1="70.66" x2="42.39" y2="70.65" style="fill:none;stroke:#254254;stroke-linecap:round;stroke-linejoin:round;stroke-width:0.5px"/><path d="M43.1,68.4a5.42,5.42,0,0,1-.71,2.25" style="fill:none;stroke:#254254;stroke-linecap:round;stroke-linejoin:round;stroke-width:0.5px"/><line x1="44.63" y1="70.07" x2="44.62" y2="70.08" style="fill:none;stroke:#254254;stroke-linecap:round;stroke-linejoin:round;stroke-width:0.5px"/><path d="M44.63,70.07h0a3.74,3.74,0,0,0,1.51-1.66" style="fill:none;stroke:#254254;stroke-linecap:round;stroke-linejoin:round;stroke-width:0.5px"/><path d="M33.5,70.51a7.21,7.21,0,0,0-.33,1,8.72,8.72,0,0,0,0,4.13A10.39,10.39,0,0,0,37,81.28" style="fill:none;stroke:#254254;stroke-linecap:round;stroke-linejoin:round;stroke-width:0.5px"/><path d="M47.2,74.06q.57.63,1.08,1.23c5.53,6.42,6.94,10.48,7.12,12.82a3.89,3.89,0,0,1-.49,2.58s-4.12,2.92-7.71,1.69A105.67,105.67,0,0,1,35,88.47a8.8,8.8,0,0,1-2.46-1.39" style="fill:none;stroke:#254254;stroke-linecap:round;stroke-linejoin:round;stroke-width:0.5px"/><path d="M44,83.24a11.11,11.11,0,0,0-4-1.52L37,81.28" style="fill:none;stroke:#254254;stroke-linecap:round;stroke-linejoin:round;stroke-width:0.5px"/><path d="M28.81,79.94c.65.07,1.42.17,2.36.33s1.84.33,3,.57l2.86.44" style="fill:none;stroke:#254254;stroke-linecap:round;stroke-linejoin:round;stroke-width:0.5px"/><line x1="29.56" y1="87.86" x2="34.98" y2="88.49" style="fill:none;stroke:#254254;stroke-linecap:round;stroke-linejoin:round;stroke-width:0.5px"/><path d="M29.56,87.86l-1.51-.17A1.63,1.63,0,0,1,26.93,87" style="fill:none;stroke:#254254;stroke-linecap:round;stroke-linejoin:round;stroke-width:0.5px"/><path d="M26,81.42a15.49,15.49,0,0,0,0,3.11c0,.21.06.4.09.59A4.22,4.22,0,0,0,26.93,87" style="fill:none;stroke:#254254;stroke-linecap:round;stroke-linejoin:round;stroke-width:0.5px"/><path d="M26,81.42c0-.27,0-.54.08-.81s0-.49.08-.75a9.88,9.88,0,0,1,2.63.08" style="fill:none;stroke:#254254;stroke-linecap:round;stroke-linejoin:round;stroke-width:0.5px"/><path d="M28.76,80.08l0-.14" style="fill:none;stroke:#254254;stroke-linecap:round;stroke-linejoin:round;stroke-width:0.5px"/><path d="M28.76,80.08a9.12,9.12,0,0,0,.8,7.78" style="fill:none;stroke:#254254;stroke-linecap:round;stroke-linejoin:round;stroke-width:0.5px"/><path d="M28.55,75.55a2.77,2.77,0,0,1,.26-.55s1.1.12,2.27.28a20.37,20.37,0,0,1,2.09.39" style="fill:none;stroke:#254254;stroke-linecap:round;stroke-linejoin:round;stroke-width:0.5px"/><path d="M28.81,79.94h0c0-.07-.08-.27-.16-.58a6.93,6.93,0,0,1-.09-3.81" style="fill:none;stroke:#254254;stroke-linecap:round;stroke-linejoin:round;stroke-width:0.5px"/><path d="M56.31,88.09a5.34,5.34,0,0,1-.9,0" style="fill:none;stroke:#3c3d3d;stroke-linecap:round;stroke-linejoin:round;stroke-width:0.5px"/><path d="M49.38,68.13a61.51,61.51,0,0,1,6.93,8" style="fill:none;stroke:#3c3d3d;stroke-linecap:round;stroke-linejoin:round;stroke-width:0.5px"/><path d="M31.08,75.29s-1.42.8.09,5" style="fill:none;stroke:#254254;stroke-linecap:round;stroke-linejoin:round;stroke-width:0.5px"/><path d="M42.39,56.61l.71-.44-.5-.8L40.45,52a3.44,3.44,0,0,0-4.73-1.09,3.57,3.57,0,0,0-1.51,2.07,3.45,3.45,0,0,0,.42,2.66L36.76,59l.5.79L38.52,59" style="fill:none;stroke:#254254;stroke-linecap:round;stroke-linejoin:round;stroke-width:0.5px"/><line x1="42.39" y1="56.61" x2="38.52" y2="59.03" style="fill:none;stroke:#254254;stroke-linecap:round;stroke-linejoin:round;stroke-width:0.5px"/><path d="M49,54.16l1.14-.72.48-.3-.48-.8h0L48,48.93a3.36,3.36,0,0,0-1.62-1.35" style="fill:none;stroke:#254254;stroke-linecap:round;stroke-linejoin:round;stroke-width:0.5px"/><path d="M55.41,63.58a2.69,2.69,0,0,0,1.6.87,11.09,11.09,0,0,0,2.75.17c1.32,0,1.13,1.61,1.13,1.61-.12,1.36-1.25,1.8-2.45,1.85a10.55,10.55,0,0,1-3-.38,39.21,39.21,0,0,1-6,.43" style="fill:none;stroke:#254254;stroke-linecap:round;stroke-linejoin:round;stroke-width:0.5px"/><path d="M38.52,59s3.87,8,6.1,8.67a22.26,22.26,0,0,0,4,.42" style="fill:none;stroke:#254254;stroke-linecap:round;stroke-linejoin:round;stroke-width:0.5px"/><path d="M49.38,68.13h-.76" style="fill:none;stroke:#254254;stroke-linecap:round;stroke-linejoin:round;stroke-width:0.5px"/><path d="M33.17,71.54a10.35,10.35,0,0,0,1.73.58c.38.09.82.18,1.32.26a14.89,14.89,0,0,0,3.25.18l1-.06v0A13,13,0,0,0,43.1,72c.29-.09.61-.18.92-.29h0l.32-.12a9.75,9.75,0,0,0,2.29-1c.21-.13.43-.27.65-.43l.43-.31v0a8.66,8.66,0,0,0,1.67-1.65" style="fill:none;stroke:#254254;stroke-linecap:round;stroke-linejoin:round;stroke-width:0.5px"/><polyline points="58.44 68.08 59.19 70.3 67.39 67.7 63.81 56.17 55.41 59.03 56.51 62.75 57.01 64.45" style="fill:none;stroke:#3c3d3d;stroke-linecap:round;stroke-linejoin:round;stroke-width:0.5px"/><path d="M56.51,62.75a4,4,0,0,0-1.37,0,5.25,5.25,0,0,0-2.08.84L50.17,63" style="fill:none;stroke:#254254;stroke-linecap:round;stroke-linejoin:round;stroke-width:0.5px"/><polyline points="50.17 63.03 46.16 62.27 42.39 56.61" style="fill:none;stroke:#254254;stroke-linecap:round;stroke-linejoin:round;stroke-width:0.5px"/><path d="M24.72,81.22a4.43,4.43,0,0,0,.22,2.68" style="fill:none;stroke:#254254;stroke-linecap:round;stroke-linejoin:round;stroke-width:0.5px"/><polyline points="25.67 80.61 26.09 80.61 26.1 80.61" style="fill:none;stroke:#254254;stroke-linecap:round;stroke-linejoin:round;stroke-width:0.5px"/><line x1="25" y1="80.61" x2="25.41" y2="80.61" style="fill:none;stroke:#254254;stroke-linecap:round;stroke-linejoin:round;stroke-width:0.5px"/><line x1="25.67" y1="80.61" x2="25.41" y2="80.61" style="fill:none;stroke:#254254;stroke-linecap:round;stroke-linejoin:round;stroke-width:0.5px"/><polyline points="24.94 83.9 26.05 84.53 26.1 84.56" style="fill:none;stroke:#254254;stroke-linecap:round;stroke-linejoin:round;stroke-width:0.5px"/><path d="M24.72,81.22a2.54,2.54,0,0,1,.22-.61H25" style="fill:none;stroke:#254254;stroke-linecap:round;stroke-linejoin:round;stroke-width:0.5px"/><path d="M25.45,80a.47.47,0,0,1,.22.6" style="fill:none;stroke:#254254;stroke-linecap:round;stroke-linejoin:round;stroke-width:0.5px"/><path d="M21.84,79.5a6.76,6.76,0,0,1,.9,0" style="fill:none;stroke:#254254;stroke-linecap:round;stroke-linejoin:round;stroke-width:0.5px"/><path d="M24.93,79.84l-.08,0a.5.5,0,0,0-.13,0" style="fill:none;stroke:#254254;stroke-linecap:round;stroke-linejoin:round;stroke-width:0.5px"/><path d="M24.61,87a7.16,7.16,0,0,1,.3,1.09" style="fill:none;stroke:#254254;stroke-linecap:round;stroke-linejoin:round;stroke-width:0.5px"/><path d="M22.74,79.5a9.79,9.79,0,0,1,2,.29" style="fill:none;stroke:#254254;stroke-linecap:round;stroke-linejoin:round;stroke-width:0.5px"/><path d="M24.93,79.84l.35.1a.54.54,0,0,1,.17.07" style="fill:none;stroke:#254254;stroke-linecap:round;stroke-linejoin:round;stroke-width:0.5px"/><line x1="20.2" y1="79.51" x2="20.96" y2="79.55" style="fill:none;stroke:#254254;stroke-linecap:round;stroke-linejoin:round;stroke-width:0.5px"/><path d="M22.81,86.35h-.07l-.34,0a2.91,2.91,0,0,0-.6,0" style="fill:none;stroke:#254254;stroke-linecap:round;stroke-linejoin:round;stroke-width:0.5px"/><path d="M20.2,79.51l-.51,0s-.5-.19-.75.45c0,0-1.76,7.74.37,11.76A3.4,3.4,0,0,0,21,93.06" style="fill:none;stroke:#254254;stroke-linecap:round;stroke-linejoin:round;stroke-width:0.5px"/><path d="M21.8,86.27a6.64,6.64,0,0,0-.73.07" style="fill:none;stroke:#254254;stroke-linecap:round;stroke-linejoin:round;stroke-width:0.5px"/><path d="M24.91,88.13a6,6,0,0,1-1,4.52,3.52,3.52,0,0,1-2.92.41" style="fill:none;stroke:#254254;stroke-linecap:round;stroke-linejoin:round;stroke-width:0.5px"/><path d="M22.81,86.35a4.48,4.48,0,0,1,1.8.69" style="fill:none;stroke:#254254;stroke-linecap:round;stroke-linejoin:round;stroke-width:0.5px"/><path d="M21.84,79.5a5.53,5.53,0,0,0-.7.07l-.18,0" style="fill:none;stroke:#254254;stroke-linecap:round;stroke-linejoin:round;stroke-width:0.5px"/><polyline points="26.14 85.11 25.28 85.53 24.61 87.04" style="fill:none;stroke:#254254;stroke-linecap:round;stroke-linejoin:round;stroke-width:0.5px"/><line x1="24.18" y1="83.54" x2="24.94" y2="83.9" style="fill:none;stroke:#254254;stroke-linecap:round;stroke-linejoin:round;stroke-width:0.5px"/><path d="M22.74,86.2c0-3.2,1.1-2.83,1.1-2.83l.34.17" style="fill:none;stroke:#254254;stroke-linecap:round;stroke-linejoin:round;stroke-width:0.5px"/><path d="M22.74,86.2v.14" style="fill:none;stroke:#254254;stroke-linecap:round;stroke-linejoin:round;stroke-width:0.5px"/><path d="M24.72,79.79a.27.27,0,0,1,.13,0" style="fill:none;stroke:#254254;stroke-linecap:round;stroke-linejoin:round;stroke-width:0.5px"/><path d="M24.18,83.54A13.9,13.9,0,0,1,24,81.26" style="fill:none;stroke:#254254;stroke-linecap:round;stroke-linejoin:round;stroke-width:0.5px"/><path d="M24.72,79.79c-.21,0-.67.12-.72,1.47" style="fill:none;stroke:#254254;stroke-linecap:round;stroke-linejoin:round;stroke-width:0.5px"/><path d="M22.4,86.3c-.06-.53-.1-1-.13-1.48" style="fill:none;stroke:#254254;stroke-linecap:round;stroke-linejoin:round;stroke-width:0.5px"/><path d="M22.27,84.82a14.53,14.53,0,0,1,.47-5.32" style="fill:none;stroke:#254254;stroke-linecap:round;stroke-linejoin:round;stroke-width:0.5px"/><path d="M20.2,79.51a20.41,20.41,0,0,0-1.06,6.88A12.91,12.91,0,0,0,21,93.06" style="fill:none;stroke:#254254;stroke-linecap:round;stroke-linejoin:round;stroke-width:0.5px"/><line x1="28.59" y1="79.37" x2="27.6" y2="78.84" style="fill:none;stroke:#254254;stroke-linecap:round;stroke-linejoin:round;stroke-width:0.5px"/><line x1="28.55" y1="75.55" x2="28.32" y2="75.55" style="fill:none;stroke:#254254;stroke-linecap:round;stroke-linejoin:round;stroke-width:0.5px"/><line x1="28.59" y1="75.55" x2="28.55" y2="75.55" style="fill:none;stroke:#254254;stroke-linecap:round;stroke-linejoin:round;stroke-width:0.5px"/><path d="M27.6,78.84a4,4,0,0,1,0-3.29h.72" style="fill:none;stroke:#254254;stroke-linecap:round;stroke-linejoin:round;stroke-width:0.5px"/><path d="M25.39,74.44a10.84,10.84,0,0,1,2,.29" style="fill:none;stroke:#254254;stroke-linecap:round;stroke-linejoin:round;stroke-width:0.5px"/><path d="M25.39,74.44a8.7,8.7,0,0,0-1.6.06l-.94,0-.51,0s-.5-.19-.75.45A33.37,33.37,0,0,0,21,79.55" style="fill:none;stroke:#254254;stroke-linecap:round;stroke-linejoin:round;stroke-width:0.5px"/><path d="M27.38,74.73c.34.08.54.15.54.15.63.18.4.67.4.67" style="fill:none;stroke:#254254;stroke-linecap:round;stroke-linejoin:round;stroke-width:0.5px"/><path d="M26.93,87a5.48,5.48,0,0,1-.38.59,4.08,4.08,0,0,1-1.64.54" style="fill:none;stroke:#254254;stroke-linecap:round;stroke-linejoin:round;stroke-width:0.5px"/><line x1="28.76" y1="80.08" x2="28.8" y2="80.05" style="fill:none;stroke:#254254;stroke-linecap:round;stroke-linejoin:round;stroke-width:0.5px"/><path d="M25.45,80c.23-2,1-1.7,1-1.7l.34.17" style="fill:none;stroke:#254254;stroke-linecap:round;stroke-linejoin:round;stroke-width:0.5px"/><line x1="27.6" y1="78.84" x2="26.83" y2="78.48" style="fill:none;stroke:#254254;stroke-linecap:round;stroke-linejoin:round;stroke-width:0.5px"/><path d="M27.38,74.73a.29.29,0,0,1,.12,0" style="fill:none;stroke:#254254;stroke-linecap:round;stroke-linejoin:round;stroke-width:0.5px"/><path d="M26.83,78.48c-.53-3.44.21-3.77.53-3.75h0" style="fill:none;stroke:#254254;stroke-linecap:round;stroke-linejoin:round;stroke-width:0.5px"/><path d="M24.93,79.84a14.59,14.59,0,0,1,.46-5.4" style="fill:none;stroke:#254254;stroke-linecap:round;stroke-linejoin:round;stroke-width:0.5px"/><path d="M21.84,79.5a21,21,0,0,1,1-5" style="fill:none;stroke:#254254;stroke-linecap:round;stroke-linejoin:round;stroke-width:0.5px"/><path d="M22.81,86.35a.69.69,0,0,1-.07-.15" style="fill:none;stroke:#254254;stroke-linecap:round;stroke-linejoin:round;stroke-width:0.5px"/><line x1="72.43" y1="73.65" x2="78.43" y2="73.65" style="fill:none;stroke:#514643;stroke-linecap:round;stroke-linejoin:round;stroke-width:0.5px"/><polyline points="72.43 73.65 67.95 73.65 59.41 73.65" style="fill:none;stroke:#514643;stroke-linecap:round;stroke-linejoin:round;stroke-width:0.5px"/><polyline points="78.43 73.65 78.43 90.97 59.35 90.97" style="fill:none;stroke:#514643;stroke-linecap:round;stroke-linejoin:round;stroke-width:0.5px"/><line x1="56.31" y1="73.65" x2="59.41" y2="73.65" style="fill:none;stroke:#514643;stroke-linecap:round;stroke-linejoin:round;stroke-width:0.5px"/><polyline points="56.3 88.09 56.3 90.97 59.35 90.97" style="fill:none;stroke:#514643;stroke-linecap:round;stroke-linejoin:round;stroke-width:0.5px"/><line x1="56.31" y1="76.16" x2="56.31" y2="73.65" style="fill:none;stroke:#3c3d3d;stroke-linecap:round;stroke-linejoin:round;stroke-width:0.5px"/><line x1="56.31" y1="76.16" x2="56.31" y2="88.09" style="fill:none;stroke:#3c3d3d;stroke-linecap:round;stroke-linejoin:round;stroke-width:0.5px"/><polyline points="61.52 71.29 62.4 70.33 66.73 70.33 67.96 70.33 75.79 70.33 81.84 70.33 78.43 73.65" style="fill:none;stroke:#514643;stroke-linecap:round;stroke-linejoin:round;stroke-width:0.5px"/><polyline points="59.35 81.85 59.35 73.73 59.41 73.65" style="fill:none;stroke:#514643;stroke-linecap:round;stroke-linejoin:round;stroke-width:0.5px"/><line x1="59.35" y1="90.97" x2="59.35" y2="85.74" style="fill:none;stroke:#514643;stroke-linecap:round;stroke-linejoin:round;stroke-width:0.5px"/><line x1="59.35" y1="81.85" x2="59.35" y2="85.74" style="fill:none;stroke:#3c3d3d;stroke-linecap:round;stroke-linejoin:round;stroke-width:0.5px"/><line x1="61.53" y1="71.29" x2="59.41" y2="73.65" style="fill:none;stroke:#514643;stroke-linecap:round;stroke-linejoin:round;stroke-width:0.5px"/><polyline points="61.52 71.29 55.41 71.29 56.3 73.65" style="fill:none;stroke:#514643;stroke-linecap:round;stroke-linejoin:round;stroke-width:0.5px"/><polyline points="67.95 73.73 67.95 83.67 68.94 83.25 69.47 83.67 70.1 83.25 70.59 83.52 71.44 83.25 72.43 83.67 72.43 73.65" style="fill:none;stroke:#514643;stroke-linecap:round;stroke-linejoin:round;stroke-width:0.5px"/><polyline points="67.95 70.36 67.96 70.33 69.29 66.11 69.82 64.43 74.96 64.43 77.59 64.43 75.79 70.33 75.78 70.36" style="fill:none;stroke:#514643;stroke-linecap:round;stroke-linejoin:round;stroke-width:0.5px"/><polyline points="66.73 70.33 67.54 67.74 68.3 65.3 69.29 66.11 69.49 66.28 72.95 66.28" style="fill:none;stroke:#514643;stroke-linecap:round;stroke-linejoin:round;stroke-width:0.5px"/><path d="M58.89,65.89a5.48,5.48,0,0,1-2-.4.2.2,0,0,1-.11-.26.19.19,0,0,1,.26-.11,4.68,4.68,0,0,0,3.67,0,.21.21,0,0,1,.27.09.21.21,0,0,1-.08.27A4.66,4.66,0,0,1,58.89,65.89Z" style="fill:#254254"/><path d="M58.31,66.91a3.67,3.67,0,0,1-1.47-.31.2.2,0,0,1-.1-.26.19.19,0,0,1,.26-.1,4.18,4.18,0,0,0,3.77-.54A.2.2,0,0,1,61,66,5,5,0,0,1,58.31,66.91Z" style="fill:#254254"/><path d="M58.42,67.73a4.36,4.36,0,0,1-1.57-.31.2.2,0,0,1,.15-.37,3.58,3.58,0,0,0,3.63-.5.2.2,0,0,1,.28,0,.19.19,0,0,1,0,.28A3.89,3.89,0,0,1,58.42,67.73Z" style="fill:#254254"/><path d="M92.25,52,92,50.42c.31-.17.62-.35.92-.55,0,0,.1.55.26,1.52C92.85,51.6,92.54,51.81,92.25,52Z" style="fill:#8ab6df"/><path d="M90.44,34.5l.85-.69a18.35,18.35,0,0,1,1,2.57,6.63,6.63,0,0,1-2,1.23Z" style="fill:#eca3af"/><path d="M90.5,32.29a8.75,8.75,0,0,0-7.34-4.61V26.8a1.64,1.64,0,0,0-.08-.5v0a6.49,6.49,0,0,0,3.3-5.55,1.71,1.71,0,0,0,.5.1,1.52,1.52,0,0,0,1.4-1l2.27.14a1.68,1.68,0,0,0,0,1.45c.22.35.7.42.91.78.59,1-.46,2.12-1.17,2.75-1.52,1.36,2.8,3.14,3.29,4,1.07,1.81-1.55,2.91-3,3.4Z" style="fill:#50453f"/><path d="M90.52,32.34a12,12,0,0,1,.77,1.47l-.85.69a4.63,4.63,0,0,0-.32-2.1l.38-.11Z" style="fill:#da606f"/><path d="M91,52.72a16.61,16.61,0,0,1-2.63,1.14v-1.8A19.68,19.68,0,0,0,92,50.42L92.25,52C91.84,52.26,91.44,52.5,91,52.72Z" style="fill:#afcdec"/><path d="M89.07,42.07a26.08,26.08,0,0,0,.57-3.17l.5,0,.09-1.32a6.63,6.63,0,0,0,2-1.23A29.31,29.31,0,0,1,93,39.59C92,41.3,89.07,42.07,89.07,42.07Z" style="fill:#da606f"/><path d="M92.9,89.68a4.92,4.92,0,0,1-4,2l.39-.43a5,5,0,0,0-1.11-.64A4,4,0,0,0,92,89.29a1,1,0,0,1,.94.38Z" style="fill:#443c3a"/><path d="M89.07,42.07S92,41.3,93,39.59c.23,1.31.38,2.61.47,3.81-2.06,2.12-6.53,3-6.8,3.05a4.81,4.81,0,0,0,.5-.51S88.26,45.2,89.07,42.07Z" style="fill:#eca3af"/><path d="M88.94,91.7a4.92,4.92,0,0,0,4-2,5.26,5.26,0,0,1,.67,3A15.53,15.53,0,0,1,88.4,95.2a3.55,3.55,0,0,0-.52-2.27Z" style="fill:#443c3a"/><path d="M88.06,30.67a2.55,2.55,0,0,1,2.06,1.73,4.63,4.63,0,0,1,.32,2.1l-.21,3.11-.09,1.32-.5,0-4.1-.29-.67,0,.2-2.9.11-1.53a4.13,4.13,0,0,1,1.46-3h0A2,2,0,0,1,88.06,30.67Z" style="fill:#eca3af"/><path d="M86.83,52.54v0c.51-.12,1-.28,1.57-.46v1.8c-.52.17-1,.32-1.57.45Z" style="fill:#8ab6df"/><path d="M86.67,46.45c.27-.05,4.74-.93,6.8-3.05.07.92.12,1.77.13,2.54-6.16,5.18-16.55,3.93-16.55,3.93S83,50,86.66,46.45Z" style="fill:#da606f"/><path d="M88.22,90.63a2.13,2.13,0,0,0-.73-.16V88.11A18.69,18.69,0,0,0,92,88v1.25A4,4,0,0,1,88.22,90.63Z" style="fill:#f3d2bf"/><path d="M86.87,17.57A1.59,1.59,0,0,1,88.4,19.2a1.65,1.65,0,0,1-.13.63,1.52,1.52,0,0,1-1.4,1,1.71,1.71,0,0,1-.5-.1,8.49,8.49,0,0,0,0-.87l-.22-2.08a2.56,2.56,0,0,1,.24-.11A1.39,1.39,0,0,1,86.87,17.57Z" style="fill:#f3d2bf"/><path d="M88.94,91.7l-1.06,1.23c-1.11-1.36-1.7-1.11-1.81-1.05l.59-1.41h.83a4.21,4.21,0,0,0,.73.16,5,5,0,0,1,1.11.64Z" style="fill:#5b5655"/><path d="M87.88,92.93a3.55,3.55,0,0,1,.52,2.27,13.56,13.56,0,0,1-1.84.4c-2.35.42-3.62.05-4.31-.41a1.82,1.82,0,0,1-.76-.91.15.15,0,0,1,0-.06c.06-1.3,1.48-1.86,2.72-2.13a10.6,10.6,0,0,1,1.87-.2,0,0,0,0,0,0,0C86.18,91.82,86.77,91.57,87.88,92.93Z" style="fill:#443c3a"/><path d="M85.54,38.61,85,41.8a4.62,4.62,0,0,1-.59.65h0A17.61,17.61,0,0,1,76,42.32c-.11-1.33-.26-2.57-.36-3.38h.11s7,.33,9.1-.36Z" style="fill:#da606f"/><path d="M86.83,54.31a19.06,19.06,0,0,1-5.25.48l0-1.64a19.4,19.4,0,0,0,5.2-.63v1.79Zm-4.09-.87a.39.39,0,0,0-.4.39.41.41,0,0,0,.4.4.4.4,0,0,0,.38-.4A.38.38,0,0,0,82.74,53.44Z" style="fill:#afcdec"/><path d="M83.16,27.68a8.75,8.75,0,0,1,7.34,4.61l-.38.11a2.55,2.55,0,0,0-2.06-1.73,2,2,0,0,0-1.4.45h0c-6.66,2.42-10.06.67-10.06.67a8,8,0,0,1,.55-.92A7.07,7.07,0,0,1,80,28.47a1.69,1.69,0,0,0,3.19-.79Z" style="fill:#eca3af"/><path d="M81.49,94.28a1.82,1.82,0,0,0,.76.91c.69.46,2,.83,4.31.41a13.56,13.56,0,0,0,1.84-.4,15.53,15.53,0,0,0,5.17-2.55,10.4,10.4,0,0,1,0,1.19c-1.78,1.73-4.31,2.36-6.66,2.88-1.81.39-4.32.8-5.41-1.12,0,0,0,0,0,0a2.37,2.37,0,0,1,0-1.27Z" style="fill:#5b5655"/><path d="M81.16,18.54h0Z" style="fill:#605753"/><path d="M82,18.62l-.13,0-.13,0h-.13l-.14,0h-.22v0h-.08a.43.43,0,0,1-.45,0c-.1-.08-.15-.23,0-.31a1.24,1.24,0,0,1,.89-.13,3.13,3.13,0,0,1,.53.12.37.37,0,0,1,.2.12.22.22,0,0,1,.06.17C82.29,18.64,82.09,18.66,82,18.62Z" style="fill:#605753"/><path d="M81.4,21.42c-.26,0-.48-.4-.48-.9s.22-.89.48-.89.46.39.46.89S81.66,21.42,81.4,21.42Z" style="fill:#605753"/><path d="M78.84,90.63a4,4,0,0,0,3.76-1.34,1,1,0,0,1,.93.38,4.91,4.91,0,0,1-4,2l.39-.43A4.66,4.66,0,0,0,78.84,90.63Z" style="fill:#443c3a"/><path d="M81,27a5.92,5.92,0,0,0,2-.65l0,0v0a1.64,1.64,0,0,1,.08.5v.88a1.69,1.69,0,0,1-3.19.79,1.53,1.53,0,0,1-.21-.79v-.75l.15,0h.49C80.59,27,80.8,27,81,27Z" style="fill:#f3d2bf"/><path d="M84.19,92.09c-1.24.27-2.66.83-2.72,2.13a.24.24,0,0,0,0,.08,18.18,18.18,0,0,1-2.41.9,3.57,3.57,0,0,0-.51-2.27l1-1.23a4.91,4.91,0,0,0,4-2A4.37,4.37,0,0,1,84.19,92.09Z" style="fill:#443c3a"/><path d="M75.59,35.67s2.39,1.14,9.48,0l-.2,2.9c-2.13.69-9.1.36-9.1.36h-.11c0-.2,0-.37-.07-.51s-.06-.41-.06-.41a14.48,14.48,0,0,1,0-2.36Z" style="fill:#eca3af"/><path d="M81.63,53.15a19.63,19.63,0,0,1-4-.5c-.43-.1-.81-.22-1.09-.3h0c-.49-.15-.75-.26-.75-.26v-.24a7.62,7.62,0,0,0,1.28-2s10.39,1.25,16.55-3.93c0,2.09-.06,3.5-.06,3.5l-.66.43c-.3.2-.61.38-.92.55a19.68,19.68,0,0,1-3.56,1.64c-.53.18-1.06.34-1.57.46A19.4,19.4,0,0,1,81.63,53.15Z" style="fill:#eca3af"/><path d="M79,95.2a13.56,13.56,0,0,1-1.84.4c-4.59.82-5.1-1.38-5.1-1.38.13-2.33,4.6-2.33,4.6-2.33h0c.1-.06.69-.31,1.82,1.05A3.57,3.57,0,0,1,79,95.2Z" style="fill:#443c3a"/><path d="M79.76,88.21a11.25,11.25,0,0,1,2.81-.54l0,.37v1.25a4,4,0,0,1-3.76,1.34,2,2,0,0,0-.71-.16V88.38A9.1,9.1,0,0,0,79.76,88.21Z" style="fill:#f3d2bf"/><path d="M81.58,54.79a20,20,0,0,1-4-.54h0V52.65a19.63,19.63,0,0,0,4,.5Z" style="fill:#afcdec"/><path d="M85.07,87.75a12,12,0,0,0-2.5-.08,11.25,11.25,0,0,0-2.81.54,9.1,9.1,0,0,1-1.63.17,11.07,11.07,0,0,1-1.83-.13l2.25-27.59-3.11-.42.86-6.37s.48.17,1.3.38a20,20,0,0,0,4,.54,19.06,19.06,0,0,0,5.25-.48c.53-.13,1-.28,1.57-.45A16.61,16.61,0,0,0,91,52.72c.41-.22.81-.46,1.22-.72s.6-.4.89-.61c1,6.06,4.84,28.28,4.84,31.44v3A13.09,13.09,0,0,1,92,88a18.69,18.69,0,0,1-4.47.07q-.93-.09-1.95-.27A3.46,3.46,0,0,0,85.07,87.75Z" style="fill:#afcdec"/><path d="M78.13,90.47a3.94,3.94,0,0,0,.71.16,4.66,4.66,0,0,1,1.12.64l-.39.43-1,1.23c-1.13-1.36-1.72-1.11-1.82-1.05l.6-1.41Z" style="fill:#5b5655"/><path d="M77.6,19.63c.26,0,.47.39.47.89s-.21.9-.47.9-.47-.4-.47-.9S77.34,19.63,77.6,19.63Z" style="fill:#605753"/><path d="M79.73,24.66s-2.13.15-2.13-1.54a13.11,13.11,0,0,0,4.26,0S82,24.7,79.73,24.66Z" style="fill:#e9bc99"/><path d="M77.6,52.65v1.59h0c-.82-.21-1.3-.38-1.3-.38l.21-1.52C76.79,52.43,77.17,52.55,77.6,52.65Z" style="fill:#8ab6df"/><path d="M77.55,18.54h0Z" style="fill:#605753"/><path d="M77.53,18.53h0Z" style="fill:#605753"/><path d="M75.59,35.67H75.5a9.45,9.45,0,0,1,1.08-3.86s3.4,1.75,10.06-.67a4.13,4.13,0,0,0-1.46,3l-.11,1.53C78,36.81,75.59,35.67,75.59,35.67Z" style="fill:#da606f"/><path d="M77,18.55l-.13,0-.12,0c-.13,0-.32,0-.37-.12a.17.17,0,0,1,.06-.17c0-.07.12-.09.19-.12a3.61,3.61,0,0,1,.55-.12,1.23,1.23,0,0,1,.88.13c.13.08.07.23,0,.31a.41.41,0,0,1-.44,0h-.08l0,0h-.22l-.14,0H77Z" style="fill:#605753"/><path d="M79.73,24.66c2.24,0,2.13-1.54,2.13-1.54a13.11,13.11,0,0,1-4.26,0C77.6,24.81,79.73,24.66,79.73,24.66Zm-2.13-5c-.26,0-.47.39-.47.89s.21.9.47.9.47-.4.47-.9S77.86,19.63,77.6,19.63Zm2.16,7.3a6.12,6.12,0,0,1-5.19-4.56,9.48,9.48,0,0,1-.22-1.11l-.2-2.06v-.12a2.06,2.06,0,0,1,1-1.95c4.54-1.32,5.22-3.52,5.2-4.77,1.05,4.32,5.68,4.77,5.68,4.77h.25l.06.54a2.56,2.56,0,0,0-.24.11l.22,2.08a8.49,8.49,0,0,1,0,.87,6.49,6.49,0,0,1-3.3,5.55l0,0A5.92,5.92,0,0,1,81,27c-.2,0-.41,0-.6,0h-.49ZM78,18.53c.1-.08.16-.23,0-.31a1.23,1.23,0,0,0-.88-.13,3.61,3.61,0,0,0-.55.12c-.07,0-.15.05-.19.12a.17.17,0,0,0-.06.17c.05.14.24.16.37.12l.12,0,.13,0h.13l.14,0h.19a.06.06,0,0,0,.05,0h.08A.41.41,0,0,0,78,18.53Zm2.66,0a.43.43,0,0,0,.45,0h.08s0,0,0,0h.21l.14,0h.13l.13,0,.13,0c.11,0,.31,0,.36-.12a.22.22,0,0,0-.06-.17.37.37,0,0,0-.2-.12,3.13,3.13,0,0,0-.53-.12,1.24,1.24,0,0,0-.89.13C80.54,18.3,80.59,18.45,80.69,18.53Zm.71,1.1c-.26,0-.48.39-.48.89s.22.9.48.9.46-.4.46-.9S81.66,19.63,81.4,19.63Z" style="fill:#f3d2bf"/><path d="M84.38,42.45c-1,.93-3.33,2.64-8.21,4v-.27A38,38,0,0,0,76,42.32,17.61,17.61,0,0,0,84.38,42.45Z" style="fill:#eca3af"/><path d="M78.55,60.66,76.3,88.25A6.61,6.61,0,0,1,72,85.76l3.46-25.52Z" style="fill:#afcdec"/><path d="M76.18,46.18v.27c-.42.12-.85.23-1.31.34h-1.6l-.3-.85h0l1.72-7.72.91.22c0,.14,0,.31.07.51.1.81.25,2.05.36,3.38A38,38,0,0,1,76.18,46.18Z" style="fill:#f3d2bf"/><path d="M74.93,33.71a4,4,0,0,1,2.2-2.83,8,8,0,0,0-.55.92,9.45,9.45,0,0,0-1.08,3.86,14.48,14.48,0,0,0,0,2.36s0,.16.06.41l-.91-.22L73.9,38l.94-3.93.07-.28Z" style="fill:#eca3af"/><path d="M72,53.15c-3.81-1.11-2.59-2.58-2.59-2.58,2.63.18,4.51-2.27,4.51-2.27l-.64-1.51h1.6c.46-.11.89-.22,1.31-.34,4.88-1.36,7.23-3.07,8.21-4h0A4.62,4.62,0,0,0,85,41.8l.56-3.19,4.1.29a26.08,26.08,0,0,1-.57,3.17c-.81,3.13-1.9,3.87-1.9,3.87a4.81,4.81,0,0,1-.5.51h0C83,50,77.05,49.87,77.05,49.87a7.62,7.62,0,0,1-1.28,2,5,5,0,0,1-.53.51A3.45,3.45,0,0,1,72,53.15Z" style="fill:#f3d2bf"/><path d="M74.15,19.2l.2,2.06a9.48,9.48,0,0,0,.22,1.11,1.33,1.33,0,0,1-.45.08A1.57,1.57,0,0,1,72.6,21s0-.1,0-.14a1.68,1.68,0,0,1,.3-.95,1.48,1.48,0,0,1,1.23-.68Z" style="fill:#f3d2bf"/><path d="M74.14,19.08c0,.05,0,.08,0,.12a1.48,1.48,0,0,0-1.23.68,3.71,3.71,0,0,0-.3-2.11,4.6,4.6,0,0,1,.4-5.1c3.28-7.1,7.63-3.73,7.63-3.73s3.27-3,6.25,1.36c0,0,5,5.63,3.77,9.41a2,2,0,0,1-.1.26l-2.27-.14a1.65,1.65,0,0,0,.13-.63,1.59,1.59,0,0,0-1.53-1.63,1.39,1.39,0,0,0-.5.1l-.06-.54h-.25s-4.63-.45-5.68-4.77c0,1.25-.66,3.45-5.2,4.77A2.06,2.06,0,0,0,74.14,19.08Z" style="fill:#50453f"/><path d="M77.13,30.88a4,4,0,0,0-2.2,2.83l0,.1a2.24,2.24,0,0,1-1-1.94c.08-.77,1.26-1.43,1-2.19s-1.65-.85-2.13-1.22a3.91,3.91,0,0,1-1.56-3.07c0-1.63.86-3,1.36-4.42a1.57,1.57,0,0,0,1.52,1.48,1.33,1.33,0,0,0,.45-.08,6.12,6.12,0,0,0,5.19,4.56v.75a1.53,1.53,0,0,0,.21.79A7.07,7.07,0,0,0,77.13,30.88Z" style="fill:#50453f"/><path d="M77.51,96.72c-1.81.39-4.32.8-5.42-1.12a2.45,2.45,0,0,1,0-1.38s.51,2.2,5.1,1.38A13.56,13.56,0,0,0,79,95.2a18.18,18.18,0,0,0,2.41-.9,2.37,2.37,0,0,0,0,1.27A23.29,23.29,0,0,1,77.51,96.72Z" style="fill:#5b5655"/><path d="M72,53.15a3.45,3.45,0,0,0,3.26-.8c.26,1-.32,1.17-.32,1.17l-4.84,1.95c-1.2.5-1.57-1.07-1.57-1.07l-3.59-8.87c-1.32-2.75,0-3.07,0-3.07l4.72-2c1-.47,1.64.78,1.64.78L73,45.93h0l.3.85.64,1.51S72,50.75,69.39,50.57C69.39,50.57,68.17,52,72,53.15Z" style="fill:#82888e"/><path d="M77.6,23.12a13.11,13.11,0,0,0,4.26,0s.11,1.58-2.13,1.54C79.73,24.66,77.6,24.81,77.6,23.12Z" style="fill:none;stroke:#5e4e48;stroke-linecap:round;stroke-linejoin:round;stroke-width:0.300000011920929px"/><path d="M75.59,35.67s2.39,1.14,9.48,0" style="fill:none;stroke:#5e4e48;stroke-linecap:round;stroke-linejoin:round;stroke-width:0.5px"/><line x1="91.29" y1="33.81" x2="90.44" y2="34.5" style="fill:none;stroke:#5e4e48;stroke-linecap:round;stroke-linejoin:round;stroke-width:0.5px"/><path d="M75.77,38.93s7,.33,9.1-.36" style="fill:none;stroke:#5e4e48;stroke-linecap:round;stroke-linejoin:round;stroke-width:0.5px"/><path d="M90.23,37.61a6.63,6.63,0,0,0,2-1.23" style="fill:none;stroke:#5e4e48;stroke-linecap:round;stroke-linejoin:round;stroke-width:0.5px"/><path d="M76,42.32a17.61,17.61,0,0,0,8.36.13" style="fill:none;stroke:#5e4e48;stroke-linecap:round;stroke-linejoin:round;stroke-width:0.5px"/><path d="M89.07,42.07S92,41.3,93,39.59a0,0,0,0,0,0,0" style="fill:none;stroke:#5e4e48;stroke-linecap:round;stroke-linejoin:round;stroke-width:0.5px"/><path d="M86.67,46.45c.27-.05,4.74-.93,6.8-3.05" style="fill:none;stroke:#5e4e48;stroke-linecap:round;stroke-linejoin:round;stroke-width:0.5px"/><path d="M77.05,49.87s10.39,1.25,16.55-3.93" style="fill:none;stroke:#5e4e48;stroke-linecap:round;stroke-linejoin:round;stroke-width:0.5px"/><path d="M76.58,31.8s3.4,1.75,10.06-.67" style="fill:none;stroke:#5e4e48;stroke-linecap:round;stroke-linejoin:round;stroke-width:0.5px"/><path d="M81.63,53.15l0,1.64-.11,3.83a2.83,2.83,0,0,0,1.76,0" style="fill:none;stroke:#5e4e48;stroke-linecap:round;stroke-linejoin:round;stroke-width:0.5px"/><path d="M76.3,53.87s.48.17,1.3.38a20,20,0,0,0,4,.54,19.06,19.06,0,0,0,5.25-.48c.53-.13,1-.28,1.57-.45A16.61,16.61,0,0,0,91,52.72c.41-.22.81-.46,1.22-.72s.6-.4.89-.61" style="fill:none;stroke:#5e4e48;stroke-linecap:round;stroke-linejoin:round;stroke-width:0.5px"/><line x1="86.83" y1="52.54" x2="86.83" y2="54.31" style="fill:none;stroke:#5e4e48;stroke-linecap:round;stroke-linejoin:round;stroke-width:0.5px"/><line x1="88.4" y1="52.06" x2="88.4" y2="53.86" style="fill:none;stroke:#5e4e48;stroke-linecap:round;stroke-linejoin:round;stroke-width:0.5px"/><line x1="77.6" y1="54.24" x2="77.6" y2="52.65" style="fill:none;stroke:#5e4e48;stroke-linecap:round;stroke-linejoin:round;stroke-width:0.5px"/><line x1="91.96" y1="50.42" x2="92.25" y2="52" style="fill:none;stroke:#5e4e48;stroke-linecap:round;stroke-linejoin:round;stroke-width:0.5px"/><path d="M83.12,53.83a.4.4,0,0,1-.38.4.41.41,0,0,1-.4-.4.39.39,0,0,1,.4-.39A.38.38,0,0,1,83.12,53.83Z" style="fill:none;stroke:#5e4e48;stroke-linecap:round;stroke-linejoin:round;stroke-width:0.5px"/><line x1="91.03" y1="52.72" x2="94.77" y2="80.85" style="fill:none;stroke:#5e4e48;stroke-linecap:round;stroke-linejoin:round;stroke-width:0.5px"/><path d="M74.57,22.37a9.48,9.48,0,0,1-.22-1.11l-.2-2.06" style="fill:none;stroke:#5e4e48;stroke-linecap:round;stroke-linejoin:round;stroke-width:0.5px"/><path d="M83,26.3A5.92,5.92,0,0,1,81,27c-.2,0-.41,0-.6,0h-.49" style="fill:none;stroke:#5e4e48;stroke-linecap:round;stroke-linejoin:round;stroke-width:0.5px"/><line x1="74.15" y1="19.2" x2="74.14" y2="19.08" style="fill:none;stroke:#5e4e48;stroke-linecap:round;stroke-linejoin:round;stroke-width:0.5px"/><path d="M86.37,20.73a8.49,8.49,0,0,0,0-.87l-.22-2.08" style="fill:none;stroke:#5e4e48;stroke-linecap:round;stroke-linejoin:round;stroke-width:0.5px"/><path d="M74.57,22.37a6.12,6.12,0,0,0,5.19,4.56l.15,0" style="fill:none;stroke:#5e4e48;stroke-linecap:round;stroke-linejoin:round;stroke-width:0.5px"/><line x1="86.38" y1="17.78" x2="86.37" y2="17.67" style="fill:none;stroke:#5e4e48;stroke-linecap:round;stroke-linejoin:round;stroke-width:0.5px"/><line x1="86.37" y1="17.67" x2="86.31" y2="17.13" style="fill:none;stroke:#5e4e48;stroke-linecap:round;stroke-linejoin:round;stroke-width:0.5px"/><path d="M86.37,20.73a6.49,6.49,0,0,1-3.3,5.55l0,0" style="fill:none;stroke:#5e4e48;stroke-linecap:round;stroke-linejoin:round;stroke-width:0.5px"/><path d="M86.37,20.73a1.71,1.71,0,0,0,.5.1,1.52,1.52,0,0,0,1.4-1,1.65,1.65,0,0,0,.13-.63,1.59,1.59,0,0,0-1.53-1.63,1.39,1.39,0,0,0-.5.1" style="fill:none;stroke:#5e4e48;stroke-linecap:round;stroke-linejoin:round;stroke-width:0.5px"/><path d="M86.13,17.78a2.56,2.56,0,0,1,.24-.11" style="fill:none;stroke:#5e4e48;stroke-linecap:round;stroke-linejoin:round;stroke-width:0.5px"/><path d="M74.12,19.2h0" style="fill:none;stroke:#5e4e48;stroke-linecap:round;stroke-linejoin:round;stroke-width:0.5px"/><path d="M74.57,22.37a1.33,1.33,0,0,1-.45.08A1.57,1.57,0,0,1,72.6,21" style="fill:none;stroke:#5e4e48;stroke-linecap:round;stroke-linejoin:round;stroke-width:0.5px"/><path d="M72.89,19.88a1.68,1.68,0,0,0-.3.95s0,.09,0,.14" style="fill:none;stroke:#5e4e48;stroke-linecap:round;stroke-linejoin:round;stroke-width:0.5px"/><path d="M72.89,19.88a1.48,1.48,0,0,1,1.23-.68" style="fill:none;stroke:#5e4e48;stroke-linecap:round;stroke-linejoin:round;stroke-width:0.5px"/><path d="M74.14,19.08c0,.05,0,.08,0,.12" style="fill:none;stroke:#5e4e48;stroke-linecap:round;stroke-linejoin:round;stroke-width:0.5px"/><path d="M74.14,19.08a2.06,2.06,0,0,1,1-1.95c4.54-1.32,5.22-3.52,5.2-4.77" style="fill:none;stroke:#5e4e48;stroke-linecap:round;stroke-linejoin:round;stroke-width:0.5px"/><path d="M80.38,12.36c1.05,4.32,5.68,4.77,5.68,4.77" style="fill:none;stroke:#5e4e48;stroke-linecap:round;stroke-linejoin:round;stroke-width:0.5px"/><path d="M83.16,27.68V26.8a1.64,1.64,0,0,0-.08-.5" style="fill:none;stroke:#5e4e48;stroke-linecap:round;stroke-linejoin:round;stroke-width:0.5px"/><path d="M92,88a13.09,13.09,0,0,0,6-2.19v-3c0-3.16-3.79-25.38-4.84-31.44-.16-1-.26-1.52-.26-1.52" style="fill:none;stroke:#5e4e48;stroke-linecap:round;stroke-linejoin:round;stroke-width:0.5px"/><path d="M82.57,87.67a11.25,11.25,0,0,0-2.81.54,9.1,9.1,0,0,1-1.63.17" style="fill:none;stroke:#5e4e48;stroke-linecap:round;stroke-linejoin:round;stroke-width:0.5px"/><path d="M78.13,88.38a11.07,11.07,0,0,1-1.83-.13" style="fill:none;stroke:#5e4e48;stroke-linecap:round;stroke-linejoin:round;stroke-width:0.5px"/><path d="M76.51,52.35l-.21,1.52-.86,6.37L72,85.76a6.61,6.61,0,0,0,4.32,2.49" style="fill:none;stroke:#5e4e48;stroke-linecap:round;stroke-linejoin:round;stroke-width:0.5px"/><path d="M82.57,87.67a12,12,0,0,1,2.5.08,3.46,3.46,0,0,1,.47.09q1,.18,1.95.27A18.69,18.69,0,0,0,92,88" style="fill:none;stroke:#5e4e48;stroke-linecap:round;stroke-linejoin:round;stroke-width:0.5px"/><path d="M75.77,51.84a5,5,0,0,1-.53.51,3.45,3.45,0,0,1-3.26.8c-3.81-1.11-2.59-2.58-2.59-2.58,2.63.18,4.51-2.27,4.51-2.27l-.64-1.51" style="fill:none;stroke:#5e4e48;stroke-linecap:round;stroke-linejoin:round;stroke-width:0.5px"/><path d="M76.17,46.45c-.42.12-.85.23-1.31.34h-1.6" style="fill:none;stroke:#5e4e48;stroke-linecap:round;stroke-linejoin:round;stroke-width:0.5px"/><path d="M74.91,33.81a2.24,2.24,0,0,1-1-1.94c.08-.77,1.26-1.43,1-2.19s-1.65-.85-2.13-1.22a3.91,3.91,0,0,1-1.56-3.07c0-1.63.86-3,1.36-4.42" style="fill:none;stroke:#5e4e48;stroke-linecap:round;stroke-linejoin:round;stroke-width:0.5px"/><path d="M90.52,32.34h0" style="fill:none;stroke:#5e4e48;stroke-linecap:round;stroke-linejoin:round;stroke-width:0.5px"/><path d="M90.52,32.34c1.5-.49,4.12-1.59,3-3.4-.49-.85-4.81-2.63-3.29-4,.71-.63,1.76-1.72,1.17-2.75-.21-.36-.69-.43-.91-.78a1.68,1.68,0,0,1,0-1.45,2,2,0,0,0,.1-.26c1.24-3.78-3.77-9.41-3.77-9.41-3-4.37-6.25-1.36-6.25-1.36S76.27,5.57,73,12.67a4.6,4.6,0,0,0-.4,5.1,3.71,3.71,0,0,1,.3,2.11" style="fill:none;stroke:#5e4e48;stroke-linecap:round;stroke-linejoin:round;stroke-width:0.5px"/><path d="M90.12,32.4l.38-.11" style="fill:none;stroke:#5e4e48;stroke-linecap:round;stroke-linejoin:round;stroke-width:0.5px"/><path d="M90.12,32.4l-.05,0" style="fill:none;stroke:#5e4e48;stroke-linecap:round;stroke-linejoin:round;stroke-width:0.5px"/><path d="M83.16,27.68a1.69,1.69,0,0,1-3.19.79,1.53,1.53,0,0,1-.21-.79V27" style="fill:none;stroke:#5e4e48;stroke-linecap:round;stroke-linejoin:round;stroke-width:0.5px"/><path d="M77.13,30.88A7.07,7.07,0,0,1,80,28.47" style="fill:none;stroke:#5e4e48;stroke-linecap:round;stroke-linejoin:round;stroke-width:0.5px"/><path d="M76.17,46.45v-.27A38,38,0,0,0,76,42.32c-.11-1.33-.26-2.57-.36-3.38,0-.2,0-.37-.07-.51" style="fill:none;stroke:#5e4e48;stroke-linecap:round;stroke-linejoin:round;stroke-width:0.5px"/><path d="M77.13,30.88a8,8,0,0,0-.55.92,9.45,9.45,0,0,0-1.08,3.86,14.48,14.48,0,0,0,0,2.36s0,.16.06.41" style="fill:none;stroke:#5e4e48;stroke-linecap:round;stroke-linejoin:round;stroke-width:0.5px"/><path d="M83.16,27.68a8.75,8.75,0,0,1,7.34,4.61" style="fill:none;stroke:#5e4e48;stroke-linecap:round;stroke-linejoin:round;stroke-width:0.5px"/><path d="M75.77,51.84v.24s.26.11.75.26h0c.28.08.66.2,1.09.3a19.63,19.63,0,0,0,4,.5,19.4,19.4,0,0,0,5.2-.63c.51-.12,1-.28,1.57-.46A19.68,19.68,0,0,0,92,50.42c.31-.17.62-.35.92-.55l.66-.43s.1-1.41.06-3.5c0-.77-.06-1.62-.13-2.54-.09-1.2-.24-2.5-.47-3.81a29.31,29.31,0,0,0-.75-3.21,18.35,18.35,0,0,0-1-2.57,12,12,0,0,0-.77-1.47" style="fill:none;stroke:#5e4e48;stroke-linecap:round;stroke-linejoin:round;stroke-width:0.5px"/><path d="M90.52,32.34l0-.05" style="fill:none;stroke:#5e4e48;stroke-linecap:round;stroke-linejoin:round;stroke-width:0.5px"/><path d="M90.12,32.4a2.55,2.55,0,0,0-2.06-1.73,2,2,0,0,0-1.4.45h0a4.13,4.13,0,0,0-1.46,3l-.11,1.53-.2,2.9.67,0,4.1.29" style="fill:none;stroke:#5e4e48;stroke-linecap:round;stroke-linejoin:round;stroke-width:0.5px"/><path d="M90.12,32.4a4.63,4.63,0,0,1,.32,2.1l-.21,3.11-.09,1.32-.5,0" style="fill:none;stroke:#5e4e48;stroke-linecap:round;stroke-linejoin:round;stroke-width:0.5px"/><line x1="75.59" y1="38.43" x2="74.68" y2="38.21" style="fill:none;stroke:#5e4e48;stroke-linecap:round;stroke-linejoin:round;stroke-width:0.5px"/><polyline points="74.84 34.09 73.9 38.02 74.68 38.21" style="fill:none;stroke:#5e4e48;stroke-linecap:round;stroke-linejoin:round;stroke-width:0.5px"/><line x1="74.91" y1="33.81" x2="74.84" y2="34.09" style="fill:none;stroke:#5e4e48;stroke-linecap:round;stroke-linejoin:round;stroke-width:0.5px"/><path d="M77.13,30.88a4,4,0,0,0-2.2,2.83l0,.1" style="fill:none;stroke:#5e4e48;stroke-linecap:round;stroke-linejoin:round;stroke-width:0.5px"/><path d="M89.64,38.9a26.08,26.08,0,0,1-.57,3.17c-.81,3.13-1.9,3.87-1.9,3.87a4.81,4.81,0,0,1-.5.51h0C83,50,77.05,49.87,77.05,49.87a7.62,7.62,0,0,1-1.28,2" style="fill:none;stroke:#5e4e48;stroke-linecap:round;stroke-linejoin:round;stroke-width:0.5px"/><path d="M85.54,38.61,85,41.8a4.62,4.62,0,0,1-.59.65h0c-1,.93-3.33,2.64-8.21,4" style="fill:none;stroke:#5e4e48;stroke-linecap:round;stroke-linejoin:round;stroke-width:0.5px"/><path d="M73,45.93,71.28,41.2s-.63-1.25-1.64-.78l-4.72,2s-1.32.32,0,3.07l3.59,8.87s.37,1.57,1.57,1.07l4.84-1.95s.58-.13.32-1.17" style="fill:none;stroke:#5e4e48;stroke-linecap:round;stroke-linejoin:round;stroke-width:0.5px"/><line x1="73.26" y1="46.79" x2="72.96" y2="45.94" style="fill:none;stroke:#5e4e48;stroke-linecap:round;stroke-linejoin:round;stroke-width:0.5px"/><polyline points="74.68 38.21 72.95 45.93 72.95 45.94" style="fill:none;stroke:#5e4e48;stroke-linecap:round;stroke-linejoin:round;stroke-width:0.5px"/><line x1="76.3" y1="88.25" x2="78.55" y2="60.66" style="fill:none;stroke:#5e4e48;stroke-linecap:round;stroke-linejoin:round;stroke-width:0.5px"/><line x1="85.07" y1="87.75" x2="84.98" y2="62.27" style="fill:none;stroke:#5e4e48;stroke-linecap:round;stroke-linejoin:round;stroke-width:0.5px"/><line x1="91.96" y1="88.04" x2="90.31" y2="69.13" style="fill:none;stroke:#5e4e48;stroke-linecap:round;stroke-linejoin:round;stroke-width:0.5px"/><line x1="91.96" y1="89.29" x2="91.96" y2="88.04" style="fill:none;stroke:#5e4e48;stroke-linecap:round;stroke-linejoin:round;stroke-width:0.5px"/><path d="M87.49,90.47a4.21,4.21,0,0,0,.73.16" style="fill:none;stroke:#5e4e48;stroke-linecap:round;stroke-linejoin:round;stroke-width:0.5px"/><path d="M88.22,90.63A4,4,0,0,0,92,89.29" style="fill:none;stroke:#5e4e48;stroke-linecap:round;stroke-linejoin:round;stroke-width:0.5px"/><line x1="87.49" y1="90.47" x2="87.49" y2="88.11" style="fill:none;stroke:#5e4e48;stroke-linecap:round;stroke-linejoin:round;stroke-width:0.5px"/><polyline points="87.49 90.47 86.66 90.47 86.07 91.88" style="fill:none;stroke:#5e4e48;stroke-linecap:round;stroke-linejoin:round;stroke-width:0.5px"/><path d="M88.94,91.7l.39-.43a5,5,0,0,0-1.11-.64" style="fill:none;stroke:#5e4e48;stroke-linecap:round;stroke-linejoin:round;stroke-width:0.5px"/><path d="M87.49,90.47a2.13,2.13,0,0,1,.73.16" style="fill:none;stroke:#5e4e48;stroke-linecap:round;stroke-linejoin:round;stroke-width:0.5px"/><path d="M87.88,92.93c-1.11-1.36-1.7-1.11-1.81-1.05a0,0,0,0,1,0,0" style="fill:none;stroke:#5e4e48;stroke-linecap:round;stroke-linejoin:round;stroke-width:0.5px"/><line x1="88.94" y1="91.7" x2="87.88" y2="92.93" style="fill:none;stroke:#5e4e48;stroke-linecap:round;stroke-linejoin:round;stroke-width:0.5px"/><path d="M81.44,94.3a.24.24,0,0,1,0-.08" style="fill:none;stroke:#5e4e48;stroke-linecap:round;stroke-linejoin:round;stroke-width:0.5px"/><path d="M81.44,94.3a2.37,2.37,0,0,0,0,1.27" style="fill:none;stroke:#5e4e48;stroke-linecap:round;stroke-linejoin:round;stroke-width:0.5px"/><path d="M93.57,92.65a10.4,10.4,0,0,1,0,1.19c-1.78,1.73-4.31,2.36-6.66,2.88-1.81.39-4.32.8-5.41-1.12,0,0,0,0,0,0" style="fill:none;stroke:#5e4e48;stroke-linecap:round;stroke-linejoin:round;stroke-width:0.5px"/><path d="M84.19,92.09c-1.24.27-2.66.83-2.72,2.13" style="fill:none;stroke:#5e4e48;stroke-linecap:round;stroke-linejoin:round;stroke-width:0.5px"/><path d="M92.9,89.68a5.26,5.26,0,0,1,.67,3" style="fill:none;stroke:#5e4e48;stroke-linecap:round;stroke-linejoin:round;stroke-width:0.5px"/><path d="M92,89.29a1,1,0,0,1,.94.38" style="fill:none;stroke:#5e4e48;stroke-linecap:round;stroke-linejoin:round;stroke-width:0.5px"/><path d="M84.19,92.09a10.6,10.6,0,0,1,1.87-.2" style="fill:none;stroke:#5e4e48;stroke-linecap:round;stroke-linejoin:round;stroke-width:0.5px"/><path d="M82.25,95.19a1.82,1.82,0,0,1-.76-.91" style="fill:none;stroke:#5e4e48;stroke-linecap:round;stroke-linejoin:round;stroke-width:0.5px"/><path d="M88.4,95.2a15.53,15.53,0,0,0,5.17-2.55" style="fill:none;stroke:#5e4e48;stroke-linecap:round;stroke-linejoin:round;stroke-width:0.5px"/><path d="M88.4,95.2a13.56,13.56,0,0,1-1.84.4c-2.35.42-3.62.05-4.31-.41" style="fill:none;stroke:#5e4e48;stroke-linecap:round;stroke-linejoin:round;stroke-width:0.5px"/><path d="M81.47,94.22a.15.15,0,0,0,0,.06" style="fill:none;stroke:#5e4e48;stroke-linecap:round;stroke-linejoin:round;stroke-width:0.5px"/><path d="M88.4,95.2a3.55,3.55,0,0,0-.52-2.27" style="fill:none;stroke:#5e4e48;stroke-linecap:round;stroke-linejoin:round;stroke-width:0.5px"/><path d="M88.94,91.7a4.92,4.92,0,0,0,4-2h0" style="fill:none;stroke:#5e4e48;stroke-linecap:round;stroke-linejoin:round;stroke-width:0.5px"/><polyline points="82.6 89.29 82.6 88.04 82.57 87.67" style="fill:none;stroke:#5e4e48;stroke-linecap:round;stroke-linejoin:round;stroke-width:0.5px"/><path d="M82.6,89.29a4,4,0,0,1-3.76,1.34" style="fill:none;stroke:#5e4e48;stroke-linecap:round;stroke-linejoin:round;stroke-width:0.5px"/><path d="M78.13,90.47a3.94,3.94,0,0,0,.71.16" style="fill:none;stroke:#5e4e48;stroke-linecap:round;stroke-linejoin:round;stroke-width:0.5px"/><line x1="78.13" y1="88.38" x2="78.13" y2="90.47" style="fill:none;stroke:#5e4e48;stroke-linecap:round;stroke-linejoin:round;stroke-width:0.5px"/><path d="M78.52,92.93c-1.13-1.36-1.72-1.11-1.82-1.05" style="fill:none;stroke:#5e4e48;stroke-linecap:round;stroke-linejoin:round;stroke-width:0.5px"/><path d="M79.57,91.7l.39-.43a4.66,4.66,0,0,0-1.12-.64" style="fill:none;stroke:#5e4e48;stroke-linecap:round;stroke-linejoin:round;stroke-width:0.5px"/><line x1="79.57" y1="91.7" x2="78.52" y2="92.93" style="fill:none;stroke:#5e4e48;stroke-linecap:round;stroke-linejoin:round;stroke-width:0.5px"/><path d="M78.13,90.47a2,2,0,0,1,.71.16" style="fill:none;stroke:#5e4e48;stroke-linecap:round;stroke-linejoin:round;stroke-width:0.5px"/><polyline points="78.13 90.47 77.3 90.47 76.7 91.88 76.69 91.89" style="fill:none;stroke:#5e4e48;stroke-linecap:round;stroke-linejoin:round;stroke-width:0.5px"/><path d="M72.09,94.22c.13-2.33,4.6-2.33,4.6-2.33" style="fill:none;stroke:#5e4e48;stroke-linecap:round;stroke-linejoin:round;stroke-width:0.5px"/><path d="M82.6,89.29a1,1,0,0,1,.93.38,4.37,4.37,0,0,1,.66,2.42" style="fill:none;stroke:#5e4e48;stroke-linecap:round;stroke-linejoin:round;stroke-width:0.5px"/><path d="M72.09,94.22a2.45,2.45,0,0,0,0,1.38c1.1,1.92,3.61,1.51,5.42,1.12a23.29,23.29,0,0,0,3.94-1.15" style="fill:none;stroke:#5e4e48;stroke-linecap:round;stroke-linejoin:round;stroke-width:0.5px"/><path d="M79,95.2a18.18,18.18,0,0,0,2.41-.9" style="fill:none;stroke:#5e4e48;stroke-linecap:round;stroke-linejoin:round;stroke-width:0.5px"/><path d="M81.44,94.3l0,0" style="fill:none;stroke:#5e4e48;stroke-linecap:round;stroke-linejoin:round;stroke-width:0.5px"/><path d="M79,95.2a13.56,13.56,0,0,1-1.84.4c-4.59.82-5.1-1.38-5.1-1.38" style="fill:none;stroke:#5e4e48;stroke-linecap:round;stroke-linejoin:round;stroke-width:0.5px"/><path d="M79,95.2a3.57,3.57,0,0,0-.51-2.27" style="fill:none;stroke:#5e4e48;stroke-linecap:round;stroke-linejoin:round;stroke-width:0.5px"/><path d="M79.57,91.7a4.91,4.91,0,0,0,4-2" style="fill:none;stroke:#5e4e48;stroke-linecap:round;stroke-linejoin:round;stroke-width:0.5px"/><path d="M69.93,43.52h0a.52.52,0,0,1-.37-.19.52.52,0,0,1-.14-.39.56.56,0,0,1,.59-.51.55.55,0,0,1,.5.59.55.55,0,0,1-.54.5Zm0-.79a.25.25,0,0,0-.25.23.25.25,0,0,0,.23.26.3.3,0,0,0,.18-.06.21.21,0,0,0,.08-.17.25.25,0,0,0-.23-.26Z" style="fill:#5e4e48"/><path d="M70.36,44.29h0a.37.37,0,0,1-.24-.12A.34.34,0,0,1,70,43.9a.35.35,0,0,1,.39-.34.36.36,0,0,1,.33.39.33.33,0,0,1-.12.25A.36.36,0,0,1,70.36,44.29Zm0-.43a.06.06,0,0,0-.06.06s0,0,0,0a.06.06,0,0,0,0,0l0,0s0,0,0,0a.08.08,0,0,0-.07-.07Z" style="fill:#5e4e48"/><path d="M70.28,44.87a.78.78,0,0,1-.71-.49l-.49-1.31a.69.69,0,0,1,0-.58.72.72,0,0,1,.42-.4l.19-.07a.75.75,0,0,1,1,.44l.5,1.31a.76.76,0,0,1-.44,1h0l-.19.07A.86.86,0,0,1,70.28,44.87Zm.4-.26h0ZM70,42.27a.45.45,0,0,0-.16,0l-.19.07a.45.45,0,0,0-.25.24.43.43,0,0,0,0,.35l.49,1.31a.46.46,0,0,0,.59.27l.19-.07a.46.46,0,0,0,.27-.59l-.5-1.31a.44.44,0,0,0-.24-.26A.41.41,0,0,0,70,42.27Z" style="fill:#5e4e48"/><ellipse cx="84.88" cy="21.71" rx="1.49" ry="0.74" transform="translate(-2.13 11.47) rotate(-7.63)" style="fill:#eca390"/><path d="M84.6,22.62c-.73,0-1.28-.27-1.34-.7a.78.78,0,0,1,.43-.72,2.56,2.56,0,0,1,1.07-.38c.92-.12,1.68.17,1.75.67h0c.06.5-.6,1-1.51,1.1Zm.57-1.53-.37,0a2.37,2.37,0,0,0-1,.33c-.2.14-.31.3-.29.44s.62.51,1.4.41,1.29-.49,1.25-.77h0C86.18,21.3,85.76,21.09,85.17,21.09Z" style="fill:#5e4e48"/><ellipse cx="74.84" cy="22.37" rx="1.49" ry="0.74" transform="translate(-1.47 5.68) rotate(-4.3)" style="fill:#eca390"/><path d="M74.68,23.27c-.81,0-1.44-.32-1.47-.77s.65-.95,1.57-1a2.53,2.53,0,0,1,1.13.15.78.78,0,0,1,.57.62c0,.5-.65.95-1.57,1Zm.33-1.5H74.8c-.79.06-1.31.41-1.29.69s.59.56,1.38.5,1.31-.42,1.29-.7c0-.13-.15-.27-.38-.36A2.1,2.1,0,0,0,75,21.77Z" style="fill:#5e4e48"/><path d="M69.9,52.06h-.43a.21.21,0,0,1-.18-.22.2.2,0,0,1,.22-.18s2.58.23,3.84-1.35a.2.2,0,0,1,.28,0,.19.19,0,0,1,0,.28A4.83,4.83,0,0,1,69.9,52.06Z" style="fill:#5e4e48"/><path d="M71,52.93h-.27a.2.2,0,0,1-.18-.22.19.19,0,0,1,.22-.18,4.13,4.13,0,0,0,3.39-1.43.2.2,0,0,1,.32.25A4.38,4.38,0,0,1,71,52.93Z" style="fill:#5e4e48"/><path d="M72.43,53.44a.2.2,0,0,1-.05-.39s1.84-.49,2.36-1.31a.21.21,0,0,1,.28-.06.2.2,0,0,1,.06.27c-.6,1-2.52,1.46-2.6,1.49Z" style="fill:#5e4e48"/><path d="M73.9,67.36H69a.25.25,0,0,1-.25-.25.26.26,0,0,1,.25-.25H73.9a.25.25,0,0,1,.25.25A.25.25,0,0,1,73.9,67.36Z" style="fill:#514643"/><path d="M72.43,68.06H68.75a.25.25,0,0,1-.25-.25.26.26,0,0,1,.25-.25h3.68a.25.25,0,0,1,.25.25A.25.25,0,0,1,72.43,68.06Z" style="fill:#514643"/><circle cx="13.35" cy="69.23" r="4.03" style="fill:none;stroke:#fff;stroke-linecap:round;stroke-linejoin:round;stroke-width:0.5px"/><circle cx="20.09" cy="58.73" r="2.01" style="fill:none;stroke:#fff;stroke-linecap:round;stroke-linejoin:round;stroke-width:0.5px"/><path d="M116.56,87.3h-8.21a.25.25,0,0,1,0-.5h8.21a.25.25,0,0,1,0,.5Z" style="fill:#999"/><path d="M106.43,47.9a7.34,7.34,0,0,1-.81,0,6.5,6.5,0,1,1,.81,0Zm0-12.49a6,6,0,0,0-5.93,5.25,6,6,0,1,0,6.69-5.2A6.33,6.33,0,0,0,106.41,35.41Z" style="fill:#fff"/><path d="M100.48,36.06l-.42,0a3.39,3.39,0,0,1-2.94-3.77,3.38,3.38,0,1,1,3.36,3.8Zm0-6.26a2.88,2.88,0,0,0-2.27,4.65,2.85,2.85,0,0,0,1.92,1.08,2.88,2.88,0,1,0,.71-5.71Z" style="fill:#fff"/><path d="M57.17,60.91a.25.25,0,0,1-.08-.48l6.16-2.22a.25.25,0,0,1,.17.48L57.26,60.9Z" style="fill:#3c3d3d"/><path d="M57.68,62.33a.23.23,0,0,1-.23-.17.25.25,0,0,1,.15-.32l6.16-2.21a.25.25,0,0,1,.32.15.25.25,0,0,1-.15.32l-6.16,2.22Z" style="fill:#3c3d3d"/><path d="M58.15,63.62a.26.26,0,0,1-.24-.16.26.26,0,0,1,.15-.32l6.17-2.21a.25.25,0,0,1,.32.15.26.26,0,0,1-.15.32l-6.17,2.21Z" style="fill:#3c3d3d"/><ellipse cx="44.63" cy="38.6" rx="1.09" ry="0.74" transform="translate(-10.32 17.11) rotate(-19.5)" style="fill:#e59f8d"/><path d="M44.37,39.51a.87.87,0,0,1-.89-.51.78.78,0,0,1,.14-.72,1.64,1.64,0,0,1,1.59-.56.77.77,0,0,1,.57.47c.16.46-.22,1-.86,1.23A1.86,1.86,0,0,1,44.37,39.51Zm.51-1.58a1.54,1.54,0,0,0-.46.08,1.33,1.33,0,0,0-.6.42.55.55,0,0,0-.11.49c.12.32.63.44,1.12.26s.82-.59.71-.91a.55.55,0,0,0-.39-.31A1.12,1.12,0,0,0,44.88,37.93Z" style="fill:#254254"/><ellipse cx="36.22" cy="41.57" rx="1.49" ry="0.74" transform="translate(-9.37 10.56) rotate(-14.71)" style="fill:#e59f8d"/><path d="M35.72,42.51a1.73,1.73,0,0,1-.41,0A.66.66,0,0,1,35,41.24a2.73,2.73,0,0,1,2.15-.56.77.77,0,0,1,.65.48.79.79,0,0,1-.33.75,2.46,2.46,0,0,1-1,.5A2.66,2.66,0,0,1,35.72,42.51Zm1-1.62a2.61,2.61,0,0,0-.66.09,2.1,2.1,0,0,0-.91.45c-.2.17-.29.35-.25.49s.2.25.46.31a2.59,2.59,0,0,0,1.93-.51.57.57,0,0,0,.25-.49.56.56,0,0,0-.46-.31A2.1,2.1,0,0,0,36.72,40.89Z" style="fill:#254254"/></svg>